<svg id="Layer_1" enable-background="new 0 0 512 512" height="512" viewBox="0 0 512 512" width="512" xmlns="http://www.w3.org/2000/svg" xmlns:xlink="http://www.w3.org/1999/xlink"><linearGradient id="lg1"><stop offset="0" stop-color="#364aff"/><stop offset="1" stop-color="#fc54ff"/></linearGradient><linearGradient id="SVGID_1_" gradientUnits="userSpaceOnUse" x1="74.981" x2="437.02" xlink:href="#lg1" y1="437.019" y2="74.98"/><radialGradient id="SVGID_2_" cx="256.001" cy="256" gradientUnits="userSpaceOnUse" r="258.6"><stop offset="0" stop-color="#8d00db" stop-opacity=".66"/><stop offset=".2069" stop-color="#9f0de1" stop-opacity=".523"/><stop offset=".6178" stop-color="#cc30f0" stop-opacity=".252"/><stop offset="1" stop-color="#fc54ff" stop-opacity="0"/></radialGradient><linearGradient id="lg2"><stop offset="0" stop-color="#fc54ff"/><stop offset=".4062" stop-color="#fd9bff"/><stop offset="1" stop-color="#fff"/></linearGradient><linearGradient id="SVGID_3_" gradientUnits="userSpaceOnUse" x1="-23.903" x2="481.6" xlink:href="#lg2" y1="696.1" y2="194.509"/><linearGradient id="SVGID_4_" gradientUnits="userSpaceOnUse" x1="-287.821" x2="499.238" xlink:href="#lg2" y1="666.649" y2="-120.41"/><linearGradient id="SVGID_5_" gradientUnits="userSpaceOnUse" x1="-183.904" x2="479.586" xlink:href="#lg2" y1="725.495" y2="62.004"/><linearGradient id="SVGID_6_" gradientUnits="userSpaceOnUse" x1="66.872" x2="155.387" xlink:href="#lg2" y1="353.665" y2="265.15"/><linearGradient id="SVGID_7_" gradientUnits="userSpaceOnUse" x1="52.499" x2="147.584" xlink:href="#lg2" y1="217.056" y2="121.971"/><linearGradient id="SVGID_8_" gradientUnits="userSpaceOnUse" x1="364.487" x2="459.575" xlink:href="#lg2" y1="389.958" y2="294.87"/><linearGradient id="SVGID_9_" gradientUnits="userSpaceOnUse" x1="362.605" x2="451.119" xlink:href="#lg2" y1="240.858" y2="152.344"/><linearGradient id="SVGID_10_" gradientUnits="userSpaceOnUse" x1="90.299" x2="379.473" xlink:href="#lg1" y1="521.162" y2="231.988"/><linearGradient id="SVGID_11_" gradientUnits="userSpaceOnUse" x1="205.211" x2="387.775" xlink:href="#lg1" y1="406.249" y2="223.685"/><linearGradient id="lg3"><stop offset="0" stop-color="#fc54ff" stop-opacity="0"/><stop offset=".1751" stop-color="#f751fe" stop-opacity=".116"/><stop offset=".3702" stop-color="#ea46f9" stop-opacity=".244"/><stop offset=".5749" stop-color="#d436f2" stop-opacity=".379"/><stop offset=".7862" stop-color="#b51ee8" stop-opacity=".519"/><stop offset="1" stop-color="#8d00db" stop-opacity=".66"/></linearGradient><radialGradient id="SVGID_12_" cx="355.938" cy="256" gradientUnits="userSpaceOnUse" r="64.443" xlink:href="#lg3"/><linearGradient id="SVGID_13_" gradientUnits="userSpaceOnUse" x1="-15.534" x2="195.198" xlink:href="#lg1" y1="428.073" y2="217.34"/><linearGradient id="SVGID_14_" gradientUnits="userSpaceOnUse" x1="49.903" x2="198.677" xlink:href="#lg1" y1="362.638" y2="213.864"/><radialGradient id="SVGID_15_" cx="156.063" cy="256" gradientUnits="userSpaceOnUse" r="64.443" xlink:href="#lg3"/><g><circle cx="256" cy="256" fill="url(#SVGID_1_)" r="256"/><circle cx="256" cy="256" fill="url(#SVGID_2_)" r="256"/><path d="m421 150.254c-5-.114-10-.223-15-.326 5 70.715 5 141.429 0 212.144 5-.104 10-.212 15-.326 16.517-.398 31.256-14.203 32.388-30.746 3.316-50 3.316-100 0-150-1.132-16.542-15.871-30.346-32.388-30.746z" fill="url(#SVGID_3_)"/><path d="m91 150.254c-16.517.399-31.256 14.203-32.388 30.746-3.316 50-3.316 100 0 150 1.132 16.542 15.871 30.348 32.388 30.746 25 .57 50 1.01 75 1.32-3-71.377-3-142.755 0-214.132-25 .311-50 .751-75 1.32z" fill="url(#SVGID_4_)"/><path d="m406 149.928c-80-1.657-160-1.988-240-.994-16.519.219-30.758 14.089-31.469 30.901-2.041 50.777-2.041 101.553 0 152.33.712 16.809 14.95 30.684 31.469 30.901 1.972.024 3.944.048 5.917.071 15.034.18 28.832-7.399 37.04-20.173 7.631-11.895 15.41-23.816 23.272-35.752 5.256-7.981 14.195-12.774 23.771-12.775 9.576.001 18.515 4.794 23.771 12.775 7.862 11.936 15.641 23.857 23.272 35.752 8.208 12.773 22.006 20.353 37.04 20.173 21.972-.255 43.944-.61 65.917-1.065 16.517-.363 31.156-14.188 32.204-30.794 3.061-50.185 3.061-100.37 0-150.555-1.048-16.606-15.687-30.432-32.204-30.795z" fill="url(#SVGID_5_)"/><path d="m73.796 331.277c.514 8.309 7.781 15.194 16.11 15.362 8.331.165 14.67-6.5 14.258-14.874-.417-8.374-7.51-15.237-15.941-15.339-8.43-.103-14.943 6.543-14.427 14.851z" fill="url(#SVGID_6_)"/><path d="m73.796 180.723c-.516 8.308 5.998 14.955 14.426 14.851 8.431-.104 15.524-6.966 15.941-15.339.413-8.371-5.927-15.041-14.258-14.874-8.327.168-15.595 7.053-16.109 15.362z" fill="url(#SVGID_7_)"/><path d="m407.837 331.766c-.412 8.375 5.927 15.04 14.258 14.874 8.328-.169 15.595-7.053 16.11-15.362.516-8.309-5.998-14.954-14.426-14.851-8.432.102-15.525 6.964-15.942 15.339z" fill="url(#SVGID_8_)"/><path d="m407.837 180.234c.417 8.373 7.51 15.238 15.941 15.339 8.428.103 14.942-6.543 14.426-14.851-.515-8.307-7.782-15.195-16.11-15.362-8.331-.166-14.67 6.502-14.257 14.874z" fill="url(#SVGID_9_)"/><path d="m409.75 256c-.027 29.231-24.971 53.243-54.422 53.484-29.472.22-53.155-23.791-53.203-53.484.048-29.695 23.731-53.707 53.203-53.484 29.451.243 54.395 24.252 54.422 53.484z" fill="url(#SVGID_10_)"/><path d="m371.183 278.875c-29.66.127-53.559-23.883-53.806-53.554-.02-2.517.144-4.99.455-7.413-9.688 9.697-15.708 23.182-15.708 38.092.048 29.693 23.731 53.707 53.203 53.484 26.961-.208 50.1-20.369 53.881-46.159-9.778 9.531-23.256 15.499-38.025 15.55z" fill="url(#SVGID_11_)"/><path d="m409.75 256c-.027 29.231-24.971 53.243-54.422 53.484-29.472.22-53.155-23.791-53.203-53.484.048-29.695 23.731-53.707 53.203-53.484 29.451.243 54.395 24.252 54.422 53.484z" fill="url(#SVGID_12_)"/><path d="m209.875 256c-.048 29.693-23.731 53.707-53.203 53.484-29.451-.242-54.395-24.253-54.422-53.484.027-29.232 24.971-53.242 54.422-53.484 29.472-.221 53.155 23.789 53.203 53.484z" fill="url(#SVGID_13_)"/><path d="m171.532 278.962c-29.639-.114-54.174-24.032-53.632-53.352.045-2.494.282-4.944.671-7.348-10.005 9.701-16.325 23.031-16.321 37.739.027 29.231 24.971 53.243 54.422 53.484 26.982.199 49.062-19.885 52.686-46.063-9.715 9.644-23.052 15.577-37.826 15.54z" fill="url(#SVGID_14_)"/><path d="m209.875 256c-.048 29.693-23.731 53.707-53.203 53.484-29.451-.242-54.395-24.253-54.422-53.484.027-29.232 24.971-53.242 54.422-53.484 29.472-.221 53.155 23.789 53.203 53.484z" fill="url(#SVGID_15_)"/></g></svg>