<svg id="Layer_1" enable-background="new 0 0 512 512" height="512" viewBox="0 0 512 512" width="512" xmlns="http://www.w3.org/2000/svg" xmlns:xlink="http://www.w3.org/1999/xlink"><linearGradient id="SVGID_1_" gradientUnits="userSpaceOnUse" x1="74.98" x2="437.019" y1="437.019" y2="74.98"><stop offset="0" stop-color="#ff4747"/><stop offset="1" stop-color="#fff200"/></linearGradient><radialGradient id="SVGID_2_" cx="256" cy="256" gradientUnits="userSpaceOnUse" r="256"><stop offset="0" stop-color="#ff4747" stop-opacity=".8"/><stop offset=".07" stop-color="#ff564b" stop-opacity=".744"/><stop offset=".5253" stop-color="#ffad63" stop-opacity=".38"/><stop offset=".8456" stop-color="#ffe572" stop-opacity=".124"/><stop offset="1" stop-color="#fffa78" stop-opacity="0"/></radialGradient><linearGradient id="lg1"><stop offset="0" stop-color="#ffcb00"/><stop offset="1" stop-color="#fffa78"/></linearGradient><linearGradient id="SVGID_3_" gradientUnits="userSpaceOnUse" x1="71.227" x2="568.209" xlink:href="#lg1" y1="351.811" y2="-145.171"/><linearGradient id="SVGID_4_" gradientUnits="userSpaceOnUse" x1="256" x2="256" y1="162.402" y2="96.237"><stop offset="0" stop-color="#ff8c00" stop-opacity=".8"/><stop offset=".0506" stop-color="#ff960b" stop-opacity=".76"/><stop offset=".2514" stop-color="#ffba32" stop-opacity=".599"/><stop offset=".4501" stop-color="#ffd651" stop-opacity=".44"/><stop offset=".6437" stop-color="#ffea66" stop-opacity=".285"/><stop offset=".8298" stop-color="#fff674" stop-opacity=".136"/><stop offset="1" stop-color="#fffa78" stop-opacity="0"/></linearGradient><linearGradient id="lg2"><stop offset="0" stop-color="#ff4d4d"/><stop offset=".1663" stop-color="#ff5b44"/><stop offset=".483" stop-color="#ff812d"/><stop offset=".914" stop-color="#ffbe08"/><stop offset="1" stop-color="#ffcb00"/></linearGradient><linearGradient id="SVGID_5_" gradientUnits="userSpaceOnUse" x1="354.246" x2="517.65" xlink:href="#lg2" y1="375.137" y2="211.733"/><linearGradient id="SVGID_6_" gradientUnits="userSpaceOnUse" x1="189.805" x2="528.555" xlink:href="#lg2" y1="517.353" y2="178.603"/><linearGradient id="SVGID_7_" gradientTransform="matrix(-1 0 0 1 512 0)" gradientUnits="userSpaceOnUse" x1="607.822" x2="375.308" xlink:href="#lg2" y1="426.406" y2="193.892"/><linearGradient id="SVGID_8_" gradientTransform="matrix(-1 0 0 1 512 0)" gradientUnits="userSpaceOnUse" x1="740.208" x2="401.457" xlink:href="#lg2" y1="530.051" y2="191.299"/><linearGradient id="SVGID_9_" gradientUnits="userSpaceOnUse" x1="-384.158" x2="451.56" xlink:href="#lg1" y1="1052.938" y2="217.221"/><linearGradient id="SVGID_10_" gradientUnits="userSpaceOnUse" x1="49.443" x2="287.466" xlink:href="#lg1" y1="336.198" y2="98.174"/><linearGradient id="SVGID_11_" gradientUnits="userSpaceOnUse" x1="-158.821" x2="582.747" xlink:href="#lg1" y1="692.822" y2="-48.746"/><linearGradient id="SVGID_12_" gradientUnits="userSpaceOnUse" x1=".588" x2="305.879" xlink:href="#lg2" y1="435.119" y2="129.827"/><linearGradient id="SVGID_13_" gradientUnits="userSpaceOnUse" x1="167.754" x2="474.455" xlink:href="#lg2" y1="435.91" y2="129.209"/><linearGradient id="lg3"><stop offset="0" stop-color="#ff4747" stop-opacity=".8"/><stop offset=".1138" stop-color="#ff4e49" stop-opacity=".709"/><stop offset=".2736" stop-color="#ff604e" stop-opacity=".581"/><stop offset=".4607" stop-color="#ff7e56" stop-opacity=".432"/><stop offset=".6685" stop-color="#ffa862" stop-opacity=".265"/><stop offset=".8907" stop-color="#ffdd70" stop-opacity=".088"/><stop offset="1" stop-color="#fffa78" stop-opacity="0"/></linearGradient><radialGradient id="SVGID_14_" cx="340.538" cy="263.822" gradientUnits="userSpaceOnUse" r="76.73" xlink:href="#lg3"/><linearGradient id="lg4"><stop offset="0" stop-color="#fffa78"/><stop offset="1" stop-color="#fff"/></linearGradient><linearGradient id="SVGID_15_" gradientUnits="userSpaceOnUse" x1="266.446" x2="393.679" xlink:href="#lg4" y1="337.663" y2="210.43"/><linearGradient id="lg5"><stop offset="0" stop-color="#fff200"/><stop offset="1" stop-color="#fff"/></linearGradient><linearGradient id="SVGID_16_" gradientUnits="userSpaceOnUse" x1="284.307" x2="400.156" xlink:href="#lg5" y1="319.803" y2="203.954"/><radialGradient id="SVGID_17_" cx="171.462" cy="263.822" gradientUnits="userSpaceOnUse" r="76.73" xlink:href="#lg3"/><linearGradient id="SVGID_18_" gradientUnits="userSpaceOnUse" x1="98.113" x2="224.763" xlink:href="#lg4" y1="337.324" y2="210.674"/><linearGradient id="SVGID_19_" gradientUnits="userSpaceOnUse" x1="115.964" x2="230.932" xlink:href="#lg5" y1="319.476" y2="204.509"/><g><circle cx="256" cy="256" fill="url(#SVGID_1_)" r="256"/><circle cx="256" cy="256" fill="url(#SVGID_2_)" r="256"/><path d="m353.5 110.803c-65-.905-130-.905-195 0-16.531.242-30.622 14.148-31.259 30.974-.735 20.328-1.259 40.656-1.574 60.984 86.889-.515 173.778-.515 260.667 0-.315-20.328-.84-40.656-1.574-60.984-.638-16.827-14.729-30.733-31.26-30.974z" fill="url(#SVGID_3_)"/><path d="m353.5 110.803c-65-.905-130-.905-195 0-16.531.242-30.622 14.148-31.259 30.974-.735 20.328-1.259 40.656-1.574 60.984 86.889-.515 173.778-.515 260.667 0-.315-20.328-.84-40.656-1.574-60.984-.638-16.827-14.729-30.733-31.26-30.974z" fill="url(#SVGID_4_)"/><path d="m417.389 263.679c10.182 10.094 20.287 20.135 30.278 30.11-.188 8.343 6.448 15.023 14.896 14.911 8.445-.113 15.546-6.921 15.771-15.2.268-10 .448-20 .537-30-20.494.069-40.988.129-61.482.179z" fill="url(#SVGID_5_)"/><path d="m463.312 218.4c-8.48-.06-15.244 6.662-15.183 15.003-10.208 5.002-20.442 10.037-30.692 15.096 10.25 5.06 20.484 10.094 30.692 15.096-.061 8.343 6.703 15.062 15.183 15.003 8.478-.058 15.483-6.821 15.558-15.1.09-10 .09-20 0-30-.074-8.277-7.08-15.039-15.558-15.098z" fill="url(#SVGID_6_)"/><path d="m94.611 263.679c-10.182 10.094-20.287 20.135-30.278 30.11.187 8.343-6.448 15.023-14.896 14.911-8.446-.113-15.546-6.921-15.771-15.2-.269-10-.448-20-.537-30 20.494.069 40.988.129 61.482.179z" fill="url(#SVGID_7_)"/><path d="m48.688 218.4c8.48-.06 15.244 6.662 15.183 15.003 10.208 5.002 20.442 10.037 30.692 15.096-10.25 5.06-20.484 10.094-30.692 15.096.061 8.343-6.703 15.062-15.183 15.003-8.478-.058-15.483-6.821-15.558-15.1-.09-10-.09-20 0-30 .074-8.277 7.079-15.039 15.558-15.098z" fill="url(#SVGID_8_)"/><path d="m415.056 142.252c-10.099-.175-20.198-.333-30.296-.475 2.938 81.313 2.518 162.625-1.259 243.938 10-.182 20-.385 30-.61 16.53-.389 30.929-14.275 31.852-30.931 3.241-60.385 3.704-120.771 1.389-181.156-.661-16.655-14.985-30.46-31.686-30.766z" fill="url(#SVGID_9_)"/><path d="m96.944 142.252c-16.701.307-31.026 14.11-31.685 30.767-2.315 60.385-1.852 120.771 1.389 181.156.923 16.656 15.322 30.542 31.852 30.931 20 .45 40 .813 60 1.092-2.889-81.598-3.21-163.196-.963-244.794-20.197.214-40.395.498-60.593.848z" fill="url(#SVGID_10_)"/><path d="m384.759 141.777c-75.741-1.061-151.481-1.186-227.222-.375-16.702.192-30.785 14.04-31.241 30.867-1.574 60.985-1.259 121.969.944 182.954.638 16.827 14.728 30.733 31.259 30.974 75 1.043 150 .883 225-.482 16.53-.316 30.775-14.217 31.556-30.967 2.722-60.713 3.111-121.427 1.167-182.14-.558-16.75-14.761-30.582-31.463-30.831z" fill="url(#SVGID_11_)"/><path d="m248.315 263.875c-.088 42.452-34.113 76.905-75.961 76.552-41.825-.401-77.395-34.94-77.743-76.748-.237-41.811 35.105-76.168 77.234-76.463 42.151-.241 76.404 34.203 76.47 76.659z" fill="url(#SVGID_12_)"/><path d="m417.389 263.679c-.348 41.808-35.917 76.348-77.743 76.748-41.847.351-75.873-34.099-75.961-76.552.066-42.455 34.319-76.9 76.47-76.659 42.129.294 77.471 34.651 77.234 76.463z" fill="url(#SVGID_13_)"/><path d="m417.389 263.679c-.348 41.808-35.917 76.348-77.743 76.748-41.847.351-75.873-34.099-75.961-76.552.066-42.455 34.319-76.9 76.47-76.659 42.129.294 77.471 34.651 77.234 76.463z" fill="url(#SVGID_14_)"/><path d="m386.648 263.746c-.149 25.232-21.184 45.884-46.493 46.038-25.317.143-45.741-20.457-45.729-45.92.048-25.461 20.608-46.085 46.035-46.006 25.418.089 46.316 20.658 46.187 45.888z" fill="url(#SVGID_15_)"/><path d="m355.817 279.099c-25.427.094-45.957-20.505-46.021-45.952-.003-1.266.059-2.52.157-3.759-9.502 8.427-15.507 20.749-15.527 34.476-.011 25.462 20.412 46.063 45.729 45.92 24.052-.143 44.219-18.81 46.306-42.305-8.186 7.178-18.923 11.586-30.644 11.62z" fill="url(#SVGID_16_)"/><path d="m248.315 263.875c-.088 42.452-34.113 76.905-75.961 76.552-41.825-.401-77.395-34.94-77.743-76.748-.237-41.811 35.105-76.168 77.234-76.463 42.151-.241 76.404 34.203 76.47 76.659z" fill="url(#SVGID_17_)"/><path d="m217.574 263.864c.012 25.462-20.412 46.063-45.729 45.92-25.309-.153-46.344-20.808-46.493-46.038-.128-25.231 20.769-45.798 46.188-45.888 25.426-.078 45.986 20.543 46.034 46.006z" fill="url(#SVGID_18_)"/><path d="m186.896 279.178c-25.419-.074-46.286-20.67-46.174-45.953.006-1.26.077-2.505.185-3.74-9.573 8.417-15.628 20.642-15.555 34.261.149 25.232 21.184 45.884 46.493 46.038 24.061.135 43.674-18.458 45.57-42.159-8.125 7.208-18.797 11.578-30.519 11.553z" fill="url(#SVGID_19_)"/></g></svg>