<svg id="Layer_1" enable-background="new 0 0 512 512" height="512" viewBox="0 0 512 512" width="512" xmlns="http://www.w3.org/2000/svg" xmlns:xlink="http://www.w3.org/1999/xlink"><linearGradient id="lg1"><stop offset="0" stop-color="#560dff"/><stop offset="1" stop-color="#73ecff"/></linearGradient><linearGradient id="SVGID_1_" gradientUnits="userSpaceOnUse" x1="74.98" x2="437.019" xlink:href="#lg1" y1="437.019" y2="74.981"/><radialGradient id="SVGID_2_" cx="256" cy="256" gradientUnits="userSpaceOnUse" r="256"><stop offset="0" stop-color="#6b23ea"/><stop offset=".4299" stop-color="#676bef" stop-opacity=".57"/><stop offset=".8159" stop-color="#64a5f3" stop-opacity=".184"/><stop offset="1" stop-color="#63bcf5" stop-opacity="0"/></radialGradient><linearGradient id="lg2"><stop offset="0" stop-color="#85ffe0"/><stop offset=".2339" stop-color="#9dffe6"/><stop offset=".7251" stop-color="#dafff6"/><stop offset="1" stop-color="#fff"/></linearGradient><linearGradient id="SVGID_3_" gradientUnits="userSpaceOnUse" x1="-5.622" x2="410.088" xlink:href="#lg2" y1="517.622" y2="101.912"/><linearGradient id="SVGID_4_" gradientUnits="userSpaceOnUse" x1="216.444" x2="370.448" xlink:href="#lg2" y1="295.557" y2="141.553"/><linearGradient id="SVGID_5_" gradientUnits="userSpaceOnUse" x1="223.973" x2="280.069" xlink:href="#lg1" y1="288.027" y2="231.932"/><radialGradient id="SVGID_6_" cx="256" cy="256" gradientUnits="userSpaceOnUse" r="26.092"><stop offset="0" stop-color="#63bcf5" stop-opacity="0"/><stop offset=".1841" stop-color="#64a5f3" stop-opacity=".184"/><stop offset=".5701" stop-color="#676bef" stop-opacity=".57"/><stop offset="1" stop-color="#6b23ea"/></radialGradient><linearGradient id="lg3"><stop offset="0" stop-color="#560dff"/><stop offset=".9935" stop-color="#73ecff"/></linearGradient><linearGradient id="SVGID_7_" gradientUnits="userSpaceOnUse" x1="152.577" x2="343.332" xlink:href="#lg3" y1="235.757" y2="45.002"/><linearGradient id="SVGID_8_" gradientUnits="userSpaceOnUse" x1="146.333" x2="319.198" xlink:href="#lg1" y1="234.158" y2="61.293"/><linearGradient id="SVGID_9_" gradientTransform="matrix(.5 -.866 .866 .5 -93.703 349.703)" gradientUnits="userSpaceOnUse" x1="152.889" x2="342.259" xlink:href="#lg3" y1="235.274" y2="45.905"/><linearGradient id="SVGID_10_" gradientTransform="matrix(.5 -.866 .866 .5 -93.703 349.703)" gradientUnits="userSpaceOnUse" x1="146.584" x2="318.534" xlink:href="#lg1" y1="234.045" y2="62.095"/><linearGradient id="SVGID_11_" gradientTransform="matrix(-.5 -.866 .866 -.5 162.298 605.703)" gradientUnits="userSpaceOnUse" x1="152.823" x2="343.443" xlink:href="#lg3" y1="236.17" y2="45.55"/><linearGradient id="SVGID_12_" gradientTransform="matrix(-.5 -.866 .866 -.5 162.298 605.703)" gradientUnits="userSpaceOnUse" x1="145.457" x2="320.309" xlink:href="#lg1" y1="235.975" y2="61.123"/><linearGradient id="SVGID_13_" gradientTransform="matrix(-1 0 0 -1 512 512.001)" gradientUnits="userSpaceOnUse" x1="152.576" x2="343.333" xlink:href="#lg3" y1="235.758" y2="45.002"/><linearGradient id="SVGID_14_" gradientTransform="matrix(-1 0 0 -1 512 512.001)" gradientUnits="userSpaceOnUse" x1="146.335" x2="319.197" xlink:href="#lg1" y1="234.156" y2="61.293"/><linearGradient id="SVGID_15_" gradientTransform="matrix(-.5 .866 -.866 -.5 605.703 162.298)" gradientUnits="userSpaceOnUse" x1="152.89" x2="342.257" xlink:href="#lg3" y1="235.273" y2="45.906"/><linearGradient id="SVGID_16_" gradientTransform="matrix(-.5 .866 -.866 -.5 605.703 162.298)" gradientUnits="userSpaceOnUse" x1="146.585" x2="318.534" xlink:href="#lg1" y1="234.044" y2="62.095"/><linearGradient id="SVGID_17_" gradientTransform="matrix(.5 .866 -.866 .5 349.703 -93.703)" gradientUnits="userSpaceOnUse" x1="152.822" x2="343.443" xlink:href="#lg3" y1="236.17" y2="45.549"/><linearGradient id="SVGID_18_" gradientTransform="matrix(.5 .866 -.866 .5 349.703 -93.703)" gradientUnits="userSpaceOnUse" x1="145.457" x2="320.309" xlink:href="#lg1" y1="235.975" y2="61.123"/><g><circle cx="256" cy="256" fill="url(#SVGID_1_)" r="256"/><circle cx="256" cy="256" fill="url(#SVGID_2_)" r="256"/><path d="m256 55.1c-107.093.561-200.339 93.805-200.9 200.9.561 107.094 93.806 200.339 200.9 200.9 107.094-.561 200.339-93.805 200.9-200.9-.56-107.094-93.805-200.337-200.9-200.9z" fill="url(#SVGID_3_)"/><path d="m256 208.85c-25.991.007-47.143 21.161-47.15 47.15.007 25.99 21.16 47.142 47.15 47.15 25.99-.006 47.143-21.159 47.15-47.15-.007-25.989-21.159-47.143-47.15-47.15z" fill="url(#SVGID_4_)"/><path d="m256 240.625c-8.49 0-15.374 6.885-15.375 15.375 0 8.489 6.885 15.376 15.375 15.375 8.489 0 15.374-6.885 15.375-15.375 0-8.49-6.885-15.375-15.375-15.375z" fill="url(#SVGID_5_)"/><path d="m256 240.625c-8.49 0-15.374 6.885-15.375 15.375 0 8.489 6.885 15.376 15.375 15.375 8.489 0 15.374-6.885 15.375-15.375 0-8.49-6.885-15.375-15.375-15.375z" fill="url(#SVGID_6_)"/><path d="m233.341 85.967c-8.338.042-15.157 6.975-15.222 15.458-.147 20.482-.265 40.963-.354 61.445-.039 8.481 6.796 15.334 15.258 15.317 15.319-.033 30.637-.033 45.956 0 8.462.016 15.297-6.834 15.258-15.317-.022-5.12-.046-10.241-.072-15.361-20.459-20.585-40.78-41.146-60.824-61.542z" fill="url(#SVGID_7_)"/><path d="m278.659 85.967c-15.106-.073-30.212-.073-45.319 0-.224 33.975 27.024 61.367 60.823 61.542-.078-15.361-.172-30.722-.282-46.083-.065-8.483-6.884-15.42-15.222-15.459z" fill="url(#SVGID_8_)"/><path d="m97.575 191.921c-4.33 7.294-1.912 16.506 5.401 20.636 17.649 9.96 35.356 20.046 53.091 30.206 7.347 4.209 16.752 1.7 21.009-5.637 7.71-13.279 15.438-26.585 23.162-39.906 4.265-7.356 1.791-16.74-5.507-20.931-4.406-2.53-8.808-5.056-13.206-7.574-27.932 7.7-55.925 15.468-83.95 23.206z" fill="url(#SVGID_9_)"/><path d="m121.136 152.154c-7.866 13.299-15.727 26.559-23.561 39.767 29.184 16.396 66.827 6.304 83.951-23.207-13.193-7.556-26.344-15.056-39.443-22.478-7.231-4.099-16.599-1.428-20.947 5.918z" fill="url(#SVGID_10_)"/><path d="m121.136 359.847c4.348 7.343 13.716 10.017 20.947 5.917 17.465-9.896 35.025-19.931 52.649-30.052 7.298-4.193 9.773-13.575 5.507-20.931-7.724-13.321-15.453-26.627-23.162-39.906-4.257-7.337-13.662-9.846-21.009-5.637-4.434 2.54-8.866 5.075-13.296 7.605-7.421 27.765-14.665 55.442-21.636 83.004z" fill="url(#SVGID_11_)"/><path d="m97.575 320.079c7.834 13.208 15.695 26.469 23.561 39.768 28.919-16.291 38.7-53.744 21.636-83.003-13.289 7.589-26.559 15.13-39.796 22.6-7.314 4.128-9.731 13.343-5.401 20.635z" fill="url(#SVGID_12_)"/><path d="m278.659 426.033c8.337-.04 15.157-6.975 15.222-15.458.147-20.482.265-40.963.354-61.445.039-8.482-6.795-15.335-15.258-15.317-15.319.033-30.637.033-45.956 0-8.462-.019-15.297 6.835-15.258 15.317.022 5.12.046 10.241.072 15.361 20.459 20.585 40.78 41.146 60.824 61.542z" fill="url(#SVGID_13_)"/><path d="m233.341 426.033c15.106.073 30.212.073 45.319 0 .225-33.974-27.023-61.366-60.823-61.542.078 15.361.172 30.723.282 46.084.065 8.481 6.884 15.418 15.222 15.458z" fill="url(#SVGID_14_)"/><path d="m414.425 320.079c4.33-7.292 1.913-16.507-5.401-20.636-17.649-9.96-35.356-20.045-53.092-30.205-7.347-4.209-16.753-1.697-21.009 5.637-7.71 13.279-15.438 26.585-23.162 39.906-4.265 7.356-1.791 16.739 5.507 20.931 4.406 2.53 8.808 5.055 13.206 7.574 27.934-7.7 55.926-15.468 83.951-23.207z" fill="url(#SVGID_15_)"/><path d="m390.865 359.847c7.866-13.299 15.727-26.559 23.561-39.768-29.185-16.399-66.826-6.3-83.951 23.207 13.193 7.556 26.345 15.056 39.443 22.478 7.231 4.1 16.598 1.428 20.947-5.917z" fill="url(#SVGID_16_)"/><path d="m390.865 152.154c-4.347-7.345-13.715-10.017-20.947-5.917-17.465 9.896-35.025 19.931-52.649 30.052-7.299 4.191-9.772 13.574-5.507 20.931 7.724 13.321 15.452 26.627 23.162 39.906 4.258 7.337 13.661 9.847 21.009 5.637 4.434-2.54 8.866-5.075 13.296-7.605 7.42-27.766 14.665-55.442 21.636-83.004z" fill="url(#SVGID_17_)"/><path d="m414.425 191.921c-7.834-13.208-15.695-26.468-23.561-39.767-28.919 16.29-38.7 53.745-21.636 83.003 13.29-7.589 26.559-15.131 39.796-22.6 7.314-4.129 9.731-13.34 5.401-20.636z" fill="url(#SVGID_18_)"/></g></svg>