<svg id="Layer_1" enable-background="new 0 0 512 512" height="512" viewBox="0 0 512 512" width="512" xmlns="http://www.w3.org/2000/svg" xmlns:xlink="http://www.w3.org/1999/xlink"><linearGradient id="SVGID_1_" gradientUnits="userSpaceOnUse" x1="74.98" x2="437.019" y1="437.019" y2="74.981"><stop offset="0" stop-color="#ff4747"/><stop offset="1" stop-color="#ff9ceb"/></linearGradient><radialGradient id="SVGID_2_" cx="256" cy="256" gradientUnits="userSpaceOnUse" r="256"><stop offset="0" stop-color="#ff2f2b"/><stop offset="1" stop-color="#ff9ceb" stop-opacity="0"/></radialGradient><linearGradient id="lg1"><stop offset="0" stop-color="#ffa9d4"/><stop offset=".2953" stop-color="#ffc6e3"/><stop offset=".7601" stop-color="#ffeff7"/><stop offset="1" stop-color="#fff"/></linearGradient><linearGradient id="SVGID_3_" gradientUnits="userSpaceOnUse" x1="-64.061" x2="404.972" xlink:href="#lg1" y1="678.573" y2="209.54"/><linearGradient id="SVGID_4_" gradientUnits="userSpaceOnUse" x1="-114.07" x2="459.795" xlink:href="#lg1" y1="597.057" y2="23.192"/><linearGradient id="SVGID_5_" gradientUnits="userSpaceOnUse" x1="98.688" x2="214.414" xlink:href="#lg1" y1="413.312" y2="297.585"/><linearGradient id="SVGID_6_" gradientUnits="userSpaceOnUse" x1="328.525" x2="452.029" xlink:href="#lg1" y1="440.588" y2="317.084"/><linearGradient id="SVGID_7_" gradientUnits="userSpaceOnUse" x1="75.286" x2="198.786" xlink:href="#lg1" y1="179.602" y2="56.102"/><linearGradient id="SVGID_8_" gradientUnits="userSpaceOnUse" x1="317.868" x2="433.598" xlink:href="#lg1" y1="194.132" y2="78.401"/><linearGradient id="lg2"><stop offset="0" stop-color="#ff2f2b"/><stop offset="1" stop-color="#ff9ceb"/></linearGradient><linearGradient id="SVGID_9_" gradientUnits="userSpaceOnUse" x1="-230.04" x2="436.914" xlink:href="#lg2" y1="879.317" y2="212.364"/><linearGradient id="SVGID_10_" gradientUnits="userSpaceOnUse" x1="-308.371" x2="345.08" xlink:href="#lg2" y1="912.284" y2="258.834"/><linearGradient id="SVGID_11_" gradientUnits="userSpaceOnUse" x1="-12.805" x2="413.088" xlink:href="#lg2" y1="509.814" y2="83.921"/><linearGradient id="SVGID_12_" gradientUnits="userSpaceOnUse" x1="-521.54" x2="471.057" xlink:href="#lg2" y1="1062.116" y2="69.519"/><linearGradient id="SVGID_13_" gradientUnits="userSpaceOnUse" x1="-251.808" x2="471.195" xlink:href="#lg2" y1="748.817" y2="25.814"/><g><circle cx="256" cy="256" fill="url(#SVGID_1_)" r="256"/><circle cx="256" cy="256" fill="url(#SVGID_2_)" r="256"/><path d="m383.5 97.143c-20-.81-40-1.429-60-1.857 2.25 107.143 2.25 214.286 0 321.429 20-.428 40-1.048 60-1.857 16.537-.697 30.662-14.821 31.357-31.357 3.44-85 3.44-170 0-255-.696-16.537-14.82-30.661-31.357-31.358z" fill="url(#SVGID_3_)"/><path d="m354.34 385.466c2.13-86.311 2.13-172.621 0-258.932-.441-16.803-14.302-30.879-30.84-31.248-41.44-.888-82.88-.958-124.32-.211-5.308.096-10.104 3.248-12.891 7.979-2.702 4.588-7.614 7.73-13.163 7.861-5.55.129-10.322-2.778-12.802-7.216-2.559-4.577-7.195-7.462-12.504-7.279-6.44.221-12.88.462-19.32.723-16.536.696-30.661 14.822-31.357 31.357-3.44 85-3.44 170 0 255 .695 16.537 14.821 30.66 31.357 31.357 65 2.631 130 3.25 195 1.857 16.537-.368 30.399-14.446 30.84-31.248z" fill="url(#SVGID_4_)"/><path d="m126.939 369.47c-8.39-.235-14.977 6.292-14.667 14.609.31 8.314 7.335 15.34 15.65 15.65 8.316.311 14.841-6.277 14.609-14.667-.235-8.39-7.2-15.358-15.592-15.592z" fill="url(#SVGID_5_)"/><path d="m385.061 369.47c-8.391.233-15.358 7.201-15.592 15.592-.233 8.39 6.293 14.977 14.609 14.667 8.315-.309 15.341-7.334 15.65-15.65.311-8.315-6.276-14.842-14.667-14.609z" fill="url(#SVGID_6_)"/><path d="m127.922 112.272c-8.314.308-15.341 7.335-15.65 15.65-.309 8.314 6.277 14.841 14.667 14.609 8.392-.234 15.357-7.201 15.592-15.592.232-8.389-6.293-14.977-14.609-14.667z" fill="url(#SVGID_7_)"/><path d="m384.078 112.272c-8.316-.309-14.843 6.275-14.609 14.667.234 8.39 7.201 15.359 15.592 15.592 8.389.233 14.976-6.293 14.667-14.609-.309-8.315-7.335-15.34-15.65-15.65z" fill="url(#SVGID_8_)"/><path d="m355.269 339.772c10.182-.162 20.363-.349 30.544-.562.318-15.129.549-30.259.694-45.388-20.327-14.936-40.809-30.15-61.323-45.476 10.28 30.624 20.39 61.126 30.085 91.426z" fill="url(#SVGID_9_)"/><path d="m355.269 172.228c.628 39.34.814 78.68.557 118.02 9.799 2.44 20.076 3.676 30.681 3.576.385-40.345.154-80.689-.694-121.034-10.181-.213-20.363-.4-30.544-.562z" fill="url(#SVGID_10_)"/><path d="m126.187 172.79c-1.166 55.474-1.166 110.948 0 166.421 76.36 1.59 152.721 1.777 229.081.562-75.468-54.633-153.886-113.1-229.081-166.983z" fill="url(#SVGID_11_)"/><path d="m355.826 290.248c.257-39.34.071-78.68-.557-118.02-30.544-.486-61.089-.748-91.633-.786.021 57.333 39.298 105.658 92.19 118.806z" fill="url(#SVGID_12_)"/><path d="m263.636 171.442c-45.816-.056-91.633.393-137.449 1.347 30.556 96.968 125.763 168.83 229.081 166.983.069-.001.627-49.525.557-49.525-52.892-13.147-92.167-61.474-92.189-118.805z" fill="url(#SVGID_13_)"/></g></svg>