<svg id="Layer_1" enable-background="new 0 0 512.001 512.001" height="512" viewBox="0 0 512.001 512.001" width="512" xmlns="http://www.w3.org/2000/svg" xmlns:xlink="http://www.w3.org/1999/xlink"><linearGradient id="SVGID_1_" gradientUnits="userSpaceOnUse" x1="74.98" x2="437.019" y1="437.019" y2="74.981"><stop offset="0" stop-color="#00aa45"/><stop offset="1" stop-color="#d3ff33"/></linearGradient><linearGradient id="lg1"><stop offset="0" stop-color="#00aa45" stop-opacity=".9"/><stop offset=".1347" stop-color="#32bc52" stop-opacity=".779"/><stop offset=".3006" stop-color="#68d05f" stop-opacity=".63"/><stop offset=".4627" stop-color="#95e06b" stop-opacity=".484"/><stop offset=".6171" stop-color="#b8ed73" stop-opacity=".345"/><stop offset=".7621" stop-color="#d1f77a" stop-opacity=".214"/><stop offset=".8937" stop-color="#e1fc7e" stop-opacity=".096"/><stop offset="1" stop-color="#e6fe7f" stop-opacity="0"/></linearGradient><radialGradient id="SVGID_2_" cx="150.535" cy="258.028" gradientUnits="userSpaceOnUse" r="364.41" xlink:href="#lg1"/><radialGradient id="SVGID_3_" cx="-14311.91" cy="-10614.897" gradientTransform="matrix(-1 0 0 1 -13950.444 10872.925)" gradientUnits="userSpaceOnUse" r="364.41" xlink:href="#lg1"/><linearGradient id="lg2"><stop offset="0" stop-color="#b8ef5c"/><stop offset=".1287" stop-color="#bef069"/><stop offset=".367" stop-color="#cdf48b"/><stop offset=".6858" stop-color="#e5f9c2"/><stop offset="1" stop-color="#fff"/></linearGradient><linearGradient id="SVGID_4_" gradientUnits="userSpaceOnUse" x1="22.328" x2="286.707" xlink:href="#lg2" y1="341.473" y2="77.093"/><linearGradient id="SVGID_5_" gradientUnits="userSpaceOnUse" x1="-20.872" x2="275.246" xlink:href="#lg2" y1="431.042" y2="134.924"/><linearGradient id="SVGID_6_" gradientUnits="userSpaceOnUse" x1="125.442" x2="201.839" xlink:href="#lg2" y1="341.589" y2="265.192"/><linearGradient id="lg3"><stop offset="0" stop-color="#d3ff33" stop-opacity="0"/><stop offset=".1455" stop-color="#cffd33" stop-opacity=".116"/><stop offset=".284" stop-color="#c4f735" stop-opacity=".227"/><stop offset=".4197" stop-color="#b1ec37" stop-opacity=".336"/><stop offset=".5538" stop-color="#96dd3a" stop-opacity=".443"/><stop offset=".6866" stop-color="#73ca3e" stop-opacity=".549"/><stop offset=".8186" stop-color="#48b243" stop-opacity=".655"/><stop offset=".9474" stop-color="#179649" stop-opacity=".758"/><stop offset="1" stop-color="#008a4c" stop-opacity=".8"/></linearGradient><linearGradient id="SVGID_7_" gradientUnits="userSpaceOnUse" x1="148.948" x2="148.948" xlink:href="#lg3" y1="359.987" y2="299.082"/><linearGradient id="lg4"><stop offset="0" stop-color="#00753b"/><stop offset=".7147" stop-color="#6ac232"/><stop offset="1" stop-color="#95e12e"/></linearGradient><linearGradient id="SVGID_8_" gradientUnits="userSpaceOnUse" x1="49.626" x2="208.415" xlink:href="#lg4" y1="394.565" y2="235.776"/><linearGradient id="SVGID_9_" gradientUnits="userSpaceOnUse" x1="39.908" x2="266.104" xlink:href="#lg4" y1="473.241" y2="247.046"/><linearGradient id="SVGID_10_" gradientUnits="userSpaceOnUse" x1="-45.12" x2="244.042" xlink:href="#lg4" y1="457.408" y2="168.247"/><linearGradient id="SVGID_11_" gradientUnits="userSpaceOnUse" x1="6.606" x2="263.756" xlink:href="#lg4" y1="366.925" y2="109.775"/><linearGradient id="SVGID_12_" gradientUnits="userSpaceOnUse" x1="1.446" x2="262.111" xlink:href="#lg4" y1="403.291" y2="142.625"/><linearGradient id="SVGID_13_" gradientUnits="userSpaceOnUse" x1="233.304" x2="496.763" xlink:href="#lg2" y1="340.308" y2="76.849"/><linearGradient id="SVGID_14_" gradientUnits="userSpaceOnUse" x1="192.251" x2="484.372" xlink:href="#lg2" y1="428.489" y2="136.369"/><linearGradient id="SVGID_15_" gradientUnits="userSpaceOnUse" x1="337.917" x2="417.162" xlink:href="#lg2" y1="342.479" y2="263.234"/><linearGradient id="SVGID_16_" gradientUnits="userSpaceOnUse" x1="363.053" x2="363.053" xlink:href="#lg3" y1="359.987" y2="299.082"/><linearGradient id="SVGID_17_" gradientUnits="userSpaceOnUse" x1="247.728" x2="428.019" xlink:href="#lg4" y1="409.586" y2="229.296"/><linearGradient id="SVGID_18_" gradientUnits="userSpaceOnUse" x1="239.145" x2="473.233" xlink:href="#lg4" y1="485.293" y2="251.204"/><linearGradient id="SVGID_19_" gradientUnits="userSpaceOnUse" x1="161.417" x2="444.081" xlink:href="#lg4" y1="463.488" y2="180.824"/><linearGradient id="SVGID_20_" gradientUnits="userSpaceOnUse" x1="223.921" x2="486.328" xlink:href="#lg4" y1="364.329" y2="101.922"/><linearGradient id="SVGID_21_" gradientUnits="userSpaceOnUse" x1="209.256" x2="469.722" xlink:href="#lg4" y1="408.808" y2="148.343"/><g><circle cx="256" cy="256" fill="url(#SVGID_1_)" r="256"/><circle cx="256" cy="256.001" fill="url(#SVGID_2_)" r="256"/><circle cx="256" cy="256.001" fill="url(#SVGID_3_)" r="256"/><path d="m118.21 143.329c-15.224 1.43-30.516 3.658-45.915 6.702-3.337.661-6.094 3.378-6.719 6.704-10.363 54.886-12.27 109.384-5.381 164.14 30.248 11.916 60.389 23.977 90.219 36.009-13.851-71.528-25.54-142.762-32.204-213.555z" fill="url(#SVGID_4_)"/><path d="m235.252 154.426c-.353-3.394-2.876-6.097-6.164-6.675-36.997-6.498-73.732-7.918-110.878-4.422-3.409.75-6.177 3.571-6.771 7.044-10.054 58.303-11.917 116.28-5.228 174.472 14.786 10.634 29.547 21.325 44.203 32.039 28.889-11.233 58.253-22.771 87.886-34.441 3.948-56.003 2.818-112.027-3.048-168.017z" fill="url(#SVGID_5_)"/><path d="m165.587 342.784c-10.467.124-20.936.004-31.418-.365-.857-16.348-1.477-32.692-1.861-49.036 10.902.172 21.799.226 32.697.163.11 16.414.302 32.826.582 49.238z" fill="url(#SVGID_6_)"/><path d="m165.587 342.784c-10.467.124-20.936.004-31.418-.365-.857-16.348-1.477-32.692-1.861-49.036 10.902.172 21.799.226 32.697.163.11 16.414.302 32.826.582 49.238z" fill="url(#SVGID_7_)"/><path d="m106.206 324.846c-15.304-.922-30.633-2.247-45.995-3.972 1.429 11.452 3.209 22.912 5.365 34.392.626 3.325 3.382 6.043 6.719 6.704 15.397 3.045 30.69 5.273 45.914 6.702 10.666-3.881 21.404-7.814 32.204-11.788-14.657-10.713-29.419-21.405-44.207-32.038z" fill="url(#SVGID_8_)"/><path d="m106.206 324.846c1.392 12.25 3.133 24.508 5.233 36.781.595 3.473 3.361 6.293 6.77 7.044 37.145 3.495 73.879 2.077 110.878-4.422 3.286-.576 5.811-3.281 6.164-6.675 1.214-11.708 2.219-23.42 3.032-35.134-44.05 4.308-87.964 5.073-132.077 2.406z" fill="url(#SVGID_9_)"/><path d="m207.031 283.521c-1.369-2.405-.459-5.51 2.037-6.955 3.143-1.823 5.293-5.154 5.325-8.91.016-1.845-.485-3.558-1.363-5.04-18.331-30.976-37.481-63.493-54.415-95.393-1.649-3.099-4.789-5.181-8.474-5.133-3.683.045-6.99 2.207-8.856 5.34-4.125 6.922-8.291 13.854-12.478 20.769 15.05 40.004 33.249 81.31 50.085 121.566 8.09-.165 16.181-.422 24.272-.769 5.182-.228 9.861-4.182 10.645-9.301.358-2.354-.12-4.53-1.17-6.33-1.853-3.263-3.725-6.544-5.608-9.844z" fill="url(#SVGID_10_)"/><path d="m102.783 230.965c-6.502 10.683-12.887 21.228-19.046 31.538-.869 1.454-1.36 3.138-1.326 4.949.068 3.694 2.266 6.971 5.439 8.785 2.518 1.435 3.488 4.501 2.17 6.859-1.811 3.235-3.598 6.452-5.355 9.639-.998 1.76-1.406 3.894-.967 6.211.962 5.037 5.812 8.993 11.003 9.29 3.291.184 6.581.352 9.87.509 9.365-12.867 18.952-25.814 28.674-38.823-10.28-13.051-20.463-26.044-30.462-38.957z" fill="url(#SVGID_11_)"/><path d="m182.407 284.019c-1.397-2.456-.51-5.59 1.975-7.03 3.129-1.815 5.254-5.183 5.266-9.003.008-1.876-.502-3.621-1.385-5.13-14.488-24.792-29.197-50.138-42.676-74.998-3.53-6.531-12.754-6.301-16.779.34-8.702 14.384-17.465 28.698-26.025 42.766-1.088 25.925-.489 51.837 1.786 77.779 24.8 1.178 49.564 1.528 74.324 1.021 5.18-.111 9.794-4.02 10.498-9.21.321-2.39-.184-4.609-1.26-6.458-1.899-3.347-3.809-6.707-5.724-10.077z" fill="url(#SVGID_12_)"/><path d="m328.322 142.324c-15.124.973-30.245 2.767-45.409 5.427-3.287.575-5.812 3.28-6.164 6.675-5.865 55.991-6.996 112.015-3.048 168.017 29.633 11.67 58.996 23.208 87.886 34.441-8.082-71.229-20.125-142.799-33.265-214.56z" fill="url(#SVGID_13_)"/><path d="m446.425 156.735c-.625-3.326-3.383-6.04-6.719-6.704-37.573-7.438-74.493-10.093-111.384-7.708-3.349.652-5.859 3.425-6.159 6.923-5.066 58.737-6.066 117.615-2.627 176.397 14.201 10.489 28.245 20.914 42.05 31.24 29.83-12.032 59.97-24.093 90.219-36.009 6.892-54.753 4.982-109.255-5.38-164.139z" fill="url(#SVGID_14_)"/><path d="m377.832 342.418c-10.482.367-20.951.49-31.418.365.28-16.411.474-32.823.582-49.238 10.896.064 21.798.008 32.698-.163-.384 16.345-1.005 32.69-1.862 49.036z" fill="url(#SVGID_15_)"/><path d="m377.832 342.418c-10.482.367-20.951.49-31.418.365.28-16.411.474-32.823.582-49.238 10.896.064 21.798.008 32.698-.163-.384 16.345-1.005 32.69-1.862 49.036z" fill="url(#SVGID_16_)"/><path d="m319.531 325.645c-15.263-.648-30.533-1.711-45.814-3.203.813 11.713 1.817 23.424 3.032 35.134.352 3.394 2.878 6.097 6.164 6.675 15.166 2.66 30.286 4.454 45.409 5.427 11.04-4.254 22.132-8.521 33.265-12.793-13.807-10.326-27.853-20.752-42.056-31.24z" fill="url(#SVGID_17_)"/><path d="m319.531 325.645c.709 12.375 1.58 24.746 2.632 37.109.298 3.497 2.812 6.271 6.159 6.923 36.891 2.385 73.811-.27 111.384-7.708 3.336-.662 6.094-3.377 6.719-6.704 2.155-11.479 3.937-22.939 5.365-34.392-44.282 4.979-88.264 6.648-132.259 4.772z" fill="url(#SVGID_18_)"/><path d="m421.981 283.096c-1.318-2.359-.352-5.426 2.169-6.859 3.173-1.815 5.372-5.091 5.439-8.785.034-1.812-.456-3.495-1.326-4.949-18.158-30.41-38.326-62.815-57.548-95.073-1.873-3.136-5.172-5.295-8.857-5.34-3.685-.049-6.824 2.035-8.474 5.133-3.636 6.847-7.373 13.722-11.181 20.604 17.262 40.531 35.687 81.815 50.788 121.512 8.1-.279 16.201-.647 24.309-1.103 5.192-.3 10.04-4.254 11.002-9.291.441-2.317.029-4.451-.967-6.21-1.756-3.19-3.541-6.402-5.354-9.639z" fill="url(#SVGID_19_)"/><path d="m317.778 230.66c-6.285 10.77-12.596 21.457-18.808 31.956-.876 1.479-1.379 3.195-1.363 5.04.034 3.759 2.182 7.084 5.325 8.91 2.496 1.444 3.408 4.552 2.037 6.955-1.884 3.301-3.754 6.584-5.608 9.845-1.052 1.8-1.528 3.978-1.17 6.33.786 5.119 5.466 9.075 10.646 9.3 3.284.14 6.569.264 9.852.375 9.921-13.159 19.858-26.297 29.727-39.394-10.133-13.065-20.375-26.179-30.638-39.317z" fill="url(#SVGID_20_)"/><path d="m397.344 283.768c-1.342-2.423-.396-5.539 2.112-6.978 3.158-1.819 5.335-5.156 5.384-8.934.026-1.855-.474-3.58-1.346-5.072-14.347-24.503-29.671-49.849-44.519-74.993-3.9-6.603-13.118-6.577-16.77.035-7.919 14.313-16.151 28.65-24.426 42.833-.559 26.239-.252 52.482.91 78.712 24.761.836 49.517.823 74.304-.033 5.184-.182 9.972-4.122 10.86-9.262.408-2.366-.029-4.557-1.049-6.376-1.796-3.293-3.618-6.607-5.46-9.932z" fill="url(#SVGID_21_)"/></g></svg>