<svg id="Layer_1" enable-background="new 0 0 512 512" height="512" viewBox="0 0 512 512" width="512" xmlns="http://www.w3.org/2000/svg" xmlns:xlink="http://www.w3.org/1999/xlink"><linearGradient id="SVGID_1_" gradientUnits="userSpaceOnUse" x1="74.98" x2="437.019" y1="437.019" y2="74.981"><stop offset="0" stop-color="#ff4747"/><stop offset="1" stop-color="#fff200"/></linearGradient><radialGradient id="SVGID_2_" cx="256" cy="256" gradientUnits="userSpaceOnUse" r="256"><stop offset="0" stop-color="#ff4747" stop-opacity=".8"/><stop offset=".1112" stop-color="#ff4f49" stop-opacity=".711"/><stop offset=".2769" stop-color="#ff634f" stop-opacity=".579"/><stop offset=".4766" stop-color="#ff8458" stop-opacity=".419"/><stop offset=".7029" stop-color="#ffb265" stop-opacity=".238"/><stop offset=".9485" stop-color="#ffed74" stop-opacity=".041"/><stop offset="1" stop-color="#fffa78" stop-opacity="0"/></radialGradient><linearGradient id="lg1"><stop offset="0" stop-color="#fffa78"/><stop offset="1" stop-color="#fff"/></linearGradient><linearGradient id="SVGID_3_" gradientUnits="userSpaceOnUse" x1="-320.97" x2="462.986" xlink:href="#lg1" y1="996.458" y2="212.503"/><linearGradient id="SVGID_4_" gradientUnits="userSpaceOnUse" x1="57.459" x2="460.436" xlink:href="#lg1" y1="298.692" y2="-104.285"/><linearGradient id="SVGID_5_" gradientUnits="userSpaceOnUse" x1="-190.235" x2="592.604" xlink:href="#lg1" y1="709.617" y2="-73.222"/><linearGradient id="lg2"><stop offset="0" stop-color="#ffcb00"/><stop offset=".097" stop-color="#ffd212"/><stop offset=".2912" stop-color="#ffe440"/><stop offset=".5" stop-color="#fffa78"/><stop offset="1" stop-color="#fff"/></linearGradient><linearGradient id="SVGID_6_" gradientUnits="userSpaceOnUse" x1="38.048" x2="424.224" xlink:href="#lg2" y1="390.937" y2="4.762"/><linearGradient id="SVGID_7_" gradientUnits="userSpaceOnUse" x1=".905" x2="393.676" xlink:href="#lg2" y1="419.924" y2="27.153"/><linearGradient id="SVGID_8_" gradientUnits="userSpaceOnUse" x1="203.379" x2="594.097" xlink:href="#lg2" y1="391.636" y2=".918"/><linearGradient id="SVGID_9_" gradientUnits="userSpaceOnUse" x1="172.922" x2="557.233" xlink:href="#lg2" y1="415.421" y2="31.11"/><g><circle cx="256" cy="256" fill="url(#SVGID_1_)" r="256"/><circle cx="256" cy="256" fill="url(#SVGID_2_)" r="256"/><path d="m428.5 142.729c-10-.236-20-.453-30-.648 4.75 75.946 4.75 151.893 0 227.84 10-.195 20-.411 30-.648 16.52-.413 31.215-14.228 32.34-30.772 3.63-55 3.63-110 0-165-1.125-16.544-15.819-30.36-32.34-30.772z" fill="url(#SVGID_3_)"/><path d="m83.5 142.729c-16.52.412-31.215 14.227-32.34 30.772-3.63 55-3.63 110 0 165 1.125 16.545 15.82 30.359 32.34 30.772 15 .355 30 .664 45 .926-4.25-76.132-4.25-152.263 0-228.395-15 .261-30 .57-45 .925z" fill="url(#SVGID_4_)"/><path d="m398.5 142.08c-90-1.759-180-1.852-270-.278-16.522.305-30.937 14.169-31.82 30.883-.257 5.049-.49 10.099-.7 15.148 14.295 22.528 29.333 45.278 44.707 68.167-15.375 22.889-30.412 45.639-44.707 68.167.21 5.049.443 10.099.7 15.148.883 16.713 15.298 30.577 31.82 30.883 90 1.574 180 1.482 270-.278 16.521-.341 31.029-14.193 31.993-30.854 3.092-55.377 3.092-110.755 0-166.132-.963-16.661-15.472-30.512-31.993-30.854z" fill="url(#SVGID_5_)"/><path d="m142.2 172.074c-10.116.113-20.231.241-30.347.385-8.371.124-15.519 7.013-15.873 15.374-1.89 45.444-1.89 90.889 0 136.333.354 8.361 7.502 15.251 15.873 15.374 40.462.573 80.924.906 121.387.996 8.372.019 15.149-6.861 15.14-15.352-.03-15.374-.05-30.749-.06-46.123-35.863-35.88-71.999-71.778-106.12-106.987z" fill="url(#SVGID_6_)"/><path d="m233.24 171.463c-30.347.068-60.693.272-91.04.611-2.24 58.873 46.86 106.875 106.12 106.988-.02-30.749 0-61.498.06-92.247.01-8.491-6.767-15.371-15.14-15.352z" fill="url(#SVGID_7_)"/><path d="m309.107 171.576c-10.116-.053-20.231-.091-30.347-.113-8.372-.019-15.15 6.86-15.14 15.352.09 46.123.09 92.247 0 138.37-.01 8.492 6.768 15.371 15.14 15.352 40.462-.091 80.924-.423 121.387-.996 8.371-.123 15.519-7.013 15.873-15.374.63-15.148 1.05-30.296 1.26-45.445-35.35-35.194-72.17-71.145-108.173-107.146z" fill="url(#SVGID_8_)"/><path d="m400.147 172.459c-30.347-.43-60.693-.724-91.04-.883.94 59.454 48.851 107.525 108.173 107.146.42-30.296 0-60.593-1.26-90.889-.354-8.36-7.502-15.25-15.873-15.374z" fill="url(#SVGID_9_)"/></g></svg>