<svg id="Layer_1" enable-background="new 0 0 512 512" height="512" viewBox="0 0 512 512" width="512" xmlns="http://www.w3.org/2000/svg" xmlns:xlink="http://www.w3.org/1999/xlink"><linearGradient id="SVGID_1_" gradientUnits="userSpaceOnUse" x1="74.98" x2="437.019" y1="437.019" y2="74.981"><stop offset="0" stop-color="#560dff"/><stop offset="1" stop-color="#73ecff"/></linearGradient><radialGradient id="SVGID_2_" cx="258.027" cy="191.098" gradientUnits="userSpaceOnUse" r="318.198"><stop offset="0" stop-color="#6b23ea"/><stop offset=".0575" stop-color="#6a35eb" stop-opacity=".943"/><stop offset=".2043" stop-color="#685eee" stop-opacity=".796"/><stop offset=".3548" stop-color="#6680f1" stop-opacity=".645"/><stop offset=".5076" stop-color="#659af3" stop-opacity=".492"/><stop offset=".6637" stop-color="#64adf4" stop-opacity=".336"/><stop offset=".8251" stop-color="#63b8f5" stop-opacity=".175"/><stop offset="1" stop-color="#63bcf5" stop-opacity="0"/></radialGradient><linearGradient id="SVGID_3_" gradientUnits="userSpaceOnUse" x1="-66.035" x2="383.587" y1="504.254" y2="54.633"><stop offset="0" stop-color="#389fff"/><stop offset=".1071" stop-color="#45affa"/><stop offset=".5074" stop-color="#73e9e7"/><stop offset=".7" stop-color="#85ffe0"/><stop offset=".8301" stop-color="#9dffe6"/><stop offset="1" stop-color="#c2fff0"/></linearGradient><radialGradient id="SVGID_4_" cx="256" cy="177.601" gradientUnits="userSpaceOnUse" r="255.605"><stop offset="0" stop-color="#c2fff0" stop-opacity=".4"/><stop offset=".2394" stop-color="#bffdf0" stop-opacity=".304"/><stop offset=".4367" stop-color="#b5f5f1" stop-opacity=".225"/><stop offset=".619" stop-color="#a3e9f2" stop-opacity=".152"/><stop offset=".7923" stop-color="#8bd8f3" stop-opacity=".083"/><stop offset=".9578" stop-color="#6cc2f5" stop-opacity=".017"/><stop offset="1" stop-color="#63bcf5" stop-opacity="0"/></radialGradient><linearGradient id="lg1"><stop offset="0" stop-color="#389fff"/><stop offset=".1209" stop-color="#45affa"/><stop offset=".5726" stop-color="#73e9e7"/><stop offset=".79" stop-color="#85ffe0"/><stop offset=".881" stop-color="#9dffe6"/><stop offset="1" stop-color="#c2fff0"/></linearGradient><linearGradient id="SVGID_5_" gradientUnits="userSpaceOnUse" x1="-11.008" x2="303.649" xlink:href="#lg1" y1="361.702" y2="47.045"/><linearGradient id="SVGID_6_" gradientUnits="userSpaceOnUse" x1="225.702" x2="549.545" xlink:href="#lg1" y1="456.672" y2="132.83"/><linearGradient id="SVGID_7_" gradientUnits="userSpaceOnUse" x1="296.319" x2="555.767" xlink:href="#lg1" y1="405.354" y2="145.906"/><linearGradient id="SVGID_8_" gradientUnits="userSpaceOnUse" x1="111.936" x2="513.411" xlink:href="#lg1" y1="392.365" y2="-9.11"/><g><circle cx="256" cy="256" fill="url(#SVGID_1_)" r="256"/><circle cx="256" cy="256" fill="url(#SVGID_2_)" r="256"/><path d="m256 82.308c-98.92.199-181.739 41.655-183.338 86.692-1.115 32.396 22.124 89.774 83.43 103.823 10.247.027 20.494.051 30.741.07 21.346-3.914 44.704-6.086 69.167-6.086 24.463-.002 47.821 2.172 69.167 6.086 10.247-.019 20.494-.042 30.741-.07 61.307-14.049 84.545-71.426 83.43-103.823-1.6-45.037-84.417-86.492-183.338-86.692z" fill="url(#SVGID_3_)"/><path d="m256 82.308c-98.92.199-181.739 41.655-183.338 86.692-1.115 32.396 22.124 89.774 83.43 103.823 10.247.027 20.494.051 30.741.07 21.346-3.914 44.704-6.086 69.167-6.086 24.463-.002 47.821 2.172 69.167 6.086 10.247-.019 20.494-.042 30.741-.07 61.307-14.049 84.545-71.426 83.43-103.823-1.6-45.037-84.417-86.492-183.338-86.692z" fill="url(#SVGID_4_)"/><path d="m186.813 257.806c.002 5.029.009 10.058.019 15.087-38.37 25.976-76.53 51.594-113.895 76.107-1.82-60-1.912-120-.276-180-.946 32.384 40.935 60.105 102.075 73.856 7.049 1.57 12.074 7.758 12.077 14.95z" fill="url(#SVGID_5_)"/><path d="m439.338 169c1.636 60 1.544 120-.276 180-37.365-24.513-75.524-50.131-113.895-76.107.011-5.029.017-10.058.019-15.087.003-7.192 5.029-13.38 12.077-14.95 61.14-13.75 103.023-41.471 102.075-73.856z" fill="url(#SVGID_6_)"/><path d="m439.062 349c-1 31.097-40.72 60.046-96.931 75.684-9.512 2.633-18.51-4.55-18.343-14.504.821-45.763 1.28-91.525 1.379-137.288 67.608 12.538 115.024 41.658 113.895 76.108z" fill="url(#SVGID_7_)"/><path d="m186.833 272.893c.098 45.762.558 91.525 1.379 137.288.167 9.953-8.831 17.137-18.343 14.504-56.212-15.639-95.931-44.589-96.931-75.685-1.129-34.451 46.288-63.571 113.895-76.107z" fill="url(#SVGID_8_)"/></g></svg>