<svg id="Layer_1" enable-background="new 0 0 518 518" height="512" viewBox="0 0 518 518" width="512" xmlns="http://www.w3.org/2000/svg" xmlns:xlink="http://www.w3.org/1999/xlink"><linearGradient id="SVGID_1_" gradientUnits="userSpaceOnUse" x1="77.981" x2="440.02" y1="443.019" y2="80.98"><stop offset="0" stop-color="#ff4747"/><stop offset="1" stop-color="#ff9ceb"/></linearGradient><radialGradient id="SVGID_2_" cx="262.611" cy="291.47" gradientTransform="matrix(1 0 0 1.546 .446 -160.313)" gradientUnits="userSpaceOnUse" r="274.772"><stop offset="0" stop-color="#ff2f2b"/><stop offset=".0664" stop-color="#ff404a" stop-opacity=".934"/><stop offset=".1735" stop-color="#ff5874" stop-opacity=".827"/><stop offset=".2864" stop-color="#ff6d99" stop-opacity=".714"/><stop offset=".4038" stop-color="#ff7eb7" stop-opacity=".596"/><stop offset=".5273" stop-color="#ff8bce" stop-opacity=".473"/><stop offset=".6597" stop-color="#ff95de" stop-opacity=".34"/><stop offset=".8072" stop-color="#ff9ae8" stop-opacity=".193"/><stop offset="1" stop-color="#ff9ceb" stop-opacity="0"/></radialGradient><radialGradient id="SVGID_3_" cx="259" cy="123" gradientUnits="userSpaceOnUse" r="123.951"><stop offset="0" stop-color="#fff"/><stop offset=".1887" stop-color="#fff3fc" stop-opacity=".811"/><stop offset=".5333" stop-color="#ffd2f6" stop-opacity=".467"/><stop offset=".9922" stop-color="#ff9deb" stop-opacity=".008"/><stop offset="1" stop-color="#ff9ceb" stop-opacity="0"/></radialGradient><linearGradient id="lg1"><stop offset="0" stop-color="#ff91bb"/><stop offset=".6508" stop-color="#ffb8d8"/><stop offset="1" stop-color="#ffc8e3"/></linearGradient><linearGradient id="SVGID_4_" gradientUnits="userSpaceOnUse" x1="178.903" x2="378.343" xlink:href="#lg1" y1="509.725" y2="310.286"/><linearGradient id="SVGID_5_" gradientUnits="userSpaceOnUse" x1="171.756" x2="346.244" xlink:href="#lg1" y1="402.259" y2="227.772"/><linearGradient id="SVGID_6_" gradientUnits="userSpaceOnUse" x1="259" x2="259" y1="432.449" y2="161.935"><stop offset="0" stop-color="#ff9ceb" stop-opacity="0"/><stop offset=".1817" stop-color="#ffa1ec" stop-opacity=".182"/><stop offset=".3925" stop-color="#ffafef" stop-opacity=".393"/><stop offset=".6178" stop-color="#ffc6f4" stop-opacity=".618"/><stop offset=".8517" stop-color="#ffe6fa" stop-opacity=".852"/><stop offset="1" stop-color="#fff"/></linearGradient><linearGradient id="lg2"><stop offset="0" stop-color="#ffa9d4"/><stop offset=".2953" stop-color="#ffc6e3"/><stop offset=".7601" stop-color="#ffeff7"/><stop offset="1" stop-color="#fff"/></linearGradient><linearGradient id="SVGID_7_" gradientUnits="userSpaceOnUse" x1="127.455" x2="369.2" xlink:href="#lg2" y1="255.414" y2="13.669"/><linearGradient id="SVGID_8_" gradientUnits="userSpaceOnUse" x1="199.948" x2="330.355" xlink:href="#lg2" y1="183.25" y2="52.842"/><linearGradient id="SVGID_9_" gradientUnits="userSpaceOnUse" x1="162.403" x2="294.238" xlink:href="#lg2" y1="373.268" y2="241.433"/><linearGradient id="SVGID_10_" gradientUnits="userSpaceOnUse" x1="223.578" x2="321.221" xlink:href="#lg2" y1="312.153" y2="214.509"/><linearGradient id="SVGID_11_" gradientUnits="userSpaceOnUse" x1="244.209" x2="296.298" xlink:href="#lg2" y1="291.522" y2="239.434"/><g><circle cx="259" cy="262" fill="url(#SVGID_1_)" r="256"/><circle cx="259" cy="262" fill="url(#SVGID_2_)" r="256"/><path d="m381.25 126c.898 65.618-54.34 119.607-122.25 120-67.91-.394-123.148-54.381-122.25-120 1.07-65.516 56.307-125.707 122.25-126 65.942.292 121.181 60.484 122.25 126z" fill="url(#SVGID_3_)"/><path d="m334.857 413.519c.044-.002.088-.004.132-.006-.55 41.851-34.695 78.43-75.989 78.486-41.294-.057-75.439-36.636-75.989-78.486 25.115-19.23 50.483-39.389 75.989-59.889 25.461 20.501 50.786 40.661 75.857 59.895z" fill="url(#SVGID_4_)"/><path d="m334.989 413.514c-.044.002-.088.004-.132.006-50.615 2.143-101.23 2.141-151.846-.006-.035-3.259.155-6.458.5-9.59 2.982-25.561 6.059-51.193 9.207-76.884 2.29-18.695.174-37.797-6.176-55.621-2.85-7.965-4.416-16.514-4.416-25.418-.001-13.926 3.802-26.992 10.413-38.316 2.746-4.683 7.811-7.554 13.249-7.598 35.475-.281 70.951-.281 106.427 0 5.438.044 10.504 2.916 13.249 7.598 6.611 11.323 10.413 24.389 10.413 38.316 0 8.903-1.566 17.454-4.396 25.418-6.371 17.824-8.486 36.927-6.197 55.622 3.148 25.691 6.224 51.323 9.207 76.884.342 3.131.531 6.33.498 9.589z" fill="url(#SVGID_5_)"/><path d="m334.989 413.514c-.044.002-.088.004-.132.006-50.615 2.143-101.23 2.141-151.846-.006-.035-3.259.155-6.458.5-9.59 2.982-25.561 6.059-51.193 9.207-76.884 2.29-18.695.174-37.797-6.176-55.621-2.85-7.965-4.416-16.514-4.416-25.418-.001-13.926 3.802-26.992 10.413-38.316 2.746-4.683 7.811-7.554 13.249-7.598 35.475-.281 70.951-.281 106.427 0 5.438.044 10.504 2.916 13.249 7.598 6.611 11.323 10.413 24.389 10.413 38.316 0 8.903-1.566 17.454-4.396 25.418-6.371 17.824-8.486 36.927-6.197 55.622 3.148 25.691 6.224 51.323 9.207 76.884.342 3.131.531 6.33.498 9.589z" fill="url(#SVGID_6_)"/><path d="m335.406 124.172c.364 41.901-33.968 75.6-76.406 75.703-42.438-.104-76.769-33.804-76.406-75.703.406-41.861 34.737-77.983 76.406-78.047 41.67.063 76 36.187 76.406 78.047z" fill="url(#SVGID_7_)"/><path d="m274.338 169.154c-42.389-.238-76.631-33.886-76.252-75.967.047-6.214.854-12.271 2.294-18.104-10.94 13.583-17.643 30.704-17.786 49.088-.363 41.901 33.968 75.6 76.406 75.703 36.18-.042 66.477-24.676 74.371-57.79-13.928 16.569-35.203 27.157-59.033 27.07z" fill="url(#SVGID_8_)"/><path d="m305.107 276.645c-.039 25.347-20.71 46.213-46.107 46.23-25.399-.016-46.069-20.882-46.107-46.23-.03-25.351 20.639-45.999 46.107-46.02 25.467.021 46.137 20.667 46.107 46.02z" fill="url(#SVGID_9_)"/><path d="m282.054 276.724c-.01 12.721-10.334 23.087-23.054 23.089-12.719-.002-23.045-10.368-23.054-23.089-.008-12.722 10.317-23.033 23.054-23.036 12.736.001 23.061 10.313 23.054 23.036z" fill="url(#SVGID_10_)"/><path d="m266.683 284.434c-12.727.011-23.053-10.337-23.056-23.065 0-.635.032-1.26.083-1.881-4.763 4.221-7.767 10.374-7.763 17.236.01 12.721 10.334 23.087 23.054 23.089 12.087-.001 22.003-9.364 22.97-21.208-4.072 3.616-9.423 5.823-15.288 5.829z" fill="url(#SVGID_11_)"/></g></svg>