<svg id="Layer_1" enable-background="new 0 0 512 512" height="512" viewBox="0 0 512 512" width="512" xmlns="http://www.w3.org/2000/svg" xmlns:xlink="http://www.w3.org/1999/xlink"><linearGradient id="SVGID_1_" gradientUnits="userSpaceOnUse" x1="74.98" x2="437.018" y1="437.019" y2="74.981"><stop offset="0" stop-color="#00aa45"/><stop offset="1" stop-color="#d3ff33"/></linearGradient><radialGradient id="SVGID_2_" cx="256" cy="256" gradientUnits="userSpaceOnUse" r="256"><stop offset="0" stop-color="#00aa45"/><stop offset=".1015" stop-color="#0faf49" stop-opacity=".899"/><stop offset=".2954" stop-color="#35bd52" stop-opacity=".705"/><stop offset=".5614" stop-color="#73d462" stop-opacity=".439"/><stop offset=".8863" stop-color="#c7f377" stop-opacity=".114"/><stop offset="1" stop-color="#e6fe7f" stop-opacity="0"/></radialGradient><linearGradient id="lg1"><stop offset="0" stop-color="#00753b"/><stop offset=".7147" stop-color="#6ac232"/><stop offset="1" stop-color="#95e12e"/></linearGradient><linearGradient id="SVGID_3_" gradientUnits="userSpaceOnUse" x1="-27.87" x2="592.281" xlink:href="#lg1" y1="443.605" y2="-176.546"/><linearGradient id="SVGID_4_" gradientUnits="userSpaceOnUse" x1="-86.098" x2="626.776" y1="604.882" y2="-107.992"><stop offset="0" stop-color="#008547"/><stop offset=".1212" stop-color="#128f45"/><stop offset=".3647" stop-color="#41aa41"/><stop offset=".7046" stop-color="#8cd63a"/><stop offset="1" stop-color="#d3ff33"/></linearGradient><linearGradient id="SVGID_5_" gradientUnits="userSpaceOnUse" x1="-71.429" x2="598.658" xlink:href="#lg1" y1="478.607" y2="-191.48"/><linearGradient id="SVGID_6_" gradientUnits="userSpaceOnUse" x1="-29.526" x2="600.192" xlink:href="#lg1" y1="661.643" y2="31.925"/><linearGradient id="SVGID_7_" gradientUnits="userSpaceOnUse" x1="-51.912" x2="620.761" xlink:href="#lg1" y1="571.343" y2="-101.33"/><linearGradient id="SVGID_8_" gradientUnits="userSpaceOnUse" x1="49.072" x2="536.145" xlink:href="#lg1" y1="291.136" y2="-195.938"/><linearGradient id="SVGID_9_" gradientUnits="userSpaceOnUse" x1="44.194" x2="430.16" xlink:href="#lg1" y1="333.144" y2="-52.822"/><linearGradient id="SVGID_10_" gradientTransform="matrix(-1 0 0 1 519.634 0)" gradientUnits="userSpaceOnUse" x1="258.437" x2="-234.424" xlink:href="#lg1" y1="437.722" y2="-55.14"/><linearGradient id="SVGID_11_" gradientTransform="matrix(-1 0 0 1 519.634 0)" gradientUnits="userSpaceOnUse" x1="279.157" x2="-110.372" xlink:href="#lg1" y1="421.489" y2="31.959"/><g><circle cx="256" cy="256" fill="url(#SVGID_1_)" r="256"/><circle cx="256" cy="256" fill="url(#SVGID_2_)" r="256"/><path d="m368.5 111.167c-75-1.389-150-1.389-225 0-16.53.32-30.699 14.248-31.407 31.008-.616 15.189-1.1 30.378-1.451 45.568 96.906-.99 193.812-.99 290.718 0-.352-15.189-.836-30.378-1.451-45.568-.711-16.76-14.879-30.688-31.409-31.008z" fill="url(#SVGID_3_)"/><path d="m447.956 218.393c8.482.051 15.254-6.614 15.044-14.893-.896-33.041-29.755-60.642-63.093-61.325-95.938-1.733-191.877-1.733-287.815 0-33.336.683-62.196 28.285-63.092 61.325-.21 8.279 6.562 14.944 15.044 14.893-.463 30.107-.231 60.214.694 90.321-8.451-.108-15.089 6.508-14.738 14.786 1.479 33.038 30.521 60.849 63.5 61.704 95 2.228 190 2.228 285 0 32.979-.855 62.02-28.665 63.5-61.704.351-8.279-6.285-14.894-14.738-14.786.925-30.107 1.157-60.214.694-90.321z" fill="url(#SVGID_4_)"/><path d="m126.296 172.369c-16.832.209-30.961 13.974-31.296 30.687-.778 40.395-.519 80.79.778 121.185.556 16.713 14.761 30.557 31.463 30.844 15.148.245 30.296.447 45.445.605-1.426-61.251-1.63-122.502-.611-183.753-15.261.113-30.519.257-45.779.432z" fill="url(#SVGID_5_)"/><path d="m385.704 172.369c-15.26-.175-30.518-.319-45.778-.432 1.018 61.251.815 122.502-.611 183.753 15.148-.158 30.296-.36 45.445-.605 16.703-.286 30.905-14.129 31.463-30.844 1.296-40.395 1.556-80.79.778-121.185-.337-16.714-14.465-30.478-31.297-30.687z" fill="url(#SVGID_6_)"/><path d="m370.444 324.797c.256-11.257.456-22.514.598-33.771 5.235-9.659 10.445-19.301 15.613-28.922-5.079-9.6-10.211-19.222-15.378-28.863-.046-10.173-.139-20.346-.278-30.518-.244-16.841-14.242-30.65-31.074-30.786-55.951-.415-111.901-.415-167.852 0-16.832.136-30.83 13.946-31.074 30.786-.138 10.173-.232 20.346-.278 30.518-5.165 9.099-10.298 18.18-15.385 27.24 5.166 10.16 10.378 20.343 15.62 30.544.143 11.257.342 22.514.598 33.771.404 16.842 14.428 30.708 31.13 30.893 55.543.581 111.086.581 166.629 0 16.703-.185 30.727-14.051 31.131-30.892z" fill="url(#SVGID_7_)"/><path d="m48.5 233.5c-.167 20 0 40 .5 60 .209 8.278 7.293 15.095 15.738 15.214 10.201.137 20.401.264 30.602.379 9.812-15.033 19.843-30.163 30.011-45.366-10.326-15.25-20.552-30.432-30.595-45.523-10.238.058-20.475.121-30.713.189-8.477.062-15.473 6.829-15.543 15.107z" fill="url(#SVGID_8_)"/><path d="m125.47 218.048c-10.238.047-20.475.099-30.713.156-.389 30.296-.195 60.593.583 90.889 10.2.115 20.401.219 30.602.313 8.449.08 15.169-6.697 15.058-15.128-.278-20.346-.37-40.691-.278-61.037.036-8.431-6.773-15.236-15.252-15.193z" fill="url(#SVGID_9_)"/><path d="m463.5 233.5c.167 20 0 40-.5 60-.209 8.278-7.293 15.095-15.738 15.214-10.2.137-20.402.264-30.602.379-9.812-15.033-19.843-30.163-30.011-45.366 10.325-15.25 20.552-30.432 30.595-45.523 10.238.058 20.475.121 30.713.189 8.477.062 15.473 6.829 15.543 15.107z" fill="url(#SVGID_10_)"/><path d="m386.53 218.048c10.238.047 20.475.099 30.713.156.389 30.296.194 60.593-.583 90.889-10.2.115-20.401.219-30.602.313-8.447.08-15.168-6.697-15.058-15.128.278-20.346.37-40.691.278-61.037-.036-8.431 6.773-15.236 15.252-15.193z" fill="url(#SVGID_11_)"/></g></svg>