<svg id="Layer_1" enable-background="new 0 0 512 512" height="512" viewBox="0 0 512 512" width="512" xmlns="http://www.w3.org/2000/svg" xmlns:xlink="http://www.w3.org/1999/xlink"><linearGradient id="lg1"><stop offset="0" stop-color="#364aff"/><stop offset="1" stop-color="#fc54ff"/></linearGradient><linearGradient id="SVGID_1_" gradientUnits="userSpaceOnUse" x1="74.981" x2="437.02" xlink:href="#lg1" y1="437.019" y2="74.98"/><radialGradient id="SVGID_2_" cx="256.001" cy="256" gradientUnits="userSpaceOnUse" r="258.6"><stop offset="0" stop-color="#8d00db" stop-opacity=".66"/><stop offset=".2069" stop-color="#9f0de1" stop-opacity=".523"/><stop offset=".6178" stop-color="#cc30f0" stop-opacity=".252"/><stop offset="1" stop-color="#fc54ff" stop-opacity="0"/></radialGradient><linearGradient id="lg2"><stop offset="0" stop-color="#fc54ff"/><stop offset=".4062" stop-color="#fd9bff"/><stop offset="1" stop-color="#fff"/></linearGradient><linearGradient id="SVGID_3_" gradientUnits="userSpaceOnUse" x1="-239.561" x2="459.515" xlink:href="#lg2" y1="891.311" y2="192.235"/><linearGradient id="SVGID_4_" gradientUnits="userSpaceOnUse" x1="-152.22" x2="382.561" xlink:href="#lg2" y1="524.47" y2="-10.311"/><linearGradient id="SVGID_5_" gradientUnits="userSpaceOnUse" x1="-418.072" x2="535.469" xlink:href="#lg2" y1="930.072" y2="-23.469"/><linearGradient id="SVGID_6_" gradientUnits="userSpaceOnUse" x1="-116.052" x2="409.626" xlink:href="#lg1" y1="778.443" y2="252.764"/><linearGradient id="SVGID_7_" gradientUnits="userSpaceOnUse" x1="-58.836" x2="355.045" xlink:href="#lg1" y1="420.446" y2="6.565"/><linearGradient id="SVGID_8_" gradientUnits="userSpaceOnUse" x1="-114.223" x2="410.703" xlink:href="#lg1" y1="626.223" y2="101.297"/><linearGradient id="lg3"><stop offset=".0053" stop-color="#fc54ff" stop-opacity="0"/><stop offset=".1586" stop-color="#f54efd" stop-opacity=".046"/><stop offset=".3888" stop-color="#e03ff6" stop-opacity=".116"/><stop offset=".6674" stop-color="#be25eb" stop-opacity=".2"/><stop offset=".9816" stop-color="#9002dc" stop-opacity=".294"/><stop offset="1" stop-color="#8d00db" stop-opacity=".3"/></linearGradient><radialGradient id="SVGID_9_" cx="179.125" cy="256" gradientUnits="userSpaceOnUse" r="84.175" xlink:href="#lg3"/><radialGradient id="SVGID_10_" cx="179.125" cy="256" gradientTransform="matrix(-1 0 0 1 512 0)" gradientUnits="userSpaceOnUse" r="84.175" xlink:href="#lg3"/><linearGradient id="SVGID_11_" gradientUnits="userSpaceOnUse" x1="261.366" x2="410.209" xlink:href="#lg1" y1="327.355" y2="178.512"/><linearGradient id="SVGID_12_" gradientUnits="userSpaceOnUse" x1="293.158" x2="388.757" xlink:href="#lg1" y1="295.841" y2="200.242"/><linearGradient id="lg4"><stop offset="0" stop-color="#fc54ff" stop-opacity="0"/><stop offset=".154" stop-color="#f54efd" stop-opacity=".102"/><stop offset=".3855" stop-color="#e03ff6" stop-opacity=".254"/><stop offset=".6657" stop-color="#be25eb" stop-opacity=".439"/><stop offset=".9815" stop-color="#9002dc" stop-opacity=".648"/><stop offset="1" stop-color="#8d00db" stop-opacity=".66"/></linearGradient><radialGradient id="SVGID_13_" cx="332.875" cy="256" gradientUnits="userSpaceOnUse" r="46.764" xlink:href="#lg4"/><linearGradient id="SVGID_14_" gradientUnits="userSpaceOnUse" x1="122.788" x2="254.25" xlink:href="#lg1" y1="312.492" y2="181.029"/><linearGradient id="SVGID_15_" gradientUnits="userSpaceOnUse" x1="151.144" x2="239.484" xlink:href="#lg1" y1="284.388" y2="196.048"/><radialGradient id="SVGID_16_" cx="179.125" cy="256" gradientUnits="userSpaceOnUse" r="46.764" xlink:href="#lg4"/><g><circle cx="256" cy="256" fill="url(#SVGID_1_)" r="256"/><circle cx="256" cy="256" fill="url(#SVGID_2_)" r="256"/><path d="m398.5 134.486c-10-.209-20-.395-30-.56 3.75 81.383 3.75 162.765 0 244.148 10-.165 20-.351 30-.56 32.956-.769 62.293-28.475 63.797-61.514 1.688-40 1.688-80 0-120-1.504-33.039-30.841-60.745-63.797-61.514z" fill="url(#SVGID_3_)"/><path d="m113.5 134.486c-32.956.769-62.293 28.475-63.797 61.514-1.688 40-1.688 80 0 120 1.504 33.039 30.841 60.746 63.797 61.514 10 .209 20 .395 30 .56-3.75-81.383-3.75-162.765 0-244.148-10 .165-20 .351-30 .56z" fill="url(#SVGID_4_)"/><path d="m368.5 133.926c-75-1.235-150-1.235-225 0-16.525.286-30.789 14.178-31.559 30.938-2.672 60.757-2.672 121.514 0 182.271.769 16.76 15.033 30.652 31.559 30.938 75 1.235 150 1.235 225 0 16.525-.286 30.789-14.178 31.559-30.938 2.672-60.757 2.672-121.514 0-182.271-.77-16.761-15.034-30.651-31.559-30.938z" fill="url(#SVGID_5_)"/><path d="m400.059 164.864c-18.883 30.066-38.996 60.51-59.496 91.136 20.5 30.625 40.613 61.07 59.496 91.136 16.716-.276 31.059-14.062 31.676-30.724 1.438-40.274 1.438-80.549 0-120.823-.617-16.662-14.961-30.448-31.676-30.725z" fill="url(#SVGID_6_)"/><path d="m80.266 195.589c-1.438 40.274-1.438 80.549 0 120.823.617 16.661 14.96 30.448 31.676 30.724 18.883-30.066 38.996-60.51 59.496-91.136-20.5-30.626-40.613-61.07-59.496-91.136-16.716.277-31.06 14.062-31.676 30.725z" fill="url(#SVGID_7_)"/><ellipse cx="256" cy="256" fill="url(#SVGID_8_)" rx="203.897" ry="128.78"/><path d="m248.313 256c-.071 38.208-30.793 69.208-68.594 68.956-37.78-.295-69.73-31.293-69.781-68.956.051-37.662 32-68.661 69.781-68.956 37.8-.252 68.522 30.748 68.594 68.956z" fill="url(#SVGID_9_)"/><path d="m263.688 256c.071 38.208 30.793 69.208 68.594 68.956 37.78-.295 69.73-31.293 69.781-68.956-.051-37.662-32-68.661-69.781-68.956-37.801-.252-68.523 30.748-68.594 68.956z" fill="url(#SVGID_10_)"/><path d="m371.313 256c-.007 21.048-17.467 38.221-38.621 38.309-21.159.08-38.241-17.092-38.254-38.309.013-21.216 17.095-38.39 38.254-38.309 21.153.088 38.613 17.261 38.621 38.309z" fill="url(#SVGID_11_)"/><path d="m340.53 271.313c-21.214.042-38.37-17.137-38.445-38.347-4.8 6.41-7.648 14.388-7.648 23.035.013 21.216 17.095 38.39 38.254 38.309 21.153-.088 38.613-17.261 38.621-38.308-7.015 9.261-18.216 15.29-30.782 15.311z" fill="url(#SVGID_12_)"/><path d="m371.313 256c-.007 21.048-17.467 38.221-38.621 38.309-21.159.08-38.241-17.092-38.254-38.309.013-21.216 17.095-38.39 38.254-38.309 21.153.088 38.613 17.261 38.621 38.309z" fill="url(#SVGID_13_)"/><path d="m217.563 256c-.014 21.216-17.095 38.39-38.254 38.309-21.153-.088-38.613-17.261-38.621-38.309.008-21.047 17.468-38.221 38.621-38.309 21.158-.08 38.24 17.093 38.254 38.309z" fill="url(#SVGID_14_)"/><path d="m186.839 271.333c-21.207-.042-38.545-17.174-38.372-38.245-4.874 6.396-7.78 14.324-7.78 22.911.008 21.048 17.468 38.221 38.621 38.309 21.159.08 38.24-17.092 38.254-38.308-7.014 9.328-18.154 15.351-30.723 15.333z" fill="url(#SVGID_15_)"/><path d="m217.563 256c-.014 21.216-17.095 38.39-38.254 38.309-21.153-.088-38.613-17.261-38.621-38.309.008-21.047 17.468-38.221 38.621-38.309 21.158-.08 38.24 17.093 38.254 38.309z" fill="url(#SVGID_16_)"/></g></svg>