<svg id="Layer_1" enable-background="new 0 0 512 512" height="512" viewBox="0 0 512 512" width="512" xmlns="http://www.w3.org/2000/svg" xmlns:xlink="http://www.w3.org/1999/xlink"><linearGradient id="SVGID_1_" gradientUnits="userSpaceOnUse" x1="74.98" x2="437.019" y1="437.019" y2="74.981"><stop offset="0" stop-color="#ff4747"/><stop offset="1" stop-color="#fff200"/></linearGradient><radialGradient id="SVGID_2_" cx="256" cy="256" gradientUnits="userSpaceOnUse" r="256"><stop offset="0" stop-color="#ff4747" stop-opacity=".8"/><stop offset=".3098" stop-color="#ff8357" stop-opacity=".552"/><stop offset=".7839" stop-color="#ffd86f" stop-opacity=".173"/><stop offset="1" stop-color="#fffa78" stop-opacity="0"/></radialGradient><linearGradient id="lg1"><stop offset="0" stop-color="#ffb11d"/><stop offset=".4622" stop-color="#ffd449"/><stop offset="1" stop-color="#fffa78"/></linearGradient><linearGradient id="SVGID_3_" gradientUnits="userSpaceOnUse" x1="3.385" x2="507.481" xlink:href="#lg1" y1="626.785" y2="122.689"/><linearGradient id="SVGID_4_" gradientUnits="userSpaceOnUse" x1="77.923" x2="574.016" xlink:href="#lg1" y1="329.387" y2="-166.706"/><linearGradient id="SVGID_5_" gradientUnits="userSpaceOnUse" x1="34.994" x2="522.797" xlink:href="#lg1" y1="489.977" y2="2.173"/><linearGradient id="lg2"><stop offset="0" stop-color="#fffa78" stop-opacity="0"/><stop offset=".1822" stop-color="#fff674" stop-opacity=".146"/><stop offset=".3651" stop-color="#ffeb68" stop-opacity=".292"/><stop offset=".5484" stop-color="#ffd954" stop-opacity=".439"/><stop offset=".7321" stop-color="#ffbf38" stop-opacity=".586"/><stop offset=".9144" stop-color="#ff9e14" stop-opacity=".732"/><stop offset="1" stop-color="#ff8c00" stop-opacity=".8"/></linearGradient><linearGradient id="SVGID_6_" gradientUnits="userSpaceOnUse" x1="256" x2="256" xlink:href="#lg2" y1="469.754" y2="321.148"/><linearGradient id="SVGID_7_" gradientUnits="userSpaceOnUse" x1="18.702" x2="422.289" xlink:href="#lg1" y1="643.97" y2="240.383"/><linearGradient id="SVGID_8_" gradientUnits="userSpaceOnUse" x1="-48.631" x2="427.446" xlink:href="#lg1" y1="545.684" y2="69.607"/><linearGradient id="SVGID_9_" gradientUnits="userSpaceOnUse" x1="141.645" x2="590.053" xlink:href="#lg1" y1="370.356" y2="-78.053"/><linearGradient id="SVGID_10_" gradientUnits="userSpaceOnUse" x1="256" x2="256" xlink:href="#lg2" y1="313.754" y2="156.991"/><linearGradient id="lg3"><stop offset="0" stop-color="#ff4d4d"/><stop offset=".1663" stop-color="#ff5b44"/><stop offset=".483" stop-color="#ff812d"/><stop offset=".914" stop-color="#ffbe08"/><stop offset="1" stop-color="#ffcb00"/></linearGradient><linearGradient id="SVGID_11_" gradientUnits="userSpaceOnUse" x1="120.947" x2="261.223" xlink:href="#lg3" y1="310.586" y2="170.31"/><linearGradient id="SVGID_12_" gradientUnits="userSpaceOnUse" x1="105.326" x2="247.785" xlink:href="#lg3" y1="337.659" y2="195.2"/><linearGradient id="lg4"><stop offset="0" stop-color="#ff8c00" stop-opacity="0"/><stop offset=".409" stop-color="#ff8a02" stop-opacity=".409"/><stop offset=".5993" stop-color="#ff830a" stop-opacity=".599"/><stop offset=".7442" stop-color="#ff7616" stop-opacity=".744"/><stop offset=".8663" stop-color="#ff6529" stop-opacity=".866"/><stop offset=".9729" stop-color="#ff4e40" stop-opacity=".973"/><stop offset="1" stop-color="#ff4747"/></linearGradient><linearGradient id="SVGID_13_" gradientUnits="userSpaceOnUse" x1="175.289" x2="175.289" xlink:href="#lg4" y1="304.245" y2="208.086"/><linearGradient id="SVGID_14_" gradientTransform="matrix(1 0 0 -1 0 512)" gradientUnits="userSpaceOnUse" x1="175.289" x2="175.289" xlink:href="#lg4" y1="304.245" y2="208.086"/><linearGradient id="lg5"><stop offset="0" stop-color="#ff8c00" stop-opacity="0"/><stop offset=".4812" stop-color="#ff8a02" stop-opacity=".481"/><stop offset=".6546" stop-color="#ff8409" stop-opacity=".655"/><stop offset=".7781" stop-color="#ff7814" stop-opacity=".778"/><stop offset=".878" stop-color="#ff6825" stop-opacity=".878"/><stop offset=".9626" stop-color="#ff533b" stop-opacity=".963"/><stop offset="1" stop-color="#ff4747"/></linearGradient><linearGradient id="SVGID_15_" gradientTransform="matrix(1 0 0 -1 0 512)" gradientUnits="userSpaceOnUse" x1="116.632" x2="241.833" xlink:href="#lg5" y1="256" y2="256"/><linearGradient id="lg6"><stop offset="0" stop-color="#ff8c00" stop-opacity="0"/><stop offset=".4756" stop-color="#ff8a02" stop-opacity=".476"/><stop offset=".6503" stop-color="#ff8409" stop-opacity=".65"/><stop offset=".7755" stop-color="#ff7815" stop-opacity=".776"/><stop offset=".8769" stop-color="#ff6826" stop-opacity=".877"/><stop offset=".963" stop-color="#ff533b" stop-opacity=".963"/><stop offset="1" stop-color="#ff4747"/></linearGradient><linearGradient id="SVGID_16_" gradientTransform="matrix(-1 0 0 -1 354.5 512)" gradientUnits="userSpaceOnUse" x1="116.396" x2="241.597" xlink:href="#lg6" y1="256" y2="256"/><linearGradient id="SVGID_17_" gradientUnits="userSpaceOnUse" x1="294.863" x2="436.075" xlink:href="#lg3" y1="310.66" y2="169.449"/><linearGradient id="SVGID_18_" gradientUnits="userSpaceOnUse" x1="280.3" x2="421.643" xlink:href="#lg3" y1="336.882" y2="195.54"/><linearGradient id="SVGID_19_" gradientUnits="userSpaceOnUse" x1="349.804" x2="349.804" xlink:href="#lg4" y1="304.201" y2="208.13"/><linearGradient id="SVGID_20_" gradientTransform="matrix(1 0 0 -1 170.277 512)" gradientUnits="userSpaceOnUse" x1="179.527" x2="179.527" xlink:href="#lg4" y1="304.201" y2="208.13"/><linearGradient id="SVGID_21_" gradientTransform="matrix(1 0 0 -1 170.277 512)" gradientUnits="userSpaceOnUse" x1="120.867" x2="246.076" xlink:href="#lg5" y1="256" y2="256"/><linearGradient id="SVGID_22_" gradientTransform="matrix(-1 0 0 -1 524.777 512)" gradientUnits="userSpaceOnUse" x1="112.153" x2="237.363" xlink:href="#lg6" y1="256" y2="256"/><g><circle cx="256" cy="256" fill="url(#SVGID_1_)" r="256"/><circle cx="256" cy="256" fill="url(#SVGID_2_)" r="256"/><path d="m383.5 96.383c-10-.286-20-.537-30-.756 3.25 106.915 3.25 213.83 0 320.746 10-.219 20-.47 30-.756 16.536-.491 30.662-14.511 31.357-31.178 3.44-85.625 3.44-171.251 0-256.877-.695-16.668-14.821-30.688-31.357-31.179z" fill="url(#SVGID_3_)"/><path d="m128.5 96.383c-16.536.49-30.661 14.511-31.357 31.178-3.44 85.626-3.44 171.251 0 256.877.696 16.667 14.821 30.687 31.357 31.178 18.82.537 37.639.956 56.459 1.255-2.368-107.248-2.368-214.496 0-321.745-18.82.301-37.639.72-56.459 1.257z" fill="url(#SVGID_4_)"/><path d="m353.5 95.627c-8.82-.193-17.639-.359-26.459-.5-11.357-.184-21.626 6.267-26.612 16.629-2.191 4.558-4.393 9.119-6.606 13.683-25.215-.17-50.431-.17-75.646 0-2.212-4.564-4.415-9.126-6.606-13.683-4.987-10.361-15.256-16.812-26.612-16.629-16.537.274-30.414 14.263-30.871 31.11-2.207 86.508-2.207 173.016 0 259.524.456 16.848 14.334 30.837 30.871 31.11 56.18.894 112.361.727 168.541-.499 16.537-.376 30.53-14.387 31.099-31.159 2.785-86.142 2.785-172.285 0-258.427-.569-16.772-14.562-30.783-31.099-31.159z" fill="url(#SVGID_5_)"/><path d="m94.786 293.776c.357 30.221 1.143 60.442 2.357 90.662.696 16.667 14.821 30.687 31.357 31.178 85 2.427 170 2.427 255 0 16.536-.491 30.662-14.511 31.357-31.178 1.214-30.221 2-60.442 2.357-90.662-107.476.882-214.952.882-322.428 0z" fill="url(#SVGID_6_)"/><path d="m415.929 157.783c-10.154-.218-20.308-.416-30.463-.593 1.629 65.874 1.629 131.747 0 197.621 10.154-.177 20.308-.375 30.463-.593 16.803-.384 30.962-14.175 31.398-30.718 1.148-45 1.148-90 0-135-.436-16.543-14.596-30.333-31.398-30.717z" fill="url(#SVGID_7_)"/><path d="m416.714 323.997c-14.824-22.439-30.026-45.137-45.401-67.997 15.375-22.86 30.578-45.558 45.402-67.997-.369-16.668-14.445-30.503-31.248-30.814-96.465-1.68-192.93-1.482-289.395.593-16.802.385-30.962 14.175-31.398 30.718-1.148 45-1.148 90 0 135 .436 16.542 14.596 30.334 31.398 30.718 96.465 2.075 192.93 2.272 289.395.593 16.802-.312 30.879-14.145 31.247-30.814z" fill="url(#SVGID_8_)"/><ellipse cx="256" cy="256" fill="url(#SVGID_9_)" rx="225.851" ry="96.78"/><ellipse cx="256" cy="256" fill="url(#SVGID_10_)" rx="225.851" ry="96.78"/><path d="m163.878 217.779c-7.677.036-15.354.076-23.031.121-8.477.053-15.42 6.907-15.469 15.298-.087 15.202-.087 30.403 0 45.605.049 8.391 6.992 15.244 15.469 15.298 23.031.135 46.061.229 69.092.284 8.478.021 15.336-6.848 15.327-15.335-20.518-20.508-41.053-40.983-61.388-61.271z" fill="url(#SVGID_11_)"/><path d="m209.939 217.617c-15.354.036-30.707.09-46.061.162-.23 33.751 27.437 61.203 61.388 61.27-.02-15.365-.02-30.731 0-46.096.009-8.488-6.849-15.357-15.327-15.336z" fill="url(#SVGID_12_)"/><path d="m209.939 217.617c-23.031.054-46.061.148-69.092.284-8.477.053-15.42 6.907-15.469 15.298-.087 15.202-.087 30.403 0 45.605.049 8.391 6.992 15.244 15.469 15.298 23.031.135 46.061.229 69.092.284 8.478.021 15.336-6.848 15.327-15.335-.02-15.365-.02-30.731 0-46.096.009-8.49-6.849-15.359-15.327-15.338z" fill="url(#SVGID_13_)"/><path d="m209.939 294.384c-23.031-.054-46.061-.148-69.092-.284-8.477-.054-15.42-6.907-15.469-15.298-.087-15.202-.087-30.403 0-45.605.049-8.391 6.992-15.244 15.469-15.298 23.031-.135 46.061-.229 69.092-.284 8.478-.021 15.336 6.848 15.327 15.335-.02 15.365-.02 30.731 0 46.096.009 8.49-6.849 15.359-15.327 15.338z" fill="url(#SVGID_14_)"/><path d="m209.939 294.384c-23.031-.054-46.061-.148-69.092-.284-8.477-.054-15.42-6.907-15.469-15.298-.087-15.202-.087-30.403 0-45.605.049-8.391 6.992-15.244 15.469-15.298 23.031-.135 46.061-.229 69.092-.284 8.478-.021 15.336 6.848 15.327 15.335-.02 15.365-.02 30.731 0 46.096.009 8.49-6.849 15.359-15.327 15.338z" fill="url(#SVGID_15_)"/><path d="m140.847 294.1c23.031.135 46.061.229 69.092.284 8.478.021 15.336-6.848 15.327-15.335-.02-15.365-.02-30.731 0-46.096.01-8.487-6.849-15.356-15.327-15.335-23.031.054-46.061.148-69.092.284-8.477.053-15.42 6.907-15.469 15.298-.087 15.202-.087 30.403 0 45.605.049 8.389 6.992 15.241 15.469 15.295z" fill="url(#SVGID_16_)"/><path d="m338.17 217.735c-7.677-.032-15.354-.06-23.031-.083-8.478-.027-15.33 6.833-15.315 15.315.029 15.355.029 30.711 0 46.066-.014 8.482 6.837 15.343 15.315 15.315 23.031-.069 46.061-.179 69.092-.33 8.477-.06 15.427-6.901 15.481-15.271-20.362-20.129-40.949-40.518-61.542-61.012z" fill="url(#SVGID_17_)"/><path d="m384.231 217.981c-15.354-.1-30.707-.182-46.061-.247.207 33.881 27.58 61.217 61.542 61.013.095-15.165.095-30.33 0-45.495-.054-8.37-7.003-15.211-15.481-15.271z" fill="url(#SVGID_18_)"/><path d="m384.231 217.981c-23.031-.15-46.061-.26-69.092-.329-8.478-.027-15.33 6.833-15.315 15.315.029 15.355.029 30.711 0 46.066-.014 8.482 6.837 15.343 15.315 15.315 23.031-.069 46.061-.179 69.092-.33 8.477-.06 15.427-6.901 15.481-15.271.095-15.165.095-30.33 0-45.495-.054-8.37-7.003-15.211-15.481-15.271z" fill="url(#SVGID_19_)"/><path d="m384.231 294.019c-23.031.15-46.061.26-69.092.33-8.478.027-15.33-6.833-15.315-15.315.029-15.355.029-30.711 0-46.066-.014-8.482 6.837-15.342 15.315-15.315 23.031.069 46.061.179 69.092.329 8.477.061 15.427 6.9 15.481 15.271.095 15.165.095 30.33 0 45.495-.054 8.371-7.003 15.211-15.481 15.271z" fill="url(#SVGID_20_)"/><path d="m384.231 294.019c-23.031.15-46.061.26-69.092.33-8.478.027-15.33-6.833-15.315-15.315.029-15.355.029-30.711 0-46.066-.014-8.482 6.837-15.342 15.315-15.315 23.031.069 46.061.179 69.092.329 8.477.061 15.427 6.9 15.481 15.271.095 15.165.095 30.33 0 45.495-.054 8.371-7.003 15.211-15.481 15.271z" fill="url(#SVGID_21_)"/><path d="m315.139 294.349c23.031-.069 46.061-.179 69.092-.33 8.477-.06 15.427-6.901 15.481-15.271.095-15.165.095-30.33 0-45.495-.054-8.371-7.004-15.211-15.481-15.271-23.031-.15-46.061-.26-69.092-.329-8.478-.027-15.33 6.833-15.315 15.315.029 15.355.029 30.711 0 46.066-.014 8.482 6.837 15.342 15.315 15.315z" fill="url(#SVGID_22_)"/></g></svg>