<svg id="Layer_1" enable-background="new 0 0 512 512" height="512" viewBox="0 0 512 512" width="512" xmlns="http://www.w3.org/2000/svg" xmlns:xlink="http://www.w3.org/1999/xlink"><linearGradient id="SVGID_1_" gradientUnits="userSpaceOnUse" x1="74.98" x2="437.019" y1="437.019" y2="74.981"><stop offset="0" stop-color="#560dff"/><stop offset="1" stop-color="#73ecff"/></linearGradient><radialGradient id="SVGID_2_" cx="258.028" cy="314.817" gradientUnits="userSpaceOnUse" r="318.198"><stop offset="0" stop-color="#6b23ea"/><stop offset=".0135" stop-color="#6b27ea" stop-opacity=".987"/><stop offset=".1808" stop-color="#6854ee" stop-opacity=".819"/><stop offset=".3491" stop-color="#667af0" stop-opacity=".651"/><stop offset=".516" stop-color="#6597f2" stop-opacity=".484"/><stop offset=".681" stop-color="#64abf4" stop-opacity=".319"/><stop offset=".8433" stop-color="#63b8f5" stop-opacity=".157"/><stop offset="1" stop-color="#63bcf5" stop-opacity="0"/></radialGradient><linearGradient id="lg1"><stop offset="0" stop-color="#389fff"/><stop offset=".1071" stop-color="#45affa"/><stop offset=".5074" stop-color="#73e9e7"/><stop offset=".7" stop-color="#85ffe0"/><stop offset=".8301" stop-color="#9dffe6"/><stop offset="1" stop-color="#c2fff0"/></linearGradient><linearGradient id="SVGID_3_" gradientTransform="matrix(1 0 0 -1 0 508.416)" gradientUnits="userSpaceOnUse" x1="184.964" x2="626.828" xlink:href="#lg1" y1="111.183" y2="553.047"/><radialGradient id="SVGID_4_" cx="257.033" cy="251.376" gradientTransform="matrix(1 0 0 -1 0 508.416)" gradientUnits="userSpaceOnUse" r="262.714"><stop offset="0" stop-color="#85ffe0" stop-opacity=".3"/><stop offset=".2776" stop-color="#83fce1" stop-opacity=".217"/><stop offset=".5064" stop-color="#7ef2e4" stop-opacity=".148"/><stop offset=".7178" stop-color="#75e0ea" stop-opacity=".085"/><stop offset=".9176" stop-color="#69c8f1" stop-opacity=".025"/><stop offset="1" stop-color="#63bcf5" stop-opacity="0"/></radialGradient><linearGradient id="lg2"><stop offset="0" stop-color="#389fff"/><stop offset=".1209" stop-color="#45affa"/><stop offset=".5726" stop-color="#73e9e7"/><stop offset=".79" stop-color="#85ffe0"/><stop offset=".881" stop-color="#9dffe6"/><stop offset="1" stop-color="#c2fff0"/></linearGradient><linearGradient id="SVGID_5_" gradientTransform="matrix(1 0 0 -1 0 508.416)" gradientUnits="userSpaceOnUse" x1="-42.362" x2="282.249" xlink:href="#lg2" y1="128.012" y2="452.623"/><linearGradient id="SVGID_6_" gradientTransform="matrix(1 0 0 -1 0 508.416)" gradientUnits="userSpaceOnUse" x1="-41.636" x2="668.961" xlink:href="#lg2" y1="-202.943" y2="507.655"/><linearGradient id="SVGID_7_" gradientTransform="matrix(1 0 0 -1 0 508.416)" gradientUnits="userSpaceOnUse" x1="67.767" x2="427.45" y1="60.068" y2="419.75"><stop offset="0" stop-color="#389fff"/><stop offset=".0853" stop-color="#45affa"/><stop offset=".4043" stop-color="#73e9e7"/><stop offset=".5578" stop-color="#85ffe0"/><stop offset=".7474" stop-color="#9dffe6"/><stop offset=".9949" stop-color="#c2fff0"/></linearGradient><linearGradient id="SVGID_8_" gradientTransform="matrix(1 0 0 -1 0 508.416)" gradientUnits="userSpaceOnUse" x1="-32.011" x2="239.579" xlink:href="#lg1" y1="157.661" y2="429.251"/><linearGradient id="lg3"><stop offset="0" stop-color="#c2fff0" stop-opacity=".4"/><stop offset=".2394" stop-color="#bffdf0" stop-opacity=".304"/><stop offset=".4367" stop-color="#b5f5f1" stop-opacity=".225"/><stop offset=".619" stop-color="#a3e9f2" stop-opacity=".152"/><stop offset=".7923" stop-color="#8bd8f3" stop-opacity=".083"/><stop offset=".9578" stop-color="#6cc2f5" stop-opacity=".017"/><stop offset="1" stop-color="#63bcf5" stop-opacity="0"/></linearGradient><radialGradient id="SVGID_9_" cx="255.28" cy="333.554" gradientTransform="matrix(1 0 0 -1 0 508.416)" gradientUnits="userSpaceOnUse" r="253.305" xlink:href="#lg3"/><radialGradient id="SVGID_10_" cx="255.28" cy="333.554" gradientTransform="matrix(-1 0 0 -1 512 508.416)" gradientUnits="userSpaceOnUse" r="253.305" xlink:href="#lg3"/><g><circle cx="256" cy="256" fill="url(#SVGID_1_)" r="256"/><circle cx="256" cy="256" fill="url(#SVGID_2_)" r="256"/><path d="m256 426.108c-98.921-.2-181.739-41.654-183.338-86.693-1.115-32.396 22.124-89.775 83.43-103.823 10.247-.027 20.494-.051 30.741-.07 21.346 3.914 44.704 6.087 69.167 6.086 24.463.001 47.821-2.171 69.167-6.086 10.247.019 20.494.042 30.741.07 61.307 14.049 84.545 71.426 83.43 103.823-1.6 45.039-84.417 86.493-183.338 86.693z" fill="url(#SVGID_3_)"/><path d="m256 426.108c-98.921-.2-181.739-41.654-183.338-86.693-1.115-32.396 22.124-89.775 83.43-103.823 10.247-.027 20.494-.051 30.741-.07 21.346 3.914 44.704 6.087 69.167 6.086 24.463.001 47.821-2.171 69.167-6.086 10.247.019 20.494.042 30.741.07 61.307 14.049 84.545 71.426 83.43 103.823-1.6 45.039-84.417 86.493-183.338 86.693z" fill="url(#SVGID_4_)"/><path d="m186.813 250.61c.002-5.029.009-10.058.019-15.087-38.37-25.977-76.53-51.594-113.895-76.107-1.82 60-1.912 120-.276 180-.946-32.384 40.935-60.105 102.075-73.856 7.049-1.571 12.074-7.757 12.077-14.95z" fill="url(#SVGID_5_)"/><path d="m439.339 339.415c1.636-60 1.544-120-.276-180-37.365 24.512-75.524 50.13-113.895 76.107.011 5.029.017 10.058.019 15.087.003 7.193 5.029 13.38 12.077 14.95 61.139 13.751 103.022 41.472 102.075 73.856z" fill="url(#SVGID_6_)"/><path d="m439.063 159.415c-1-31.095-40.72-60.046-96.931-75.684-9.512-2.634-18.51 4.55-18.343 14.504.821 45.762 1.28 91.525 1.379 137.288 67.607-12.536 115.023-41.657 113.895-76.108z" fill="url(#SVGID_7_)"/><path d="m186.833 235.522c.098-45.763.558-91.525 1.379-137.288.167-9.953-8.831-17.137-18.343-14.504-56.211 15.64-95.931 44.588-96.931 75.684-1.128 34.451 46.288 63.573 113.895 76.108z" fill="url(#SVGID_8_)"/><path d="m186.833 235.522c.098-45.763.558-91.525 1.379-137.288.167-9.953-8.831-17.137-18.343-14.504-56.211 15.64-95.931 44.588-96.931 75.684-1.128 34.451 46.288 63.573 113.895 76.108z" fill="url(#SVGID_9_)"/><path d="m325.168 235.522c-.099-45.763-.558-91.525-1.379-137.288-.167-9.953 8.83-17.137 18.343-14.504 56.211 15.64 95.931 44.588 96.931 75.684 1.128 34.451-46.289 63.573-113.895 76.108z" fill="url(#SVGID_10_)"/></g></svg>