<svg id="Layer_1" enable-background="new 0 0 512 512" height="512" viewBox="0 0 512 512" width="512" xmlns="http://www.w3.org/2000/svg" xmlns:xlink="http://www.w3.org/1999/xlink"><linearGradient id="SVGID_1_" gradientUnits="userSpaceOnUse" x1="74.98" x2="437.019" y1="437.019" y2="74.981"><stop offset="0" stop-color="#ff4747"/><stop offset="1" stop-color="#ff9ceb"/></linearGradient><radialGradient id="SVGID_2_" cx="256" cy="256" gradientUnits="userSpaceOnUse" r="256"><stop offset="0" stop-color="#ff2f2b"/><stop offset="1" stop-color="#ff9ceb" stop-opacity="0"/></radialGradient><linearGradient id="lg1"><stop offset="0" stop-color="#ffa9d4"/><stop offset=".2953" stop-color="#ffc6e3"/><stop offset=".7601" stop-color="#ffeff7"/><stop offset="1" stop-color="#fff"/></linearGradient><linearGradient id="SVGID_3_" gradientUnits="userSpaceOnUse" x1="-167.527" x2="302.162" xlink:href="#lg1" y1="679.527" y2="209.838"/><linearGradient id="SVGID_4_" gradientUnits="userSpaceOnUse" x1="-105.94" x2="370.901" xlink:href="#lg1" y1="625.735" y2="148.894"/><linearGradient id="SVGID_5_" gradientUnits="userSpaceOnUse" x1="217.063" x2="333.392" xlink:href="#lg1" y1="401.38" y2="285.051"/><linearGradient id="SVGID_6_" gradientUnits="userSpaceOnUse" x1="248.439" x2="347.263" xlink:href="#lg1" y1="370.122" y2="271.298"/><linearGradient id="SVGID_7_" gradientUnits="userSpaceOnUse" x1="207.09" x2="323.738" xlink:href="#lg1" y1="334.592" y2="217.944"/><linearGradient id="SVGID_8_" gradientUnits="userSpaceOnUse" x1="126.442" x2="416.346" xlink:href="#lg1" y1="277.907" y2="-11.997"/><linearGradient id="SVGID_9_" gradientUnits="userSpaceOnUse" x1="186.095" x2="387.185" xlink:href="#lg1" y1="218.595" y2="17.505"/><g><circle cx="256" cy="256" fill="url(#SVGID_1_)" r="256"/><circle cx="256" cy="256" fill="url(#SVGID_2_)" r="256"/><path d="m256 39.725c-57.702.256-106.027 52.949-106.963 110.275-1.58 132.842 92.922 321.069 91.959 321.07 4.903.788 9.911 1.205 15.004 1.205 57.702-.255 106.029-52.949 106.963-110.275.883-70.667.883-141.333 0-212-.936-57.325-49.262-110.019-106.963-110.275z" fill="url(#SVGID_3_)"/><path d="m256 254.975c-59.328-.346-107.748-47.651-106.962-104.975-.883 70.667-.883 141.333 0 212 .792 52.376 41.227 100.597 91.959 109.07 50.681-6.91 90.799-54.641 91.406-107.772.322-36.479.48-72.957.473-109.435-.004-11.626-12.796-19.135-22.983-13.292-15.851 9.107-34.267 14.409-53.893 14.404z" fill="url(#SVGID_4_)"/><path d="m286.568 362.388c-.071 16.931-13.767 30.959-30.568 30.962-16.801-.004-30.498-14.031-30.568-30.962-.068-16.938 13.629-30.527 30.568-30.538 16.939.011 30.635 13.6 30.568 30.538z" fill="url(#SVGID_5_)"/><path d="m271.284 362.547c-.018 8.485-6.862 15.428-15.284 15.428s-15.267-6.943-15.284-15.428c-.017-8.487 6.827-15.32 15.284-15.322 8.457.002 15.302 6.836 15.284 15.322z" fill="url(#SVGID_6_)"/><path d="m286.736 285.666c-.02 16.933-13.792 30.803-30.736 30.809-16.944-.006-30.716-13.875-30.736-30.809-.017-16.936 13.754-30.683 30.736-30.691 16.982.008 30.753 13.755 30.736 30.691z" fill="url(#SVGID_7_)"/><path d="m332.402 148.702c.411 41.727-33.953 75.39-76.402 75.523-42.448-.133-76.814-33.796-76.402-75.523.467-41.679 34.831-78.141 76.402-78.227 41.57.087 75.935 36.548 76.402 78.227z" fill="url(#SVGID_8_)"/><path d="m271.344 193.506c-42.404-.271-76.661-33.833-76.22-75.796.056-6.202.87-12.253 2.318-18.084-10.949 13.634-17.68 30.75-17.843 49.076-.411 41.727 33.953 75.39 76.402 75.523 36.188-.05 66.511-24.699 74.383-57.67-13.919 16.474-35.202 27.043-59.04 26.951z" fill="url(#SVGID_9_)"/></g></svg>