<svg id="Layer_1" enable-background="new 0 0 512 512" height="512" viewBox="0 0 512 512" width="512" xmlns="http://www.w3.org/2000/svg" xmlns:xlink="http://www.w3.org/1999/xlink"><linearGradient id="SVGID_1_" gradientUnits="userSpaceOnUse" x1="74.98" x2="437.019" y1="437.019" y2="74.981"><stop offset="0" stop-color="#00aa45"/><stop offset="1" stop-color="#d3ff33"/></linearGradient><radialGradient id="SVGID_2_" cx="256" cy="256" gradientUnits="userSpaceOnUse" r="256"><stop offset="0" stop-color="#00aa45"/><stop offset=".1015" stop-color="#0faf49" stop-opacity=".899"/><stop offset=".2954" stop-color="#35bd52" stop-opacity=".705"/><stop offset=".5614" stop-color="#73d462" stop-opacity=".439"/><stop offset=".8863" stop-color="#c7f377" stop-opacity=".114"/><stop offset="1" stop-color="#e6fe7f" stop-opacity="0"/></radialGradient><linearGradient id="lg1"><stop offset="0" stop-color="#00753b"/><stop offset=".7147" stop-color="#6ac232"/><stop offset="1" stop-color="#95e12e"/></linearGradient><linearGradient id="SVGID_3_" gradientUnits="userSpaceOnUse" x1="-27.87" x2="592.28" xlink:href="#lg1" y1="443.605" y2="-176.545"/><linearGradient id="lg2"><stop offset="0" stop-color="#008547"/><stop offset=".1212" stop-color="#128f45"/><stop offset=".3647" stop-color="#41aa41"/><stop offset=".7046" stop-color="#8cd63a"/><stop offset="1" stop-color="#d3ff33"/></linearGradient><linearGradient id="SVGID_4_" gradientUnits="userSpaceOnUse" x1="-86.098" x2="626.776" xlink:href="#lg2" y1="604.882" y2="-107.991"/><linearGradient id="SVGID_5_" gradientUnits="userSpaceOnUse" x1="-125.831" x2="708.328" xlink:href="#lg1" y1="645.008" y2="-189.152"/><linearGradient id="lg3"><stop offset="0" stop-color="#95e12e"/><stop offset=".3557" stop-color="#c0ed83"/><stop offset=".664" stop-color="#e2f7c6"/><stop offset=".8861" stop-color="#f7fdef"/><stop offset="1" stop-color="#fff"/></linearGradient><linearGradient id="SVGID_6_" gradientUnits="userSpaceOnUse" x1="78.229" x2="491.378" xlink:href="#lg3" y1="407.832" y2="-5.317"/><linearGradient id="SVGID_7_" gradientUnits="userSpaceOnUse" x1="12.267" x2="519.979" xlink:href="#lg3" y1="532.988" y2="25.276"/><linearGradient id="SVGID_8_" gradientUnits="userSpaceOnUse" x1="49.072" x2="536.146" xlink:href="#lg1" y1="291.136" y2="-195.939"/><linearGradient id="SVGID_9_" gradientUnits="userSpaceOnUse" x1="44.194" x2="430.158" xlink:href="#lg1" y1="333.144" y2="-52.82"/><linearGradient id="SVGID_10_" gradientTransform="matrix(-1 0 0 1 519.634 0)" gradientUnits="userSpaceOnUse" x1="258.437" x2="-234.424" xlink:href="#lg1" y1="437.722" y2="-55.139"/><linearGradient id="SVGID_11_" gradientTransform="matrix(-1 0 0 1 519.634 0)" gradientUnits="userSpaceOnUse" x1="279.157" x2="-110.372" xlink:href="#lg1" y1="421.489" y2="31.96"/><linearGradient id="SVGID_12_" gradientUnits="userSpaceOnUse" x1="181.948" x2="386.271" xlink:href="#lg2" y1="383.886" y2="179.564"/><linearGradient id="SVGID_13_" gradientUnits="userSpaceOnUse" x1="295.511" x2="380.765" xlink:href="#lg2" y1="293.464" y2="208.21"/><g><circle cx="256" cy="256" fill="url(#SVGID_1_)" r="256"/><circle cx="256" cy="256" fill="url(#SVGID_2_)" r="256"/><path d="m368.5 111.167c-75-1.389-150-1.389-225 0-16.53.322-30.699 14.247-31.407 31.008-.616 15.189-1.1 30.379-1.451 45.568 96.906-.99 193.812-.99 290.718 0-.352-15.189-.836-30.379-1.451-45.568-.711-16.76-14.879-30.687-31.409-31.008z" fill="url(#SVGID_3_)"/><path d="m447.956 218.393c8.482.052 15.254-6.615 15.044-14.893-.896-33.039-29.755-60.642-63.093-61.325-95.938-1.733-191.877-1.733-287.815 0-33.336.683-62.196 28.286-63.092 61.325-.21 8.279 6.562 14.944 15.044 14.893-.463 30.107-.231 60.214.694 90.321-8.451-.107-15.089 6.508-14.738 14.786 1.479 33.039 30.521 60.85 63.5 61.704 95 2.228 190 2.228 285 0 32.979-.854 62.02-28.665 63.5-61.704.351-8.279-6.285-14.894-14.738-14.786.925-30.107 1.157-60.214.694-90.321z" fill="url(#SVGID_4_)"/><path d="m385.704 172.369c-86.469-.991-172.939-.991-259.408 0-16.832.209-30.961 13.974-31.296 30.687-.778 40.395-.519 80.79.778 121.185.556 16.713 14.761 30.558 31.463 30.844 85.84 1.387 171.679 1.387 257.519 0 16.703-.286 30.905-14.131 31.463-30.844 1.296-40.395 1.556-80.79.778-121.185-.336-16.713-14.465-30.478-31.297-30.687z" fill="url(#SVGID_5_)"/><path d="m171.845 187.249c-15.301.091-30.602.206-45.903.346-8.433.08-15.462 6.966-15.609 15.337-.704 40.505-.469 81.01.704 121.514.248 8.371 7.312 15.292 15.692 15.412 65.903.91 131.806 1.123 197.708.642-49.861-50.74-102.268-102.51-152.592-153.251z" fill="url(#SVGID_6_)"/><path d="m386.058 187.595c-71.404-.653-142.809-.768-214.213-.346-.944 84.36 69.201 153.807 152.593 153.251 20.278-.148 40.556-.362 60.833-.642 8.38-.12 15.445-7.041 15.692-15.412 1.173-40.505 1.407-81.01.704-121.514-.148-8.37-7.175-15.256-15.609-15.337z" fill="url(#SVGID_7_)"/><path d="m48.5 233.5c-.167 20 0 40 .5 60 .209 8.279 7.293 15.095 15.738 15.214 10.201.137 20.401.263 30.602.379 9.812-15.033 19.843-30.163 30.011-45.366-10.326-15.25-20.552-30.432-30.595-45.523-10.238.058-20.475.121-30.713.189-8.477.062-15.473 6.829-15.543 15.107z" fill="url(#SVGID_8_)"/><path d="m125.47 218.048c-10.238.046-20.475.099-30.713.156-.389 30.296-.195 60.593.583 90.889 10.2.115 20.401.219 30.602.313 8.449.081 15.169-6.697 15.058-15.128-.278-20.346-.37-40.691-.278-61.037.036-8.43-6.773-15.235-15.252-15.193z" fill="url(#SVGID_9_)"/><path d="m463.5 233.5c.167 20 0 40-.5 60-.209 8.279-7.293 15.095-15.738 15.214-10.2.137-20.402.263-30.602.379-9.812-15.033-19.843-30.163-30.011-45.366 10.325-15.25 20.552-30.432 30.595-45.523 10.238.058 20.475.121 30.713.189 8.477.062 15.473 6.829 15.543 15.107z" fill="url(#SVGID_10_)"/><path d="m386.53 218.048c10.238.046 20.475.099 30.713.156.389 30.296.194 60.593-.583 90.889-10.2.115-20.401.219-30.602.313-8.447.081-15.168-6.697-15.058-15.128.278-20.346.37-40.691.278-61.037-.036-8.43 6.773-15.235 15.252-15.193z" fill="url(#SVGID_11_)"/><path d="m279 294.612c-16.896.021-30.671-13.783-30.685-30.737-.003-16.954 13.793-30.752 30.741-30.745 15.371.006 30.741.019 46.111.037 16.946.03 30.807 13.773 30.741 30.621-.074 16.849-14.012 30.641-30.907 30.712-15.334.056-30.668.093-46.001.112z" fill="url(#SVGID_12_)"/><path d="m340.537 263.813c-.029 8.454-6.953 15.332-15.433 15.354-8.478.022-15.325-6.838-15.308-15.317.019-8.479 6.898-15.352 15.391-15.35 8.492.003 15.379 6.859 15.35 15.313z" fill="url(#SVGID_13_)"/></g></svg>