<svg id="Layer_1" enable-background="new 0 0 512 512" height="512" viewBox="0 0 512 512" width="512" xmlns="http://www.w3.org/2000/svg" xmlns:xlink="http://www.w3.org/1999/xlink"><linearGradient id="lg1"><stop offset="0" stop-color="#364aff"/><stop offset="1" stop-color="#fc54ff"/></linearGradient><linearGradient id="SVGID_1_" gradientUnits="userSpaceOnUse" x1="74.98" x2="437.019" xlink:href="#lg1" y1="437.019" y2="74.981"/><radialGradient id="SVGID_2_" cx="256" cy="256" gradientUnits="userSpaceOnUse" r="258.6"><stop offset="0" stop-color="#8d00db" stop-opacity=".66"/><stop offset=".2069" stop-color="#9f0de1" stop-opacity=".523"/><stop offset=".6178" stop-color="#cc30f0" stop-opacity=".252"/><stop offset="1" stop-color="#fc54ff" stop-opacity="0"/></radialGradient><linearGradient id="SVGID_3_" gradientUnits="userSpaceOnUse" x1="169.57" x2="405.72" xlink:href="#lg1" y1="208.166" y2="-27.984"/><linearGradient id="SVGID_4_" gradientUnits="userSpaceOnUse" x1="195.629" x2="416.725" xlink:href="#lg1" y1="150.34" y2="-70.757"/><linearGradient id="SVGID_5_" gradientUnits="userSpaceOnUse" x1="256" x2="256" y1="129.706" y2="34.26"><stop offset="0" stop-color="#8d00db" stop-opacity=".66"/><stop offset=".0039" stop-color="#8e01db" stop-opacity=".658"/><stop offset=".0915" stop-color="#9c17e5" stop-opacity=".6"/><stop offset=".1942" stop-color="#a728ec" stop-opacity=".532"/><stop offset=".3222" stop-color="#ae33f1" stop-opacity=".447"/><stop offset=".5016" stop-color="#b33af4" stop-opacity=".329"/><stop offset="1" stop-color="#b43cf5" stop-opacity="0"/></linearGradient><linearGradient id="lg2"><stop offset="0" stop-color="#fc54ff"/><stop offset=".4062" stop-color="#fd9bff"/><stop offset="1" stop-color="#fff"/></linearGradient><linearGradient id="SVGID_6_" gradientUnits="userSpaceOnUse" x1="26.835" x2="435.179" xlink:href="#lg2" y1="385.934" y2="-22.41"/><linearGradient id="SVGID_7_" gradientUnits="userSpaceOnUse" x1="256" x2="256" y1="176.36" y2="84.11"><stop offset="0" stop-color="#8d00db" stop-opacity=".66"/><stop offset=".05" stop-color="#a613e3" stop-opacity=".627"/><stop offset=".1182" stop-color="#c127ec" stop-opacity=".582"/><stop offset=".1965" stop-color="#d738f3" stop-opacity=".53"/><stop offset=".2879" stop-color="#e844f8" stop-opacity=".47"/><stop offset=".401" stop-color="#f34dfc" stop-opacity=".395"/><stop offset=".5596" stop-color="#fa53fe" stop-opacity=".291"/><stop offset="1" stop-color="#fc54ff" stop-opacity="0"/></linearGradient><linearGradient id="SVGID_8_" gradientUnits="userSpaceOnUse" x1="-359.167" x2="665.955" xlink:href="#lg2" y1="885.124" y2="-139.998"/><linearGradient id="SVGID_9_" gradientUnits="userSpaceOnUse" x1="-27.565" x2="323.466" xlink:href="#lg1" y1="388.032" y2="37.001"/><linearGradient id="SVGID_10_" gradientUnits="userSpaceOnUse" x1="-68.254" x2="457.069" xlink:href="#lg1" y1="732.05" y2="206.727"/><linearGradient id="SVGID_11_" gradientUnits="userSpaceOnUse" x1="-89.102" x2="436.671" xlink:href="#lg1" y1="601.055" y2="75.282"/><linearGradient id="SVGID_12_" gradientUnits="userSpaceOnUse" x1="78.861" x2="439.597" xlink:href="#lg1" y1="433.948" y2="73.211"/><linearGradient id="SVGID_13_" gradientUnits="userSpaceOnUse" x1="85.937" x2="532.871" xlink:href="#lg2" y1="586.901" y2="139.968"/><linearGradient id="SVGID_14_" gradientUnits="userSpaceOnUse" x1="326.053" x2="448.526" xlink:href="#lg1" y1="429.07" y2="306.598"/><linearGradient id="SVGID_15_" gradientUnits="userSpaceOnUse" x1="348.998" x2="437.87" xlink:href="#lg1" y1="406.138" y2="317.266"/><linearGradient id="lg3"><stop offset="0" stop-color="#fc54ff" stop-opacity="0"/><stop offset=".154" stop-color="#f54efd" stop-opacity=".102"/><stop offset=".3855" stop-color="#e03ff6" stop-opacity=".254"/><stop offset=".6657" stop-color="#be25eb" stop-opacity=".439"/><stop offset=".9815" stop-color="#9002dc" stop-opacity=".648"/><stop offset="1" stop-color="#8d00db" stop-opacity=".66"/></linearGradient><radialGradient id="SVGID_16_" cx="384.952" cy="370.427" gradientUnits="userSpaceOnUse" r="39.831" xlink:href="#lg3"/><linearGradient id="SVGID_17_" gradientUnits="userSpaceOnUse" x1="71.07" x2="187.97" xlink:href="#lg1" y1="426.396" y2="309.496"/><linearGradient id="SVGID_18_" gradientUnits="userSpaceOnUse" x1="92.978" x2="177.778" xlink:href="#lg1" y1="404.506" y2="319.706"/><radialGradient id="SVGID_19_" cx="127.048" cy="370.427" gradientUnits="userSpaceOnUse" r="39.831" xlink:href="#lg3"/><g><circle cx="256" cy="256" fill="url(#SVGID_1_)" r="256"/><circle cx="256" cy="256" fill="url(#SVGID_2_)" r="256"/><path d="m286 64.282c-10-.063-20-.095-30-.095v76.875c12.713 0 25.425.028 38.138.084-.138-23.043-.324-46.086-.558-69.13-.045-4.241-3.439-7.707-7.58-7.734z" fill="url(#SVGID_3_)"/><path d="m256 64.188c-10 0-20 .032-30 .095-4.14.026-7.535 3.493-7.58 7.734-.234 23.043-.42 46.086-.558 69.13 15.255-.067 30.51-.094 45.766-.08-.028-23.062-.065-46.123-.112-69.185-.01-4.247-3.375-7.695-7.516-7.694z" fill="url(#SVGID_4_)"/><path d="m286 64.282c-20-.126-40-.126-60 0-4.14.026-7.535 3.493-7.58 7.734-.234 23.043-.42 46.086-.558 69.13 25.425-.111 50.851-.111 76.276 0-.138-23.043-.324-46.086-.558-69.13-.045-4.241-3.439-7.707-7.58-7.734z" fill="url(#SVGID_5_)"/><path d="m318.265 134.932c-5.777-5.798-13.546-9.09-21.616-9.134-27.1-.147-54.199-.147-81.299 0-8.07.043-15.839 3.336-21.616 9.134-7.259 7.286-14.537 14.571-21.826 21.848 27.801 20.189 55.915 40.658 84.091 61.158 28.176-20.5 56.289-40.969 84.091-61.158-7.287-7.277-14.565-14.562-21.825-21.848z" fill="url(#SVGID_6_)"/><path d="m318.265 134.932c-5.777-5.798-13.546-9.09-21.616-9.134-27.1-.147-54.199-.147-81.299 0-8.07.043-15.839 3.336-21.616 9.134-7.259 7.286-14.537 14.571-21.826 21.848 27.801 20.189 55.915 40.658 84.091 61.158 28.176-20.5 56.289-40.969 84.091-61.158-7.287-7.277-14.565-14.562-21.825-21.848z" fill="url(#SVGID_7_)"/><path d="m416.537 157.685c-107.025-1.664-214.049-1.664-321.074 0-25.296.439-46.452 21.016-46.786 45.815-.383 30-.306 60 .23 90 .221 12.403 5.65 23.749 14.172 32.085 4.332 4.236 8.665 8.481 12.997 12.734 2.942 2.888 4.659 6.764 4.782 10.77.209 6.762.438 13.524.686 20.285.969 24.975 22.17 46.026 46.957 46.728 15 .402 30 .734 45 .994 27.38-4.627 54.886-9.534 82.5-14.659 27.614 5.125 55.12 10.032 82.5 14.659 15-.26 30-.592 45-.994 24.786-.703 45.988-21.753 46.957-46.728.248-6.762.477-13.524.686-20.285.124-4.006 1.84-7.882 4.782-10.77 4.332-4.253 8.665-8.498 12.997-12.734 8.522-8.336 13.95-19.683 14.172-32.085.536-30 .612-60 .23-90-.336-24.799-21.492-45.375-46.788-45.815z" fill="url(#SVGID_8_)"/><path d="m94.927 187.982c-16.933.186-30.913 13.833-31.035 30.438-.177 25.089-.059 50.178.354 75.268.283 16.605 14.344 30.346 31.216 30.628 10.193.158 20.386.302 30.578.43-.795-45.679-.94-91.358-.434-137.037-10.225.081-20.452.172-30.679.273z" fill="url(#SVGID_9_)"/><path d="m417.073 187.982c-10.227-.101-20.454-.192-30.681-.274.506 45.679.362 91.358-.434 137.037 10.193-.128 20.386-.272 30.578-.43 16.872-.282 30.934-14.022 31.216-30.628.414-25.089.532-50.178.354-75.268-.12-16.605-14.1-30.251-31.033-30.437z" fill="url(#SVGID_10_)"/><path d="m417.073 294.019c.347-25.247.447-50.494.298-75.741-.103-16.714-14.044-30.418-30.978-30.57-86.928-.694-173.856-.694-260.784 0-16.934.151-30.875 13.856-30.978 30.57-.149 25.247-.05 50.494.298 75.741.239 16.713 14.242 30.498 31.114 30.726 21.4.256 39.597 15.123 44.928 35.054 1.81 6.731 7.977 11.44 14.837 11.514 46.796.499 93.591.499 140.387 0 6.86-.074 13.028-4.784 14.837-11.514 5.331-19.93 23.528-34.797 44.928-35.054 16.871-.228 30.873-14.013 31.113-30.726z" fill="url(#SVGID_11_)"/><path d="m140.693 233.371c-.022 15.683.024 31.366.137 47.049.062 8.424 7.001 15.307 15.47 15.362 66.467.415 132.934.415 199.402 0 8.469-.056 15.408-6.938 15.47-15.362.113-15.683.158-31.366.137-47.049-.012-8.424-6.925-15.277-15.411-15.302-66.597-.174-133.195-.174-199.792 0-8.488.024-15.401 6.877-15.413 15.302z" fill="url(#SVGID_12_)"/><path d="m317.641 395.723c-5.57-5.69-13.228-8.854-21.249-8.8-26.928.186-53.856.186-80.783 0-8.02-.055-15.679 3.11-21.249 8.8-7.002 7.152-13.958 14.278-20.86 21.374 55 .954 110 .954 165 0-6.902-7.096-13.858-14.223-20.859-21.374z" fill="url(#SVGID_13_)"/><path d="m415.286 369.759c-.58 16.713-14.646 30.696-31.256 31.117-16.614.42-29.746-13.032-29.424-29.928.331-16.898 14.197-30.738 31.063-30.977 16.864-.233 30.196 13.074 29.617 29.788z" fill="url(#SVGID_14_)"/><path d="m392.072 385.479c-16.679.403-29.87-13.041-29.563-29.923.036-1.87.248-3.701.602-5.483-5.135 5.516-8.341 12.854-8.505 20.875-.322 16.896 12.811 30.347 29.424 29.928 14.775-.37 27.509-11.48 30.576-25.674-5.745 6.114-13.768 10.072-22.534 10.277z" fill="url(#SVGID_15_)"/><path d="m415.286 369.759c-.58 16.713-14.646 30.696-31.256 31.117-16.614.42-29.746-13.032-29.424-29.928.331-16.898 14.197-30.738 31.063-30.977 16.864-.233 30.196 13.074 29.617 29.788z" fill="url(#SVGID_16_)"/><path d="m157.394 370.949c.322 16.896-12.811 30.347-29.424 29.928-16.611-.421-30.676-14.405-31.256-31.117-.578-16.715 12.754-30.021 29.617-29.788 16.866.239 30.733 14.078 31.063 30.977z" fill="url(#SVGID_17_)"/><path d="m135.047 385.812c-16.675-.36-30.714-14.305-31.202-31.042-.052-1.857.075-3.669.349-5.429-4.89 5.316-7.747 12.473-7.48 20.419.58 16.713 14.646 30.696 31.256 31.117 14.778.37 26.774-10.219 29.044-24.455-5.408 5.943-13.199 9.572-21.967 9.39z" fill="url(#SVGID_18_)"/><path d="m157.394 370.949c.322 16.896-12.811 30.347-29.424 29.928-16.611-.421-30.676-14.405-31.256-31.117-.578-16.715 12.754-30.021 29.617-29.788 16.866.239 30.733 14.078 31.063 30.977z" fill="url(#SVGID_19_)"/></g></svg>