<svg id="Layer_1" enable-background="new 0 0 512 512" height="512" viewBox="0 0 512 512" width="512" xmlns="http://www.w3.org/2000/svg" xmlns:xlink="http://www.w3.org/1999/xlink"><linearGradient id="lg1"><stop offset="0" stop-color="#ff4747"/><stop offset="1" stop-color="#fff200"/></linearGradient><linearGradient id="SVGID_1_" gradientUnits="userSpaceOnUse" x1="74.98" x2="437.019" xlink:href="#lg1" y1="437.019" y2="74.981"/><radialGradient id="SVGID_2_" cx="256" cy="256" gradientUnits="userSpaceOnUse" r="256"><stop offset="0" stop-color="#ff4747" stop-opacity=".8"/><stop offset=".1112" stop-color="#ff4f49" stop-opacity=".711"/><stop offset=".2769" stop-color="#ff634f" stop-opacity=".579"/><stop offset=".4766" stop-color="#ff8458" stop-opacity=".419"/><stop offset=".7029" stop-color="#ffb265" stop-opacity=".238"/><stop offset=".9485" stop-color="#ffed74" stop-opacity=".041"/><stop offset="1" stop-color="#fffa78" stop-opacity="0"/></radialGradient><linearGradient id="SVGID_3_" gradientUnits="userSpaceOnUse" x1="-58.468" x2="262.717" y1="593.052" y2="271.867"><stop offset="0" stop-color="#ff4d4d"/><stop offset=".1663" stop-color="#ff5b44"/><stop offset=".483" stop-color="#ff812d"/><stop offset=".914" stop-color="#ffbe08"/><stop offset="1" stop-color="#ffcb00"/></linearGradient><linearGradient id="SVGID_4_" gradientUnits="userSpaceOnUse" x1="256" x2="256" y1="418.899" y2="272.024"><stop offset="0" stop-color="#fffa78" stop-opacity="0"/><stop offset=".164" stop-color="#ffee6b" stop-opacity=".131"/><stop offset=".4667" stop-color="#ffcf49" stop-opacity=".373"/><stop offset=".8715" stop-color="#ff9d13" stop-opacity=".697"/><stop offset="1" stop-color="#ff8c00" stop-opacity=".8"/></linearGradient><linearGradient id="lg2"><stop offset="0" stop-color="#ffb11d"/><stop offset=".4622" stop-color="#ffd449"/><stop offset="1" stop-color="#fffa78"/></linearGradient><linearGradient id="SVGID_5_" gradientUnits="userSpaceOnUse" x1="-410.57" x2="397.655" xlink:href="#lg2" y1="915.452" y2="107.227"/><linearGradient id="SVGID_6_" gradientUnits="userSpaceOnUse" x1="16.5" x2="372.919" xlink:href="#lg2" y1="390.544" y2="34.125"/><linearGradient id="SVGID_7_" gradientUnits="userSpaceOnUse" x1="-143.349" x2="540.561" xlink:href="#lg2" y1="695.145" y2="11.235"/><linearGradient id="SVGID_8_" gradientUnits="userSpaceOnUse" x1="256" x2="256" y1="411.555" y2="95.881"><stop offset="0" stop-color="#fffa78" stop-opacity="0"/><stop offset=".3088" stop-color="#fff876" stop-opacity=".247"/><stop offset=".4806" stop-color="#fff06e" stop-opacity=".385"/><stop offset=".6188" stop-color="#ffe460" stop-opacity=".495"/><stop offset=".7391" stop-color="#ffd24c" stop-opacity=".591"/><stop offset=".8478" stop-color="#fb3" stop-opacity=".678"/><stop offset=".9467" stop-color="#ff9e14" stop-opacity=".757"/><stop offset="1" stop-color="#ff8c00" stop-opacity=".8"/></linearGradient><linearGradient id="SVGID_9_" gradientUnits="userSpaceOnUse" x1="91.349" x2="302.402" xlink:href="#lg1" y1="344.016" y2="132.962"/><linearGradient id="SVGID_10_" gradientUnits="userSpaceOnUse" x1="130.52" x2="271.781" xlink:href="#lg1" y1="304.846" y2="163.585"/><linearGradient id="lg3"><stop offset=".0053" stop-color="#ff8c00" stop-opacity="0"/><stop offset=".2508" stop-color="#ff8804" stop-opacity=".247"/><stop offset=".4812" stop-color="#ff7e0f" stop-opacity=".478"/><stop offset=".7055" stop-color="#ff6b22" stop-opacity=".704"/><stop offset=".925" stop-color="#ff523d" stop-opacity=".925"/><stop offset="1" stop-color="#ff4747"/></linearGradient><radialGradient id="SVGID_11_" cx="179.125" cy="255.936" gradientUnits="userSpaceOnUse" r="67.666" xlink:href="#lg3"/><linearGradient id="SVGID_12_" gradientUnits="userSpaceOnUse" x1="244.495" x2="455.544" xlink:href="#lg1" y1="344.014" y2="132.965"/><linearGradient id="SVGID_13_" gradientUnits="userSpaceOnUse" x1="283.603" x2="425.645" xlink:href="#lg1" y1="304.904" y2="162.862"/><radialGradient id="SVGID_14_" cx="332.875" cy="255.936" gradientUnits="userSpaceOnUse" r="67.666" xlink:href="#lg3"/><g><circle cx="256" cy="256" fill="url(#SVGID_1_)" r="256"/><circle cx="256" cy="256" fill="url(#SVGID_2_)" r="256"/><path d="m332.557 202.398c-51.038-.28-102.076-.28-153.115 0-.605 51.05-.346 102.1.778 153.15 50.52.52 101.039.52 151.559 0 1.124-51.05 1.383-102.1.778-153.15z" fill="url(#SVGID_3_)"/><path d="m332.557 202.398c-51.038-.28-102.076-.28-153.115 0-.605 51.05-.346 102.1.778 153.15 50.52.52 101.039.52 151.559 0 1.124-51.05 1.383-102.1.778-153.15z" fill="url(#SVGID_4_)"/><path d="m413.5 127.499c-105-3-210-3-315 0-16.527.495-30.985 14.397-31.946 30.939-3.373 60-3.634 120-.784 180 .812 16.542 15.228 30.388 31.851 30.828 25.139.63 50.279 1.109 75.418 1.439 11.34-30.445 23.398-61.053 35.724-91.74 31.389.045 62.778.045 94.167 0 12.428 30.687 24.59 61.296 36.03 91.739 25.139-.33 50.279-.81 75.418-1.439 16.624-.439 31.04-14.285 31.851-30.828 2.85-60 2.588-120-.784-180-.96-16.542-15.418-30.443-31.945-30.938z" fill="url(#SVGID_5_)"/><path d="m172.016 187.076c-4.919-10.162-9.768-20.303-14.528-30.417-20.208.271-40.415.624-60.623 1.061-3.305 70.515-3.053 141.03.756 211.546.458 8.34 7.597 15.299 15.871 15.518 20.001.517 40.002.924 60.003 1.223-2.099-66.31-2.592-132.621-1.479-198.931z" fill="url(#SVGID_6_)"/><path d="m157.488 156.658c-2.046 71.277-1.89 142.554.468 213.83.287 8.432 7.265 15.392 15.54 15.518 7.185.107 14.369.201 21.554.28 5.243.058 10.046-2.698 12.695-7.265 8.098-18.116 16.431-36.281 24.889-54.47 4.202-9.04 13.27-14.803 23.243-14.804 9.942.001 18.989 5.729 23.208 14.728 8.551 18.231 16.975 36.437 25.162 54.593 2.655 4.54 7.443 7.276 12.667 7.217 27.198-.3 54.395-.802 81.593-1.504 8.275-.218 15.413-7.179 15.871-15.518 3.809-70.515 4.061-141.03.756-211.546-85.882-1.855-171.764-2.209-257.646-1.059z" fill="url(#SVGID_7_)"/><path d="m415.14 157.845c-106.093-2.292-212.187-2.292-318.28 0-3.301 70.515-3.045 141.03.769 211.546.459 8.34 7.598 15.3 15.872 15.519 27.184.703 54.369 1.204 81.553 1.505 5.243.059 10.046-2.698 12.694-7.265 8.097-18.116 16.43-36.281 24.888-54.47 4.201-9.04 13.27-14.803 23.242-14.804 9.942.001 18.989 5.729 23.207 14.728 8.55 18.231 16.974 36.436 25.161 54.593 2.655 4.54 7.443 7.276 12.666 7.217 27.196-.301 54.393-.802 81.589-1.505 8.274-.219 15.412-7.179 15.872-15.519 3.812-70.514 4.068-141.029.767-211.545z" fill="url(#SVGID_8_)"/><path d="m232.938 255.936c-.031 29.716-23.945 53.783-53.496 53.603-29.54-.204-54.11-24.272-54.129-53.602.021-29.33 24.592-53.398 54.131-53.603 29.549-.181 53.463 23.887 53.494 53.602z" fill="url(#SVGID_9_)"/><path d="m194.547 278.941c-29.667-.093-54.01-24.073-53.703-53.485.026-2.501.241-4.958.606-7.369-9.92 9.725-16.14 23.094-16.138 37.849.019 29.33 24.59 53.398 54.129 53.602 27.05.164 49.339-19.977 52.974-46.174-9.722 9.656-23.089 15.607-37.868 15.577z" fill="url(#SVGID_10_)"/><path d="m232.938 255.936c-.031 29.716-23.945 53.783-53.496 53.603-29.54-.204-54.11-24.272-54.129-53.602.021-29.33 24.592-53.398 54.131-53.603 29.549-.181 53.463 23.887 53.494 53.602z" fill="url(#SVGID_11_)"/><path d="m386.688 255.937c-.02 29.33-24.59 53.398-54.129 53.602-29.55.181-53.465-23.887-53.496-53.603.031-29.716 23.944-53.784 53.494-53.602 29.539.205 54.11 24.273 54.131 53.603z" fill="url(#SVGID_12_)"/><path d="m348.18 278.869c-29.678.107-53.689-23.949-53.795-53.653-.008-2.521.169-4.996.494-7.423-9.754 9.72-15.817 23.221-15.817 38.143.031 29.715 23.945 53.784 53.496 53.603 27.039-.176 49.879-20.378 53.596-46.254-9.756 9.562-23.197 15.541-37.974 15.584z" fill="url(#SVGID_13_)"/><path d="m386.688 255.937c-.02 29.33-24.59 53.398-54.129 53.602-29.55.181-53.465-23.887-53.496-53.603.031-29.716 23.944-53.784 53.494-53.602 29.539.205 54.11 24.273 54.131 53.603z" fill="url(#SVGID_14_)"/></g></svg>