<svg id="Layer_1" enable-background="new 0 0 512 512" height="512" viewBox="0 0 512 512" width="512" xmlns="http://www.w3.org/2000/svg" xmlns:xlink="http://www.w3.org/1999/xlink"><linearGradient id="lg1"><stop offset="0" stop-color="#560dff"/><stop offset="1" stop-color="#73ecff"/></linearGradient><linearGradient id="SVGID_1_" gradientUnits="userSpaceOnUse" x1="74.98" x2="437.019" xlink:href="#lg1" y1="437.019" y2="74.981"/><radialGradient id="SVGID_2_" cx="256" cy="256" gradientUnits="userSpaceOnUse" r="256"><stop offset="0" stop-color="#6b23ea"/><stop offset=".4299" stop-color="#676bef" stop-opacity=".57"/><stop offset=".8159" stop-color="#64a5f3" stop-opacity=".184"/><stop offset="1" stop-color="#63bcf5" stop-opacity="0"/></radialGradient><linearGradient id="SVGID_3_" gradientUnits="userSpaceOnUse" x1="191.829" x2="412.377" xlink:href="#lg1" y1="186.109" y2="-34.44"/><linearGradient id="SVGID_4_" gradientUnits="userSpaceOnUse" x1="194.402" x2="400.963" xlink:href="#lg1" y1="151.763" y2="-54.798"/><linearGradient id="SVGID_5_" gradientUnits="userSpaceOnUse" x1="256" x2="256" y1="131.481" y2="44.149"><stop offset="0" stop-color="#6b23ea"/><stop offset=".091" stop-color="#6943ec" stop-opacity=".909"/><stop offset=".2179" stop-color="#6768ef" stop-opacity=".782"/><stop offset=".3511" stop-color="#6686f1" stop-opacity=".649"/><stop offset=".49" stop-color="#659ef3" stop-opacity=".51"/><stop offset=".6372" stop-color="#64aff4" stop-opacity=".363"/><stop offset=".7984" stop-color="#63b9f5" stop-opacity=".202"/><stop offset="1" stop-color="#63bcf5" stop-opacity="0"/></linearGradient><linearGradient id="SVGID_6_" gradientUnits="userSpaceOnUse" x1="187.928" x2="428.158" xlink:href="#lg1" y1="255.407" y2="15.177"/><linearGradient id="SVGID_7_" gradientUnits="userSpaceOnUse" x1="184.218" x2="428.642" xlink:href="#lg1" y1="217.829" y2="-26.595"/><linearGradient id="SVGID_8_" gradientUnits="userSpaceOnUse" x1="256" x2="256" y1="173.585" y2="98.182"><stop offset="0" stop-color="#6b23ea"/><stop offset=".0208" stop-color="#6b2ceb" stop-opacity=".979"/><stop offset=".1155" stop-color="#6953ed" stop-opacity=".885"/><stop offset=".2174" stop-color="#6773f0" stop-opacity=".783"/><stop offset=".3266" stop-color="#658ef2" stop-opacity=".673"/><stop offset=".4455" stop-color="#64a2f3" stop-opacity=".555"/><stop offset=".5793" stop-color="#64b1f4" stop-opacity=".421"/><stop offset=".74" stop-color="#63b9f5" stop-opacity=".26"/><stop offset="1" stop-color="#63bcf5" stop-opacity="0"/></linearGradient><linearGradient id="lg2"><stop offset="0" stop-color="#389fff"/><stop offset=".1209" stop-color="#45affa"/><stop offset=".5726" stop-color="#73e9e7"/><stop offset=".79" stop-color="#85ffe0"/><stop offset=".881" stop-color="#9dffe6"/><stop offset="1" stop-color="#c2fff0"/></linearGradient><linearGradient id="SVGID_9_" gradientUnits="userSpaceOnUse" x1="120.106" x2="585.227" xlink:href="#lg2" y1="540.378" y2="75.257"/><linearGradient id="SVGID_10_" gradientUnits="userSpaceOnUse" x1="79.658" x2="446.936" xlink:href="#lg2" y1="344.494" y2="-22.785"/><linearGradient id="SVGID_11_" gradientUnits="userSpaceOnUse" x1="48.521" x2="619.245" xlink:href="#lg2" y1="493.068" y2="-77.656"/><linearGradient id="SVGID_12_" gradientUnits="userSpaceOnUse" x1="-8.821" x2="474.484" xlink:href="#lg2" y1="551.011" y2="67.706"/><linearGradient id="SVGID_13_" gradientUnits="userSpaceOnUse" x1="164.391" x2="509.018" xlink:href="#lg2" y1="378.441" y2="33.814"/><linearGradient id="SVGID_14_" gradientUnits="userSpaceOnUse" x1="253.906" x2="403.491" xlink:href="#lg1" y1="365.668" y2="216.082"/><linearGradient id="SVGID_15_" gradientUnits="userSpaceOnUse" x1="271.954" x2="399.768" xlink:href="#lg1" y1="347.888" y2="220.074"/><linearGradient id="lg3"><stop offset="0" stop-color="#63bcf5" stop-opacity="0"/><stop offset=".1451" stop-color="#63b7f5" stop-opacity=".145"/><stop offset=".3092" stop-color="#64aaf4" stop-opacity=".309"/><stop offset=".4826" stop-color="#6593f2" stop-opacity=".483"/><stop offset=".6626" stop-color="#6773f0" stop-opacity=".663"/><stop offset=".8455" stop-color="#694bed" stop-opacity=".846"/><stop offset="1" stop-color="#6b23ea"/></linearGradient><radialGradient id="SVGID_16_" cx="332.686" cy="287.104" gradientUnits="userSpaceOnUse" r="46.694" xlink:href="#lg3"/><linearGradient id="SVGID_17_" gradientUnits="userSpaceOnUse" x1="101.762" x2="249.479" xlink:href="#lg1" y1="364.685" y2="216.968"/><linearGradient id="SVGID_18_" gradientUnits="userSpaceOnUse" x1="119.649" x2="245.618" xlink:href="#lg1" y1="347.062" y2="221.093"/><radialGradient id="SVGID_19_" cx="179.314" cy="287.104" gradientUnits="userSpaceOnUse" r="46.694" xlink:href="#lg3"/><g><circle cx="256" cy="256" fill="url(#SVGID_1_)" r="256"/><circle cx="256" cy="256" fill="url(#SVGID_2_)" r="256"/><path d="m286 64.481c-10-.07-20-.106-30-.106v76.875c12.72 0 25.439.03 38.159.09-.139-23.04-.331-46.08-.575-69.12-.047-4.241-3.444-7.71-7.584-7.739z" fill="url(#SVGID_3_)"/><path d="m256 64.375c-10 0-20 .035-30 .106-4.14.029-7.537 3.498-7.583 7.739-.244 23.04-.436 46.08-.575 69.12 15.263-.072 30.527-.101 45.79-.086-.028-23.062-.066-46.123-.115-69.185-.011-4.245-3.377-7.694-7.517-7.694z" fill="url(#SVGID_4_)"/><path d="m286 64.481c-20-.141-40-.141-60 0-4.14.029-7.537 3.498-7.583 7.739-.244 23.04-.436 46.08-.575 69.12 25.439-.12 50.878-.12 76.317 0-.139-23.04-.331-46.08-.575-69.12-.047-4.241-3.444-7.71-7.584-7.739z" fill="url(#SVGID_5_)"/><path d="m294.058 125.98c-10.149-.056-20.298-.09-30.446-.101.029 20.499.05 40.998.062 61.498 15.347.007 30.694.036 46.041.086-.065-15.346-.163-30.691-.293-46.037-.077-8.472-6.962-15.398-15.364-15.446z" fill="url(#SVGID_6_)"/><path d="m263.612 125.88c-15.223-.017-30.446.017-45.669.101-8.403.048-15.288 6.973-15.364 15.446-.13 15.346-.228 30.691-.293 46.037 25.578-.084 51.157-.108 76.736-.072-.028-15.37-.07-30.739-.126-46.109-.036-8.488-6.881-15.394-15.284-15.403z" fill="url(#SVGID_7_)"/><path d="m294.058 125.98c-25.372-.14-50.744-.14-76.116 0-8.403.048-15.288 6.973-15.364 15.446-.13 15.346-.228 30.691-.293 46.037 35.81-.118 71.62-.118 107.43 0-.065-15.346-.163-30.691-.293-46.037-.077-8.472-6.962-15.398-15.364-15.446z" fill="url(#SVGID_8_)"/><path d="m386.266 172.694c-15.325-.163-30.651-.298-45.976-.403.682 76.512.085 153.024-1.79 229.536 15-.29 30-.66 45-1.109 33.011-1.072 61.504-29.189 62.789-62.218 1.265-35 1.898-70 1.898-105-.015-33.033-28.119-60.361-61.921-60.806z" fill="url(#SVGID_9_)"/><path d="m125.734 172.694c-33.802.445-61.905 27.773-61.922 60.806 0 35 .633 70 1.898 105 1.285 33.029 29.778 61.146 62.789 62.218 15 .449 30 .818 45 1.109-1.875-76.512-2.472-153.024-1.79-229.536-15.324.105-30.65.24-45.975.403z" fill="url(#SVGID_10_)"/><path d="m340.29 172.291c-56.193-.387-112.386-.387-168.58 0-33.805.294-61.755 27.802-61.773 61.21 0 35.37.481 70.739 1.443 106.109 1.001 33.402 29.106 61.519 62.12 62.218 55 1.065 110 1.065 165 0 33.015-.698 61.118-28.815 62.12-62.218.962-35.37 1.443-70.739 1.443-106.109-.019-33.408-27.968-60.916-61.773-61.21z" fill="url(#SVGID_11_)"/><path d="m180.117 356.02c-37.54-.549-69.235-31.958-69.819-69.466-.53-37.513 30.726-68.232 68.842-68.369 51.24-.08 102.479-.08 153.719 0 38.116.138 69.373 30.856 68.842 68.369-.583 37.508-32.278 68.917-69.818 69.466-50.588.64-101.177.64-151.766 0z" fill="url(#SVGID_12_)"/><path d="m179.141 248.815c.052 25.525.232 51.05.542 76.575 50.878.48 101.756.48 152.634 0 .31-25.525.491-51.05.542-76.575-51.239.08-102.479.08-153.718 0z" fill="url(#SVGID_13_)"/><path d="m371.028 286.84c-.243 21.017-17.663 38.332-38.711 38.55-21.05.211-38.028-16.917-37.975-38.13.068-21.215 17.288-38.422 38.517-38.445 21.226-.012 38.404 17.007 38.169 38.025z" fill="url(#SVGID_14_)"/><path d="m340.217 302.361c-21.123.177-38.166-16.948-38.129-38.154-4.838 6.424-7.715 14.407-7.745 23.053-.053 21.213 16.924 38.341 37.975 38.13 21.047-.218 38.468-17.533 38.711-38.549-7.098 9.308-18.293 15.422-30.812 15.52z" fill="url(#SVGID_15_)"/><path d="m371.028 286.84c-.243 21.017-17.663 38.332-38.711 38.55-21.05.211-38.028-16.917-37.975-38.13.068-21.215 17.288-38.422 38.517-38.445 21.226-.012 38.404 17.007 38.169 38.025z" fill="url(#SVGID_16_)"/><path d="m217.658 287.26c.054 21.213-16.924 38.341-37.975 38.13-21.048-.218-38.467-17.533-38.711-38.55-.235-21.019 16.943-38.037 38.168-38.025 21.229.023 38.45 17.23 38.518 38.445z" fill="url(#SVGID_17_)"/><path d="m187.095 302.469c-21.121-.152-38.502-17.411-38.633-38.454-4.787 6.354-7.582 14.248-7.49 22.825.242 21.017 17.663 38.332 38.711 38.55 21.05.211 38.028-16.916 37.975-38.129-6.965 9.308-18.042 15.29-30.563 15.208z" fill="url(#SVGID_18_)"/><path d="m217.658 287.26c.054 21.213-16.924 38.341-37.975 38.13-21.048-.218-38.467-17.533-38.711-38.55-.235-21.019 16.943-38.037 38.168-38.025 21.229.023 38.45 17.23 38.518 38.445z" fill="url(#SVGID_19_)"/></g></svg>