<svg id="Layer_1" enable-background="new 0 0 512 512" height="512" viewBox="0 0 512 512" width="512" xmlns="http://www.w3.org/2000/svg" xmlns:xlink="http://www.w3.org/1999/xlink"><linearGradient id="SVGID_1_" gradientUnits="userSpaceOnUse" x1="74.98" x2="437.019" y1="437.019" y2="74.981"><stop offset="0" stop-color="#ff4747"/><stop offset="1" stop-color="#ff9ceb"/></linearGradient><radialGradient id="SVGID_2_" cx="254.985" cy="231.662" gradientUnits="userSpaceOnUse" r="292.973"><stop offset="0" stop-color="#ff2f2b"/><stop offset=".0918" stop-color="#ff404a" stop-opacity=".908"/><stop offset=".2542" stop-color="#ff5c7b" stop-opacity=".746"/><stop offset=".4158" stop-color="#ff73a3" stop-opacity=".584"/><stop offset=".5733" stop-color="#ff85c3" stop-opacity=".427"/><stop offset=".7257" stop-color="#ff92d9" stop-opacity=".274"/><stop offset=".8705" stop-color="#ff99e6" stop-opacity=".13"/><stop offset="1" stop-color="#ff9ceb" stop-opacity="0"/></radialGradient><linearGradient id="lg1"><stop offset="0" stop-color="#ffa9d4"/><stop offset=".2953" stop-color="#ffc6e3"/><stop offset=".7601" stop-color="#ffeff7"/><stop offset="1" stop-color="#fff"/></linearGradient><linearGradient id="SVGID_3_" gradientUnits="userSpaceOnUse" x1="159.865" x2="426.792" xlink:href="#lg1" y1="370.978" y2="104.051"/><linearGradient id="SVGID_4_" gradientUnits="userSpaceOnUse" x1="138.251" x2="407.433" xlink:href="#lg1" y1="246.671" y2="-22.511"/><linearGradient id="SVGID_5_" gradientUnits="userSpaceOnUse" x1="256" x2="256" y1="219.642" y2="101.479"><stop offset="0" stop-color="#ff2f2b"/><stop offset=".1661" stop-color="#ff4a5a" stop-opacity=".834"/><stop offset=".3711" stop-color="#ff678e" stop-opacity=".629"/><stop offset=".564" stop-color="#ff7eb6" stop-opacity=".436"/><stop offset=".7389" stop-color="#ff8ed3" stop-opacity=".261"/><stop offset=".89" stop-color="#ff98e5" stop-opacity=".11"/><stop offset="1" stop-color="#ff9ceb" stop-opacity="0"/></linearGradient><linearGradient id="SVGID_6_" gradientUnits="userSpaceOnUse" x1="-466.158" x2="423.531" xlink:href="#lg1" y1="1062.406" y2="172.717"/><linearGradient id="SVGID_7_" gradientUnits="userSpaceOnUse" x1="43.578" x2="397.682" xlink:href="#lg1" y1="371.943" y2="17.838"/><linearGradient id="lg2"><stop offset="0" stop-color="#ff2f2b"/><stop offset="1" stop-color="#ff9ceb"/></linearGradient><linearGradient id="SVGID_8_" gradientUnits="userSpaceOnUse" x1="-269.45" x2="422.242" xlink:href="#lg2" y1="927.556" y2="235.864"/><linearGradient id="SVGID_9_" gradientUnits="userSpaceOnUse" x1="-121.388" x2="232.935" xlink:href="#lg2" y1="458.102" y2="103.779"/><linearGradient id="SVGID_10_" gradientUnits="userSpaceOnUse" x1="-579.941" x2="451.403" xlink:href="#lg2" y1="1069.71" y2="38.366"/><linearGradient id="SVGID_11_" gradientUnits="userSpaceOnUse" x1="76.676" x2="154.143" xlink:href="#lg2" y1="251.656" y2="174.189"/><linearGradient id="SVGID_12_" gradientUnits="userSpaceOnUse" x1="87.575" x2="149.379" xlink:href="#lg2" y1="240.757" y2="178.953"/><linearGradient id="SVGID_13_" gradientUnits="userSpaceOnUse" x1="301.026" x2="377.44" xlink:href="#lg2" y1="257.067" y2="180.653"/><linearGradient id="SVGID_14_" gradientUnits="userSpaceOnUse" x1="314.286" x2="375.503" xlink:href="#lg2" y1="243.806" y2="182.59"/><linearGradient id="SVGID_15_" gradientUnits="userSpaceOnUse" x1="363.744" x2="439.485" xlink:href="#lg2" y1="256.009" y2="180.267"/><linearGradient id="SVGID_16_" gradientUnits="userSpaceOnUse" x1="376.564" x2="437.545" xlink:href="#lg2" y1="243.189" y2="182.208"/><linearGradient id="SVGID_17_" gradientUnits="userSpaceOnUse" x1="137.791" x2="215.203" xlink:href="#lg2" y1="251.584" y2="174.172"/><linearGradient id="SVGID_18_" gradientUnits="userSpaceOnUse" x1="148.402" x2="210.262" xlink:href="#lg2" y1="240.974" y2="179.114"/><linearGradient id="SVGID_19_" gradientUnits="userSpaceOnUse" x1="180.237" x2="494.567" y1="556.954" y2="242.625"><stop offset="0" stop-color="#ff79a2"/><stop offset=".1772" stop-color="#ff8eb2"/><stop offset=".7347" stop-color="#ffcbdf"/><stop offset="1" stop-color="#ffe3f1"/></linearGradient><linearGradient id="lg3"><stop offset="0" stop-color="#ff79a2"/><stop offset=".6553" stop-color="#ffb0cf"/><stop offset="1" stop-color="#ffc8e3"/></linearGradient><linearGradient id="SVGID_20_" gradientUnits="userSpaceOnUse" x1="15.621" x2="270.123" xlink:href="#lg3" y1="405.082" y2="150.579"/><linearGradient id="SVGID_21_" gradientUnits="userSpaceOnUse" x1="-17.043" x2="374.782" xlink:href="#lg3" y1="570.648" y2="178.824"/><g><circle cx="256" cy="256" fill="url(#SVGID_1_)" r="256"/><circle cx="256" cy="256" fill="url(#SVGID_2_)" r="256"/><path d="m398.5 126.891c-15-.332-30-.612-45-.839-31.353 30.084-64.258 60.761-97.5 91.511 58.813-20.5 117.228-40.773 174.291-59.731-.886-16.662-15.264-30.556-31.791-30.941z" fill="url(#SVGID_3_)"/><path d="m353.5 126.052c-80-1.213-160-.933-240 .839-16.527.384-30.904 14.279-31.791 30.94 57.063 18.959 115.478 39.232 174.291 59.732 43.471-20.5 86.647-40.876 128.823-60.534-.664-16.803-14.794-30.714-31.323-30.977z" fill="url(#SVGID_4_)"/><path d="m398.5 126.891c-95-2.105-190-2.105-285 0-16.527.384-30.904 14.279-31.791 30.94 57.063 18.959 115.478 39.232 174.291 59.732 58.813-20.5 117.228-40.773 174.291-59.731-.886-16.662-15.264-30.556-31.791-30.941z" fill="url(#SVGID_5_)"/><path d="m430.291 157.832c-15.156-.308-30.312-.575-45.467-.802 1.147 30.453 1.765 60.905 1.853 91.358 25.564-20.273 50.858-40.303 75.467-59.887-.717-16.545-15.145-30.309-31.853-30.669z" fill="url(#SVGID_6_)"/><path d="m384.824 157.029c-101.038-1.516-202.076-1.248-303.114.802-16.707.361-31.136 14.124-31.853 30.669 67.873 18.875 136.961 39.313 206.143 59.813 53.808-20.5 107.543-40.962 160.334-60.479-.562-16.714-14.802-30.538-31.51-30.805z" fill="url(#SVGID_7_)"/><path d="m416.334 187.834c-19.379 30.037-39.786 60.469-60.472 91.099 35.915-10.286 71.858-20.497 107.683-30.432-.094-20-.561-40-1.401-60-15.27-.251-30.54-.473-45.81-.667z" fill="url(#SVGID_8_)"/><path d="m95.666 187.834c-15.27.194-30.54.417-45.81.667-.841 20-1.308 40-1.401 60 35.825 9.935 71.768 20.146 107.683 30.432-20.686-30.63-41.093-61.062-60.472-91.099z" fill="url(#SVGID_9_)"/><path d="m95.666 187.834c-.981 30.296-1.308 60.593-.981 90.889 107.543.454 215.087.454 322.63 0 .327-30.296 0-60.593-.981-90.889-106.889-1.361-213.779-1.361-320.668 0z" fill="url(#SVGID_10_)"/><path d="m125.588 217.934c-.121 8.413-7.052 15.253-15.54 15.282-8.486.028-15.299-6.725-15.145-15.086.153-8.362 7.188-15.213 15.638-15.292 8.453-.08 15.165 6.684 15.047 15.096z" fill="url(#SVGID_11_)"/><path d="m117.812 225.584c-8.481.037-15.27-6.718-15.095-15.091.046-2.224.588-4.335 1.5-6.246-5.371 2.43-9.203 7.74-9.315 13.884-.154 8.362 6.66 15.114 15.145 15.086 6.234-.023 11.618-3.721 14.089-9.018-1.935.872-4.072 1.374-6.324 1.385z" fill="url(#SVGID_12_)"/><path d="m355.727 217.78c.095 8.44-6.742 15.267-15.228 15.251-8.487-.017-15.394-6.894-15.457-15.364-.061-8.47 6.719-15.307 15.171-15.261 8.453.046 15.418 6.934 15.514 15.374z" fill="url(#SVGID_13_)"/><path d="m348.126 225.398c-8.482-.025-15.401-6.904-15.484-15.369-.023-2.247.45-4.373 1.295-6.291-5.286 2.378-8.942 7.708-8.895 13.928.062 8.47 6.97 15.347 15.457 15.364 6.232.013 11.565-3.675 13.925-8.973-1.92.861-4.046 1.349-6.298 1.341z" fill="url(#SVGID_14_)"/><path d="m417.097 218.13c.153 8.362-6.66 15.115-15.145 15.086-8.486-.029-15.419-6.869-15.54-15.282-.118-8.413 6.593-15.177 15.047-15.097 8.451.081 15.484 6.931 15.638 15.293z" fill="url(#SVGID_15_)"/><path d="m409.542 225.662c-8.483-.041-15.434-6.883-15.588-15.287-.042-2.23.413-4.338 1.241-6.239-5.264 2.34-8.873 7.62-8.784 13.798.121 8.413 7.053 15.253 15.54 15.282 6.232.023 11.551-3.625 13.881-8.869-1.912.848-4.038 1.327-6.29 1.315z" fill="url(#SVGID_16_)"/><path d="m186.959 217.667c-.063 8.47-6.97 15.347-15.457 15.364-8.486.016-15.324-6.81-15.228-15.251s7.063-15.328 15.514-15.375c8.452-.045 15.232 6.792 15.171 15.262z" fill="url(#SVGID_17_)"/><path d="m179.229 225.353c-8.481.02-15.304-6.808-15.198-15.256.028-2.244.551-4.371 1.446-6.295-5.347 2.43-9.133 7.777-9.203 13.978-.095 8.44 6.742 15.267 15.228 15.251 6.233-.013 11.604-3.731 14.046-9.059-1.932.874-4.067 1.375-6.319 1.381z" fill="url(#SVGID_18_)"/><path d="m417.424 248.426c-20.335 45.416-42.203 91.355-63.924 137.523 15-.227 30-.507 45-.84 32.969-.812 62.149-28.57 63.644-61.609 1.051-25 1.518-50 1.401-75-15.374-.027-30.747-.052-46.121-.074z" fill="url(#SVGID_19_)"/><path d="m94.576 248.426c-15.374.022-30.747.046-46.121.074-.117 25 .35 50 1.401 75 1.495 33.039 30.675 60.798 63.644 61.609 15 .332 30 .612 45 .84-21.721-46.168-43.589-92.107-63.924-137.523z" fill="url(#SVGID_20_)"/><path d="m94.576 248.426c-.091 25.247.272 50.494 1.09 75.741 1.19 33.386 29.861 61.223 62.834 61.782 7.5.114 15 .214 22.5.302 9.44.112 18.213-4.354 23.771-12.046 8.823-12.216 17.795-24.47 26.862-36.745 5.707-7.727 14.753-12.272 24.367-12.272s18.66 4.545 24.367 12.272c9.067 12.275 18.039 24.529 26.862 36.745 5.558 7.692 14.331 12.157 23.771 12.046 7.5-.087 15-.188 22.5-.302 32.972-.559 61.643-28.396 62.834-61.782.817-25.247 1.181-50.494 1.09-75.741-107.616-.151-215.232-.151-322.848 0z" fill="url(#SVGID_21_)"/></g></svg>