<svg id="Layer_1" enable-background="new 0 0 512 512" height="512" viewBox="0 0 512 512" width="512" xmlns="http://www.w3.org/2000/svg" xmlns:xlink="http://www.w3.org/1999/xlink"><linearGradient id="SVGID_1_" gradientUnits="userSpaceOnUse" x1="74.98" x2="437.018" y1="437.019" y2="74.981"><stop offset="0" stop-color="#00aa45"/><stop offset="1" stop-color="#d3ff33"/></linearGradient><radialGradient id="SVGID_2_" cx="257.52" cy="166.253" gradientUnits="userSpaceOnUse" r="349.875"><stop offset=".0631" stop-color="#00aa45"/><stop offset=".1397" stop-color="#19b34b" stop-opacity=".918"/><stop offset=".3771" stop-color="#61cd5d" stop-opacity=".665"/><stop offset=".5903" stop-color="#9ae26c" stop-opacity=".437"/><stop offset=".7717" stop-color="#c3f176" stop-opacity=".244"/><stop offset=".9141" stop-color="#ddfb7d" stop-opacity=".092"/><stop offset="1" stop-color="#e6fe7f" stop-opacity="0"/></radialGradient><linearGradient id="lg1"><stop offset="0" stop-color="#008547"/><stop offset=".1212" stop-color="#128f45"/><stop offset=".3647" stop-color="#41aa41"/><stop offset=".7046" stop-color="#8cd63a"/><stop offset="1" stop-color="#d3ff33"/></linearGradient><linearGradient id="SVGID_3_" gradientUnits="userSpaceOnUse" x1="163.858" x2="618.692" xlink:href="#lg1" y1="564.472" y2="109.638"/><linearGradient id="SVGID_4_" gradientUnits="userSpaceOnUse" x1="68.669" x2="720.939" xlink:href="#lg1" y1="567.168" y2="-85.102"/><linearGradient id="SVGID_5_" gradientUnits="userSpaceOnUse" x1="107.196" x2="1055.139" xlink:href="#lg1" y1="474.081" y2="-473.862"/><linearGradient id="SVGID_6_" gradientUnits="userSpaceOnUse" x1="46.341" x2="692.713" xlink:href="#lg1" y1="449.514" y2="-196.858"/><linearGradient id="lg2"><stop offset="0" stop-color="#00753b"/><stop offset=".7147" stop-color="#6ac232"/><stop offset="1" stop-color="#95e12e"/></linearGradient><linearGradient id="SVGID_7_" gradientUnits="userSpaceOnUse" x1="179.58" x2="525.208" xlink:href="#lg2" y1="240.187" y2="-105.441"/><linearGradient id="SVGID_8_" gradientUnits="userSpaceOnUse" x1="207.65" x2="514.556" xlink:href="#lg2" y1="212.829" y2="-94.077"/><linearGradient id="SVGID_9_" gradientUnits="userSpaceOnUse" x1="271.109" x2="398.679" xlink:href="#lg2" y1="330.345" y2="202.774"/><linearGradient id="SVGID_10_" gradientUnits="userSpaceOnUse" x1="264.329" x2="403.505" xlink:href="#lg2" y1="350.562" y2="211.386"/><linearGradient id="SVGID_11_" gradientUnits="userSpaceOnUse" x1="203.967" x2="359.99" xlink:href="#lg2" y1="338.322" y2="182.299"/><linearGradient id="SVGID_12_" gradientUnits="userSpaceOnUse" x1="217.897" x2="344.449" xlink:href="#lg2" y1="314.468" y2="187.916"/><linearGradient id="SVGID_13_" gradientUnits="userSpaceOnUse" x1="229.102" x2="455.953" xlink:href="#lg2" y1="417.357" y2="190.506"/><g><circle cx="256" cy="256" fill="url(#SVGID_1_)" r="256"/><circle cx="256" cy="256" fill="url(#SVGID_2_)" r="256"/><path d="m256 472.275c.037 0 .075-.003.111-.003-.036.001-.074.003-.111.003z" fill="url(#SVGID_3_)"/><path d="m257.978 258.48c0 71.248-.017 142.496-.048 213.744 36.277-1.148 65.991-33.153 66.477-70.271.435-40.639.688-81.278.759-121.917.012-8.093 3.261-15.868 9.027-21.581-25.405.016-50.81.024-76.215.025z" fill="url(#SVGID_4_)"/><path d="m254.021 258.48c-25.405 0-50.81-.009-76.215-.024 5.766 5.712 9.013 13.488 9.027 21.581.071 40.639.325 81.278.759 121.917.487 37.118 30.2 69.123 66.476 70.271-.03-71.249-.046-142.497-.047-213.745z" fill="url(#SVGID_5_)"/><path d="m342.972 249.776c22.24-22 35.892-51.681 35.47-84.776-1.076-65.528-56.549-124.97-122.442-125.275-65.893.306-121.367 59.746-122.442 125.275-.422 33.095 13.228 62.776 35.492 84.776-.038-.105 39.53 39.258 39.534 39.333 5.774 5.775 9.022 13.596 9.04 21.733.09 40.857.282 81.715.573 122.572.175 20.488 16.089 37.746 35.873 38.81.644.019 1.283.051 1.931.051.037 0 .074-.003.111-.003.611-.001 1.213-.03 1.819-.049 19.782-1.063 35.699-18.321 35.873-38.81.292-40.857.483-81.715.573-122.572.017-8.137 3.266-15.958 9.04-21.733 13.19-13.195 26.386-26.339 39.555-39.332z" fill="url(#SVGID_6_)"/><path d="m347.831 164.005c.497 49.973-40.894 90.804-91.832 90.97-50.937-.166-92.329-40.997-91.832-90.97.589-49.93 41.982-93.406 91.832-93.53 49.853.124 91.243 43.601 91.832 93.53z" fill="url(#SVGID_7_)"/><path d="m271.367 224.237c-50.938-.21-92.197-40.843-91.625-91.081.086-8.62 1.377-17 3.694-24.993-11.852 15.801-19.08 35.145-19.267 55.841-.494 49.973 40.894 90.804 91.832 90.97 42.231-.048 77.912-28.348 88.575-66.277-16.673 21.488-43.277 35.583-73.209 35.54z" fill="url(#SVGID_8_)"/><path d="m286.727 293.356c-12.729.045-23.051 10.376-23.055 23.114-.002 12.736 10.28 23.05 22.965 22.941 2.687-.023 5.263-.513 7.664-1.386 1.265-13.917 2.524-27.828 3.771-41.733-3.345-1.879-7.216-2.951-11.345-2.936z" fill="url(#SVGID_9_)"/><path d="m309.71 316.193c.03-8.564-4.663-15.986-11.637-19.902-2.394 4.438-3.685 9.432-3.696 14.551-.02 9.061-.045 18.121-.075 27.182 8.933-3.254 15.373-11.842 15.408-21.831z" fill="url(#SVGID_10_)"/><path d="m225.272 293.356c-4.129-.015-8 1.057-11.346 2.936 1.247 13.905 2.506 27.816 3.771 41.733 2.399.873 4.979 1.364 7.664 1.386 12.685.11 22.968-10.205 22.965-22.941-.002-12.738-10.324-23.069-23.054-23.114z" fill="url(#SVGID_11_)"/><path d="m213.927 296.291c-6.974 3.916-11.666 11.338-11.637 19.902.036 9.989 6.474 18.577 15.408 21.831-.03-9.061-.055-18.121-.075-27.182-.012-5.118-1.304-10.112-3.696-14.551z" fill="url(#SVGID_12_)"/><path d="m240.73 370.244c.025 13.491.054 26.981.087 40.472.025 8.486 6.824 15.434 15.183 15.434 8.358 0 15.159-6.948 15.183-15.434.033-13.491.063-26.981.087-40.472.018-8.488-6.821-15.33-15.27-15.331-8.451.001-15.288 6.844-15.27 15.331z" fill="url(#SVGID_13_)"/></g></svg>