<svg id="Layer_1" enable-background="new 0 0 512 512" height="512" viewBox="0 0 512 512" width="512" xmlns="http://www.w3.org/2000/svg" xmlns:xlink="http://www.w3.org/1999/xlink"><linearGradient id="lg1"><stop offset="0" stop-color="#364aff"/><stop offset="1" stop-color="#fc54ff"/></linearGradient><linearGradient id="SVGID_1_" gradientUnits="userSpaceOnUse" x1="74.981" x2="437.02" xlink:href="#lg1" y1="437.019" y2="74.98"/><radialGradient id="SVGID_2_" cx="254.986" cy="194.14" gradientUnits="userSpaceOnUse" r="319.012"><stop offset="0" stop-color="#8d00db" stop-opacity=".66"/><stop offset=".0917" stop-color="#9a09df" stop-opacity=".6"/><stop offset=".512" stop-color="#cf32f0" stop-opacity=".322"/><stop offset=".8275" stop-color="#f04bfb" stop-opacity=".114"/><stop offset="1" stop-color="#fc54ff" stop-opacity="0"/></radialGradient><linearGradient id="lg2"><stop offset="0" stop-color="#fc54ff"/><stop offset=".4062" stop-color="#fd9bff"/><stop offset="1" stop-color="#fff"/></linearGradient><linearGradient id="SVGID_3_" gradientUnits="userSpaceOnUse" x1="-347.769" x2="356.843" xlink:href="#lg2" y1="798.759" y2="94.147"/><linearGradient id="SVGID_4_" gradientUnits="userSpaceOnUse" x1="-149.045" x2="416.438" xlink:href="#lg2" y1="599.49" y2="34.008"/><linearGradient id="SVGID_5_" gradientUnits="userSpaceOnUse" x1="53.474" x2="362.597" xlink:href="#lg1" y1="396.744" y2="87.622"/><radialGradient id="SVGID_6_" cx="256" cy="193.475" gradientUnits="userSpaceOnUse" r="129.35"><stop offset="0" stop-color="#fc54ff" stop-opacity="0"/><stop offset=".1588" stop-color="#f650fd" stop-opacity=".105"/><stop offset=".3682" stop-color="#e643f8" stop-opacity=".243"/><stop offset=".6058" stop-color="#ca2eef" stop-opacity=".4"/><stop offset=".8623" stop-color="#a412e3" stop-opacity=".569"/><stop offset="1" stop-color="#8d00db" stop-opacity=".66"/></radialGradient><linearGradient id="SVGID_7_" gradientUnits="userSpaceOnUse" x1="29.611" x2="482.441" xlink:href="#lg2" y1="634.37" y2="181.54"/><linearGradient id="SVGID_8_" gradientUnits="userSpaceOnUse" x1="-92.317" x2="467.192" xlink:href="#lg2" y1="679.886" y2="120.377"/><linearGradient id="lg3"><stop offset="0" stop-color="#b31de7"/><stop offset="1" stop-color="#fda0ff"/></linearGradient><linearGradient id="SVGID_9_" gradientUnits="userSpaceOnUse" x1="78.589" x2="307.463" xlink:href="#lg3" y1="495.27" y2="266.396"/><linearGradient id="SVGID_10_" gradientUnits="userSpaceOnUse" x1="220.225" x2="302.993" xlink:href="#lg3" y1="331.638" y2="248.87"/><linearGradient id="SVGID_11_" gradientUnits="userSpaceOnUse" x1="239.506" x2="287.888" xlink:href="#lg3" y1="312.358" y2="263.976"/><g><circle cx="256" cy="256" fill="url(#SVGID_1_)" r="256"/><circle cx="256" cy="256" fill="url(#SVGID_2_)" r="256"/><path d="m409.437 195c.794 81.986-69.178 151.77-153.437 152.225-84.259-.455-154.23-70.239-153.437-152.225 1.228-81.933 71.2-154.872 153.437-155.275 82.237.403 152.209 73.342 153.437 155.275z" fill="url(#SVGID_3_)"/><path d="m378.749 194.451c.536 66.435-55.074 121.788-122.749 122.024-67.675-.236-123.285-55.589-122.749-122.024.757-66.402 56.368-123.773 122.749-123.976 66.381.203 121.991 57.574 122.749 123.976z" fill="url(#SVGID_4_)"/><path d="m363.406 194.222c.42 58.44-48.104 106.718-107.406 106.878-59.302-.16-107.826-48.439-107.406-106.878.57-58.413 49.095-108.237 107.406-108.372 58.311.135 106.836 49.959 107.406 108.372z" fill="url(#SVGID_5_)"/><path d="m363.406 194.222c.42 58.44-48.104 106.718-107.406 106.878-59.302-.16-107.826-48.439-107.406-106.878.57-58.413 49.095-108.237 107.406-108.372 58.311.135 106.836 49.959 107.406 108.372z" fill="url(#SVGID_6_)"/><path d="m201.857 379.644c3.136 17.945 6.279 35.905 9.415 53.876 3.854 21.783 22.483 38.757 44.729 38.756 22.246.001 40.875-16.973 44.719-38.755-.002.002 3.869-22.142 9.393-53.681-36.086.442-72.171.377-108.256-.196z" fill="url(#SVGID_7_)"/><path d="m256 242.07c40.733.067 71.757 36.582 64.779 76.55-3.786 21.809-7.478 42.945-10.636 61.023-.011.062-.021.133-.032.195-4.778 26.488-27.61 46.312-54.112 46.312-14.967.003-28.713-6.304-38.753-16.552-7.803-7.969-13.355-18.31-15.391-29.954-3.564-20.366-7.119-40.713-10.646-61.033-6.966-39.958 24.058-76.474 64.791-76.541z" fill="url(#SVGID_8_)"/><path d="m255.999 380.447c22.269-.001 41.391-16.431 45.231-38.557 1.471-8.519 2.927-16.962 4.307-24.975 2.42-14.045-.851-28.533-9.544-39.804-9.6-12.446-24.336-19.665-39.992-19.665-15.658-.001-30.395 7.219-39.995 19.666-8.691 11.27-11.961 25.762-9.542 39.805 1.432 8.321 2.868 16.645 4.305 24.971 3.838 22.128 22.96 38.559 45.23 38.559z" fill="url(#SVGID_9_)"/><path d="m279.043 295.863c-.015 12.727-10.336 23.083-23.043 23.084-12.707-.001-23.028-10.358-23.043-23.084-.014-12.728 10.307-23.039 23.043-23.041 12.736.002 23.057 10.313 23.043 23.041z" fill="url(#SVGID_10_)"/><path d="m263.678 303.569c-12.719.009-23.042-10.334-23.049-23.066 0-.634.032-1.26.082-1.882-4.762 4.221-7.762 10.376-7.755 17.241.015 12.727 10.336 23.083 23.043 23.084 12.075-.001 21.986-9.354 22.959-21.203-4.07 3.617-9.418 5.822-15.28 5.826z" fill="url(#SVGID_11_)"/></g></svg>