<svg id="Layer_1" enable-background="new 0 0 512 512" height="512" viewBox="0 0 512 512" width="512" xmlns="http://www.w3.org/2000/svg" xmlns:xlink="http://www.w3.org/1999/xlink"><linearGradient id="lg1"><stop offset="0" stop-color="#ff4747"/><stop offset="1" stop-color="#fff200"/></linearGradient><linearGradient id="SVGID_1_" gradientUnits="userSpaceOnUse" x1="74.98" x2="437.019" xlink:href="#lg1" y1="437.019" y2="74.981"/><radialGradient id="SVGID_2_" cx="256" cy="256" gradientUnits="userSpaceOnUse" r="256"><stop offset="0" stop-color="#ff4747" stop-opacity=".8"/><stop offset=".1112" stop-color="#ff4f49" stop-opacity=".711"/><stop offset=".2769" stop-color="#ff634f" stop-opacity=".579"/><stop offset=".4766" stop-color="#ff8458" stop-opacity=".419"/><stop offset=".7029" stop-color="#ffb265" stop-opacity=".238"/><stop offset=".9485" stop-color="#ffed74" stop-opacity=".041"/><stop offset="1" stop-color="#fffa78" stop-opacity="0"/></radialGradient><linearGradient id="lg2"><stop offset="0" stop-color="#ffb11d"/><stop offset=".4622" stop-color="#ffd449"/><stop offset="1" stop-color="#fffa78"/></linearGradient><linearGradient id="SVGID_3_" gradientUnits="userSpaceOnUse" x1="34.549" x2="390.968" xlink:href="#lg2" y1="372.495" y2="16.076"/><linearGradient id="SVGID_4_" gradientUnits="userSpaceOnUse" x1="-102.711" x2="581.199" xlink:href="#lg2" y1="654.507" y2="-29.403"/><linearGradient id="SVGID_5_" gradientUnits="userSpaceOnUse" x1="256" x2="256" y1="529.878" y2="336.241"><stop offset="0" stop-color="#fffa78" stop-opacity="0"/><stop offset=".3025" stop-color="#fff876" stop-opacity=".242"/><stop offset=".4749" stop-color="#fff06d" stop-opacity=".38"/><stop offset=".6146" stop-color="#ffe45f" stop-opacity=".492"/><stop offset=".7368" stop-color="#ffd14c" stop-opacity=".589"/><stop offset=".8475" stop-color="#ffba32" stop-opacity=".678"/><stop offset=".9486" stop-color="#ff9d13" stop-opacity=".759"/><stop offset="1" stop-color="#ff8c00" stop-opacity=".8"/></linearGradient><linearGradient id="SVGID_6_" gradientUnits="userSpaceOnUse" x1="-107.186" x2="305.736" xlink:href="#lg2" y1="478.227" y2="65.305"/><linearGradient id="SVGID_7_" gradientUnits="userSpaceOnUse" x1="-331.836" x2="491.209" xlink:href="#lg2" y1="866.07" y2="43.025"/><linearGradient id="SVGID_8_" gradientUnits="userSpaceOnUse" x1="-227.73" x2="353.555" xlink:href="#lg2" y1="800.055" y2="218.77"/><linearGradient id="lg3"><stop offset="0" stop-color="#ff4d4d"/><stop offset=".1663" stop-color="#ff5b44"/><stop offset=".483" stop-color="#ff812d"/><stop offset=".914" stop-color="#ffbe08"/><stop offset="1" stop-color="#ffcb00"/></linearGradient><linearGradient id="SVGID_9_" gradientUnits="userSpaceOnUse" x1="183.187" x2="449.436" xlink:href="#lg3" y1="434.7" y2="168.451"/><linearGradient id="SVGID_10_" gradientUnits="userSpaceOnUse" x1="370.958" x2="370.958" y1="347.687" y2="147.197"><stop offset="0" stop-color="#ffb11d" stop-opacity="0"/><stop offset=".4448" stop-color="#ffaf1e" stop-opacity=".356"/><stop offset=".6051" stop-color="#ffa820" stop-opacity=".484"/><stop offset=".7193" stop-color="#ff9d25" stop-opacity=".575"/><stop offset=".8117" stop-color="#ff8c2c" stop-opacity=".649"/><stop offset=".8907" stop-color="#ff7635" stop-opacity=".713"/><stop offset=".9595" stop-color="#ff5b40" stop-opacity=".768"/><stop offset="1" stop-color="#ff4747" stop-opacity=".8"/></linearGradient><linearGradient id="lg4"><stop offset=".2591" stop-color="#ffcb00" stop-opacity="0"/><stop offset=".5744" stop-color="#ffc901" stop-opacity=".341"/><stop offset=".688" stop-color="#ffc205" stop-opacity=".463"/><stop offset=".769" stop-color="#ffb70b" stop-opacity=".551"/><stop offset=".8345" stop-color="#ffa614" stop-opacity=".621"/><stop offset=".8905" stop-color="#ff9020" stop-opacity=".682"/><stop offset=".9402" stop-color="#ff742f" stop-opacity=".735"/><stop offset=".984" stop-color="#ff5540" stop-opacity=".783"/><stop offset="1" stop-color="#ff4747" stop-opacity=".8"/></linearGradient><linearGradient id="SVGID_11_" gradientTransform="matrix(1 0 0 -1 0 496.875)" gradientUnits="userSpaceOnUse" x1="329.018" x2="423.14" xlink:href="#lg4" y1="248.59" y2="248.59"/><linearGradient id="SVGID_12_" gradientTransform="matrix(-1 0 0 -1 437 496.875)" gradientUnits="userSpaceOnUse" x1="24.102" x2="118.224" xlink:href="#lg4" y1="248.59" y2="248.59"/><linearGradient id="SVGID_13_" gradientTransform="matrix(1 0 0 -1 0 496.875)" gradientUnits="userSpaceOnUse" x1="370.958" x2="370.958" y1="331.44" y2="145.511"><stop offset="0" stop-color="#ffcb00" stop-opacity="0"/><stop offset=".4256" stop-color="#ffc901" stop-opacity=".341"/><stop offset=".5789" stop-color="#ffc205" stop-opacity=".463"/><stop offset=".6882" stop-color="#ffb70b" stop-opacity=".551"/><stop offset=".7766" stop-color="#ffa614" stop-opacity=".621"/><stop offset=".8523" stop-color="#ff9020" stop-opacity=".682"/><stop offset=".9193" stop-color="#ff742f" stop-opacity=".735"/><stop offset=".9784" stop-color="#ff5540" stop-opacity=".783"/><stop offset="1" stop-color="#ff4747" stop-opacity=".8"/></linearGradient><linearGradient id="SVGID_14_" gradientUnits="userSpaceOnUse" x1="329.478" x2="436.61" xlink:href="#lg3" y1="243.894" y2="136.761"/><linearGradient id="SVGID_15_" gradientUnits="userSpaceOnUse" x1="350.529" x2="426.66" xlink:href="#lg3" y1="222.865" y2="146.734"/><linearGradient id="SVGID_16_" gradientUnits="userSpaceOnUse" x1="353.34" x2="432.785" xlink:href="#lg1" y1="281.48" y2="202.034"/><linearGradient id="lg5"><stop offset="0" stop-color="#ff8c00" stop-opacity="0"/><stop offset="1" stop-color="#ff4747" stop-opacity=".8"/></linearGradient><radialGradient id="SVGID_17_" cx="371.303" cy="263.557" gradientUnits="userSpaceOnUse" r="23.11" xlink:href="#lg5"/><radialGradient id="SVGID_18_" cx="370.838" cy="202.595" gradientUnits="userSpaceOnUse" r="41.663" xlink:href="#lg5"/><g><circle cx="256" cy="256" fill="url(#SVGID_1_)" r="256"/><circle cx="256" cy="256" fill="url(#SVGID_2_)" r="256"/><path d="m172.016 187.076c-4.919-10.162-9.768-20.303-14.528-30.417-20.208.271-40.415.624-60.623 1.061-3.305 70.515-3.053 141.03.756 211.546.459 8.339 7.597 15.3 15.871 15.518 20.001.517 40.002.924 60.003 1.223-2.099-66.311-2.592-132.621-1.479-198.931z" fill="url(#SVGID_3_)"/><path d="m157.488 156.658c-2.046 71.277-1.89 142.554.468 213.83.287 8.432 7.265 15.392 15.54 15.518 7.185.107 14.369.201 21.554.28 5.243.059 10.046-2.698 12.695-7.265 8.098-18.116 16.431-36.281 24.889-54.47 4.202-9.04 13.27-14.803 23.243-14.804 9.942.001 18.989 5.729 23.208 14.728 8.551 18.231 16.975 36.437 25.162 54.593 2.655 4.54 7.443 7.275 12.667 7.217 27.198-.3 54.395-.802 81.593-1.504 8.274-.219 15.413-7.178 15.871-15.518 3.809-70.515 4.061-141.03.756-211.546-85.882-1.855-171.764-2.209-257.646-1.059z" fill="url(#SVGID_4_)"/><path d="m415.14 157.845c-106.093-2.292-212.187-2.292-318.28 0-3.301 70.515-3.045 141.03.768 211.546.459 8.34 7.598 15.3 15.872 15.519 27.184.703 54.369 1.204 81.553 1.505 5.243.059 10.046-2.698 12.694-7.265 8.097-18.116 16.43-36.281 24.888-54.47 4.201-9.04 13.27-14.803 23.242-14.804 9.942.001 18.989 5.729 23.207 14.728 8.55 18.231 16.974 36.436 25.161 54.593 2.655 4.54 7.443 7.276 12.666 7.217 27.196-.301 54.393-.802 81.589-1.505 8.274-.219 15.412-7.179 15.872-15.519 3.813-70.514 4.069-141.029.768-211.545z" fill="url(#SVGID_5_)"/><path d="m98.5 127.501c-16.529.495-30.985 14.395-31.946 30.939-3.373 60-3.634 120-.784 180 .812 16.544 15.226 30.388 31.851 30.828 20.112.504 40.223.912 60.335 1.223-2.695-81.459-2.514-162.918.544-244.378-20 .354-40 .817-60 1.388z" fill="url(#SVGID_6_)"/><path d="m263.5 125.318c0-.021 0-.041 0-.061-35-.048-70 .238-105 .857-16.53.307-30.659 14.241-31.323 31.016-2.293 60.806-2.471 121.613-.533 182.419.561 16.774 14.686 30.67 31.313 30.943 85.474 1.325 170.948.917 256.422-1.223 16.625-.44 31.04-14.284 31.851-30.828.474-9.98.862-19.96 1.164-29.94-59.431-59.161-123.716-121.604-183.894-183.183z" fill="url(#SVGID_7_)"/><path d="m445.446 158.44c2.812 50.02 3.461 100.04 1.948 150.06-50.717.767-96.244-19.353-129.699-52.694-33.438-33.32-54.155-79.522-54.195-130.488 0-.021 0-.041 0-.061 50 .068 100 .816 150 2.245 16.529.495 30.985 14.395 31.946 30.938z" fill="url(#SVGID_8_)"/><path d="m324.716 324.905c.699-51.088.621-102.176-.235-153.264-.135-8.466 6.512-15.268 14.875-15.17 20.207.229 40.415.541 60.623.937 8.362.169 15.473 7.083 15.809 15.423 1.998 50.368 2.181 100.736.549 151.104-.275 8.34-7.364 15.231-15.762 15.374-20.291.334-40.582.598-60.874.791-8.399.082-15.095-6.728-14.985-15.195z" fill="url(#SVGID_9_)"/><path d="m399.979 157.407c-20.208-.395-40.415-.708-60.623-.937-8.364-.098-15.01 6.704-14.875 15.17.856 51.088.935 102.176.235 153.264-.11 8.466 6.586 15.277 14.985 15.194 20.291-.193 40.582-.457 60.874-.791 8.398-.143 15.487-7.034 15.762-15.374 1.632-50.368 1.449-100.736-.549-151.104-.337-8.339-7.447-15.253-15.809-15.422z" fill="url(#SVGID_10_)"/><path d="m324.481 171.641c.856 51.088.935 102.176.235 153.264-.11 8.466 6.586 15.277 14.985 15.194 20.291-.193 40.582-.457 60.874-.791 8.398-.143 15.487-7.035 15.762-15.374 1.632-50.368 1.449-100.736-.549-151.104-.337-8.34-7.447-15.254-15.809-15.423-20.208-.395-40.415-.708-60.623-.937-8.364-.097-15.01 6.705-14.875 15.171z" fill="url(#SVGID_11_)"/><path d="m415.788 172.83c1.998 50.368 2.181 100.736.549 151.104-.275 8.34-7.364 15.231-15.762 15.374-20.291.334-40.582.598-60.874.791-8.399.083-15.095-6.728-14.985-15.194.699-51.088.621-102.176-.235-153.264-.135-8.466 6.512-15.268 14.875-15.17 20.207.229 40.415.541 60.623.937 8.362.168 15.472 7.082 15.809 15.422z" fill="url(#SVGID_12_)"/><path d="m324.481 171.641c.856 51.088.935 102.176.235 153.264-.11 8.466 6.586 15.277 14.985 15.194 20.291-.193 40.582-.457 60.874-.791 8.398-.143 15.487-7.035 15.762-15.374 1.632-50.368 1.449-100.736-.549-151.104-.337-8.34-7.447-15.254-15.809-15.423-20.208-.395-40.415-.708-60.623-.937-8.364-.097-15.01 6.705-14.875 15.171z" fill="url(#SVGID_13_)"/><path d="m401.458 202.883c.394 16.725-13.261 30.236-30.233 30.194-16.978-.048-30.799-13.785-31.012-30.699-.198-16.912 13.135-30.493 29.922-30.261 16.781.235 30.924 14.042 31.323 30.766z" fill="url(#SVGID_14_)"/><path d="m378.74 217.883c-16.959-.093-30.823-13.846-31.121-30.745-.034-1.872.108-3.7.394-5.476-4.931 5.407-7.905 12.689-7.8 20.717.213 16.914 14.035 30.651 31.012 30.699 15.088.042 27.553-10.65 29.85-24.764-5.477 5.923-13.437 9.624-22.335 9.569z" fill="url(#SVGID_15_)"/><path d="m386.677 263.538c-.025 8.391-6.969 15.225-15.451 15.259-8.484.033-15.313-6.785-15.296-15.223.019-8.439 6.883-15.27 15.373-15.257 8.489.014 15.399 6.829 15.374 15.221z" fill="url(#SVGID_16_)"/><path d="m386.677 263.538c-.025 8.391-6.969 15.225-15.451 15.259-8.484.033-15.313-6.785-15.296-15.223.019-8.439 6.883-15.27 15.373-15.257 8.489.014 15.399 6.829 15.374 15.221z" fill="url(#SVGID_17_)"/><path d="m401.458 202.883c.394 16.725-13.261 30.236-30.233 30.194-16.978-.048-30.799-13.785-31.012-30.699-.198-16.912 13.135-30.493 29.922-30.261 16.781.235 30.924 14.042 31.323 30.766z" fill="url(#SVGID_18_)"/></g></svg>