<svg id="Layer_1" enable-background="new 0 0 512 512" height="512" viewBox="0 0 512 512" width="512" xmlns="http://www.w3.org/2000/svg" xmlns:xlink="http://www.w3.org/1999/xlink"><linearGradient id="SVGID_1_" gradientUnits="userSpaceOnUse" x1="74.98" x2="437.019" y1="437.019" y2="74.981"><stop offset="0" stop-color="#560dff"/><stop offset="1" stop-color="#73ecff"/></linearGradient><radialGradient id="SVGID_2_" cx="256" cy="256" gradientUnits="userSpaceOnUse" r="256"><stop offset="0" stop-color="#6b23ea"/><stop offset=".4299" stop-color="#676bef" stop-opacity=".57"/><stop offset=".8159" stop-color="#64a5f3" stop-opacity=".184"/><stop offset="1" stop-color="#63bcf5" stop-opacity="0"/></radialGradient><linearGradient id="lg1"><stop offset="0" stop-color="#389fff"/><stop offset=".1209" stop-color="#45affa"/><stop offset=".5726" stop-color="#73e9e7"/><stop offset=".79" stop-color="#85ffe0"/><stop offset=".881" stop-color="#9dffe6"/><stop offset="1" stop-color="#c2fff0"/></linearGradient><linearGradient id="SVGID_3_" gradientUnits="userSpaceOnUse" x1="127.357" x2="434.328" xlink:href="#lg1" y1="276.075" y2="-30.896"/><linearGradient id="lg2"><stop offset="0" stop-color="#6b23ea"/><stop offset=".0334" stop-color="#6a33eb" stop-opacity=".967"/><stop offset=".1185" stop-color="#6858ee" stop-opacity=".882"/><stop offset=".2112" stop-color="#6777f0" stop-opacity=".789"/><stop offset=".3118" stop-color="#6590f2" stop-opacity=".688"/><stop offset=".4232" stop-color="#64a4f3" stop-opacity=".577"/><stop offset=".5513" stop-color="#64b2f4" stop-opacity=".449"/><stop offset=".711" stop-color="#63baf5" stop-opacity=".289"/><stop offset="1" stop-color="#63bcf5" stop-opacity="0"/></linearGradient><linearGradient id="SVGID_4_" gradientUnits="userSpaceOnUse" x1="256" x2="256" xlink:href="#lg2" y1="157.363" y2="48.487"/><linearGradient id="lg3"><stop offset="0" stop-color="#85ffe0"/><stop offset=".2339" stop-color="#9dffe6"/><stop offset=".7251" stop-color="#dafff6"/><stop offset="1" stop-color="#fff"/></linearGradient><linearGradient id="SVGID_5_" gradientUnits="userSpaceOnUse" x1="-61.405" x2="329.082" xlink:href="#lg3" y1="465.222" y2="74.735"/><linearGradient id="SVGID_6_" gradientUnits="userSpaceOnUse" x1="17.356" x2="560.997" xlink:href="#lg3" y1="399.813" y2="-143.828"/><linearGradient id="SVGID_7_" gradientUnits="userSpaceOnUse" x1="256" x2="256" xlink:href="#lg2" y1="261.885" y2="102.072"/><linearGradient id="SVGID_8_" gradientUnits="userSpaceOnUse" x1="-127.554" x2="435.06" xlink:href="#lg3" y1="807.971" y2="245.357"/><linearGradient id="SVGID_9_" gradientUnits="userSpaceOnUse" x1="29.765" x2="653.425" xlink:href="#lg3" y1="420.235" y2="-203.425"/><linearGradient id="SVGID_10_" gradientUnits="userSpaceOnUse" x1="-97.249" x2="561.276" xlink:href="#lg3" y1="669.046" y2="10.521"/><linearGradient id="SVGID_11_" gradientUnits="userSpaceOnUse" x1="113.711" x2="508.726" xlink:href="#lg1" y1="595.962" y2="200.947"/><linearGradient id="SVGID_12_" gradientUnits="userSpaceOnUse" x1="85.918" x2="467.442" xlink:href="#lg1" y1="326.741" y2="-54.783"/><linearGradient id="SVGID_13_" gradientUnits="userSpaceOnUse" x1="124.679" x2="531.375" xlink:href="#lg1" y1="447.415" y2="40.719"/><linearGradient id="SVGID_14_" gradientUnits="userSpaceOnUse" x1="103.107" x2="514.087" xlink:href="#lg1" y1="484.411" y2="73.431"/><linearGradient id="SVGID_15_" gradientUnits="userSpaceOnUse" x1="122.6" x2="347.147" xlink:href="#lg1" y1="413.55" y2="189.002"/><linearGradient id="SVGID_16_" gradientUnits="userSpaceOnUse" x1="127.271" x2="339.637" xlink:href="#lg1" y1="432.235" y2="219.869"/><g><circle cx="256" cy="256" fill="url(#SVGID_1_)" r="256"/><circle cx="256" cy="256" fill="url(#SVGID_2_)" r="256"/><path d="m407.67 158.064c-23.428-61.726-83.486-108.842-151.67-108.876-68.184.035-128.242 47.15-151.67 108.876 101.114-1.668 202.227-1.668 303.34 0z" fill="url(#SVGID_3_)"/><path d="m407.67 158.064c-23.428-61.726-83.486-108.842-151.67-108.876-68.184.035-128.242 47.15-151.67 108.876 101.114-1.668 202.227-1.668 303.34 0z" fill="url(#SVGID_4_)"/><path d="m400.925 127.726c-96.616-2.218-193.232-2.218-289.849 0-8.421.199-15.429 7.119-15.612 15.431-.109 5.021-.208 10.042-.298 15.062 107.223-1.876 214.446-1.876 321.669 0-.089-5.021-.189-10.042-.298-15.062-.184-8.312-7.192-15.232-15.612-15.431z" fill="url(#SVGID_5_)"/><path d="m401.248 142.845c-96.832-1.877-193.663-1.877-290.495 0-8.44.169-15.437 7.062-15.587 15.374-.051 2.894-.1 5.788-.145 8.682-.057 3.681 2.611 6.785 6.302 7.345 24.222 3.668 48.474 7.481 72.748 11.387 7.396 1.189 12.797 7.558 12.777 15.048-.023 8.439-.035 16.879-.035 25.318h138.375c0-8.439-.012-16.879-.035-25.318-.019-7.489 5.38-13.859 12.777-15.048 24.274-3.907 48.526-7.719 72.748-11.387 3.691-.56 6.36-3.665 6.302-7.345-.045-2.894-.093-5.788-.145-8.682-.151-8.312-7.147-15.204-15.587-15.374z" fill="url(#SVGID_6_)"/><path d="m400.925 127.726c-96.616-2.218-193.232-2.218-289.849 0-8.421.199-15.429 7.119-15.612 15.431-.172 7.915-.32 15.83-.442 23.745-.057 3.681 2.611 6.785 6.302 7.345 24.222 3.668 48.474 7.481 72.748 11.387 7.396 1.189 12.797 7.558 12.777 15.048-.023 8.439-.035 16.879-.035 25.318h138.375c0-8.439-.012-16.879-.035-25.318-.019-7.489 5.38-13.859 12.777-15.048 24.274-3.907 48.526-7.719 72.748-11.387 3.691-.56 6.36-3.665 6.302-7.345-.123-7.915-.27-15.83-.442-23.745-.186-8.312-7.194-15.232-15.614-15.431z" fill="url(#SVGID_7_)"/><path d="m432.739 248.5c.165-24.791-20.656-45.081-46.106-45.255-10.246-.048-20.492-.091-30.737-.128.24 66.106-.559 132.212-2.396 198.318 10-.283 20-.609 30-.978 24.786-.968 45.988-22.17 46.957-46.957-9.467-17.13-19.179-34.445-29.068-51.905 10.517-17.818 20.991-35.53 31.35-53.095z" fill="url(#SVGID_8_)"/><path d="m125.367 203.245c-25.449.174-46.271 20.465-46.106 45.255 15.483 17.598 31.069 35.411 46.654 53.351-15.023 17.457-29.848 34.704-44.372 51.649.968 24.786 22.17 45.988 46.957 46.957 20 .739 40 1.304 60 1.696-1.272-66.376-1.825-132.752-1.659-199.129-20.491.051-40.983.125-61.474.221z" fill="url(#SVGID_9_)"/><path d="m355.896 203.117c-56.352-.203-112.703-.234-169.055-.094-25.452.097-46.212 20.631-46.106 45.8.149 35.503.645 71.006 1.489 106.509.651 25.164 21.488 46.305 46.276 46.82 55 1.076 110 .837 165-.717 24.786-.742 45.807-21.929 46.616-46.923 1.068-35.278 1.697-70.556 1.886-105.834.136-24.998-20.656-45.425-46.106-45.561z" fill="url(#SVGID_10_)"/><path d="m386.633 248.755c-15.453 17.771-30.975 35.698-46.461 53.691 15.122 17.681 30.081 35.211 44.774 52.5 15.17-.41 30.34-.892 45.51-1.446 1.294-35 2.054-70 2.283-105-15.368.098-30.737.183-46.106.255z" fill="url(#SVGID_11_)"/><path d="m79.261 248.5c.228 35 .989 70 2.283 105 20.227.739 40.454 1.35 60.681 1.832 14.748-17.39 29.752-35.001 44.908-52.744-15.453-17.998-30.953-35.949-46.396-53.765-20.493-.085-40.984-.192-61.476-.323z" fill="url(#SVGID_12_)"/><path d="m171.473 248.934c-10.246-.031-20.491-.068-30.737-.111.149 35.503.645 71.006 1.489 106.509 85.964 2.049 171.928 1.775 257.892-.82-74.783-32.988-151.692-69.669-228.644-105.578z" fill="url(#SVGID_13_)"/><path d="m171.473 248.934c57.725 67.791 141.437 108.563 228.644 105.578 1.068-35.278 1.697-70.556 1.886-105.834-76.844.405-153.687.49-230.53.256z" fill="url(#SVGID_14_)"/><path d="m211.858 288.56c-5.568 2.273-9.465 7.734-9.422 14.142.058 8.47 6.951 15.394 15.382 15.442 12.496.07 24.992.105 37.488.106-8.842-15.376-23.884-25.643-43.448-29.69z" fill="url(#SVGID_15_)"/><path d="m294.182 318.144c8.432-.049 15.324-6.973 15.382-15.442.058-8.471-6.772-15.302-15.24-15.272-25.549.094-51.099.094-76.648 0-2.062-.008-4.026.399-5.818 1.13 13.684 11.18 28.238 21.128 43.448 29.69 12.958.002 25.917-.034 38.876-.106z" fill="url(#SVGID_16_)"/></g></svg>