<svg id="Layer_1" enable-background="new 0 0 512 512" height="512" viewBox="0 0 512 512" width="512" xmlns="http://www.w3.org/2000/svg" xmlns:xlink="http://www.w3.org/1999/xlink"><linearGradient id="lg1"><stop offset="0" stop-color="#ff4747"/><stop offset="1" stop-color="#ff9ceb"/></linearGradient><linearGradient id="SVGID_1_" gradientUnits="userSpaceOnUse" x1="74.98" x2="437.019" xlink:href="#lg1" y1="437.019" y2="74.981"/><radialGradient id="SVGID_2_" cx="256" cy="256" gradientUnits="userSpaceOnUse" r="256"><stop offset="0" stop-color="#ff2f2b"/><stop offset="1" stop-color="#ff9ceb" stop-opacity="0"/></radialGradient><linearGradient id="lg2"><stop offset="0" stop-color="#ff79a2"/><stop offset=".6553" stop-color="#ffb0cf"/><stop offset="1" stop-color="#ffc8e3"/></linearGradient><linearGradient id="SVGID_3_" gradientUnits="userSpaceOnUse" x1="16.815" x2="427.767" xlink:href="#lg2" y1="495.185" y2="84.233"/><linearGradient id="lg3"><stop offset="0" stop-color="#ffa9d4"/><stop offset=".2953" stop-color="#ffc6e3"/><stop offset=".7601" stop-color="#ffeff7"/><stop offset="1" stop-color="#fff"/></linearGradient><linearGradient id="SVGID_4_" gradientUnits="userSpaceOnUse" x1="-11.16" x2="420.589" xlink:href="#lg3" y1="670.586" y2="238.837"/><linearGradient id="SVGID_5_" gradientUnits="userSpaceOnUse" x1="12.882" x2="356.331" xlink:href="#lg3" y1="351.692" y2="8.243"/><linearGradient id="SVGID_6_" gradientUnits="userSpaceOnUse" x1="3.438" x2="437.451" xlink:href="#lg3" y1="508.562" y2="74.55"/><linearGradient id="SVGID_7_" gradientUnits="userSpaceOnUse" x1="96.159" x2="288.235" xlink:href="#lg2" y1="323.061" y2="130.984"/><linearGradient id="SVGID_8_" gradientUnits="userSpaceOnUse" x1="97.032" x2="242.682" xlink:href="#lg1" y1="321.872" y2="176.221"/><linearGradient id="SVGID_9_" gradientUnits="userSpaceOnUse" x1="130.395" x2="232.022" xlink:href="#lg1" y1="288.512" y2="186.885"/><linearGradient id="lg4"><stop offset="0" stop-color="#ff9ceb" stop-opacity="0"/><stop offset=".1095" stop-color="#ff95df" stop-opacity=".11"/><stop offset=".3064" stop-color="#ff83c0" stop-opacity=".306"/><stop offset=".568" stop-color="#ff678d" stop-opacity=".568"/><stop offset=".8811" stop-color="#ff3f48" stop-opacity=".881"/><stop offset="1" stop-color="#ff2f2b"/></linearGradient><radialGradient id="SVGID_10_" cx="162.725" cy="256" gradientUnits="userSpaceOnUse" r="66.841" xlink:href="#lg4"/><linearGradient id="SVGID_11_" gradientUnits="userSpaceOnUse" x1="281.722" x2="473.798" xlink:href="#lg2" y1="323.061" y2="130.984"/><linearGradient id="SVGID_12_" gradientUnits="userSpaceOnUse" x1="283.226" x2="428.877" xlink:href="#lg1" y1="321.871" y2="176.221"/><linearGradient id="SVGID_13_" gradientUnits="userSpaceOnUse" x1="316.589" x2="418.588" xlink:href="#lg1" y1="288.511" y2="186.511"/><radialGradient id="SVGID_14_" cx="349.275" cy="256" gradientUnits="userSpaceOnUse" r="66.841" xlink:href="#lg4"/><g><circle cx="256" cy="256" fill="url(#SVGID_1_)" r="256"/><circle cx="256" cy="256" fill="url(#SVGID_2_)" r="256"/><path d="m361.137 378.163c8.479-.135 16.958-.286 25.437-.454 4.514-.089 8.872-2.151 11.807-5.691 26.652-32.173 43.164-72.402 43.144-116.018.02-43.616-16.492-83.846-43.144-116.019-2.937-3.539-7.292-5.601-11.807-5.691-8.479-.168-16.958-.319-25.437-.454-7.365-.116-13.748-5.487-15.168-12.783-1.384-7.095-2.773-14.192-4.164-21.291-.966-4.921-4.234-9.126-8.728-11.312-23.598-11.469-49.639-17.98-77.077-17.975-27.437-.005-53.48 6.506-77.076 17.976-4.495 2.186-7.764 6.391-8.728 11.312-1.391 7.1-2.779 14.197-4.164 21.291-1.421 7.296-7.804 12.667-15.168 12.783-8.479.135-16.958.286-25.437.454-4.514.089-8.872 2.151-11.807 5.691-26.652 32.172-43.165 72.402-43.145 116.018-.019 43.616 16.493 83.846 43.144 116.018 2.936 3.54 7.293 5.602 11.807 5.691 7.639.151 15.278.289 22.917.413 8.417.134 15.333 7.075 15.461 15.525.067 4.285.138 8.569.211 12.854.099 5.692 3.311 11.002 8.355 13.705 25.285 13.54 53.627 21.326 83.629 21.319 27.438.005 53.48-6.506 77.076-17.976 4.495-2.186 7.764-6.391 8.728-11.312 1.391-7.1 2.779-14.197 4.164-21.291 1.422-7.295 7.805-12.667 15.17-12.783z" fill="url(#SVGID_3_)"/><path d="m429.259 157.899c-2.824-4.734-7.943-7.722-13.399-7.838-10.178-.215-20.357-.409-30.535-.582 1.215 71.015 1.215 142.029 0 213.044 10.178-.174 20.356-.368 30.535-.582 5.457-.116 10.576-3.104 13.399-7.838 17.438-29.267 27.653-62.622 27.641-98.101.012-35.481-10.203-68.836-27.641-98.103z" fill="url(#SVGID_4_)"/><path d="m96.141 150.061c-5.456.116-10.577 3.104-13.399 7.838-17.438 29.267-27.654 62.622-27.642 98.101-.012 35.479 10.204 68.834 27.641 98.101 2.822 4.734 7.944 7.723 13.399 7.838 10.178.215 20.357.409 30.535.582-1.215-71.015-1.215-142.029 0-213.044-10.178.175-20.356.369-30.534.584z" fill="url(#SVGID_5_)"/><path d="m398.694 157.309c-2.805-4.752-7.913-7.737-13.369-7.83-8.829-.151-17.658-.286-26.486-.406-14.766-.195-27.517-10.905-30.311-25.515-3.115-16.235-6.242-32.482-9.368-48.736-1.113-5.782-5.336-10.546-10.891-12.177-16.703-4.901-34.202-7.546-52.269-7.545-18.067-.001-35.565 2.644-52.267 7.545-5.555 1.631-9.779 6.394-10.891 12.177-3.126 16.254-6.253 32.501-9.368 48.736-2.794 14.611-15.546 25.32-30.311 25.515-8.829.12-17.658.255-26.486.406-5.455.094-10.564 3.078-13.369 7.83-17.331 29.376-27.469 62.96-27.458 98.691-.011 35.731 10.127 69.315 27.456 98.692 2.805 4.752 7.914 7.737 13.369 7.83 8.028.137 16.057.261 24.085.373 15.802.212 29.111 12.422 30.719 28.231 1.454 14.187 2.927 28.379 4.413 42.575.642 6.11 4.774 11.408 10.525 13.35 18.88 6.372 38.858 9.851 59.582 9.849 18.068.001 35.566-2.644 52.267-7.545 5.556-1.631 9.778-6.394 10.891-12.176 3.126-16.255 6.253-32.501 9.368-48.736 2.794-14.61 15.546-25.32 30.311-25.515 8.829-.12 17.657-.255 26.486-.406 5.456-.093 10.564-3.078 13.369-7.83 17.328-29.376 27.467-62.96 27.456-98.692.014-35.731-10.125-69.315-27.453-98.691z" fill="url(#SVGID_6_)"/><path d="m239.6 256c-.036 42.454-34.295 76.876-76.542 76.471-42.235-.468-77.182-34.89-77.208-76.471.026-41.58 34.974-76.002 77.208-76.471 42.247-.405 76.505 34.017 76.542 76.471z" fill="url(#SVGID_7_)"/><path d="m208.85 256c-.008 25.451-20.575 46.033-46.005 45.883-25.425-.164-46.24-20.746-46.245-45.883.004-25.136 20.82-45.718 46.245-45.882 25.43-.151 45.996 20.431 46.005 45.882z" fill="url(#SVGID_8_)"/><path d="m178.111 271.319c-25.462-.065-46.185-20.579-46.065-45.783.005-1.257.078-2.498.184-3.73-9.565 8.424-15.632 20.622-15.63 34.194.004 25.136 20.82 45.718 46.245 45.883 24.165.141 43.92-18.435 45.84-42.123-8.14 7.208-18.839 11.577-30.574 11.559z" fill="url(#SVGID_9_)"/><path d="m208.85 256c-.008 25.451-20.575 46.033-46.005 45.883-25.425-.164-46.24-20.746-46.245-45.883.004-25.136 20.82-45.718 46.245-45.882 25.43-.151 45.996 20.431 46.005 45.882z" fill="url(#SVGID_10_)"/><path d="m426.15 256c-.026 41.58-34.973 76.002-77.208 76.471-42.247.406-76.504-34.017-76.542-76.471.037-42.454 34.296-76.876 76.542-76.471 42.234.469 77.183 34.891 77.208 76.471z" fill="url(#SVGID_11_)"/><path d="m395.4 256c-.005 25.136-20.82 45.719-46.245 45.883-25.429.151-45.996-20.432-46.005-45.883.009-25.451 20.575-46.033 46.005-45.882 25.426.164 46.24 20.746 46.245 45.882z" fill="url(#SVGID_12_)"/><path d="m364.635 271.266c-25.467.073-46.085-20.513-46.145-45.943-.003-1.266.059-2.515.156-3.755-9.499 8.404-15.495 20.713-15.495 34.432.009 25.451 20.575 46.033 46.005 45.883 24.161-.151 44.141-18.758 46.078-42.162-8.149 7.138-18.865 11.52-30.599 11.545z" fill="url(#SVGID_13_)"/><path d="m395.4 256c-.005 25.136-20.82 45.719-46.245 45.883-25.429.151-45.996-20.432-46.005-45.883.009-25.451 20.575-46.033 46.005-45.882 25.426.164 46.24 20.746 46.245 45.882z" fill="url(#SVGID_14_)"/></g></svg>