<svg id="Layer_1" enable-background="new 0 0 512 512" height="512" viewBox="0 0 512 512" width="512" xmlns="http://www.w3.org/2000/svg" xmlns:xlink="http://www.w3.org/1999/xlink"><linearGradient id="SVGID_1_" gradientUnits="userSpaceOnUse" x1="74.98" x2="437.019" y1="437.02" y2="74.981"><stop offset="0" stop-color="#00aa45"/><stop offset="1" stop-color="#d3ff33"/></linearGradient><radialGradient id="SVGID_2_" cx="256" cy="256" gradientUnits="userSpaceOnUse" r="256"><stop offset="0" stop-color="#00aa45"/><stop offset=".1015" stop-color="#0faf49" stop-opacity=".899"/><stop offset=".2954" stop-color="#35bd52" stop-opacity=".705"/><stop offset=".5614" stop-color="#73d462" stop-opacity=".439"/><stop offset=".8863" stop-color="#c7f377" stop-opacity=".114"/><stop offset="1" stop-color="#e6fe7f" stop-opacity="0"/></radialGradient><linearGradient id="lg1"><stop offset="0" stop-color="#008547"/><stop offset=".1212" stop-color="#128f45"/><stop offset=".3647" stop-color="#41aa41"/><stop offset=".7046" stop-color="#8cd63a"/><stop offset="1" stop-color="#d3ff33"/></linearGradient><linearGradient id="SVGID_3_" gradientUnits="userSpaceOnUse" x1="178.768" x2="550.928" xlink:href="#lg1" y1="409.74" y2="37.581"/><linearGradient id="SVGID_4_" gradientUnits="userSpaceOnUse" x1="186.249" x2="475.719" xlink:href="#lg1" y1="465.878" y2="176.408"/><linearGradient id="SVGID_5_" gradientUnits="userSpaceOnUse" x1="255.918" x2="255.918" y1="450.362" y2="340.566"><stop offset="0" stop-color="#5ccd38" stop-opacity="0"/><stop offset=".1765" stop-color="#54c739" stop-opacity=".177"/><stop offset=".4517" stop-color="#3eb53d" stop-opacity=".452"/><stop offset=".7893" stop-color="#1a9943" stop-opacity=".789"/><stop offset="1" stop-color="#008547"/></linearGradient><linearGradient id="SVGID_6_" gradientUnits="userSpaceOnUse" x1="145.627" x2="484.02" xlink:href="#lg1" y1="499.305" y2="160.911"/><linearGradient id="SVGID_7_" gradientUnits="userSpaceOnUse" x1="133.195" x2="468.961" xlink:href="#lg1" y1="427.393" y2="91.626"/><linearGradient id="SVGID_8_" gradientTransform="matrix(1 0 0 5 0 -1024.002)" gradientUnits="userSpaceOnUse" x1="-466.707" x2="446.379" y1="394.775" y2="212.158"><stop offset="0" stop-color="#95e12e"/><stop offset="1" stop-color="#f9fcca"/></linearGradient><linearGradient id="SVGID_9_" gradientTransform="matrix(1 0 0 5 0 -1024.002)" gradientUnits="userSpaceOnUse" x1="-262.436" x2="795.412" xlink:href="#lg1" y1="353.84" y2="142.271"/><linearGradient id="SVGID_10_" gradientUnits="userSpaceOnUse" x1="279.413" x2="456.633" xlink:href="#lg1" y1="278.232" y2="101.012"/><linearGradient id="SVGID_11_" gradientUnits="userSpaceOnUse" x1="304.852" x2="430.507" xlink:href="#lg1" y1="252.798" y2="127.143"/><linearGradient id="lg2"><stop offset="0" stop-color="#5ccd38" stop-opacity="0"/><stop offset=".2032" stop-color="#4fc33a" stop-opacity=".203"/><stop offset=".5779" stop-color="#2da83f" stop-opacity=".578"/><stop offset="1" stop-color="#008547"/></linearGradient><radialGradient id="SVGID_12_" cx="332.67" cy="225.018" gradientUnits="userSpaceOnUse" r="56.049" xlink:href="#lg2"/><linearGradient id="SVGID_13_" gradientUnits="userSpaceOnUse" x1="125.773" x2="305.28" xlink:href="#lg1" y1="278.917" y2="99.41"/><linearGradient id="SVGID_14_" gradientUnits="userSpaceOnUse" x1="151.512" x2="277.995" xlink:href="#lg1" y1="253.183" y2="126.701"/><radialGradient id="SVGID_15_" cx="179.331" cy="225.018" gradientUnits="userSpaceOnUse" r="56.049" xlink:href="#lg2"/><linearGradient id="SVGID_16_" gradientUnits="userSpaceOnUse" x1="237.896" x2="318.3" xlink:href="#lg1" y1="242.996" y2="162.593"/><linearGradient id="SVGID_17_" gradientUnits="userSpaceOnUse" x1="90.754" x2="171.686" xlink:href="#lg1" y1="237.42" y2="156.489"/><linearGradient id="SVGID_18_" gradientUnits="userSpaceOnUse" x1="391.531" x2="470.412" xlink:href="#lg1" y1="243.227" y2="164.346"/><g><circle cx="256" cy="256" fill="url(#SVGID_1_)" r="256"/><circle cx="256" cy="256" fill="url(#SVGID_2_)" r="256"/><path d="m255.918 332.501c-25.502 0-51.003-.064-76.505-.192.247 20.436.618 40.872 1.113 61.308.212 8.463 7.119 15.404 15.394 15.482 20 .184 40 .276 60 .276-.001-25.624-.002-51.249-.002-76.874z" fill="url(#SVGID_3_)"/><path d="m240.617 332.493c.05 20.497.124 40.995.223 61.492.051 8.489 6.802 15.39 15.079 15.39 20 0 40-.091 60-.275 8.275-.077 15.182-7.019 15.393-15.482.493-20.436.863-40.873 1.11-61.309-30.602.154-61.204.215-91.805.184z" fill="url(#SVGID_4_)"/><path d="m315.919 409.101c-40 .367-80 .366-120-.001-8.275-.077-15.181-7.02-15.394-15.482-.494-20.436-.865-40.872-1.113-61.308 51.003.255 102.006.256 153.009.001-.247 20.436-.616 40.873-1.11 61.309-.212 8.461-7.115 15.404-15.392 15.481z" fill="url(#SVGID_5_)"/><path d="m301.987 301.716c-.056 15.358-.153 30.716-.291 46.074 10.173-.038 20.346-.089 30.519-.153 8.422-.055 15.385-6.96 15.509-15.411.148-10.204.259-20.408.333-30.612-15.357.045-30.714.079-46.07.102z" fill="url(#SVGID_6_)"/><path d="m317.121 332.378c.098-10.23.173-20.459.222-30.689-51.188.102-102.377.076-153.565-.077.074 10.204.185 20.408.333 30.612.127 8.451 7.086 15.356 15.51 15.411 40.692.255 81.382.307 122.074.154 8.423-.032 15.341-6.938 15.426-15.411z" fill="url(#SVGID_7_)"/><path d="m133.333 316.758c-50.574-.469-93.3-41.34-92-90.758 1.481-49.411 45.402-91.204 94.667-92.273 80-1.469 160-1.469 240 0 49.264 1.069 93.186 42.862 94.667 92.273 1.3 49.418-41.424 90.289-92 90.758-81.778.49-163.556.49-245.334 0z" fill="url(#SVGID_8_)"/><path d="m378.852 301.506c-81.901.327-163.802.327-245.704 0-42.325-.278-77.5-34.229-76.482-75.66 1.12-41.426 37.288-76.085 78.704-76.865 80.419-1.306 160.84-1.306 241.259 0 41.415.78 77.583 35.439 78.704 76.865 1.019 41.431-34.156 75.382-76.481 75.66z" fill="url(#SVGID_9_)"/><path d="m378.667 225.243c.383 25.242-20.326 45.733-45.792 45.758-25.474.011-46.124-20.634-46.208-46.102-.047-25.466 20.228-46.064 45.375-45.861 25.138.213 46.221 20.964 46.625 46.205z" fill="url(#SVGID_10_)"/><path d="m348.139 240.388c-25.461-.062-46.155-20.72-46.361-46.177-.013-1.267.042-2.518.129-3.759-9.364 8.403-15.289 20.716-15.24 34.446.081 25.468 20.735 46.113 46.208 46.102 24.198-.019 44.089-18.535 45.678-42.024-8.027 7.117-18.691 11.447-30.414 11.412z" fill="url(#SVGID_11_)"/><path d="m378.667 225.243c.383 25.242-20.326 45.733-45.792 45.758-25.474.011-46.124-20.634-46.208-46.102-.047-25.466 20.228-46.064 45.375-45.861 25.138.213 46.221 20.964 46.625 46.205z" fill="url(#SVGID_12_)"/><path d="m225.333 224.899c-.084 25.468-20.733 46.113-46.208 46.102-25.467-.025-46.175-20.516-45.792-45.758.406-25.24 21.487-45.992 46.625-46.205 25.147-.203 45.424 20.394 45.375 45.861z" fill="url(#SVGID_13_)"/><path d="m194.574 240.312c-25.453.029-45.959-20.424-45.389-45.717.027-1.261.118-2.507.246-3.743-9.635 8.489-15.899 20.767-16.098 34.392-.384 25.242 20.327 45.733 45.792 45.758 24.204.01 44.043-18.631 46.03-42.339-8.146 7.226-18.858 11.626-30.581 11.649z" fill="url(#SVGID_14_)"/><path d="m225.333 224.899c-.084 25.468-20.733 46.113-46.208 46.102-25.467-.025-46.175-20.516-45.792-45.758.406-25.24 21.487-45.992 46.625-46.205 25.147-.203 45.424 20.394 45.375 45.861z" fill="url(#SVGID_15_)"/><path d="m256 209.501c-8.447 0-15.312 6.891-15.333 15.381-.019 8.49 6.851 15.369 15.333 15.369s15.351-6.879 15.333-15.369c-.02-8.491-6.887-15.381-15.333-15.381z" fill="url(#SVGID_16_)"/><path d="m102.991 210.266c-8.446.089-15.486 6.945-15.657 15.304-.172 8.359 6.62 15.101 15.102 15.063 8.484-.039 15.428-6.883 15.565-15.293.133-8.409-6.563-15.163-15.01-15.074z" fill="url(#SVGID_17_)"/><path d="m409.009 210.266c-8.447-.088-15.143 6.665-15.009 15.075.136 8.409 7.081 15.254 15.565 15.293 8.482.038 15.274-6.704 15.102-15.063-.171-8.36-7.213-15.216-15.658-15.305z" fill="url(#SVGID_18_)"/></g></svg>