<svg id="Layer_1" enable-background="new 0 0 512 512" height="512" viewBox="0 0 512 512" width="512" xmlns="http://www.w3.org/2000/svg" xmlns:xlink="http://www.w3.org/1999/xlink"><linearGradient id="SVGID_1_" gradientUnits="userSpaceOnUse" x1="74.981" x2="437.02" y1="437.019" y2="74.98"><stop offset="0" stop-color="#364aff"/><stop offset="1" stop-color="#fc54ff"/></linearGradient><radialGradient id="SVGID_2_" cx="256.001" cy="256" gradientUnits="userSpaceOnUse" r="258.6"><stop offset="0" stop-color="#8d00db" stop-opacity=".66"/><stop offset=".2069" stop-color="#9f0de1" stop-opacity=".523"/><stop offset=".6178" stop-color="#cc30f0" stop-opacity=".252"/><stop offset="1" stop-color="#fc54ff" stop-opacity="0"/></radialGradient><linearGradient id="lg1"><stop offset="0" stop-color="#b31de7"/><stop offset="1" stop-color="#fda0ff"/></linearGradient><linearGradient id="SVGID_3_" gradientUnits="userSpaceOnUse" x1="102.707" x2="426.306" xlink:href="#lg1" y1="524.594" y2="200.996"/><linearGradient id="SVGID_4_" gradientUnits="userSpaceOnUse" x1="120.046" x2="398.199" xlink:href="#lg1" y1="577.986" y2="299.833"/><linearGradient id="SVGID_5_" gradientUnits="userSpaceOnUse" x1="256" x2="256" y1="474.291" y2="397.628"><stop offset="0" stop-color="#fc54ff" stop-opacity="0"/><stop offset=".1975" stop-color="#f851fe" stop-opacity=".13"/><stop offset=".3859" stop-color="#ed48fa" stop-opacity=".255"/><stop offset=".5708" stop-color="#d93af4" stop-opacity=".377"/><stop offset=".7534" stop-color="#be25eb" stop-opacity=".497"/><stop offset=".9328" stop-color="#9c0be0" stop-opacity=".616"/><stop offset="1" stop-color="#8d00db" stop-opacity=".66"/></linearGradient><linearGradient id="SVGID_6_" gradientUnits="userSpaceOnUse" x1="-309.405" x2="479.603" y1="821.869" y2="32.862"><stop offset="0" stop-color="#fc54ff"/><stop offset=".4062" stop-color="#fd9bff"/><stop offset="1" stop-color="#fff"/></linearGradient><linearGradient id="SVGID_7_" gradientUnits="userSpaceOnUse" x1="38.552" x2="412.248" xlink:href="#lg1" y1="384.914" y2="11.218"/><linearGradient id="SVGID_8_" gradientUnits="userSpaceOnUse" x1="-39.446" x2="573.014" xlink:href="#lg1" y1="581.052" y2="-31.408"/><linearGradient id="SVGID_9_" gradientUnits="userSpaceOnUse" x1="85.632" x2="327.869" xlink:href="#lg1" y1="502.827" y2="260.589"/><linearGradient id="SVGID_10_" gradientUnits="userSpaceOnUse" x1="12.384" x2="462.985" xlink:href="#lg1" y1="499.435" y2="48.834"/><g><circle cx="256" cy="256" fill="url(#SVGID_1_)" r="256"/><circle cx="256" cy="256" fill="url(#SVGID_2_)" r="256"/><path d="m233.245 401.623c-20.227-.116-40.454-.385-60.681-.809.177 10.181.374 20.363.593 30.544.187 8.43 7.066 15.466 15.343 15.663 15 .352 30 .587 45 .704-.098-15.368-.183-30.735-.255-46.102z" fill="url(#SVGID_3_)"/><path d="m218.075 401.507c.08 10.236.17 20.472.269 30.707.089 8.477 6.879 15.445 15.156 15.51 30 .235 60 0 90-.704 8.277-.197 15.156-7.233 15.343-15.663.218-10.181.416-20.363.593-30.544-40.454.848-80.908 1.079-121.361.694z" fill="url(#SVGID_4_)"/><path d="m172.564 400.813c.177 10.181.374 20.363.593 30.544.187 8.43 7.066 15.466 15.343 15.663 45 1.056 90 1.056 135 0 8.277-.197 15.156-7.233 15.343-15.663.218-10.181.416-20.363.593-30.544-55.624 1.166-111.248 1.166-166.872 0z" fill="url(#SVGID_5_)"/><path d="m368.5 96.388c-75-2.934-150-2.934-225 0-24.787 1.026-45.897 22.333-46.786 47.112-2.531 75-2.828 150-.893 225 .681 24.78 21.792 45.887 46.786 46.745 75.595 2.423 151.191 2.423 226.786 0 24.994-.858 46.105-21.964 46.786-46.745 1.935-75 1.638-150-.893-225-.889-24.779-21.999-46.086-46.786-47.112z" fill="url(#SVGID_6_)"/><path d="m143.032 111.572c-16.584.614-30.622 14.763-31.148 31.35-2.29 75.34-2.559 150.68-.808 226.02.402 16.588 14.441 30.618 31.148 31.119 20.227.578 40.454 1.002 60.681 1.272-1.069-97.111-.943-194.222.377-291.333-20.083.333-40.167.857-60.25 1.572z" fill="url(#SVGID_7_)"/><path d="m233.406 109.643c-10.042.072-20.083.191-30.125.357-16.585.287-30.403 14.363-30.717 31.187-1.326 76.361-1.482 152.721-.468 229.082.241 16.825 14.1 30.83 30.808 31.065 55.624.742 111.248.318 166.871-1.272 16.708-.501 30.746-14.53 31.148-31.119.7-30.136 1.077-60.272 1.131-90.408-56.272-55.132-113.746-112.938-168.648-168.892z" fill="url(#SVGID_8_)"/><path d="m240.711 355.544c-.031-15.372-.054-30.743-.068-46.115-.009-8.489 6.868-15.367 15.357-15.367 8.488.001 15.366 6.878 15.357 15.367-.014 15.372-.037 30.743-.068 46.115-.021 8.488-6.868 15.394-15.289 15.394s-15.268-6.906-15.289-15.394z" fill="url(#SVGID_9_)"/><path d="m368.968 111.572c-45.187-1.607-90.374-2.25-135.561-1.929-.801 93.252 75.26 169.306 168.649 168.891.081-45.204-.566-90.408-1.94-135.612-.526-16.587-14.564-30.738-31.148-31.35z" fill="url(#SVGID_10_)"/></g></svg>