<svg id="Layer_1" enable-background="new 0 0 512 512" height="512" viewBox="0 0 512 512" width="512" xmlns="http://www.w3.org/2000/svg" xmlns:xlink="http://www.w3.org/1999/xlink"><linearGradient id="lg1"><stop offset="0" stop-color="#ff4747"/><stop offset="1" stop-color="#fff200"/></linearGradient><linearGradient id="SVGID_1_" gradientUnits="userSpaceOnUse" x1="74.98" x2="437.019" xlink:href="#lg1" y1="437.019" y2="74.981"/><radialGradient id="SVGID_2_" cx="254.479" cy="231.661" gradientUnits="userSpaceOnUse" r="282.981"><stop offset="0" stop-color="#ff4747" stop-opacity=".8"/><stop offset=".2614" stop-color="#ff8558" stop-opacity=".591"/><stop offset=".5057" stop-color="#ffb866" stop-opacity=".396"/><stop offset=".7179" stop-color="#ffdc70" stop-opacity=".226"/><stop offset=".8899" stop-color="#fff276" stop-opacity=".088"/><stop offset="1" stop-color="#fffa78" stop-opacity="0"/></radialGradient><linearGradient id="lg2"><stop offset="0" stop-color="#ffcb00"/><stop offset="1" stop-color="#fffa78"/></linearGradient><linearGradient id="SVGID_3_" gradientUnits="userSpaceOnUse" x1="-147.242" x2="369.874" xlink:href="#lg2" y1="714.524" y2="197.408"/><linearGradient id="SVGID_4_" gradientUnits="userSpaceOnUse" x1="8.242" x2="472.544" xlink:href="#lg2" y1="377.399" y2="-86.904"/><linearGradient id="SVGID_5_" gradientUnits="userSpaceOnUse" x1="43.069" x2="454.24" xlink:href="#lg2" y1="622.908" y2="211.738"/><linearGradient id="SVGID_6_" gradientUnits="userSpaceOnUse" x1="-47.479" x2="495.806" xlink:href="#lg2" y1="570.425" y2="27.14"/><linearGradient id="SVGID_7_" gradientUnits="userSpaceOnUse" x1="256" x2="256" y1="361.33" y2="168.327"><stop offset="0" stop-color="#fffa78" stop-opacity="0"/><stop offset=".4003" stop-color="#fff877" stop-opacity=".32"/><stop offset=".5444" stop-color="#fff176" stop-opacity=".436"/><stop offset=".6472" stop-color="#ffe672" stop-opacity=".518"/><stop offset=".7304" stop-color="#ffd56e" stop-opacity=".584"/><stop offset=".8016" stop-color="#ffbf68" stop-opacity=".641"/><stop offset=".8646" stop-color="#ffa360" stop-opacity=".692"/><stop offset=".9216" stop-color="#ff8358" stop-opacity=".737"/><stop offset=".9723" stop-color="#ff5f4e" stop-opacity=".778"/><stop offset="1" stop-color="#ff4747" stop-opacity=".8"/></linearGradient><linearGradient id="SVGID_8_" gradientUnits="userSpaceOnUse" x1="72.295" x2="442.513" y1="368.703" y2="-1.515"><stop offset="0" stop-color="#fffa78"/><stop offset="1" stop-color="#fff"/></linearGradient><linearGradient id="SVGID_9_" gradientUnits="userSpaceOnUse" x1="221.166" x2="306.913" xlink:href="#lg1" y1="229.298" y2="143.551"/><linearGradient id="SVGID_10_" gradientUnits="userSpaceOnUse" x1="238.706" x2="293.774" xlink:href="#lg1" y1="211.76" y2="156.693"/><linearGradient id="SVGID_11_" gradientUnits="userSpaceOnUse" x1="21.899" x2="133.201" xlink:href="#lg2" y1="233.528" y2="122.226"/><linearGradient id="SVGID_12_" gradientUnits="userSpaceOnUse" x1="317.266" x2="452.515" xlink:href="#lg2" y1="285.278" y2="150.029"/><g><circle cx="256" cy="256" fill="url(#SVGID_1_)" r="256"/><circle cx="256" cy="256" fill="url(#SVGID_2_)" r="256"/><path d="m352.654 261.937c-64.436.007-128.872.007-193.308 0 .015 33.646.765 67.292 2.248 100.937 2.007.471 4.013.942 6.018 1.412 17.414 4.096 34.996-2.547 45.467-16.99 6.102-8.431 12.286-16.874 18.525-25.325 5.706-7.731 14.768-12.28 24.397-12.281 9.629 0 18.69 4.55 24.397 12.281 6.239 8.452 12.423 16.895 18.525 25.325 10.471 14.443 28.052 21.086 45.467 16.99 2.005-.47 4.011-.941 6.018-1.412 1.482-33.645 2.231-67.291 2.246-100.937z" fill="url(#SVGID_3_)"/><path d="m160.524 187.055c-33.987.26-67.975.658-101.962 1.195-2.286 34.074-2.964 68.147-2.033 102.221.789 28.168 22.559 52.948 50.491 59.578 18.27 4.294 36.467 8.575 54.573 12.825-2.583-58.606-2.94-117.212-1.069-175.819z" fill="url(#SVGID_4_)"/><path d="m375.668 187.264c2.272 56.641 1.923 113.282-1.05 169.924 10.097-2.374 20.22-4.755 30.366-7.14 27.93-6.629 49.698-31.41 50.487-59.576.931-34.074.254-68.147-2.032-102.221-25.924-.41-51.848-.739-77.771-.987z" fill="url(#SVGID_5_)"/><path d="m423.063 187.808c2.061 36.526 2.577 73.052 1.548 109.578-.827 28.285-22.29 53.15-49.993 59.801-.076.016-24.224 5.694-24.209 5.688-20.354 4.798-40.544-5.1-49.625-23.986-7.368-15.381-14.932-30.786-22.581-46.202-4.176-8.43-12.79-13.747-22.203-13.747s-18.027 5.317-22.203 13.747c-7.649 15.416-15.213 30.822-22.581 46.202-9.081 18.887-29.271 28.784-49.625 23.986-27.664-6.55-49.001-31.532-49.825-59.999-1.059-38.456-.663-76.912 1.187-115.368 103.37-1.182 206.74-1.083 310.11.3z" fill="url(#SVGID_6_)"/><path d="m58.562 188.251c-2.286 34.074-2.964 68.147-2.033 102.221.789 28.168 22.559 52.948 50.491 59.578 20.296 4.77 40.501 9.525 60.591 14.238 17.414 4.096 34.996-2.547 45.467-16.99 6.102-8.431 12.286-16.874 18.525-25.325 5.706-7.731 14.768-12.28 24.397-12.281 9.629 0 18.69 4.55 24.397 12.281 6.239 8.452 12.423 16.895 18.525 25.325 10.471 14.443 28.052 21.086 45.467 16.99 20.092-4.713 40.299-9.469 60.596-14.239 27.93-6.629 49.698-31.41 50.487-59.576.931-34.074.254-68.147-2.032-102.221-131.627-2.082-263.253-2.082-394.878-.001z" fill="url(#SVGID_7_)"/><path d="m406 157.246c-100-1.741-200-1.741-300 0-20.366 5.409-40.852 10.838-61.426 16.254-.438 5-.838 10-1.2 15-.61 8.278 5.852 14.902 14.282 14.802 45.772-.571 91.543-.944 137.315-1.12 7.076 7.206 14.215 14.427 21.393 21.657 5.712 5.753 13.513 8.985 21.654 8.98 11.988-.006 23.975-.006 35.963 0 8.141.004 15.942-3.227 21.654-8.98 7.178-7.231 14.317-14.451 21.393-21.657 45.772.176 91.543.549 137.315 1.12 8.43.099 14.892-6.523 14.282-14.802-.363-5-.763-10-1.2-15-20.573-5.416-41.059-10.844-61.425-16.254z" fill="url(#SVGID_8_)"/><path d="m278.837 194.397c.1 12.732-10.143 23.043-22.837 23.044-12.693-.001-22.936-10.312-22.837-23.044.106-12.732 10.348-23.081 22.837-23.081 12.488 0 22.731 10.349 22.837 23.081z" fill="url(#SVGID_9_)"/><path d="m263.629 202.067c-12.653-.007-22.863-10.32-22.775-23.054.004-.634.039-1.261.092-1.882-4.713 4.231-7.734 10.399-7.782 17.265-.1 12.732 10.143 23.043 22.837 23.044 12.06-.001 21.906-9.313 22.767-21.162-4.009 3.603-9.315 5.792-15.139 5.789z" fill="url(#SVGID_10_)"/><path d="m106 157.246c-15 .261-30 .561-45 .901-8.271.193-15.692 7.074-16.426 15.353-.736 8.279 5.593 14.877 13.987 14.751 15.188-.24 30.375-.452 45.563-.637 8.397-.098 15.5-6.986 15.959-15.395.455-8.41-5.809-15.121-14.083-14.973z" fill="url(#SVGID_11_)"/><path d="m451 158.148c-15-.34-30-.64-45-.901-8.274-.148-14.538 6.563-14.084 14.972.459 8.41 7.562 15.297 15.959 15.395 15.188.185 30.375.397 45.563.637 8.394.127 14.723-6.472 13.987-14.751-.733-8.278-8.154-15.16-16.425-15.352z" fill="url(#SVGID_12_)"/></g></svg>