<svg id="Layer_1" enable-background="new 0 0 513 513" height="512" viewBox="0 0 513 513" width="512" xmlns="http://www.w3.org/2000/svg" xmlns:xlink="http://www.w3.org/1999/xlink"><linearGradient id="lg1"><stop offset="0" stop-color="#560dff"/><stop offset="1" stop-color="#73ecff"/></linearGradient><linearGradient id="SVGID_1_" gradientUnits="userSpaceOnUse" x1="75.48" x2="437.519" xlink:href="#lg1" y1="438.019" y2="75.981"/><radialGradient id="SVGID_2_" cx="256.5" cy="166.76" gradientUnits="userSpaceOnUse" r="348.052"><stop offset="0" stop-color="#6b23ea"/><stop offset=".1587" stop-color="#694fed" stop-opacity=".832"/><stop offset=".3248" stop-color="#6776f0" stop-opacity=".657"/><stop offset=".4893" stop-color="#6595f2" stop-opacity=".483"/><stop offset=".6497" stop-color="#64aaf4" stop-opacity=".313"/><stop offset=".8041" stop-color="#63b8f5" stop-opacity=".15"/><stop offset=".9458" stop-color="#63bcf5" stop-opacity="0"/></radialGradient><linearGradient id="lg2"><stop offset="0" stop-color="#389fff"/><stop offset=".1209" stop-color="#45affa"/><stop offset=".5726" stop-color="#73e9e7"/><stop offset=".79" stop-color="#85ffe0"/><stop offset=".881" stop-color="#9dffe6"/><stop offset="1" stop-color="#c2fff0"/></linearGradient><linearGradient id="SVGID_3_" gradientUnits="userSpaceOnUse" x1="28.894" x2="438.29" xlink:href="#lg2" y1="511.389" y2="101.993"/><radialGradient id="SVGID_4_" cx="255.816" cy="164.36" gradientUnits="userSpaceOnUse" r="234.056"><stop offset=".3" stop-color="#c2fff0"/><stop offset="1" stop-color="#63bcf5" stop-opacity="0"/></radialGradient><linearGradient id="SVGID_5_" gradientUnits="userSpaceOnUse" x1="204.498" x2="418.44" xlink:href="#lg2" y1="392.414" y2="178.472"/><linearGradient id="SVGID_6_" gradientUnits="userSpaceOnUse" x1="230.055" x2="384.961" xlink:href="#lg2" y1="367.129" y2="212.222"/><linearGradient id="SVGID_7_" gradientUnits="userSpaceOnUse" x1="237.431" x2="354.757" y1="428.758" y2="311.431"><stop offset="0" stop-color="#389fff"/><stop offset=".1132" stop-color="#45affa"/><stop offset=".5361" stop-color="#73e9e7"/><stop offset=".7397" stop-color="#85ffe0"/><stop offset=".8526" stop-color="#9dffe6"/><stop offset="1" stop-color="#c2fff0"/></linearGradient><linearGradient id="SVGID_8_" gradientUnits="userSpaceOnUse" x1="24.364" x2="431.927" xlink:href="#lg2" y1="523.566" y2="116.003"/><linearGradient id="SVGID_9_" gradientTransform="matrix(-1 0 0 1 513 0)" gradientUnits="userSpaceOnUse" x1="529.803" x2="154.537" xlink:href="#lg2" y1="312.769" y2="-62.497"/><linearGradient id="SVGID_10_" gradientUnits="userSpaceOnUse" x1="-63.718" x2="466.102" xlink:href="#lg2" y1="485.399" y2="-44.422"/><linearGradient id="SVGID_11_" gradientUnits="userSpaceOnUse" x1="168.361" x2="479.546" xlink:href="#lg2" y1="252.678" y2="-58.507"/><linearGradient id="SVGID_12_" gradientUnits="userSpaceOnUse" x1="37.374" x2="418.339" xlink:href="#lg1" y1="383.213" y2="2.249"/><radialGradient id="SVGID_13_" cx="256.5" cy="163.725" gradientUnits="userSpaceOnUse" r="86.148"><stop offset="0" stop-color="#63bcf5" stop-opacity="0"/><stop offset=".1317" stop-color="#63b6f5" stop-opacity=".132"/><stop offset=".3016" stop-color="#64a6f3" stop-opacity=".302"/><stop offset=".4924" stop-color="#668cf2" stop-opacity=".492"/><stop offset=".6985" stop-color="#6767ef" stop-opacity=".699"/><stop offset=".9145" stop-color="#6a38eb" stop-opacity=".915"/><stop offset="1" stop-color="#6b23ea"/></radialGradient><g><circle cx="256.5" cy="257" fill="url(#SVGID_1_)" r="256"/><circle cx="256.5" cy="256" fill="url(#SVGID_2_)" r="256"/><path d="m347.062 166.667c-60.374-1.037-120.749-1.037-181.123 0 14.319 88.644 30.169 178.118 45.834 267.848 3.852 21.786 22.484 38.762 44.727 38.76 22.243 0 40.876-16.974 44.715-38.76.345-.393 46.708-268.418 45.847-267.848z" fill="url(#SVGID_3_)"/><path d="m347.062 166.667c-60.374-1.037-120.749-1.037-181.123 0 14.319 88.644 30.169 178.118 45.834 267.848 3.852 21.786 22.484 38.762 44.727 38.76 22.243 0 40.876-16.974 44.715-38.76.345-.393 46.708-268.418 45.847-267.848z" fill="url(#SVGID_4_)"/><path d="m294.798 340.41c-.088 21.18-17.254 38.56-38.298 38.565-21.044-.005-38.209-17.384-38.298-38.565-.081-21.184 17.086-38.301 38.298-38.31 21.213.009 38.379 17.126 38.298 38.31z" fill="url(#SVGID_5_)"/><path d="m264.148 355.907c-21.104.03-38.285-17.295-38.34-38.49-4.805 6.399-7.636 14.353-7.606 22.994.088 21.18 17.254 38.56 38.298 38.565 21.043-.005 38.209-17.384 38.298-38.564-7.021 9.366-18.142 15.475-30.65 15.495z" fill="url(#SVGID_6_)"/><path d="m271.688 409.688c-.025 8.487-6.826 15.412-15.188 15.412-8.363.001-15.163-6.925-15.188-15.412-.024-8.489 6.776-15.337 15.188-15.338 8.412.001 15.212 6.849 15.188 15.338z" fill="url(#SVGID_7_)"/><path d="m403.767 134.084c-11.139-4.066-22.265-8.122-33.376-12.155.478 28.713.804 57.425.977 86.138 11.122-3.539 22.236-7.029 33.338-10.457 3.12-.964 5.209-3.791 5.173-7.02-.183-16.393-.435-32.787-.754-49.18-.064-3.229-2.227-6.182-5.358-7.326z" fill="url(#SVGID_8_)"/><path d="m109.233 134.084c11.139-4.066 22.265-8.122 33.376-12.155-.478 28.713-.804 57.425-.977 86.138-11.122-3.539-22.236-7.029-33.338-10.457-3.12-.964-5.209-3.791-5.173-7.02.183-16.393.435-32.787.754-49.18.064-3.229 2.228-6.182 5.358-7.326z" fill="url(#SVGID_9_)"/><path d="m370.391 121.929c-18.336-46.21-62.776-81.206-113.891-81.204-51.116-.002-95.554 34.993-113.891 81.204-6.249 2.272-10.548 8.199-10.655 14.705-.311 19.071-.547 38.143-.71 57.214-.056 6.507 4.131 12.225 10.388 14.219 17.338 45.418 62.387 78.623 114.868 78.658 52.479-.035 97.53-33.24 114.868-78.658 6.257-1.993 10.445-7.712 10.388-14.219-.163-19.072-.4-38.143-.71-57.214-.107-6.506-4.407-12.433-10.655-14.705z" fill="url(#SVGID_10_)"/><path d="m256.5 255.975c-50.938-.106-92.327-41.106-91.831-91.431.59-50.297 41.979-92.99 91.831-93.069 49.852.079 91.242 42.773 91.832 93.069.496 50.325-40.895 91.325-91.832 91.431z" fill="url(#SVGID_11_)"/><path d="m256.5 225.225c-33.957-.034-61.448-27.353-61.221-61.136.255-33.77 27.747-61.843 61.221-61.864 33.475.021 60.966 28.094 61.221 61.864.227 33.783-27.264 61.102-61.221 61.136z" fill="url(#SVGID_12_)"/><path d="m256.5 225.225c-33.957-.034-61.448-27.353-61.221-61.136.255-33.77 27.747-61.843 61.221-61.864 33.475.021 60.966 28.094 61.221 61.864.227 33.783-27.264 61.102-61.221 61.136z" fill="url(#SVGID_13_)"/></g></svg>