<svg id="Layer_1" enable-background="new 0 0 512 512" height="512" viewBox="0 0 512 512" width="512" xmlns="http://www.w3.org/2000/svg" xmlns:xlink="http://www.w3.org/1999/xlink"><linearGradient id="lg1"><stop offset="0" stop-color="#ff4747"/><stop offset="1" stop-color="#ff9ceb"/></linearGradient><linearGradient id="SVGID_1_" gradientUnits="userSpaceOnUse" x1="74.98" x2="437.019" xlink:href="#lg1" y1="437.019" y2="74.981"/><radialGradient id="SVGID_2_" cx="256" cy="256" gradientUnits="userSpaceOnUse" r="256"><stop offset="0" stop-color="#ff2f2b"/><stop offset="1" stop-color="#ff9ceb" stop-opacity="0"/></radialGradient><linearGradient id="lg2"><stop offset="0" stop-color="#ffa9d4"/><stop offset=".2953" stop-color="#ffc6e3"/><stop offset=".7601" stop-color="#ffeff7"/><stop offset="1" stop-color="#fff"/></linearGradient><linearGradient id="SVGID_3_" gradientUnits="userSpaceOnUse" x1="88.915" x2="387.022" xlink:href="#lg2" y1="293.1" y2="-5.008"/><linearGradient id="SVGID_4_" gradientUnits="userSpaceOnUse" x1="69.701" x2="344.545" xlink:href="#lg2" y1="353.228" y2="78.384"/><linearGradient id="SVGID_5_" gradientUnits="userSpaceOnUse" x1="263.027" x2="619.393" xlink:href="#lg2" y1="378.959" y2="22.593"/><linearGradient id="SVGID_6_" gradientUnits="userSpaceOnUse" x1="200.815" x2="529.371" xlink:href="#lg2" y1="400.257" y2="71.701"/><linearGradient id="SVGID_7_" gradientUnits="userSpaceOnUse" x1="95.781" x2="254.657" y1="256" y2="256"><stop offset="0" stop-color="#ff9ceb" stop-opacity="0"/><stop offset=".196" stop-color="#ffa0ec" stop-opacity=".196"/><stop offset=".399" stop-color="#ffadee" stop-opacity=".399"/><stop offset=".6053" stop-color="#ffc1f3" stop-opacity=".605"/><stop offset=".8125" stop-color="#ffdef8" stop-opacity=".813"/><stop offset="1" stop-color="#fff"/></linearGradient><linearGradient id="SVGID_8_" gradientUnits="userSpaceOnUse" x1="276.627" x2="466.553" y1="256" y2="256"><stop offset="0" stop-color="#fff"/><stop offset=".1875" stop-color="#ffdef8" stop-opacity=".813"/><stop offset=".3947" stop-color="#ffc1f3" stop-opacity=".605"/><stop offset=".601" stop-color="#ffadee" stop-opacity=".399"/><stop offset=".804" stop-color="#ffa0ec" stop-opacity=".196"/><stop offset="1" stop-color="#ff9ceb" stop-opacity="0"/></linearGradient><linearGradient id="SVGID_9_" gradientUnits="userSpaceOnUse" x1="-60.443" x2="395.22" xlink:href="#lg1" y1="603.67" y2="148.007"/><linearGradient id="SVGID_10_" gradientUnits="userSpaceOnUse" x1="55.038" x2="545.787" xlink:href="#lg1" y1="749.696" y2="258.947"/><linearGradient id="SVGID_11_" gradientUnits="userSpaceOnUse" x1="-57.902" x2="416.818" xlink:href="#lg1" y1="712.091" y2="237.371"/><linearGradient id="SVGID_12_" gradientUnits="userSpaceOnUse" x1="-218.385" x2="275.941" xlink:href="#lg1" y1="437.652" y2="-56.674"/><linearGradient id="SVGID_13_" gradientUnits="userSpaceOnUse" x1="-40.571" x2="418.412" xlink:href="#lg1" y1="521.344" y2="62.361"/><linearGradient id="SVGID_14_" gradientUnits="userSpaceOnUse" x1="-194.004" x2="284.175" xlink:href="#lg1" y1="563.815" y2="85.636"/><linearGradient id="lg3"><stop offset="0" stop-color="#fff"/><stop offset=".0996" stop-color="#ffe3f9" stop-opacity=".9"/><stop offset=".2214" stop-color="#ffc9f4" stop-opacity=".779"/><stop offset=".3561" stop-color="#ffb5f0" stop-opacity=".644"/><stop offset=".5084" stop-color="#ffa7ed" stop-opacity=".492"/><stop offset=".693" stop-color="#ff9fec" stop-opacity=".307"/><stop offset="1" stop-color="#ff9ceb" stop-opacity="0"/></linearGradient><linearGradient id="SVGID_15_" gradientUnits="userSpaceOnUse" x1="256" x2="256" xlink:href="#lg3" y1="209.959" y2="86.875"/><linearGradient id="SVGID_16_" gradientTransform="matrix(1 0 0 -1 0 508.986)" gradientUnits="userSpaceOnUse" x1="256" x2="256" xlink:href="#lg3" y1="206.945" y2="83.861"/><linearGradient id="SVGID_17_" gradientUnits="userSpaceOnUse" x1="50.755" x2="357.281" xlink:href="#lg2" y1="461.245" y2="154.719"/><g><circle cx="256" cy="256" fill="url(#SVGID_1_)" r="256"/><circle cx="256" cy="256" fill="url(#SVGID_2_)" r="256"/><path d="m99.382 99.382c-5.685 5.689-9.406 13.336-9.746 21.618-3.682 90-3.682 180 0 270 .339 8.282 4.061 15.93 9.746 21.618 17.115.765 34.23 1.405 51.346 1.919-3.137-105.691-3.137-211.383 0-317.074-17.115.514-34.23 1.154-51.346 1.919z" fill="url(#SVGID_3_)"/><path d="m210.883 96.172c-30.078.387-60.155 1.162-90.233 2.324-4.034 105.003-4.034 210.006 0 315.009 30.078 1.162 60.155 1.937 90.233 2.324-1.344-106.553-1.344-213.105 0-319.657z" fill="url(#SVGID_4_)"/><path d="m412.618 99.382c-17.115-.765-34.23-1.405-51.346-1.919 3.137 105.691 3.137 211.383 0 317.074 17.115-.514 34.23-1.154 51.346-1.919 5.685-5.688 9.406-13.336 9.746-21.618 3.682-90 3.682-180 0-270-.34-8.282-4.062-15.929-9.746-21.618z" fill="url(#SVGID_5_)"/><path d="m301.117 96.172c1.344 106.552 1.344 213.104 0 319.656 30.078-.387 60.155-1.162 90.233-2.324 4.034-105.003 4.034-210.006 0-315.009-30.078-1.161-60.155-1.936-90.233-2.323z" fill="url(#SVGID_6_)"/><path d="m210.883 96.172c-37.167.479-74.334 1.549-111.501 3.21-5.685 5.689-9.406 13.336-9.746 21.618-3.682 90-3.682 180 0 270 .339 8.282 4.061 15.93 9.746 21.618 37.167 1.661 74.334 2.732 111.501 3.21-1.344-106.552-1.344-213.104 0-319.656z" fill="url(#SVGID_7_)"/><path d="m301.117 96.172c1.344 106.552 1.344 213.104 0 319.656 37.167-.479 74.334-1.549 111.501-3.21 5.685-5.688 9.406-13.336 9.746-21.618 3.682-90 3.682-180 0-270-.34-8.282-4.061-15.929-9.746-21.618-37.167-1.661-74.334-2.731-111.501-3.21z" fill="url(#SVGID_8_)"/><path d="m119.884 392.116c-6.893 6.893-13.729 13.73-20.502 20.502 5.689 5.686 13.337 9.406 21.618 9.746 10 .409 20 .773 30 1.091-10.318-10.467-20.698-20.922-31.116-31.339z" fill="url(#SVGID_9_)"/><path d="m392.116 392.116c-10.417 10.417-20.798 20.872-31.116 31.339 10-.318 20-.682 30-1.091 8.282-.339 15.93-4.06 21.618-9.746-6.773-6.772-13.609-13.609-20.502-20.502z" fill="url(#SVGID_10_)"/><path d="m392.116 392.116c-29.244-29.244-59.492-59.492-90.074-90.074-30.694.112-61.389.112-92.083 0-30.583 30.583-60.831 60.831-90.074 90.074.579 16.68 14.578 30.793 31.116 31.339 70 2.227 140 2.227 210 0 16.537-.547 30.536-14.659 31.115-31.339z" fill="url(#SVGID_11_)"/><path d="m151 88.546c-10 .318-20 .682-30 1.091-8.282.339-15.929 4.061-21.618 9.746 6.773 6.772 13.61 13.609 20.502 20.502 10.418-10.418 20.798-20.873 31.116-31.339z" fill="url(#SVGID_12_)"/><path d="m391 89.636c-10-.409-20-.773-30-1.091 10.318 10.467 20.698 20.921 31.116 31.339 6.893-6.893 13.729-13.73 20.502-20.502-5.687-5.685-13.336-9.406-21.618-9.746z" fill="url(#SVGID_13_)"/><path d="m361 88.546c-70-2.227-140-2.227-210 0-16.538.546-30.537 14.659-31.116 31.339 29.244 29.244 59.492 59.492 90.074 90.075 30.694-.112 61.389-.112 92.083 0 30.582-30.583 60.83-60.831 90.074-90.075-.579-16.68-14.577-30.794-31.115-31.339z" fill="url(#SVGID_14_)"/><path d="m302.041 209.959c37.791-37.791 75.071-75.071 110.577-110.577-5.687-5.685-13.336-9.406-21.618-9.746-90-3.682-180-3.682-270 0-8.282.339-15.929 4.061-21.618 9.746l110.577 110.577c30.694-.112 61.389-.112 92.082 0z" fill="url(#SVGID_15_)"/><path d="m302.041 302.041 110.577 110.577c-5.687 5.685-13.336 9.406-21.618 9.746-90 3.682-180 3.682-270 0-8.282-.339-15.929-4.06-21.618-9.746l110.577-110.577c30.694.112 61.389.112 92.082 0z" fill="url(#SVGID_16_)"/><circle cx="256" cy="256" fill="url(#SVGID_17_)" r="108.17"/></g></svg>