<svg id="Layer_1" enable-background="new 0 0 512 512" height="512" viewBox="0 0 512 512" width="512" xmlns="http://www.w3.org/2000/svg" xmlns:xlink="http://www.w3.org/1999/xlink"><linearGradient id="SVGID_1_" gradientUnits="userSpaceOnUse" x1="74.98" x2="437.018" y1="437.019" y2="74.981"><stop offset="0" stop-color="#00aa45"/><stop offset="1" stop-color="#d3ff33"/></linearGradient><radialGradient id="SVGID_2_" cx="262.084" cy="310.085" gradientUnits="userSpaceOnUse" r="311.775"><stop offset="0" stop-color="#00aa45"/><stop offset=".0453" stop-color="#1bb44c" stop-opacity=".955"/><stop offset=".1356" stop-color="#4ac558" stop-opacity=".864"/><stop offset=".2314" stop-color="#74d462" stop-opacity=".769"/><stop offset=".3311" stop-color="#97e16b" stop-opacity=".669"/><stop offset=".4357" stop-color="#b4ec72" stop-opacity=".564"/><stop offset=".5471" stop-color="#caf478" stop-opacity=".453"/><stop offset=".6683" stop-color="#dafa7c" stop-opacity=".332"/><stop offset=".8067" stop-color="#e3fd7e" stop-opacity=".193"/><stop offset="1" stop-color="#e6fe7f" stop-opacity="0"/></radialGradient><linearGradient id="lg1"><stop offset="0" stop-color="#008547"/><stop offset=".1212" stop-color="#128f45"/><stop offset=".3647" stop-color="#41aa41"/><stop offset=".7046" stop-color="#8cd63a"/><stop offset="1" stop-color="#d3ff33"/></linearGradient><linearGradient id="SVGID_3_" gradientUnits="userSpaceOnUse" x1="-200.369" x2="730.802" xlink:href="#lg1" y1="844.118" y2="-87.053"/><linearGradient id="SVGID_4_" gradientUnits="userSpaceOnUse" x1="94.737" x2="507.737" xlink:href="#lg1" y1="415.233" y2="2.233"/><linearGradient id="lg2"><stop offset="0" stop-color="#95e12e"/><stop offset="1" stop-color="#e6fe7f"/></linearGradient><linearGradient id="SVGID_5_" gradientUnits="userSpaceOnUse" x1="137.312" x2="408.389" xlink:href="#lg2" y1="516.525" y2="245.447"/><linearGradient id="SVGID_6_" gradientUnits="userSpaceOnUse" x1="137.751" x2="403.226" xlink:href="#lg2" y1="340.857" y2="75.383"/><linearGradient id="SVGID_7_" gradientUnits="userSpaceOnUse" x1="102.808" x2="473.547" y1="478.398" y2="107.658"><stop offset="0" stop-color="#95e12e"/><stop offset=".6207" stop-color="#c7f360"/><stop offset="1" stop-color="#e6fe7f"/></linearGradient><linearGradient id="lg3"><stop offset="0" stop-color="#b8ef5c"/><stop offset=".1177" stop-color="#bbf064"/><stop offset=".299" stop-color="#c5f279"/><stop offset=".5213" stop-color="#d4f59d"/><stop offset=".7736" stop-color="#e9facd"/><stop offset="1" stop-color="#fff"/></linearGradient><linearGradient id="SVGID_8_" gradientUnits="userSpaceOnUse" x1="77.051" x2="446.124" xlink:href="#lg3" y1="628.717" y2="259.645"/><linearGradient id="SVGID_9_" gradientUnits="userSpaceOnUse" x1="45.521" x2="469.965" xlink:href="#lg3" y1="725.819" y2="301.376"/><linearGradient id="SVGID_10_" gradientUnits="userSpaceOnUse" x1="47.229" x2="407.626" xlink:href="#lg3" y1="349.016" y2="-11.38"/><linearGradient id="SVGID_11_" gradientUnits="userSpaceOnUse" x1="56.641" x2="423.146" xlink:href="#lg3" y1="502.061" y2="135.556"/><linearGradient id="SVGID_12_" gradientUnits="userSpaceOnUse" x1="60.115" x2="458.233" xlink:href="#lg3" y1="405.98" y2="7.861"/><linearGradient id="SVGID_13_" gradientUnits="userSpaceOnUse" x1="36.765" x2="449.099" xlink:href="#lg3" y1="588.979" y2="176.646"/><linearGradient id="SVGID_14_" gradientUnits="userSpaceOnUse" x1="155.779" x2="526.278" xlink:href="#lg3" y1="360.671" y2="-9.828"/><linearGradient id="SVGID_15_" gradientUnits="userSpaceOnUse" x1="256" x2="256" y1="368.093" y2="122.093"><stop offset="0" stop-color="#e6fe7f" stop-opacity="0"/><stop offset=".3639" stop-color="#e4fd7e" stop-opacity=".364"/><stop offset=".523" stop-color="#ddfb7a" stop-opacity=".523"/><stop offset=".6421" stop-color="#d0f674" stop-opacity=".642"/><stop offset=".7413" stop-color="#bef06b" stop-opacity=".741"/><stop offset=".8281" stop-color="#a7e85f" stop-opacity=".828"/><stop offset=".9063" stop-color="#8add50" stop-opacity=".906"/><stop offset=".9764" stop-color="#69d23f" stop-opacity=".976"/><stop offset="1" stop-color="#5ccd38"/></linearGradient><linearGradient id="SVGID_16_" gradientUnits="userSpaceOnUse" x1="98.37" x2="382.531" xlink:href="#lg3" y1="325.954" y2="41.793"/><linearGradient id="SVGID_17_" gradientUnits="userSpaceOnUse" x1="104.502" x2="365.506" xlink:href="#lg3" y1="235.681" y2="-25.324"/><linearGradient id="SVGID_18_" gradientUnits="userSpaceOnUse" x1="256" x2="256" y1="126.207" y2="48.904"><stop offset="0" stop-color="#5ccd38"/><stop offset=".0775" stop-color="#6ed341" stop-opacity=".923"/><stop offset=".2846" stop-color="#99e357" stop-opacity=".715"/><stop offset=".4857" stop-color="#baef69" stop-opacity=".514"/><stop offset=".6764" stop-color="#d2f775" stop-opacity=".324"/><stop offset=".8524" stop-color="#e1fc7c" stop-opacity=".148"/><stop offset="1" stop-color="#e6fe7f" stop-opacity="0"/></linearGradient><linearGradient id="SVGID_19_" gradientUnits="userSpaceOnUse" x1="31.859" x2="353.272" xlink:href="#lg3" y1="452.11" y2="130.698"/><linearGradient id="SVGID_20_" gradientUnits="userSpaceOnUse" x1="31.119" x2="363.56" xlink:href="#lg3" y1="267.35" y2="-65.091"/><linearGradient id="SVGID_21_" gradientUnits="userSpaceOnUse" x1="29.317" x2="355.797" xlink:href="#lg3" y1="369.365" y2="42.885"/><g><circle cx="256" cy="256" fill="url(#SVGID_1_)" r="256"/><circle cx="256" cy="256" fill="url(#SVGID_2_)" r="256"/><path d="m386.622 257.282c-10.245.045-20.49.084-30.735.118-.067 15.265-.199 30.53-.398 45.795 15.438-10.329 30.909-20.626 46.371-30.844.092-8.356-6.751-15.101-15.238-15.069z" fill="url(#SVGID_3_)"/><path d="m355.887 257.4c-76.836.255-153.673.216-230.509-.118-8.487-.032-15.328 6.713-15.238 15.069 48.835 20.58 97.627 41.589 145.859 62.089 38.078-20.5 76.598-41.318 115.152-61.867.075-8.406-6.777-15.197-15.264-15.173z" fill="url(#SVGID_4_)"/><path d="m431.158 332.2c-58.386 1.494-116.772 2.242-175.158 2.241 0-15.375 0-30.75 0-46.125 58.777 0 117.555-.403 176.332-1.208-.274 15.03-.666 30.061-1.174 45.092z" fill="url(#SVGID_5_)"/><path d="m256 334.441c-58.386 0-116.772-.747-175.158-2.241-.508-15.031-.9-30.061-1.174-45.092 58.777.805 117.554 1.208 176.332 1.208z" fill="url(#SVGID_6_)"/><path d="m400.696 332.911c-86.31 1.825-172.62 2.017-258.93.576-.332-15.229-.587-30.457-.765-45.686 86.888.777 173.776.673 260.664-.311-.226 15.141-.549 30.281-.969 45.421z" fill="url(#SVGID_7_)"/><path d="m432.567 272.077c-10.236.1-20.471.192-30.707.274-.108 10.093-.259 20.187-.453 30.28 10.204-.149 20.408-.313 30.612-.493 4.226-.076 7.734-3.497 7.826-7.638.109-5 .204-10 .286-15 .068-4.14-3.323-7.463-7.564-7.423z" fill="url(#SVGID_8_)"/><path d="m431.628 317.169c-10.181.22-20.363.421-30.544.602-.592 25.233-1.454 50.467-2.584 75.7 10-.347 20-.73 30-1.149 4.14-.175 7.691-3.681 7.918-7.822 1.088-20 1.958-40 2.611-60 .134-4.14-3.182-7.421-7.401-7.331z" fill="url(#SVGID_9_)"/><path d="m79.433 272.077c-4.241-.04-7.633 3.283-7.564 7.423.082 5 .177 10 .286 15 .092 4.14 3.601 7.562 7.827 7.638 20.408.36 40.816.657 61.224.892-.153-10.152-.272-20.305-.357-30.457-20.473-.13-40.944-.296-61.416-.496z" fill="url(#SVGID_10_)"/><path d="m401.86 272.352c-87.004.703-174.008.777-261.012.222-4.241-.026-7.647 3.355-7.602 7.554.055 5.069.118 10.139.191 15.208.062 4.198 3.542 7.646 7.769 7.695 86.734.998 173.468.865 260.202-.399 4.225-.063 7.722-3.499 7.798-7.672.091-5.038.17-10.076.238-15.115.055-4.172-3.345-7.527-7.584-7.493z" fill="url(#SVGID_11_)"/><path d="m80.372 317.169c-4.218-.09-7.537 3.191-7.401 7.331.653 20 1.523 40 2.611 60 .228 4.14 3.778 7.646 7.918 7.822 20 .839 40 1.532 60 2.08-.892-25.381-1.572-50.762-2.04-76.143-20.362-.287-40.725-.65-61.088-1.09z" fill="url(#SVGID_12_)"/><path d="m401.084 317.771c-86.541 1.544-173.082 1.707-259.623.488-4.219-.059-7.57 3.294-7.48 7.493.435 20.278 1.015 40.556 1.74 60.833.152 4.199 3.639 7.702 7.779 7.816 85 2.326 170 2.016 255-.93 4.141-.145 7.658-3.652 7.848-7.824.907-20.153 1.632-40.306 2.176-60.458.114-4.172-3.222-7.492-7.44-7.418z" fill="url(#SVGID_13_)"/><path d="m286.136 380.467c-20.091.132-40.181.132-60.272 0-8.315-.055-15.148-7-15.251-15.475-.482-42.667-.728-85.333-.737-128-.001-6.764.562-13.518 1.686-20.192 4.606-27.369 9.293-54.762 13.975-82.166 20.309-.09 40.618-.09 60.927 0 4.682 27.404 9.369 54.797 13.975 82.166 1.124 6.675 1.688 13.428 1.686 20.192-.01 42.667-.255 85.333-.737 128-.102 8.476-6.937 15.42-15.252 15.475z" fill="url(#SVGID_14_)"/><path d="m286.136 380.467c-20.091.132-40.181.132-60.272 0-8.315-.055-15.148-7-15.251-15.475-.482-42.667-.728-85.333-.737-128-.001-6.764.562-13.518 1.686-20.192 4.606-27.369 9.293-54.762 13.975-82.166 20.309-.09 40.618-.09 60.927 0 4.682 27.404 9.369 54.797 13.975 82.166 1.124 6.675 1.688 13.428 1.686 20.192-.01 42.667-.255 85.333-.737 128-.102 8.476-6.937 15.42-15.252 15.475z" fill="url(#SVGID_15_)"/><path d="m338.5 73.641c-10-.201-20-.365-30-.493.251 15.427.466 30.854.645 46.281 12.654.114 25.307.268 37.961.463-.256-12.818-.555-25.636-.897-38.454-.115-4.218-3.568-7.713-7.709-7.797z" fill="url(#SVGID_16_)"/><path d="m308.5 73.149c-45-.575-90-.411-135 .493-4.14.084-7.594 3.579-7.709 7.798-.342 12.818-.641 25.636-.897 38.454 50.615-.78 101.229-.91 151.844-.39-.171-12.862-.371-25.724-.598-38.585-.077-4.235-3.5-7.717-7.64-7.77z" fill="url(#SVGID_17_)"/><path d="m338.5 73.641c-55-1.104-110-1.104-165 0-4.14.084-7.594 3.579-7.709 7.798-.342 12.818-.641 25.636-.897 38.454 60.737-.937 121.475-.937 182.212 0-.256-12.818-.555-25.636-.897-38.454-.115-4.219-3.568-7.714-7.709-7.798z" fill="url(#SVGID_18_)"/><path d="m369.469 104.81c-10.086-.221-20.172-.414-30.258-.576.32 15.38.583 30.76.789 46.14 10.182.105 20.363.229 30.545.372 4.218.058 7.571-3.295 7.48-7.493-.219-10.222-.475-20.444-.767-30.667-.121-4.199-3.614-7.683-7.789-7.776z" fill="url(#SVGID_19_)"/><path d="m142.531 104.81c-4.176.094-7.667 3.577-7.789 7.776-.292 10.222-.548 20.444-.767 30.667-.091 4.198 3.262 7.551 7.48 7.493 20.363-.286 40.727-.496 61.09-.629.131-15.427.299-30.854.502-46.281-20.171.206-40.344.531-60.516.974z" fill="url(#SVGID_20_)"/><path d="m339.21 104.234c-45.387-.731-90.775-.864-136.162-.399-4.176.043-7.615 3.517-7.677 7.75-.146 10.306-.274 20.612-.384 30.919-.047 4.233 3.339 7.64 7.559 7.613 45.817-.3 91.635-.215 137.453.257 4.219.043 7.586-3.339 7.519-7.558-.164-10.271-.356-20.542-.575-30.814-.091-4.219-3.557-7.7-7.733-7.768z" fill="url(#SVGID_21_)"/></g></svg>