<svg id="Layer_1" enable-background="new 0 0 512 512" height="512" viewBox="0 0 512 512" width="512" xmlns="http://www.w3.org/2000/svg" xmlns:xlink="http://www.w3.org/1999/xlink"><linearGradient id="lg1"><stop offset="0" stop-color="#364aff"/><stop offset="1" stop-color="#fc54ff"/></linearGradient><linearGradient id="SVGID_1_" gradientUnits="userSpaceOnUse" x1="74.981" x2="437.02" xlink:href="#lg1" y1="437.019" y2="74.98"/><radialGradient id="SVGID_2_" cx="256.001" cy="256" gradientUnits="userSpaceOnUse" r="258.6"><stop offset="0" stop-color="#8d00db" stop-opacity=".66"/><stop offset=".2069" stop-color="#9f0de1" stop-opacity=".523"/><stop offset=".6178" stop-color="#cc30f0" stop-opacity=".252"/><stop offset="1" stop-color="#fc54ff" stop-opacity="0"/></radialGradient><linearGradient id="lg2"><stop offset="0" stop-color="#b31de7"/><stop offset="1" stop-color="#fda0ff"/></linearGradient><linearGradient id="SVGID_3_" gradientUnits="userSpaceOnUse" x1="-13.625" x2="249.804" xlink:href="#lg2" y1="336.588" y2="73.16"/><linearGradient id="SVGID_4_" gradientUnits="userSpaceOnUse" x1="73.919" x2="268.9" xlink:href="#lg2" y1="247.959" y2="52.978"/><linearGradient id="SVGID_5_" gradientUnits="userSpaceOnUse" x1="100.042" x2="232.923" xlink:href="#lg1" y1="221.487" y2="88.606"/><linearGradient id="SVGID_6_" gradientUnits="userSpaceOnUse" x1="133.602" x2="222.901" xlink:href="#lg1" y1="188.201" y2="98.902"/><linearGradient id="lg3"><stop offset="0" stop-color="#fc54ff" stop-opacity="0"/><stop offset=".154" stop-color="#f54efd" stop-opacity=".102"/><stop offset=".3855" stop-color="#e03ff6" stop-opacity=".254"/><stop offset=".6657" stop-color="#be25eb" stop-opacity=".439"/><stop offset=".9815" stop-color="#9002dc" stop-opacity=".648"/><stop offset="1" stop-color="#8d00db" stop-opacity=".66"/></linearGradient><radialGradient id="SVGID_7_" cx="156.964" cy="164.192" gradientUnits="userSpaceOnUse" r="46.439" xlink:href="#lg3"/><linearGradient id="SVGID_8_" gradientUnits="userSpaceOnUse" x1="174.928" x2="429.11" xlink:href="#lg2" y1="344.36" y2="90.178"/><linearGradient id="SVGID_9_" gradientUnits="userSpaceOnUse" x1="274.218" x2="462.364" xlink:href="#lg2" y1="245.036" y2="56.889"/><linearGradient id="SVGID_10_" gradientUnits="userSpaceOnUse" x1="299.755" x2="427.982" xlink:href="#lg1" y1="219.487" y2="91.26"/><linearGradient id="SVGID_11_" gradientUnits="userSpaceOnUse" x1="332.16" x2="418.541" xlink:href="#lg1" y1="187.37" y2="100.989"/><radialGradient id="SVGID_12_" cx="355.037" cy="164.192" gradientUnits="userSpaceOnUse" r="46.439" xlink:href="#lg3"/><linearGradient id="lg4"><stop offset="0" stop-color="#fc54ff"/><stop offset=".4062" stop-color="#fd9bff"/><stop offset="1" stop-color="#fff"/></linearGradient><linearGradient id="SVGID_13_" gradientUnits="userSpaceOnUse" x1="-167.498" x2="349.808" xlink:href="#lg4" y1="555.123" y2="37.817"/><linearGradient id="SVGID_14_" gradientUnits="userSpaceOnUse" x1="-28.886" x2="427.812" xlink:href="#lg4" y1="524.484" y2="67.785"/><linearGradient id="SVGID_15_" gradientUnits="userSpaceOnUse" x1="10.618" x2="383.557" xlink:href="#lg4" y1="584.257" y2="211.318"/><linearGradient id="SVGID_16_" gradientUnits="userSpaceOnUse" x1="-52.54" x2="403.343" xlink:href="#lg4" y1="695.658" y2="239.775"/><linearGradient id="SVGID_17_" gradientUnits="userSpaceOnUse" x1="-19.134" x2="341.247" xlink:href="#lg4" y1="627.587" y2="267.205"/><linearGradient id="SVGID_18_" gradientUnits="userSpaceOnUse" x1="160.392" x2="372.584" xlink:href="#lg4" y1="448.308" y2="236.116"/><linearGradient id="SVGID_19_" gradientUnits="userSpaceOnUse" x1="132.38" x2="367.968" xlink:href="#lg4" y1="476.3" y2="240.712"/><g><circle cx="256" cy="256" fill="url(#SVGID_1_)" r="256"/><circle cx="256" cy="256" fill="url(#SVGID_2_)" r="256"/><path d="m194.585 232.562c-25.59.119-51.179.313-76.769.581-16.963.15-30.584-13.101-30.271-29.642.457-25 1.149-50 2.075-75 .635-16.538 14.695-30.716 31.252-31.473 25.024-1.105 50.047-1.903 75.071-2.394 16.559-.334 29.894 13.312 29.806 30.283 9.999 12.72 20.094 25.503 30.251 38.315-10.157 12.813-20.377 25.656-30.628 38.498-.048 16.974-13.821 30.758-30.787 30.832z" fill="url(#SVGID_3_)"/><path d="m210.293 163.437c-.187 29.691-24.309 53.842-53.98 54.115-29.664.232-53.438-22.99-52.67-52.033.786-29.033 25.329-53.766 54.387-54.676 29.064-.888 52.418 22.914 52.263 52.594z" fill="url(#SVGID_4_)"/><path d="m195.057 163.597c-.19 21.177-17.437 38.457-38.599 38.711-21.157.238-38.07-16.376-37.58-37.223.496-20.842 17.958-38.419 38.806-38.997 20.853-.574 37.551 16.337 37.373 37.509z" fill="url(#SVGID_5_)"/><path d="m164.375 179.318c-21.103.296-37.907-16.273-37.348-37.16-4.924 6.479-7.957 14.416-8.148 22.927-.49 20.847 16.422 37.461 37.58 37.223 21.161-.253 38.408-17.534 38.599-38.71-7.039 9.39-18.191 15.528-30.683 15.72z" fill="url(#SVGID_6_)"/><path d="m195.057 163.597c-.19 21.177-17.437 38.457-38.599 38.711-21.157.238-38.07-16.376-37.58-37.223.496-20.842 17.958-38.419 38.806-38.997 20.853-.574 37.551 16.337 37.373 37.509z" fill="url(#SVGID_7_)"/><path d="m394.184 233.142c-25.59-.268-51.179-.462-76.769-.581-16.965-.073-30.739-13.858-30.787-30.833-10.251-12.843-20.471-25.686-30.628-38.498 10.157-12.812 20.251-25.595 30.251-38.315-.088-16.972 13.247-30.618 29.806-30.283 25.024.491 50.047 1.289 75.071 2.394 16.557.756 30.616 14.936 31.252 31.473.926 25 1.618 50 2.075 75 .312 16.543-13.308 29.794-30.271 29.643z" fill="url(#SVGID_8_)"/><path d="m408.357 165.519c.768 29.044-23.006 52.263-52.67 52.033-29.671-.271-53.793-24.426-53.98-54.115-.155-29.68 23.198-53.483 52.263-52.593 29.058.909 53.601 25.644 54.387 54.675z" fill="url(#SVGID_9_)"/><path d="m393.121 165.085c.49 20.847-16.422 37.461-37.58 37.223-21.161-.253-38.408-17.534-38.599-38.711-.178-21.172 16.521-38.083 37.372-37.509 20.849.579 38.311 18.156 38.807 38.997z" fill="url(#SVGID_10_)"/><path d="m362.896 179.576c-21.107-.362-38.357-17.689-38.616-38.849-4.677 6.32-7.422 14.245-7.337 22.871.19 21.177 17.437 38.457 38.599 38.711 21.157.238 38.07-16.376 37.58-37.223-6.742 8.99-17.735 14.712-30.226 14.49z" fill="url(#SVGID_11_)"/><path d="m393.121 165.085c.49 20.847-16.422 37.461-37.58 37.223-21.161-.253-38.408-17.534-38.599-38.711-.178-21.172 16.521-38.083 37.372-37.509 20.849.579 38.311 18.156 38.807 38.997z" fill="url(#SVGID_12_)"/><path d="m271 90.522c-10-.05-20-.05-30 0-8.278.042-15.05 6.993-15.119 15.475-.141 19.108-.259 38.217-.353 57.325 20.314-.122 40.629-.122 60.943 0-.094-19.108-.211-38.217-.353-57.325-.068-8.483-6.84-15.432-15.118-15.475z" fill="url(#SVGID_13_)"/><path d="m308.492 269.554c-5.75-5.737-11.502-11.483-17.253-17.231-2.886-2.884-4.509-6.795-4.515-10.869-.04-26.044-.124-52.087-.252-78.131-.046-8.483-6.888-15.412-15.276-15.441-10.13-.035-20.261-.035-30.391 0-8.387.03-15.23 6.958-15.276 15.441-.128 26.044-.212 52.087-.252 78.131-.006 4.075-1.63 7.984-4.515 10.869-5.751 5.749-11.504 11.494-17.253 17.231-5.77 5.758-9.01 13.551-8.999 21.68 20.516 15.357 41.044 30.797 61.491 46.172 20.447-15.375 40.975-30.815 61.491-46.172.01-8.129-3.23-15.922-9-21.68z" fill="url(#SVGID_14_)"/><path d="m225.255 291.269c-10.248-.008-20.497-.02-30.745-.035.065 51.961.483 103.922 1.254 155.884.132 8.462 6.96 15.462 15.237 15.588 10 .15 20 .25 30 .3-5.231-57.268-10.586-114.525-15.746-171.737z" fill="url(#SVGID_15_)"/><path d="m240.627 291.278c-5.124-.002-10.249-.005-15.373-.009.033 52.087.242 104.175.627 156.262.069 8.483 6.841 15.434 15.119 15.475 20 .1 40 0 60-.3 8.278-.125 15.106-7.128 15.237-15.588.392-26.419.692-52.838.902-79.257-25.272-25.297-50.882-50.954-76.512-76.583z" fill="url(#SVGID_16_)"/><path d="m240.627 291.278c.067 42.455 34.353 77.011 76.512 76.583.202-25.542.32-51.085.352-76.627-25.621.039-51.242.053-76.864.044z" fill="url(#SVGID_17_)"/><path d="m247.575 323.21c-12.86 3.662-22.251 15.468-22.2 29.51.069 16.961 13.794 30.81 30.625 30.811 13.935.001 25.717-9.493 29.42-22.375-12.561-12.606-25.189-25.27-37.845-37.946z" fill="url(#SVGID_18_)"/><path d="m285.42 361.155c.77-2.684 1.196-5.512 1.205-8.436.064-16.965-13.661-30.685-30.625-30.689-2.923.001-5.747.416-8.425 1.179 7.674 16.8 21.162 30.349 37.845 37.946z" fill="url(#SVGID_19_)"/></g></svg>