<svg id="Layer_1" enable-background="new 0 0 512 512" height="512" viewBox="0 0 512 512" width="512" xmlns="http://www.w3.org/2000/svg" xmlns:xlink="http://www.w3.org/1999/xlink"><linearGradient id="SVGID_1_" gradientUnits="userSpaceOnUse" x1="74.98" x2="437.019" y1="437.019" y2="74.981"><stop offset="0" stop-color="#ff4747"/><stop offset="1" stop-color="#fff200"/></linearGradient><radialGradient id="SVGID_2_" cx="-8225.787" cy="-21730.51" gradientTransform="matrix(.707 .707 -.707 .707 -9332.831 21475.822)" gradientUnits="userSpaceOnUse" r="315.042"><stop offset="0" stop-color="#ff4747" stop-opacity=".8"/><stop offset=".0057" stop-color="#ff4a48" stop-opacity=".795"/><stop offset=".1324" stop-color="#ff7855" stop-opacity=".694"/><stop offset=".2636" stop-color="#ffa060" stop-opacity=".589"/><stop offset=".3974" stop-color="#ffc168" stop-opacity=".482"/><stop offset=".5347" stop-color="#ffda6f" stop-opacity=".372"/><stop offset=".6772" stop-color="#ffec74" stop-opacity=".258"/><stop offset=".8277" stop-color="#fff777" stop-opacity=".138"/><stop offset="1" stop-color="#fffa78" stop-opacity="0"/></radialGradient><radialGradient id="SVGID_3_" cx="379.719" cy="127.549" gradientUnits="userSpaceOnUse" r="437.355"><stop offset="0" stop-color="#fffa78" stop-opacity=".5"/><stop offset=".1036" stop-color="#fffb90" stop-opacity=".426"/><stop offset=".2603" stop-color="#fefdaf" stop-opacity=".313"/><stop offset=".414" stop-color="#fefec4" stop-opacity=".203"/><stop offset=".5618" stop-color="#feffd2" stop-opacity=".097"/><stop offset=".6972" stop-color="#feffd6" stop-opacity="0"/></radialGradient><radialGradient id="SVGID_4_" cx="387.865" cy="127.944" gradientTransform="matrix(.707 .707 -1.778 1.778 340.195 -376.017)" gradientUnits="userSpaceOnUse" r="79.036"><stop offset="0" stop-color="#fffa78" stop-opacity=".6"/><stop offset=".1727" stop-color="#fffa7f" stop-opacity=".496"/><stop offset=".43" stop-color="#fffb94" stop-opacity=".342"/><stop offset=".7384" stop-color="#fefdb4" stop-opacity=".157"/><stop offset="1" stop-color="#feffd6" stop-opacity="0"/></radialGradient><linearGradient id="lg1"><stop offset="0" stop-color="#fffa78"/><stop offset="1" stop-color="#fff"/></linearGradient><linearGradient id="SVGID_5_" gradientUnits="userSpaceOnUse" x1="254.767" x2="405.632" xlink:href="#lg1" y1="254.126" y2="103.262"/><linearGradient id="SVGID_6_" gradientTransform="matrix(.707 .707 -.707 .707 256 -106.039)" gradientUnits="userSpaceOnUse" x1="269.315" x2="269.315" y1="830.231" y2="-96.933"><stop offset="0" stop-color="#ffcb00"/><stop offset=".5" stop-color="#fffa78"/><stop offset="1" stop-color="#fff"/></linearGradient><linearGradient id="SVGID_7_" gradientUnits="userSpaceOnUse" x1="41.003" x2="381.882" xlink:href="#lg1" y1="445.879" y2="104.999"/><linearGradient id="lg2"><stop offset="0" stop-color="#ffcb00"/><stop offset="1" stop-color="#fffa78"/></linearGradient><linearGradient id="SVGID_8_" gradientTransform="matrix(.707 -.707 .707 .707 -181.195 223.05)" gradientUnits="userSpaceOnUse" x1="100.208" x2="258.798" xlink:href="#lg2" y1="330.246" y2="330.246"/><linearGradient id="SVGID_9_" gradientUnits="userSpaceOnUse" x1="163.904" x2="218.041" xlink:href="#lg2" y1="345.003" y2="290.867"/><linearGradient id="SVGID_10_" gradientUnits="userSpaceOnUse" x1="93.113" x2="231.718" y1="415.78" y2="277.175"><stop offset="0" stop-color="#fffa78" stop-opacity="0"/><stop offset=".4336" stop-color="#fff876" stop-opacity=".347"/><stop offset=".5898" stop-color="#fff26f" stop-opacity=".472"/><stop offset=".7011" stop-color="#ffe764" stop-opacity=".561"/><stop offset=".7911" stop-color="#ffd853" stop-opacity=".633"/><stop offset=".8682" stop-color="#ffc43d" stop-opacity=".695"/><stop offset=".9352" stop-color="#ffab22" stop-opacity=".748"/><stop offset=".9956" stop-color="#ff8e03" stop-opacity=".797"/><stop offset="1" stop-color="#ff8c00" stop-opacity=".8"/></linearGradient><linearGradient id="SVGID_11_" gradientTransform="matrix(.707 .707 -.707 .707 256 -106.039)" gradientUnits="userSpaceOnUse" x1="284.558" x2="284.558" xlink:href="#lg1" y1="372.157" y2="181.569"/><linearGradient id="SVGID_12_" gradientUnits="userSpaceOnUse" x1="69.604" x2="260.022" xlink:href="#lg1" y1="417.566" y2="227.148"/><g><circle cx="256" cy="256" fill="url(#SVGID_1_)" r="256"/><circle cx="256" cy="256" fill="url(#SVGID_2_)" r="256"/><circle cx="256" cy="256" fill="url(#SVGID_3_)" r="256"/><path d="m189.544 232.42c51.026-50.793 102.412-102.458 151.452-152.29 23.06-23.531 60.743-22.008 85.257 2.511 24.52 24.513 26.041 62.197 2.511 85.256-49.832 49.04-101.498 100.426-152.29 151.452-28.827-28.96-57.969-58.103-86.93-86.929z" fill="url(#SVGID_4_)"/><path d="m405.632 103.262c-12.2-12.198-31.261-12.782-42.844-1.086-42.191 42.53-86.013 86.504-129.759 130.212 14.488 14.476 29.001 28.989 43.477 43.477 43.708-43.746 87.682-87.568 130.212-129.759 11.697-11.584 11.111-30.644-1.086-42.844z" fill="url(#SVGID_5_)"/><path d="m233.031 254.111c-46.693 46.656-93.084 92.902-137.086 136.652 2.347 4.586 5.467 8.934 9.359 12.826 18.425 18.421 46.698 19.653 63.87 2.187 34.796-35.276 70.9-71.663 107.319-108.169-14.45-14.484-28.958-29.003-43.462-43.496z" fill="url(#SVGID_6_)"/><path d="m147.259 383.67c34.93-35.09 71.102-71.356 107.524-107.807-14.492-14.504-29.012-29.012-43.496-43.462-36.506 36.419-72.893 72.523-108.169 107.319-13.752 13.547-15.93 33.959-7.173 51.044 17.179 8.711 37.717 6.585 51.314-7.094z" fill="url(#SVGID_7_)"/><path d="m209.77 329.995c.117 16.945-13.35 30.545-30.131 30.258-16.778-.29-30.709-14.221-30.999-30.999-.287-16.782 13.313-30.248 30.258-30.131 16.949.125 30.748 13.924 30.872 30.872z" fill="url(#SVGID_8_)"/><path d="m187.031 345.075c-16.825-.233-30.736-14.127-30.962-30.928-.024-1.865.132-3.686.434-5.454-5 5.375-7.994 12.585-7.863 20.562.29 16.779 14.22 30.709 30.999 30.999 14.925.253 27.205-10.469 29.677-24.765-5.529 6.002-13.443 9.701-22.285 9.586z" fill="url(#SVGID_9_)"/><path d="m105.304 403.589c-18.422-18.426-19.653-46.697-2.187-63.87 35.276-34.796 71.663-70.9 108.169-107.319 21.726 21.675 43.532 43.48 65.207 65.207-36.419 36.506-72.523 72.892-107.319 108.169-17.172 17.467-45.445 16.235-63.87-2.187z" fill="url(#SVGID_10_)"/><path d="m287.377 264.988c-7.24-7.241-14.487-14.489-21.735-21.737-14.495 21.743-28.985 43.482-43.33 65.124 7.257 7.27 14.503 14.543 21.73 21.811 5.989 6.023 15.646 6.043 21.613.038 7.202-7.246 14.426-14.502 21.663-21.763 11.996-12.033 12.06-31.477.059-43.473z" fill="url(#SVGID_11_)"/><path d="m243.981 308.453c7.205-7.227 14.429-14.468 21.665-21.714 11.991-12.01 12.01-31.478-.004-43.487-7.248-7.248-14.496-14.495-21.737-21.735-11.995-12.001-31.44-11.938-43.475.059-7.26 7.237-14.517 14.461-21.763 21.663-6.004 5.967-5.984 15.624.038 21.613 14.536 14.455 29.092 28.984 43.606 43.525 6.014 6.022 15.702 6.064 21.67.076z" fill="url(#SVGID_12_)"/></g></svg>