<svg id="Layer_1" enable-background="new 0 0 512 512" height="512" viewBox="0 0 512 512" width="512" xmlns="http://www.w3.org/2000/svg" xmlns:xlink="http://www.w3.org/1999/xlink"><linearGradient id="lg1"><stop offset="0" stop-color="#560dff"/><stop offset="1" stop-color="#73ecff"/></linearGradient><linearGradient id="SVGID_1_" gradientUnits="userSpaceOnUse" x1="74.98" x2="437.019" xlink:href="#lg1" y1="437.019" y2="74.981"/><radialGradient id="SVGID_2_" cx="256" cy="256" gradientUnits="userSpaceOnUse" r="256"><stop offset="0" stop-color="#6b23ea"/><stop offset=".4299" stop-color="#676bef" stop-opacity=".57"/><stop offset=".8159" stop-color="#64a5f3" stop-opacity=".184"/><stop offset="1" stop-color="#63bcf5" stop-opacity="0"/></radialGradient><linearGradient id="lg2"><stop offset="0" stop-color="#389fff"/><stop offset=".153" stop-color="#45affa"/><stop offset=".7248" stop-color="#73e9e7"/><stop offset="1" stop-color="#85ffe0"/></linearGradient><linearGradient id="SVGID_3_" gradientUnits="userSpaceOnUse" x1="102.368" x2="584.182" xlink:href="#lg2" y1="521.024" y2="39.21"/><linearGradient id="SVGID_4_" gradientUnits="userSpaceOnUse" x1="-40.162" x2="333.882" y1="399.675" y2="25.631"><stop offset="0" stop-color="#43dcc7"/><stop offset=".5" stop-color="#85ffe0"/><stop offset=".617" stop-color="#9dffe6"/><stop offset=".8626" stop-color="#dafff6"/><stop offset="1" stop-color="#fff"/></linearGradient><linearGradient id="SVGID_5_" gradientUnits="userSpaceOnUse" x1="97.699" x2="384.045" xlink:href="#lg2" y1="474.688" y2="188.342"/><linearGradient id="SVGID_6_" gradientUnits="userSpaceOnUse" x1="307.356" x2="398.743" xlink:href="#lg1" y1="394.918" y2="303.531"/><linearGradient id="SVGID_7_" gradientUnits="userSpaceOnUse" x1="319.95" x2="397.361" xlink:href="#lg1" y1="382.338" y2="304.926"/><linearGradient id="SVGID_8_" gradientUnits="userSpaceOnUse" x1="126.202" x2="229.963" xlink:href="#lg1" y1="393.903" y2="290.141"/><linearGradient id="SVGID_9_" gradientUnits="userSpaceOnUse" x1="154.307" x2="218.088" xlink:href="#lg1" y1="365.818" y2="302.037"/><radialGradient id="SVGID_10_" cx="347.202" cy="355.33" gradientUnits="userSpaceOnUse" r="38.854"><stop offset="0" stop-color="#63bcf5" stop-opacity="0"/><stop offset=".1451" stop-color="#63b7f5" stop-opacity=".145"/><stop offset=".3092" stop-color="#64aaf4" stop-opacity=".309"/><stop offset=".4826" stop-color="#6593f2" stop-opacity=".483"/><stop offset=".6626" stop-color="#6773f0" stop-opacity=".663"/><stop offset=".8455" stop-color="#694bed" stop-opacity=".846"/><stop offset="1" stop-color="#6b23ea"/></radialGradient><linearGradient id="lg3"><stop offset="0" stop-color="#85ffe0"/><stop offset=".2339" stop-color="#9dffe6"/><stop offset=".7251" stop-color="#dafff6"/><stop offset="1" stop-color="#fff"/></linearGradient><linearGradient id="SVGID_11_" gradientUnits="userSpaceOnUse" x1="-118.488" x2="577.837" xlink:href="#lg3" y1="623.587" y2="-72.738"/><linearGradient id="SVGID_12_" gradientUnits="userSpaceOnUse" x1="-151.257" x2="435.298" xlink:href="#lg3" y1="701.269" y2="114.715"/><g><circle cx="256" cy="256" fill="url(#SVGID_1_)" r="256"/><circle cx="256" cy="256" fill="url(#SVGID_2_)" r="256"/><path d="m423.742 338.83c-5.083.105-10.166.205-15.249.301-6.973-6.99-14.004-14.025-21.082-21.096-5.631-5.626-13.385-8.759-21.513-8.691-36.424-14.929-73.146-30.281-109.898-45.656-36.752 15.375-73.474 30.728-109.898 45.656-8.128-.068-15.881 3.065-21.513 8.691-7.078 7.071-14.109 14.105-21.082 21.096-5.083-.095-10.166-.196-15.249-.301-8.426-.167-15.015 6.393-14.651 14.671.432 10 .931 20 1.496 30 .475 8.277 7.622 15.263 15.898 15.569 110 3.991 220 3.991 330 0 8.275-.306 15.422-7.292 15.897-15.569.565-10 1.064-20 1.496-30 .363-8.278-6.226-14.838-14.652-14.671z" fill="url(#SVGID_3_)"/><path d="m121 111.942c-24.771.788-46.262 21.769-47.393 46.559-1.512 35-2.211 70-2.094 105 .094 24.793 21.217 45.251 46.571 45.574 25.54.273 51.08.471 76.621.592-.504-66.444-.072-132.889 1.296-199.333-25.001.33-50.001.865-75.001 1.608z" fill="url(#SVGID_4_)"/><path d="m278.264 355.901c-14.843.048-29.686.048-44.529 0-5.081-.017-9.844-2.607-12.7-6.893-8.74-13.122-17.533-26.243-26.332-39.341 20.316-15.236 40.798-30.604 61.296-45.979 20.499 15.375 40.981 30.743 61.296 45.979-8.799 13.099-17.592 26.219-26.332 39.341-2.855 4.287-7.617 6.876-12.699 6.893z" fill="url(#SVGID_5_)"/><path d="m347.745 324.766c-16.906.147-30.726 13.954-30.947 30.901-.211 16.943 13.028 30.529 29.651 30.224 16.619-.307 30.645-14.257 31.147-31.036.498-16.782-12.948-30.229-29.851-30.089z" fill="url(#SVGID_6_)"/><path d="m354.418 370.487c-16.699.294-29.999-13.282-29.796-30.215.026-1.876.225-3.712.57-5.497-5.113 5.506-8.282 12.847-8.394 20.891-.211 16.943 13.028 30.529 29.651 30.224 14.785-.269 27.484-11.342 30.492-25.575-5.727 6.102-13.744 10.025-22.523 10.172z" fill="url(#SVGID_7_)"/><path d="m164.255 324.766c-16.903-.139-30.348 13.307-29.85 30.089.502 16.78 14.528 30.729 31.147 31.036 16.622.307 29.862-13.281 29.651-30.224-.222-16.946-14.042-30.755-30.948-30.901z" fill="url(#SVGID_8_)"/><path d="m149.604 355.108c.214 8.417 7.194 15.368 15.548 15.501 8.356.132 14.993-6.638 14.85-15.095-.145-8.458-7.072-15.376-15.499-15.467-8.425-.091-15.113 6.643-14.899 15.061z" fill="url(#SVGID_9_)"/><path d="m347.745 324.766c-16.906.147-30.726 13.954-30.947 30.901-.211 16.943 13.028 30.529 29.651 30.224 16.619-.307 30.645-14.257 31.147-31.036.498-16.782-12.948-30.229-29.851-30.089z" fill="url(#SVGID_10_)"/><path d="m286 110.037c-30-.198-60-.099-90 .297-24.774.352-45.709 21.334-46.396 46.559-.882 35.577-1.289 71.154-1.222 106.732.062 25.227 20.964 45.895 46.321 46.043 66.405.316 132.809.119 199.213-.592 25.354-.323 46.477-20.783 46.571-45.574-51.08-49.898-103.961-101.92-154.487-153.465z" fill="url(#SVGID_11_)"/><path d="m391 111.942c-35-1.039-70-1.674-105-1.905.616 85.001 69.586 153.943 154.488 153.464.116-35-.582-70-2.094-105-1.132-24.791-22.624-45.772-47.394-46.559z" fill="url(#SVGID_12_)"/></g></svg>