<svg id="Layer_1" enable-background="new 0 0 512 512" height="512" viewBox="0 0 512 512" width="512" xmlns="http://www.w3.org/2000/svg" xmlns:xlink="http://www.w3.org/1999/xlink"><linearGradient id="SVGID_1_" gradientUnits="userSpaceOnUse" x1="74.981" x2="437.02" y1="437.019" y2="74.98"><stop offset="0" stop-color="#ff4747"/><stop offset="1" stop-color="#ff9ceb"/></linearGradient><radialGradient id="SVGID_2_" cx="256.001" cy="256" gradientUnits="userSpaceOnUse" r="256"><stop offset="0" stop-color="#ff2f2b"/><stop offset="1" stop-color="#ff9ceb" stop-opacity="0"/></radialGradient><linearGradient id="lg1"><stop offset="0" stop-color="#ff79a2"/><stop offset=".6553" stop-color="#ffb0cf"/><stop offset="1" stop-color="#ffc8e3"/></linearGradient><linearGradient id="SVGID_3_" gradientUnits="userSpaceOnUse" x1="-210.5" x2="393.363" xlink:href="#lg1" y1="722.5" y2="118.637"/><linearGradient id="SVGID_4_" gradientUnits="userSpaceOnUse" x1="59.056" x2="662.919" xlink:href="#lg1" y1="452.944" y2="-150.918"/><linearGradient id="SVGID_5_" gradientUnits="userSpaceOnUse" x1="-45.907" x2="487.595" y1="557.908" y2="24.405"><stop offset="0" stop-color="#ff2f2b"/><stop offset="1" stop-color="#ff9ceb"/></linearGradient><linearGradient id="lg2"><stop offset="0" stop-color="#ff6e70" stop-opacity="0"/><stop offset=".2599" stop-color="#ff6b6f" stop-opacity=".26"/><stop offset=".4654" stop-color="#ff616d" stop-opacity=".465"/><stop offset=".6523" stop-color="#ff506a" stop-opacity=".652"/><stop offset=".8271" stop-color="#ff3965" stop-opacity=".827"/><stop offset=".9938" stop-color="#ff1b5f" stop-opacity=".994"/><stop offset="1" stop-color="#ff195e"/></linearGradient><radialGradient id="SVGID_6_" cx="148.749" cy="202.668" gradientTransform="matrix(1 0 0 .714 0 58.071)" gradientUnits="userSpaceOnUse" r="47.457" xlink:href="#lg2"/><radialGradient id="SVGID_7_" cx="148.749" cy="309.333" gradientTransform="matrix(1 0 0 .714 0 88.634)" gradientUnits="userSpaceOnUse" r="47.457" xlink:href="#lg2"/><radialGradient id="SVGID_8_" cx="363.251" cy="202.668" gradientTransform="matrix(1 0 0 .714 0 58.071)" gradientUnits="userSpaceOnUse" r="47.457" xlink:href="#lg2"/><radialGradient id="SVGID_9_" cx="363.251" cy="309.333" gradientTransform="matrix(1 0 0 .714 0 88.634)" gradientUnits="userSpaceOnUse" r="47.457" xlink:href="#lg2"/><radialGradient id="SVGID_10_" cx="149.749" cy="-1022.332" gradientTransform="matrix(0 1 -.714 0 -420.067 -1)" gradientUnits="userSpaceOnUse" r="47.457" xlink:href="#lg2"/><radialGradient id="SVGID_11_" cx="149.749" cy="-915.667" gradientTransform="matrix(0 1 -.714 0 -450.63 -1)" gradientUnits="userSpaceOnUse" r="47.457" xlink:href="#lg2"/><radialGradient id="SVGID_12_" cx="364.251" cy="-1022.332" gradientTransform="matrix(0 1 -.714 0 -420.067 -1)" gradientUnits="userSpaceOnUse" r="47.457" xlink:href="#lg2"/><radialGradient id="SVGID_13_" cx="364.251" cy="-915.667" gradientTransform="matrix(0 1 -.714 0 -450.63 -1)" gradientUnits="userSpaceOnUse" r="47.457" xlink:href="#lg2"/><linearGradient id="lg3"><stop offset="0" stop-color="#ffa9d4"/><stop offset=".2953" stop-color="#ffc6e3"/><stop offset=".7601" stop-color="#ffeff7"/><stop offset="1" stop-color="#fff"/></linearGradient><linearGradient id="SVGID_14_" gradientUnits="userSpaceOnUse" x1="222.692" x2="299.435" xlink:href="#lg3" y1="307.298" y2="230.555"/><linearGradient id="SVGID_15_" gradientUnits="userSpaceOnUse" x1="223.998" x2="300.738" xlink:href="#lg3" y1="289.027" y2="212.287"/><linearGradient id="lg4"><stop offset="0" stop-color="#ffb5d3"/><stop offset="1" stop-color="#fff"/></linearGradient><linearGradient id="SVGID_16_" gradientUnits="userSpaceOnUse" x1="124.971" x2="177.043" xlink:href="#lg4" y1="174.301" y2="122.229"/><linearGradient id="SVGID_17_" gradientUnits="userSpaceOnUse" x1="109.963" x2="180.383" xlink:href="#lg3" y1="189.359" y2="118.94"/><linearGradient id="SVGID_18_" gradientUnits="userSpaceOnUse" x1="231.744" x2="283.57" xlink:href="#lg4" y1="172.868" y2="121.042"/><linearGradient id="SVGID_19_" gradientUnits="userSpaceOnUse" x1="214.65" x2="283.86" xlink:href="#lg3" y1="189.949" y2="120.739"/><linearGradient id="SVGID_20_" gradientUnits="userSpaceOnUse" x1="231.725" x2="282.993" xlink:href="#lg4" y1="387.74" y2="336.472"/><linearGradient id="SVGID_21_" gradientUnits="userSpaceOnUse" x1="217.402" x2="286.967" xlink:href="#lg3" y1="402" y2="332.435"/><linearGradient id="SVGID_22_" gradientUnits="userSpaceOnUse" x1="338.683" x2="389.276" xlink:href="#lg4" y1="173.317" y2="122.725"/><linearGradient id="SVGID_23_" gradientUnits="userSpaceOnUse" x1="322.199" x2="389.507" xlink:href="#lg3" y1="189.802" y2="122.493"/><linearGradient id="SVGID_24_" gradientUnits="userSpaceOnUse" x1="124.26" x2="175.528" xlink:href="#lg4" y1="280.275" y2="229.008"/><linearGradient id="SVGID_25_" gradientUnits="userSpaceOnUse" x1="107.927" x2="177.492" xlink:href="#lg3" y1="296.671" y2="227.106"/><linearGradient id="SVGID_26_" gradientUnits="userSpaceOnUse" x1="125.923" x2="175.464" xlink:href="#lg4" y1="386.077" y2="336.536"/><linearGradient id="SVGID_27_" gradientUnits="userSpaceOnUse" x1="111.173" x2="179.19" xlink:href="#lg3" y1="400.827" y2="332.81"/><linearGradient id="SVGID_28_" gradientUnits="userSpaceOnUse" x1="339.133" x2="390.959" xlink:href="#lg4" y1="280.257" y2="228.431"/><linearGradient id="SVGID_29_" gradientUnits="userSpaceOnUse" x1="324.457" x2="393.667" xlink:href="#lg3" y1="294.945" y2="225.735"/><linearGradient id="SVGID_30_" gradientUnits="userSpaceOnUse" x1="337.699" x2="389.771" xlink:href="#lg4" y1="387.029" y2="334.957"/><linearGradient id="SVGID_31_" gradientUnits="userSpaceOnUse" x1="323.34" x2="393.759" xlink:href="#lg3" y1="401.338" y2="330.918"/><g><circle cx="256" cy="256" fill="url(#SVGID_1_)" r="256"/><circle cx="256" cy="256" fill="url(#SVGID_2_)" r="256"/><path d="m415.843 361.233c-86.265 2.582-172.529 3.073-258.793 1.475-4.202-.078-7.679-3.555-7.758-7.758-1.598-86.265-1.106-172.529 1.475-258.793.127-4.202 3.593-7.719 7.733-7.842 85-2.511 170-1.739 255 2.318 4.14.199 7.667 3.727 7.866 7.866 4.057 85 4.829 170 2.318 255-.122 4.141-3.64 7.607-7.841 7.734z" fill="url(#SVGID_3_)"/><path d="m353.5 423.685c-85 2.511-170 1.739-255-2.318-4.14-.2-7.667-3.726-7.866-7.866-4.057-85-4.829-170-2.318-255 .123-4.141 3.639-7.605 7.842-7.733 86.265-2.582 172.529-3.073 258.793-1.475 4.202.078 7.68 3.555 7.758 7.758 1.598 86.265 1.106 172.529-1.475 258.793-.127 4.201-3.593 7.719-7.734 7.841z" fill="url(#SVGID_4_)"/><path d="m141.995 141.995c-1.743 76.003-1.743 152.007 0 228.01 76.003 1.743 152.007 1.743 228.01 0 1.743-76.003 1.743-152.007 0-228.01-76.003-1.743-152.007-1.743-228.01 0zm213.091 213.091c-66.058 1.135-132.115 1.135-198.173 0-1.135-66.057-1.135-132.115 0-198.173 66.058-1.135 132.115-1.135 198.173 0 1.135 66.058 1.135 132.116 0 198.173z" fill="url(#SVGID_5_)"/><path d="m156.083 240.756c-5.124.013-10.248.028-15.372.043.078-25.335.349-50.669.814-76.003 5.088-.093 10.176-.18 15.263-.26-.403 25.407-.638 50.813-.705 76.22z" fill="url(#SVGID_6_)"/><path d="m156.788 347.465c-5.088-.081-10.176-.167-15.263-.26-.465-25.334-.736-50.669-.814-76.003 5.124.016 10.248.03 15.372.043.067 25.406.302 50.813.705 76.22z" fill="url(#SVGID_7_)"/><path d="m371.289 240.799c-5.124-.016-10.248-.03-15.372-.043-.067-25.407-.302-50.813-.705-76.22 5.088.081 10.176.167 15.263.26.466 25.335.737 50.669.814 76.003z" fill="url(#SVGID_8_)"/><path d="m370.476 347.204c-5.088.093-10.176.18-15.263.26.403-25.407.638-50.814.705-76.22 5.124-.013 10.248-.028 15.372-.043-.078 25.334-.349 50.669-.814 76.003z" fill="url(#SVGID_9_)"/><path d="m271.244 156.083c-.013-5.124-.028-10.248-.043-15.372 25.334.077 50.669.349 76.003.813.093 5.088.18 10.176.26 15.264-25.406-.403-50.813-.638-76.22-.705z" fill="url(#SVGID_10_)"/><path d="m164.536 156.788c.081-5.088.167-10.176.26-15.264 25.334-.465 50.669-.736 76.003-.813-.016 5.124-.03 10.248-.043 15.372-25.407.067-50.814.302-76.22.705z" fill="url(#SVGID_11_)"/><path d="m271.201 371.289c.016-5.124.03-10.248.043-15.372 25.407-.067 50.813-.302 76.22-.705-.081 5.088-.167 10.176-.26 15.264-25.334.465-50.669.736-76.003.813z" fill="url(#SVGID_12_)"/><path d="m164.796 370.476c-.093-5.088-.18-10.176-.26-15.264 25.407.403 50.813.638 76.22.705.013 5.124.028 10.248.043 15.372-25.334-.077-50.669-.348-76.003-.813z" fill="url(#SVGID_13_)"/><path d="m279.062 249.341c-5.125-.001-10.25-.002-15.374-.003 0 5.125.001 10.25 0 15.374 5.125-.001 10.25-.002 15.374-.004 4.245-.002 7.689-3.442 7.689-7.684-.001-4.242-3.444-7.682-7.689-7.683z" fill="url(#SVGID_14_)"/><path d="m271.375 257.025c0-4.245-3.443-7.687-7.688-7.687 0-5.125-.001-10.25-.003-15.374-.001-4.245-3.443-7.689-7.684-7.689s-7.683 3.443-7.684 7.689c-.002 5.125-.003 10.25-.003 15.374-5.125 0-10.25.002-15.374.003-4.245.002-7.688 3.441-7.688 7.684 0 4.242 3.444 7.682 7.689 7.684 5.125.002 10.249.003 15.374.004.001 5.125.002 10.249.003 15.374.002 4.246 3.441 7.689 7.684 7.689 4.243-.001 7.681-3.443 7.684-7.689.002-5.125.003-10.25.003-15.374 4.245-.001 7.686-3.443 7.687-7.688z" fill="url(#SVGID_15_)"/><path d="m119.64 127.446c-.474 15.124-.865 30.248-1.172 45.372-.087 4.175 3.278 7.497 7.502 7.426 15.298-.263 30.595-.48 45.893-.651-17.648-17.628-35.1-35.055-52.223-52.147z" fill="url(#SVGID_16_)"/><path d="m172.818 118.469c-15.124.307-30.248.698-45.372 1.172-4.175.132-7.674 3.63-7.806 7.806 7.547 24.706 27.03 43.99 52.223 52.148 4.225-.046 7.683-3.505 7.73-7.73.171-15.297.388-30.595.651-45.892.072-4.226-3.25-7.591-7.426-7.504z" fill="url(#SVGID_17_)"/><path d="m225.698 125.418c-.105 15.363-.192 30.725-.26 46.088-.02 4.242 3.391 7.667 7.616 7.654 15.297-.047 30.595-.047 45.893 0-17.902-17.984-35.696-35.942-53.249-53.742z" fill="url(#SVGID_18_)"/><path d="m278.686 117.688c-15.124-.084-30.248-.084-45.372 0-4.175.024-7.585 3.488-7.616 7.73 8.157 25.322 27.934 45.196 53.248 53.742 4.226.012 7.635-3.413 7.616-7.654-.068-15.363-.155-30.725-.26-46.088-.03-4.242-3.441-7.706-7.616-7.73z" fill="url(#SVGID_19_)"/><path d="m225.438 340.494c.068 15.363.155 30.725.26 46.088.03 4.241 3.441 7.708 7.616 7.73 15.124.084 30.248.083 45.372 0-17.547-17.832-35.341-35.815-53.248-53.818z" fill="url(#SVGID_20_)"/><path d="m278.946 332.84c-15.297.047-30.595.047-45.893 0-4.226-.012-7.635 3.412-7.616 7.654 8.552 25.416 28.329 45.487 53.248 53.818 4.176-.024 7.587-3.488 7.616-7.73.105-15.363.192-30.725.26-46.088.022-4.241-3.389-7.667-7.615-7.654z" fill="url(#SVGID_21_)"/><path d="m331.755 125.971c.263 15.297.48 30.595.651 45.893.046 4.225 3.505 7.684 7.73 7.73 15.297.17 30.595.387 45.893.651-18.154-17.984-36.29-36.119-54.274-54.274z" fill="url(#SVGID_22_)"/><path d="m384.554 119.64c-15.124-.474-30.248-.865-45.372-1.172-4.175-.086-7.497 3.278-7.426 7.502 8.767 25.435 28.839 45.507 54.274 54.274 4.225.071 7.589-3.251 7.502-7.426-.307-15.124-.698-30.248-1.172-45.372-.132-4.174-3.632-7.672-7.806-7.806z" fill="url(#SVGID_23_)"/><path d="m117.688 233.314c-.084 15.124-.084 30.248 0 45.372.023 4.174 3.488 7.586 7.73 7.616 15.363.105 30.725.192 46.088.26-18.003-17.907-35.987-35.701-53.818-53.248z" fill="url(#SVGID_24_)"/><path d="m171.506 225.438c-15.363.068-30.725.155-46.088.26-4.242.03-7.707 3.44-7.73 7.616 8.329 24.92 28.403 44.698 53.818 53.249 4.242.021 7.667-3.392 7.654-7.616-.047-15.297-.047-30.595 0-45.893.012-4.225-3.411-7.636-7.654-7.616z" fill="url(#SVGID_25_)"/><path d="m118.469 339.182c.307 15.124.697 30.248 1.172 45.372.133 4.175 3.63 7.673 7.806 7.806 15.124.474 30.248.865 45.372 1.171-18.003-18.186-36.164-36.347-54.35-54.349z" fill="url(#SVGID_26_)"/><path d="m171.864 332.406c-15.297-.17-30.595-.387-45.893-.651-4.226-.072-7.588 3.251-7.502 7.426 8.944 25.135 29.215 45.404 54.349 54.349 4.176.086 7.497-3.278 7.426-7.502-.263-15.297-.48-30.595-.651-45.892-.045-4.225-3.504-7.683-7.729-7.73z" fill="url(#SVGID_27_)"/><path d="m332.84 233.054c.047 15.297.047 30.595 0 45.893-.012 4.225 3.411 7.637 7.654 7.616 15.363-.068 30.725-.155 46.088-.26-17.8-17.554-35.758-35.348-53.742-53.249z" fill="url(#SVGID_28_)"/><path d="m386.582 225.698c-15.363-.105-30.725-.192-46.088-.26-4.243-.02-7.666 3.391-7.654 7.616 8.547 25.315 28.421 45.092 53.742 53.248 4.242-.03 7.707-3.442 7.73-7.616.084-15.124.084-30.248 0-45.372-.023-4.175-3.488-7.585-7.73-7.616z" fill="url(#SVGID_29_)"/><path d="m332.406 340.136c-.171 15.297-.388 30.595-.651 45.893-.071 4.225 3.251 7.588 7.426 7.502 15.124-.307 30.248-.698 45.372-1.172-17.091-17.122-34.517-34.574-52.147-52.223z" fill="url(#SVGID_30_)"/><path d="m386.029 331.756c-15.298.263-30.595.48-45.893.651-4.225.046-7.684 3.505-7.73 7.73 8.157 25.194 27.442 44.677 52.147 52.224 4.175-.133 7.675-3.631 7.806-7.806.474-15.124.865-30.248 1.172-45.372.085-4.176-3.277-7.499-7.502-7.427z" fill="url(#SVGID_31_)"/></g></svg>