<svg id="Layer_1" enable-background="new 0 0 512 512" height="512" viewBox="0 0 512 512" width="512" xmlns="http://www.w3.org/2000/svg" xmlns:xlink="http://www.w3.org/1999/xlink"><linearGradient id="SVGID_1_" gradientUnits="userSpaceOnUse" x1="74.98" x2="437.018" y1="437.02" y2="74.981"><stop offset="0" stop-color="#00aa45"/><stop offset="1" stop-color="#d3ff33"/></linearGradient><radialGradient id="SVGID_2_" cx="256" cy="256" gradientUnits="userSpaceOnUse" r="256"><stop offset="0" stop-color="#00aa45"/><stop offset=".1015" stop-color="#0faf49" stop-opacity=".899"/><stop offset=".2954" stop-color="#35bd52" stop-opacity=".705"/><stop offset=".5614" stop-color="#73d462" stop-opacity=".439"/><stop offset=".8863" stop-color="#c7f377" stop-opacity=".114"/><stop offset="1" stop-color="#e6fe7f" stop-opacity="0"/></radialGradient><linearGradient id="lg1"><stop offset="0" stop-color="#95e12e"/><stop offset="1" stop-color="#f9fcca"/></linearGradient><linearGradient id="SVGID_3_" gradientUnits="userSpaceOnUse" x1="-128.862" x2="474.784" xlink:href="#lg1" y1="490.995" y2="-112.651"/><linearGradient id="SVGID_4_" gradientUnits="userSpaceOnUse" x1="-187.591" x2="413.489" xlink:href="#lg1" y1="667.671" y2="66.591"/><linearGradient id="SVGID_5_" gradientUnits="userSpaceOnUse" x1="4.206" x2="413.165" xlink:href="#lg1" y1="773.654" y2="364.695"/><linearGradient id="SVGID_6_" gradientUnits="userSpaceOnUse" x1="-1.078" x2="391.978" xlink:href="#lg1" y1="618.787" y2="225.731"/><linearGradient id="SVGID_7_" gradientUnits="userSpaceOnUse" x1="50.122" x2="277.538" xlink:href="#lg1" y1="589.996" y2="362.58"/><linearGradient id="SVGID_8_" gradientUnits="userSpaceOnUse" x1="86.391" x2="585.266" xlink:href="#lg1" y1="651.248" y2="152.372"/><linearGradient id="SVGID_9_" gradientUnits="userSpaceOnUse" x1="102.744" x2="587.004" xlink:href="#lg1" y1="494.71" y2="10.451"/><linearGradient id="lg2"><stop offset="0" stop-color="#008547"/><stop offset=".1212" stop-color="#128f45"/><stop offset=".3647" stop-color="#41aa41"/><stop offset=".7046" stop-color="#8cd63a"/><stop offset="1" stop-color="#d3ff33"/></linearGradient><linearGradient id="SVGID_10_" gradientUnits="userSpaceOnUse" x1="-51.981" x2="482.595" xlink:href="#lg2" y1="771.082" y2="236.506"/><linearGradient id="SVGID_11_" gradientUnits="userSpaceOnUse" x1="31.935" x2="403.328" xlink:href="#lg2" y1="552.85" y2="181.457"/><linearGradient id="SVGID_12_" gradientUnits="userSpaceOnUse" x1="-246.324" x2="574.783" xlink:href="#lg2" y1="580.349" y2="-240.758"/><linearGradient id="SVGID_13_" gradientUnits="userSpaceOnUse" x1="-157.595" x2="489.165" xlink:href="#lg2" y1="622.627" y2="-24.133"/><linearGradient id="SVGID_14_" gradientUnits="userSpaceOnUse" x1="-174.045" x2="464.936" xlink:href="#lg2" y1="674.438" y2="35.458"/><linearGradient id="SVGID_15_" gradientUnits="userSpaceOnUse" x1="139.097" x2="422.005" xlink:href="#lg2" y1="191.475" y2="-91.433"/><linearGradient id="SVGID_16_" gradientUnits="userSpaceOnUse" x1="204.3" x2="416.997" xlink:href="#lg2" y1="126.272" y2="-86.425"/><linearGradient id="SVGID_17_" gradientUnits="userSpaceOnUse" x1="229.727" x2="383.473" xlink:href="#lg2" y1="101.155" y2="-52.592"/><linearGradient id="SVGID_18_" gradientUnits="userSpaceOnUse" x1="200.622" x2="666.659" xlink:href="#lg2" y1="356.72" y2="-109.318"/><linearGradient id="SVGID_19_" gradientUnits="userSpaceOnUse" x1="105.089" x2="570.821" xlink:href="#lg2" y1="348.922" y2="-116.81"/><g><circle cx="256" cy="256" fill="url(#SVGID_1_)" r="256"/><circle cx="256" cy="256" fill="url(#SVGID_2_)" r="256"/><path d="m125.742 98.848c-8.357.188-15.38 7.181-15.576 15.512-1.326 57.936-1.6 115.872-.825 173.808.114 8.332 7.118 15.261 15.533 15.383 15.456 10.347 30.888 20.738 46.267 31.13-1.04-78.887-.969-157.774.216-236.662-15.204.218-30.409.494-45.615.829z" fill="url(#SVGID_3_)"/><path d="m386.257 98.848c-71.633-1.578-143.266-1.854-214.9-.829-8.358.123-15.325 7.114-15.459 15.51-.91 58.375-1.098 116.751-.566 175.126.078 8.397 7.047 15.344 15.462 15.424 28.548 15.558 56.991 31.135 85.206 46.51 43.419-15.375 87.191-31.228 131.124-47.037 8.416-.121 15.42-7.051 15.533-15.383.776-57.936.501-115.872-.825-173.808-.194-8.333-7.216-15.325-15.575-15.513z" fill="url(#SVGID_4_)"/><path d="m371.052 349.469c-.416 20.319-.934 40.637-1.552 60.956 15-.44 30-.967 45-1.58 16.472-.696 30.684-14.871 31.415-31.344-24.758-8.982-49.729-18.366-74.863-28.032z" fill="url(#SVGID_5_)"/><path d="m400.577 379.114c-47.702-13.675-95.966-28.526-144.577-43.901-63.855 15.375-127.255 29.846-189.915 42.287.73 16.473 14.942 30.647 31.415 31.344 90.667 3.711 181.333 4.238 272 1.58 16.473-.498 30.515-14.657 31.077-31.31z" fill="url(#SVGID_6_)"/><path d="m256 350.588c20.273 10.25 40.437 20.396 60.45 30.361-.118 8.468-6.965 15.434-15.274 15.524-30.117.32-60.236.32-90.353 0-8.309-.09-15.156-7.056-15.274-15.524 20.014-9.965 40.177-20.111 60.451-30.361z" fill="url(#SVGID_7_)"/><path d="m406.758 310.608c-2.679-4.512-7.616-7.23-12.994-7.152-15.306.224-30.613.41-45.919.559 17.933 25.305 35.584 50.388 52.731 75.098 15.113-.465 30.225-1.003 45.338-1.614-12.675-22.02-25.773-44.344-39.156-66.891z" fill="url(#SVGID_8_)"/><path d="m347.846 304.016c-76.537.746-153.073.559-229.61-.559-5.377-.078-10.315 2.639-12.994 7.152-13.384 22.547-26.482 44.87-39.157 66.891 111.497 4.506 222.995 5.044 334.492 1.614-12.907-22.39-26.185-45.025-39.698-67.825-2.704-4.563-7.658-7.325-13.033-7.273z" fill="url(#SVGID_9_)"/><path d="m393.506 318.639c-9.339.163-18.677.309-28.016.439-7.204 5.183-14.4 10.373-21.583 15.564 13.141 4.927 26.247 9.792 39.31 14.578 9.294-.2 18.589-.422 27.883-.666-5.802-9.926-11.671-19.9-17.594-29.915z" fill="url(#SVGID_10_)"/><path d="m118.494 318.639c-5.924 10.015-11.792 19.989-17.594 29.915 94.105 2.469 188.211 2.69 282.316.666-5.852-10.009-11.765-20.058-17.727-30.142-82.331 1.143-164.663.997-246.995-.439z" fill="url(#SVGID_11_)"/><path d="m125.411 114.048c-1.083 53.034-1.383 106.067-.899 159.101 10.233.088 20.465.165 30.698.232 20.279-26.508 40.822-53.274 61.354-80.1-20.442-26.761-40.755-53.412-60.665-79.753-10.163.151-20.326.324-30.488.52z" fill="url(#SVGID_12_)"/><path d="m264.638 112.793c-36.247-.046-72.493.199-108.74.735-.831 53.284-1.06 106.569-.689 159.853 77.426.509 154.852.431 232.278-.232.115-12.498.185-24.997.212-37.495-40.907-40.452-82.356-81.811-123.061-122.861z" fill="url(#SVGID_13_)"/><path d="m264.638 112.793c.022 67.987 55.119 123.11 123.062 122.861.281-47.037-1.012-121.606-1.111-121.606-40.65-.784-81.301-1.203-121.951-1.255z" fill="url(#SVGID_14_)"/><path d="m293.844 74.495c.194 21.202-16.775 38.286-37.844 38.293-21.07-.006-38.039-17.092-37.844-38.293.205-21.197 17.174-38.579 37.844-38.582 20.669.002 37.639 17.385 37.844 38.582z" fill="url(#SVGID_15_)"/><path d="m293.844 74.495c.194 21.202-16.775 38.286-37.844 38.293-21.07-.006-38.039-17.092-37.844-38.293.205-21.197 17.174-38.579 37.844-38.582 20.669.002 37.639 17.385 37.844 38.582z" fill="url(#SVGID_16_)"/><path d="m263.592 89.731c-20.992-.034-37.896-17.124-37.71-38.336-4.773 6.453-7.657 14.456-7.726 23.1-.196 21.202 16.774 38.286 37.844 38.293 21.069-.007 38.038-17.091 37.844-38.292-6.827 9.271-17.832 15.251-30.252 15.235z" fill="url(#SVGID_17_)"/><path d="m222.216 275.073c2.544 17.541 5.101 35.087 7.655 52.637 1.915 13.099 13.052 22.878 26.129 22.878s24.213-9.778 26.129-22.878c2.554-17.55 5.111-35.096 7.655-52.637-22.523.051-45.046.051-67.568 0z" fill="url(#SVGID_18_)"/><path d="m294.194 128.255c-25.462-.123-50.926-.123-76.388 0-16.861.089-30.675 13.942-30.792 30.861-.084 13.479-.142 26.957-.173 40.436-.02 8.129 3.212 15.921 8.979 21.674 7.246 7.229 14.499 14.471 21.752 21.718 1.541 10.708 3.09 21.417 4.644 32.129 2.451 16.831 16.855 29.389 33.784 29.39 16.927 0 31.333-12.559 33.784-29.39 1.554-10.712 3.103-21.421 4.644-32.129 7.253-7.248 14.506-14.489 21.752-21.718 5.767-5.752 8.997-13.545 8.979-21.674-.032-13.479-.089-26.957-.174-40.436-.116-16.919-13.93-30.772-30.791-30.861z" fill="url(#SVGID_19_)"/></g></svg>