<svg id="Layer_1" enable-background="new 0 0 512 512" height="512" viewBox="0 0 512 512" width="512" xmlns="http://www.w3.org/2000/svg" xmlns:xlink="http://www.w3.org/1999/xlink"><linearGradient id="SVGID_1_" gradientUnits="userSpaceOnUse" x1="74.98" x2="437.019" y1="437.019" y2="74.981"><stop offset="0" stop-color="#364aff"/><stop offset="1" stop-color="#fc54ff"/></linearGradient><radialGradient id="SVGID_2_" cx="256" cy="256" gradientUnits="userSpaceOnUse" r="258.6"><stop offset="0" stop-color="#8d00db" stop-opacity=".66"/><stop offset=".2069" stop-color="#9f0de1" stop-opacity=".523"/><stop offset=".6178" stop-color="#cc30f0" stop-opacity=".252"/><stop offset="1" stop-color="#fc54ff" stop-opacity="0"/></radialGradient><linearGradient id="lg1"><stop offset="0" stop-color="#b31de7"/><stop offset="1" stop-color="#fda0ff"/></linearGradient><linearGradient id="SVGID_3_" gradientUnits="userSpaceOnUse" x1="-123.055" x2="464.156" xlink:href="#lg1" y1="540.343" y2="-46.868"/><linearGradient id="SVGID_4_" gradientUnits="userSpaceOnUse" x1="-283.384" x2="394.802" xlink:href="#lg1" y1="920.778" y2="242.591"/><linearGradient id="SVGID_5_" gradientUnits="userSpaceOnUse" x1="-206.111" x2="473.373" xlink:href="#lg1" y1="747.36" y2="67.876"/><linearGradient id="lg2"><stop offset="0" stop-color="#fc54ff"/><stop offset=".4062" stop-color="#fd9bff"/><stop offset="1" stop-color="#fff"/></linearGradient><linearGradient id="SVGID_6_" gradientUnits="userSpaceOnUse" x1="-165.701" x2="422.843" xlink:href="#lg2" y1="572.615" y2="-15.929"/><linearGradient id="SVGID_7_" gradientUnits="userSpaceOnUse" x1="-166.834" x2="420.85" xlink:href="#lg2" y1="708.301" y2="120.617"/><linearGradient id="SVGID_8_" gradientUnits="userSpaceOnUse" x1="89.007" x2="250.89" xlink:href="#lg1" y1="270.353" y2="108.47"/><linearGradient id="SVGID_9_" gradientUnits="userSpaceOnUse" x1="87.99" x2="249.618" xlink:href="#lg1" y1="317.04" y2="155.411"/><linearGradient id="SVGID_10_" gradientUnits="userSpaceOnUse" x1="124.866" x2="220.808" xlink:href="#lg2" y1="264.606" y2="168.663"/><linearGradient id="SVGID_11_" gradientUnits="userSpaceOnUse" x1="92.164" x2="250.923" xlink:href="#lg1" y1="389.13" y2="230.371"/><linearGradient id="SVGID_12_" gradientUnits="userSpaceOnUse" x1="89.171" x2="249.238" xlink:href="#lg1" y1="438.239" y2="278.172"/><linearGradient id="SVGID_13_" gradientUnits="userSpaceOnUse" x1="125.764" x2="220.473" xlink:href="#lg2" y1="386.236" y2="291.528"/><linearGradient id="SVGID_14_" gradientUnits="userSpaceOnUse" x1="203.892" x2="363.464" xlink:href="#lg1" y1="308.108" y2="148.536"/><linearGradient id="SVGID_15_" gradientUnits="userSpaceOnUse" x1="248.293" x2="343.002" xlink:href="#lg2" y1="263.707" y2="168.999"/><g><circle cx="256" cy="256" fill="url(#SVGID_1_)" r="256"/><circle cx="256" cy="256" fill="url(#SVGID_2_)" r="256"/><path d="m121 89.637c-16.538.702-30.662 14.824-31.364 31.363-3.682 90-3.682 180 0 270 .702 16.536 14.826 30.661 31.364 31.364 30 1.228 60 2.045 90 2.455-1.5-112.545-1.5-225.091 0-337.636-30 .408-60 1.226-90 2.454z" fill="url(#SVGID_3_)"/><path d="m391 89.637c-10-.409-20-.773-30-1.091 3.5 111.636 3.5 223.273 0 334.909 10-.318 20-.682 30-1.091 16.538-.703 30.662-14.825 31.364-31.364 3.682-90 3.682-180 0-270-.702-16.537-14.826-30.66-31.364-31.363z" fill="url(#SVGID_4_)"/><path d="m392.116 392.116c3.012-90.744 3.012-181.487 0-272.231-.579-16.68-14.578-30.792-31.116-31.339-50-1.591-100-2.046-150-1.364-16.539.234-30.287 14.259-30.62 31.141-1.674 91.785-1.674 183.57 0 275.355.334 16.883 14.081 30.907 30.62 31.141 50 .682 100 .227 150-1.364 16.538-.545 30.537-14.661 31.116-31.339z" fill="url(#SVGID_5_)"/><path d="m119.884 119.884c-3.012 90.744-3.012 181.488 0 272.231 20.165.67 40.331 1.19 60.496 1.562 19.328-45.521 39.745-91.562 60.245-137.677-20.5-46.116-40.916-92.157-60.245-137.678-20.165.372-40.33.893-60.496 1.562z" fill="url(#SVGID_6_)"/><path d="m392.116 119.884c-70.579-2.343-141.157-2.864-211.736-1.562-1.674 91.785-1.674 183.57 0 275.355 70.579 1.302 141.157.781 211.736-1.562 3.012-90.743 3.012-181.487 0-272.231z" fill="url(#SVGID_7_)"/><path d="m149.438 149.438c-.607 30.446-.954 60.893-1.041 91.339 10.248-.029 20.496-.054 30.744-.074 10.279-15.318 20.592-30.694 30.883-46.091-10.143-15.297-20.208-30.541-30.139-45.694-10.149.144-20.298.318-30.447.52z" fill="url(#SVGID_8_)"/><path d="m240.777 148.397c-20.298.058-40.595.231-60.893.521-.145 10.198-.269 20.397-.372 30.595 5.048 5.047 10.111 10.111 15.186 15.186-5.142 5.142-10.287 10.279-15.434 15.409-.062 10.198-.103 20.397-.124 30.595 20.496-.041 40.992-.066 61.488-.074.013-30.745.062-61.488.149-92.232z" fill="url(#SVGID_9_)"/><path d="m179.265 210.108c.062-10.198.145-20.397.248-30.595 10.198-.103 20.397-.186 30.595-.248-.062 10.232-.112 20.463-.149 30.694-10.232.037-20.463.087-30.694.149z" fill="url(#SVGID_10_)"/><path d="m148.397 271.223c.087 30.446.434 60.893 1.041 91.339 10.149.203 20.297.376 30.446.521 9.932-15.153 19.997-30.397 30.139-45.694-10.291-15.397-20.604-30.773-30.883-46.091-10.247-.021-20.495-.046-30.743-.075z" fill="url(#SVGID_11_)"/><path d="m240.628 271.372c-20.496-.008-40.992-.033-61.488-.074.021 10.198.062 20.397.124 30.595 5.147 5.13 10.292 10.267 15.434 15.409-5.075 5.075-10.138 10.138-15.186 15.186.103 10.198.227 20.397.372 30.595 20.298.289 40.595.463 60.893.521-.087-30.744-.136-61.488-.149-92.232z" fill="url(#SVGID_12_)"/><path d="m179.512 332.488c-.103-10.198-.186-20.396-.248-30.595 10.231.062 20.463.112 30.694.149.037 10.231.087 20.463.149 30.694-10.198-.062-20.396-.145-30.595-.248z" fill="url(#SVGID_13_)"/><path d="m271.372 240.628c-.012-30.744-.062-61.487-.149-92.231 30.446.087 60.893.434 91.339 1.041.607 30.446.955 60.893 1.041 91.339-30.743-.086-61.487-.137-92.231-.149z" fill="url(#SVGID_14_)"/><path d="m302.041 209.959c-.037-10.231-.087-20.463-.149-30.694 10.198.062 20.397.145 30.595.248.103 10.198.186 20.397.248 30.595-10.231-.062-20.462-.112-30.694-.149z" fill="url(#SVGID_15_)"/></g></svg>