<svg id="Layer_1" enable-background="new 0 0 512 512" height="512" viewBox="0 0 512 512" width="512" xmlns="http://www.w3.org/2000/svg" xmlns:xlink="http://www.w3.org/1999/xlink"><linearGradient id="lg1"><stop offset="0" stop-color="#ff4747"/><stop offset="1" stop-color="#fff200"/></linearGradient><linearGradient id="SVGID_1_" gradientUnits="userSpaceOnUse" x1="74.98" x2="437.019" xlink:href="#lg1" y1="437.019" y2="74.981"/><radialGradient id="SVGID_2_" cx="256" cy="256" gradientUnits="userSpaceOnUse" r="256"><stop offset="0" stop-color="#ff4747" stop-opacity=".8"/><stop offset=".1112" stop-color="#ff4f49" stop-opacity=".711"/><stop offset=".2769" stop-color="#ff634f" stop-opacity=".579"/><stop offset=".4766" stop-color="#ff8458" stop-opacity=".419"/><stop offset=".7029" stop-color="#ffb265" stop-opacity=".238"/><stop offset=".9485" stop-color="#ffed74" stop-opacity=".041"/><stop offset="1" stop-color="#fffa78" stop-opacity="0"/></radialGradient><linearGradient id="SVGID_3_" gradientUnits="userSpaceOnUse" x1="-49.797" x2="472.485" y1="561.797" y2="39.515"><stop offset="0" stop-color="#fffa78"/><stop offset="1" stop-color="#fff"/></linearGradient><linearGradient id="SVGID_4_" gradientUnits="userSpaceOnUse" x1="50.665" x2="499.434" xlink:href="#lg1" y1="461.336" y2="12.566"/><linearGradient id="SVGID_5_" gradientUnits="userSpaceOnUse" x1="116.612" x2="516.355" xlink:href="#lg1" y1="395.388" y2="-4.355"/><linearGradient id="lg2"><stop offset="0" stop-color="#ffcb00"/><stop offset="1" stop-color="#fffa78"/></linearGradient><linearGradient id="SVGID_6_" gradientUnits="userSpaceOnUse" x1="173.828" x2="325.777" xlink:href="#lg2" y1="338.172" y2="186.223"/><radialGradient id="SVGID_7_" cx="256" cy="256" gradientUnits="userSpaceOnUse" r="93.275"><stop offset="0" stop-color="#ff8c00" stop-opacity=".8"/><stop offset=".6423" stop-color="#ffd550" stop-opacity=".286"/><stop offset="1" stop-color="#fffa78" stop-opacity="0"/></radialGradient><linearGradient id="SVGID_8_" gradientUnits="userSpaceOnUse" x1="207.235" x2="317.229" xlink:href="#lg2" y1="134.652" y2="24.658"/><linearGradient id="SVGID_9_" gradientUnits="userSpaceOnUse" x1="97.1" x2="209.03" xlink:href="#lg2" y1="176.427" y2="64.497"/><linearGradient id="SVGID_10_" gradientTransform="matrix(0 -1 1 0 612 1124)" gradientUnits="userSpaceOnUse" x1="843.447" x2="953.443" xlink:href="#lg2" y1="-550.667" y2="-440.671"/><linearGradient id="SVGID_11_" gradientTransform="matrix(-1 0 0 -1 1618.621 463.38)" gradientUnits="userSpaceOnUse" x1="1502.939" x2="1362.91" xlink:href="#lg2" y1="67.061" y2="207.09"/><linearGradient id="SVGID_12_" gradientUnits="userSpaceOnUse" x1="232.478" x2="342.47" xlink:href="#lg2" y1="449.636" y2="339.645"/><linearGradient id="SVGID_13_" gradientTransform="matrix(0 1 -1 0 1075.38 -494.62)" gradientUnits="userSpaceOnUse" x1="905.064" x2="793.135" xlink:href="#lg2" y1="735.351" y2="623.422"/><linearGradient id="SVGID_14_" gradientUnits="userSpaceOnUse" x1="377.349" x2="487.342" xlink:href="#lg2" y1="304.765" y2="194.772"/><linearGradient id="SVGID_15_" gradientUnits="userSpaceOnUse" x1="327.335" x2="435.381" xlink:href="#lg2" y1="184.665" y2="76.619"/><linearGradient id="SVGID_16_" gradientUnits="userSpaceOnUse" x1="186.58" x2="381.712" xlink:href="#lg1" y1="325.421" y2="130.289"/><linearGradient id="SVGID_17_" gradientUnits="userSpaceOnUse" x1="213.538" x2="355.803" xlink:href="#lg1" y1="298.466" y2="156.201"/><g><circle cx="256" cy="256" fill="url(#SVGID_1_)" r="256"/><circle cx="256" cy="256" fill="url(#SVGID_2_)" r="256"/><circle cx="256" cy="256" fill="url(#SVGID_3_)" r="200.9"/><path d="m395.4 256c-.187 75.699-63.701 139.213-139.4 139.4-75.699-.185-139.213-63.702-139.4-139.4.187-75.7 63.701-139.213 139.4-139.4 75.699.189 139.213 63.7 139.4 139.4z" fill="url(#SVGID_4_)"/><path d="m380.025 256c-.132 67.59-56.436 123.893-124.025 124.025-67.589-.133-123.893-56.434-124.025-124.025.132-67.59 56.436-123.893 124.025-124.025 67.589.131 123.893 56.436 124.025 124.025z" fill="url(#SVGID_5_)"/><path d="m349.275 256c-.056 51.128-42.147 93.219-93.275 93.275-51.128-.057-93.219-42.146-93.275-93.275.056-51.129 42.147-93.219 93.275-93.275 51.128.056 93.219 42.147 93.275 93.275z" fill="url(#SVGID_6_)"/><path d="m349.275 256c-.056 51.128-42.147 93.219-93.275 93.275-51.128-.057-93.219-42.146-93.275-93.275.056-51.129 42.147-93.219 93.275-93.275 51.128.056 93.219 42.147 93.275 93.275z" fill="url(#SVGID_7_)"/><path d="m271.106 85.874c.032 8.49-6.733 15.351-15.106 15.351s-15.138-6.861-15.106-15.351c.032-8.488 6.797-15.399 15.106-15.399s15.074 6.91 15.106 15.399z" fill="url(#SVGID_8_)"/><path d="m151.979 136.487c-.127 8.439-7.054 15.366-15.492 15.492-8.438.125-15.16-6.561-14.989-14.954s7.134-15.355 15.527-15.527c8.393-.171 15.079 6.551 14.954 14.989z" fill="url(#SVGID_9_)"/><path d="m85.874 240.894c8.49-.032 15.35 6.732 15.351 15.106-.001 8.375-6.861 15.136-15.351 15.106-8.489-.031-15.399-6.797-15.399-15.106s6.91-15.074 15.399-15.106z" fill="url(#SVGID_10_)"/><path d="m121.498 374.976c-.171-8.393 6.551-15.079 14.989-14.954 8.438.127 15.366 7.054 15.492 15.492.125 8.439-6.561 15.161-14.954 14.989-8.393-.171-15.356-7.134-15.527-15.527z" fill="url(#SVGID_11_)"/><path d="m271.106 426.126c-.032 8.489-6.797 15.4-15.106 15.399-8.309 0-15.074-6.911-15.106-15.399-.032-8.49 6.733-15.351 15.106-15.351s15.138 6.862 15.106 15.351z" fill="url(#SVGID_12_)"/><path d="m374.976 390.502c-8.393.172-15.08-6.552-14.954-14.989.127-8.439 7.054-15.365 15.492-15.492 8.438-.125 15.16 6.562 14.989 14.954-.172 8.394-7.135 15.356-15.527 15.527z" fill="url(#SVGID_13_)"/><path d="m441.525 256c0 8.309-6.91 15.072-15.399 15.106-8.49.032-15.35-6.734-15.351-15.106.001-8.374 6.861-15.138 15.351-15.106 8.489.032 15.399 6.796 15.399 15.106z" fill="url(#SVGID_14_)"/><path d="m390.502 137.025c.171 8.392-6.551 15.08-14.989 14.954s-15.366-7.055-15.492-15.492 6.561-15.16 14.954-14.989 15.356 7.134 15.527 15.527z" fill="url(#SVGID_15_)"/><path d="m302.125 256c-.007 25.428-20.698 46.118-46.125 46.125-25.427-.006-46.118-20.698-46.125-46.125.007-25.427 20.698-46.119 46.125-46.125 25.428.008 46.118 20.697 46.125 46.125z" fill="url(#SVGID_16_)"/><path d="m271.373 271.373c-25.465.005-46.135-20.655-46.105-46.105.001-1.268.068-2.52.17-3.762-9.532 8.46-15.563 20.777-15.563 34.495.007 25.428 20.698 46.118 46.125 46.125 24.162-.003 44.03-18.693 45.959-42.365-8.143 7.21-18.852 11.608-30.586 11.612z" fill="url(#SVGID_17_)"/></g></svg>