<svg id="Layer_1" enable-background="new 0 0 512 512" height="512" viewBox="0 0 512 512" width="512" xmlns="http://www.w3.org/2000/svg" xmlns:xlink="http://www.w3.org/1999/xlink"><linearGradient id="lg1"><stop offset="0" stop-color="#560dff"/><stop offset="1" stop-color="#73ecff"/></linearGradient><linearGradient id="SVGID_1_" gradientUnits="userSpaceOnUse" x1="74.98" x2="437.019" xlink:href="#lg1" y1="437.02" y2="74.982"/><radialGradient id="SVGID_2_" cx="256" cy="256" gradientUnits="userSpaceOnUse" r="256"><stop offset="0" stop-color="#6b23ea"/><stop offset=".4299" stop-color="#676bef" stop-opacity=".57"/><stop offset=".8159" stop-color="#64a5f3" stop-opacity=".184"/><stop offset="1" stop-color="#63bcf5" stop-opacity="0"/></radialGradient><linearGradient id="lg2"><stop offset="0" stop-color="#389fff"/><stop offset=".1209" stop-color="#45affa"/><stop offset=".5726" stop-color="#73e9e7"/><stop offset=".79" stop-color="#85ffe0"/><stop offset=".881" stop-color="#9dffe6"/><stop offset="1" stop-color="#c2fff0"/></linearGradient><linearGradient id="SVGID_3_" gradientUnits="userSpaceOnUse" x1="17.272" x2="633.959" xlink:href="#lg2" y1="427.819" y2="-188.869"/><linearGradient id="SVGID_4_" gradientUnits="userSpaceOnUse" x1="-15.762" x2="544.681" xlink:href="#lg2" y1="616.942" y2="56.5"/><linearGradient id="SVGID_5_" gradientTransform="matrix(1 -.003 .003 1 11.317 -1.009)" gradientUnits="userSpaceOnUse" x1="-10.001" x2="573.308" xlink:href="#lg2" y1="529.143" y2="-54.166"/><radialGradient id="SVGID_6_" cx="255.991" cy="78.249" gradientUnits="userSpaceOnUse" r="40.975"><stop offset="0" stop-color="#63bcf5"/><stop offset="1" stop-color="#560dff"/></radialGradient><linearGradient id="SVGID_7_" gradientUnits="userSpaceOnUse" x1="18.678" x2="445.199" xlink:href="#lg1" y1="398.513" y2="-28.008"/><linearGradient id="SVGID_8_" gradientUnits="userSpaceOnUse" x1="18.96" x2="458.285" xlink:href="#lg1" y1="495.838" y2="56.513"/><linearGradient id="SVGID_9_" gradientUnits="userSpaceOnUse" x1="38.583" x2="391.885" xlink:href="#lg1" y1="442.151" y2="88.849"/><linearGradient id="SVGID_10_" gradientUnits="userSpaceOnUse" x1="196.35" x2="272.289" y1="315.696" y2="239.757"><stop offset="0" stop-color="#b31de7"/><stop offset="1" stop-color="#fda0ff"/></linearGradient><linearGradient id="SVGID_11_" gradientUnits="userSpaceOnUse" x1="255.959" x2="255.959" y1="461.576" y2="199.202"><stop offset="0" stop-color="#63bcf5" stop-opacity="0"/><stop offset=".1245" stop-color="#63b5f4" stop-opacity=".125"/><stop offset=".3049" stop-color="#64a2f3" stop-opacity=".305"/><stop offset=".5194" stop-color="#6682f1" stop-opacity=".519"/><stop offset=".7597" stop-color="#6856ee" stop-opacity=".76"/><stop offset="1" stop-color="#6b23ea"/></linearGradient><linearGradient id="lg3"><stop offset="0" stop-color="#85ffe0"/><stop offset=".2339" stop-color="#9dffe6"/><stop offset=".7251" stop-color="#dafff6"/><stop offset="1" stop-color="#fff"/></linearGradient><linearGradient id="SVGID_12_" gradientTransform="matrix(.707 .707 -.707 .707 256 -106.039)" gradientUnits="userSpaceOnUse" x1="366.909" x2="366.909" xlink:href="#lg3" y1="243.655" y2="-67.173"/><linearGradient id="SVGID_13_" gradientTransform="matrix(.707 .707 -.707 .707 256 -106.039)" gradientUnits="userSpaceOnUse" x1="336.497" x2="336.497" xlink:href="#lg3" y1="326.16" y2="40.266"/><linearGradient id="lg4"><stop offset="0" stop-color="#389fff"/><stop offset=".153" stop-color="#45affa"/><stop offset=".7248" stop-color="#73e9e7"/><stop offset="1" stop-color="#85ffe0"/></linearGradient><linearGradient id="SVGID_14_" gradientUnits="userSpaceOnUse" x1="189.442" x2="328.389" xlink:href="#lg4" y1="349.992" y2="211.045"/><linearGradient id="SVGID_15_" gradientTransform="matrix(0 1 -1 0 1124 253.498)" gradientUnits="userSpaceOnUse" x1="63.285" x2="-72.708" xlink:href="#lg4" y1="937.501" y2="801.508"/><linearGradient id="SVGID_16_" gradientTransform="matrix(0 1 -1 0 1124 253.498)" gradientUnits="userSpaceOnUse" x1="79.116" x2="-49.223" xlink:href="#lg4" y1="984.061" y2="855.723"/><linearGradient id="SVGID_17_" gradientTransform="matrix(0 1 -1 0 1124 253.498)" gradientUnits="userSpaceOnUse" x1="113.056" x2="-40.201" xlink:href="#lg4" y1="974.158" y2="820.9"/><linearGradient id="SVGID_18_" gradientTransform="matrix(0 1 -1 0 1124 253.498)" gradientUnits="userSpaceOnUse" x1="71.845" x2="-71.44" xlink:href="#lg4" y1="961.435" y2="818.15"/><linearGradient id="SVGID_19_" gradientTransform="matrix(0 1 -1 0 1124 253.498)" gradientUnits="userSpaceOnUse" x1="99.569" x2="-54.252" xlink:href="#lg4" y1="1019.899" y2="866.077"/><linearGradient id="SVGID_20_" gradientTransform="matrix(0 1 -1 0 1124 253.498)" gradientUnits="userSpaceOnUse" x1="191.783" x2="-87.392" xlink:href="#lg4" y1="1182.431" y2="903.256"/><linearGradient id="SVGID_21_" gradientTransform="matrix(0 1 -1 0 1124 253.498)" gradientUnits="userSpaceOnUse" x1="179.832" x2="-48.909" xlink:href="#lg4" y1="1187.59" y2="958.849"/><g><circle cx="256" cy="256" fill="url(#SVGID_1_)" r="256"/><circle cx="256" cy="256" fill="url(#SVGID_2_)" r="256"/><path d="m134.133 87.055c-2.932 112.63-2.932 225.26 0 337.889.461 16.85 14.324 30.844 30.867 31.144 19.857.348 39.715.584 59.572.708-6.105-133.896-11.609-267.736-15.009-401.478-14.854.135-29.708.333-44.563.593-16.543.3-30.407 14.294-30.867 31.144z" fill="url(#SVGID_3_)"/><path d="m377.367 86.726c-.495-16.859-14.376-30.641-30.918-30.88-4.983-.084-9.966-.16-14.949-.23 2.462 133.589 2.462 267.178 0 400.767 5.35-.075 10.7-.158 16.051-.249 16.545-.338 29.909-14.871 30.309-31.727 2.683-112.554 2.508-225.114-.493-337.681z" fill="url(#SVGID_4_)"/><path d="m362.751 424.676c.206-9.968.393-19.936.56-29.904-14.766-46.018-30.323-92.293-46.112-138.685 15.804-56.627 31.261-113.109 45.541-169.277-.442-16.886-14.697-31.003-31.24-31.193-40.645-.543-81.291-.616-121.938-.221-8.275.081-15.095 7.033-15.223 15.504-1.717 118.311-1.788 236.621-.212 354.932.248 16.945 13.902 30.857 30.446 30.965 35.643.223 71.285.085 106.928-.413 16.542-.286 30.903-14.823 31.25-31.708z" fill="url(#SVGID_5_)"/><path d="m263.532 78.252c.007 4.246-3.37 7.684-7.544 7.685-4.173.001-7.548-3.435-7.538-7.681.01-4.245 3.387-7.694 7.544-7.694 4.156-.001 7.531 3.444 7.538 7.69z" fill="url(#SVGID_6_)"/><path d="m164.657 71.311c-8.31.136-15.222 7.112-15.42 15.553-2.34 102.62-2.55 205.24-.631 307.861.162 8.443 7.09 15.396 15.454 15.51 9.957.133 19.915.245 29.872.336 25.036-56.376 51.281-113.152 77.364-169.859-26.111-56.717-52.221-113.474-76.958-169.804-9.893.109-19.787.243-29.681.403z" fill="url(#SVGID_7_)"/><path d="m255.984 101.312c-6.277.003-11.956-2.569-16.049-6.731-4.9-4.983-9.785-9.958-14.652-14.926-5.619-5.734-13.241-8.919-21.227-8.843-3.239.03-6.478.063-9.718.098-1.643 113.221-1.779 226.442-.406 339.662 51.325.468 102.65.37 153.974-.292 8.359-.111 15.288-7.067 15.404-15.507.505-.002 1.746-155.191 1.281-155.19-.085.188-109.076-138.308-108.607-138.271z" fill="url(#SVGID_8_)"/><path d="m364.592 239.582c-.109-50.924-.727-101.848-1.852-152.773-.192-8.446-7.1-15.418-15.409-15.55-13.133-.204-26.266-.364-39.399-.478-7.985-.07-15.61 3.118-21.233 8.856-4.871 4.971-9.759 9.95-14.662 14.935-4.092 4.161-9.782 6.734-16.053 6.74 10.154 62.042 52.65 113.697 108.608 138.27z" fill="url(#SVGID_9_)"/><path d="m239.562 272.484c-.004-10.932-.004-21.864 0-32.795 10.932-.003 21.863-.003 32.795-.001.003 10.932.003 21.864 0 32.797-10.932.002-21.863.002-32.795-.001z" fill="url(#SVGID_10_)"/><path d="m379.964 239.453c-82.669-.066-165.339.025-248.009.263-.155 61.743.571 123.486 2.179 185.229.461 16.85 14.324 30.844 30.867 31.144 60.85 1.067 121.7 1.083 182.55.047 16.544-.338 29.91-14.871 30.308-31.727 1.556-61.652 2.258-123.304 2.105-184.956z" fill="url(#SVGID_11_)"/><path d="m490.758 232.432c-61.201 16.936-122.63 34.675-183.972 52.412 6.687-.006 12.408 4.313 14.486 10.299 1.063 3.063 4.071 5.017 7.32 5.006 28.55-.079 57.099-.206 85.649-.381 39.538-.328 72.567-29.895 76.517-67.336z" fill="url(#SVGID_12_)"/><path d="m490.758 232.432c-1.503 10.921-7.07 20.94-15.541 29.229-14.079 13.761-36.144 22.79-60.87 22.896-55.466.225-110.933.331-166.399.317 14.479-20.495 28.997-41.006 43.453-61.48 63.88.063 127.76.306 191.64.728 4.548.03 8.186 3.894 7.717 8.31z" fill="url(#SVGID_13_)"/><path d="m229.93 261.812c10.252 12.81 20.51 25.628 30.746 38.439 7.679-.001 15.357-.005 23.035-.013 4.24-.004 7.685-3.449 7.691-7.693.015-10.245.024-20.489.027-30.734-20.5.004-41 .004-61.499.001z" fill="url(#SVGID_14_)"/><path d="m260.676 300.252c.002-10.25.003-20.5.003-30.75-20.497-7.687-41.003-15.382-61.496-23.048 10.237 17.905 20.515 35.84 30.78 53.782 10.237.012 20.475.017 30.713.016z" fill="url(#SVGID_15_)"/><path d="m229.962 300.237c-.015-10.246-.025-20.493-.03-30.739-20.501-7.692-41.007-15.379-61.498-23.024 10.231 17.865 20.52 35.777 30.814 53.711 10.238.023 20.476.041 30.714.052z" fill="url(#SVGID_16_)"/><path d="m260.677 223.377c-10.242 7.686-20.495 15.378-30.746 23.066 10.247 7.683 20.5 15.372 30.748 23.059 7.687 0 15.373-.002 23.06-.004 4.245-.002 7.689-3.443 7.69-7.686.003-12.806-.004-25.612-.021-38.418-10.244-.011-20.487-.016-30.731-.017z" fill="url(#SVGID_17_)"/><path d="m260.679 269.502c.001-15.375 0-30.75-.002-46.125-10.243-.001-20.487.003-30.73.011-10.252 7.693-20.51 15.385-30.765 23.066 10.244 7.671 20.497 15.355 30.75 23.043 10.249.004 20.498.005 30.747.005z" fill="url(#SVGID_18_)"/><path d="m229.932 269.497c-.007-15.37-.002-30.739.015-46.109-10.243.008-20.487.021-30.73.039-10.261 7.693-20.525 15.379-30.783 23.047 10.242 7.652 20.495 15.325 30.752 23.008 10.248.006 20.497.011 30.746.015z" fill="url(#SVGID_19_)"/><path d="m199.186 269.481c-57.198-7.716-114.411-15.423-171.584-22.815-2.071 4.603-3.224 9.672-3.216 15.007.037 20.678 17.472 37.633 38.663 37.826 45.4.352 90.799.58 136.199.685-.032-10.234-.052-20.469-.062-30.703z" fill="url(#SVGID_20_)"/><path d="m62.841 269.272c45.448.107 90.897.177 136.345.209-.015-15.351-.004-30.703.031-46.054-45.424.078-90.848.246-136.272.505-15.746.098-29.371 9.479-35.342 22.734 5.896 13.229 19.483 22.562 35.238 22.606z" fill="url(#SVGID_21_)"/></g></svg>