<svg id="Layer_1" enable-background="new 0 0 512 512" height="512" viewBox="0 0 512 512" width="512" xmlns="http://www.w3.org/2000/svg" xmlns:xlink="http://www.w3.org/1999/xlink"><linearGradient id="SVGID_1_" gradientUnits="userSpaceOnUse" x1="74.98" x2="437.019" y1="437.02" y2="74.982"><stop offset="0" stop-color="#ff4747"/><stop offset="1" stop-color="#ff9ceb"/></linearGradient><radialGradient id="SVGID_2_" cx="256" cy="256" gradientUnits="userSpaceOnUse" r="256"><stop offset="0" stop-color="#ff2f2b"/><stop offset=".1046" stop-color="#ff3434" stop-opacity=".895"/><stop offset=".2715" stop-color="#ff414b" stop-opacity=".729"/><stop offset=".4798" stop-color="#ff5671" stop-opacity=".52"/><stop offset=".7215" stop-color="#ff74a5" stop-opacity=".279"/><stop offset=".9884" stop-color="#ff9ae8" stop-opacity=".012"/><stop offset="1" stop-color="#ff9ceb" stop-opacity="0"/></radialGradient><linearGradient id="lg1"><stop offset="0" stop-color="#ffa9d4"/><stop offset=".2953" stop-color="#ffc6e3"/><stop offset=".7601" stop-color="#ffeff7"/><stop offset="1" stop-color="#fff"/></linearGradient><linearGradient id="SVGID_3_" gradientUnits="userSpaceOnUse" x1="-344.859" x2="394.935" xlink:href="#lg1" y1="856.86" y2="117.065"/><linearGradient id="SVGID_4_" gradientUnits="userSpaceOnUse" x1="-133.38" x2="390.194" xlink:href="#lg1" y1="645.62" y2="122.046"/><linearGradient id="SVGID_5_" gradientUnits="userSpaceOnUse" x1="-29.831" x2="398.159" xlink:href="#lg1" y1="541.831" y2="113.841"/><linearGradient id="SVGID_6_" gradientUnits="userSpaceOnUse" x1="100.589" x2="392.97" xlink:href="#lg1" y1="278.002" y2="-14.38"/><linearGradient id="SVGID_7_" gradientUnits="userSpaceOnUse" x1="58.642" x2="406.11" xlink:href="#lg1" y1="351.292" y2="3.824"/><linearGradient id="SVGID_8_" gradientUnits="userSpaceOnUse" x1="130.867" x2="365.67" xlink:href="#lg1" y1="247.724" y2="12.921"/><linearGradient id="SVGID_9_" gradientUnits="userSpaceOnUse" x1="164.659" x2="447.474" xlink:href="#lg1" y1="245.274" y2="-37.542"/><linearGradient id="SVGID_10_" gradientUnits="userSpaceOnUse" x1="239.546" x2="498.743" xlink:href="#lg1" y1="405.863" y2="146.666"/><linearGradient id="SVGID_11_" gradientUnits="userSpaceOnUse" x1="247.077" x2="529.892" xlink:href="#lg1" y1="366.99" y2="84.175"/><linearGradient id="SVGID_12_" gradientUnits="userSpaceOnUse" x1="219.572" x2="511.954" xlink:href="#lg1" y1="425.838" y2="133.455"/><linearGradient id="SVGID_13_" gradientUnits="userSpaceOnUse" x1="171.741" x2="465.246" xlink:href="#lg1" y1="442.325" y2="148.82"/><g><circle cx="256" cy="256" fill="url(#SVGID_1_)" r="256"/><circle cx="256" cy="256" fill="url(#SVGID_2_)" r="256"/><path d="m256 55.1c-107.093.56-200.339 93.806-200.9 200.9.559 107.092 93.807 200.339 200.9 200.9 107.092-.56 200.34-93.805 200.9-200.9-.56-107.094-93.806-200.339-200.9-200.9z" fill="url(#SVGID_3_)"/><path d="m286.305 410.687c-108.439.215-200.947-91.971-200.236-200.005.291-30.67 8.014-59.817 21.229-86.134-31.996 35.813-52.227 81.627-52.198 131.452.559 107.092 93.807 200.339 200.9 200.9 77.394.003 146.305-49.05 180.234-115.48-37.537 41.336-91.094 68.942-149.929 69.267z" fill="url(#SVGID_4_)"/><path d="m256 140.687c-62.956.106-115.206 52.357-115.312 115.313.107 62.956 52.357 115.207 115.312 115.313 62.954-.105 115.208-52.358 115.313-115.313-.106-62.957-52.358-115.206-115.313-115.313z" fill="url(#SVGID_5_)"/><path d="m110.272 195.293c-8.47.097-15.423 6.955-15.501 15.309-.277 30.266-.277 60.531 0 90.797.078 8.351 7.032 15.213 15.501 15.309 10.226.111 20.453.211 30.68.299-.351-40.671-.351-81.341 0-122.012-10.227.087-20.454.187-30.68.298z" fill="url(#SVGID_6_)"/><path d="m225.16 243.364c-14.776-14.769-29.53-29.508-44.209-44.166-2.863-2.859-6.755-4.45-10.823-4.423-9.726.062-19.452.135-29.177.219-8.47.077-15.406 6.957-15.471 15.357-.224 30.433-.224 60.865 0 91.298.063 8.399 7.001 15.28 15.471 15.357 8.547.073 17.095.138 25.642.196 4.068.028 7.96-1.561 10.821-4.418 15.848-15.819 31.784-31.738 47.744-47.688 6.002-6 6.003-15.735.002-21.732z" fill="url(#SVGID_7_)"/><path d="m301.399 94.77c-30.266-.277-60.531-.277-90.797 0-8.352.078-15.212 7.031-15.309 15.501-.111 10.227-.211 20.453-.299 30.68 40.671-.351 81.341-.351 122.012 0-.088-10.227-.188-20.453-.299-30.68-.096-8.469-6.956-15.425-15.308-15.501z" fill="url(#SVGID_8_)"/><path d="m301.649 125.48c-30.433-.224-60.865-.224-91.298 0-8.399.063-15.281 7-15.357 15.471-.063 7.369-.121 14.738-.172 22.107-.028 4.069 1.558 7.959 4.414 10.82 15.81 15.844 31.722 31.778 47.67 47.737 5.998 6.002 15.731 6.003 21.728.002 14.766-14.775 29.5-29.527 44.149-44.202 2.858-2.862 4.445-6.754 4.418-10.821-.057-8.547-.122-17.095-.196-25.642-.076-8.471-6.956-15.408-15.356-15.472z" fill="url(#SVGID_9_)"/><path d="m401.729 195.293c-10.226-.111-20.453-.211-30.68-.299.351 40.671.351 81.341 0 122.012 10.227-.088 20.453-.188 30.68-.299 8.47-.096 15.424-6.957 15.501-15.309.277-30.266.277-60.531 0-90.797-.078-8.353-7.032-15.21-15.501-15.308z" fill="url(#SVGID_10_)"/><path d="m386.52 301.649c.224-30.433.224-60.865 0-91.298-.064-8.4-7.001-15.28-15.471-15.357-8.547-.073-17.095-.139-25.642-.196-4.068-.028-7.96 1.561-10.821 4.418-14.675 14.649-29.427 29.383-44.202 44.149-6.001 5.998-5.999 15.732.002 21.728 15.959 15.948 31.893 31.861 47.737 47.67 2.861 2.856 6.752 4.442 10.82 4.414 7.369-.051 14.738-.108 22.107-.172 8.469-.075 15.406-6.958 15.47-15.356z" fill="url(#SVGID_11_)"/><path d="m194.994 371.049c.088 10.227.188 20.453.299 30.68.096 8.469 6.956 15.423 15.309 15.501 30.266.277 60.531.277 90.797 0 8.352-.077 15.212-7.033 15.309-15.501.111-10.227.211-20.453.299-30.68-40.672.351-81.342.351-122.013 0z" fill="url(#SVGID_12_)"/><path d="m312.802 331.049c-14.657-14.679-29.397-29.433-44.166-44.209-5.998-6-15.732-5.999-21.731.001-15.951 15.959-31.869 31.896-47.688 47.744-2.857 2.864-4.446 6.753-4.418 10.822.057 8.548.122 17.094.196 25.642.076 8.47 6.957 15.406 15.357 15.471 30.433.224 60.865.224 91.298 0 8.399-.063 15.281-7.001 15.357-15.471.083-9.726.156-19.451.219-29.177.025-4.069-1.565-7.961-4.424-10.823z" fill="url(#SVGID_13_)"/></g></svg>