<svg id="Layer_1" enable-background="new 0 0 512 512" height="512" viewBox="0 0 512 512" width="512" xmlns="http://www.w3.org/2000/svg" xmlns:xlink="http://www.w3.org/1999/xlink"><linearGradient id="SVGID_1_" gradientUnits="userSpaceOnUse" x1="74.98" x2="437.019" y1="437.02" y2="74.981"><stop offset="0" stop-color="#00aa45"/><stop offset="1" stop-color="#d3ff33"/></linearGradient><radialGradient id="SVGID_2_" cx="256" cy="256" gradientUnits="userSpaceOnUse" r="256"><stop offset="0" stop-color="#00aa45"/><stop offset=".1072" stop-color="#27b84f" stop-opacity=".893"/><stop offset=".2838" stop-color="#60cd5d" stop-opacity=".716"/><stop offset=".4549" stop-color="#90df69" stop-opacity=".545"/><stop offset=".6163" stop-color="#b5ec73" stop-opacity=".384"/><stop offset=".7654" stop-color="#d0f679" stop-opacity=".235"/><stop offset=".8978" stop-color="#e0fc7e" stop-opacity=".102"/><stop offset="1" stop-color="#e6fe7f" stop-opacity="0"/></radialGradient><linearGradient id="SVGID_3_" gradientUnits="userSpaceOnUse" x1="70.722" x2="515.955" y1="422.673" y2="-22.56"><stop offset="0" stop-color="#008547"/><stop offset=".1212" stop-color="#128f45"/><stop offset=".3647" stop-color="#41aa41"/><stop offset=".7046" stop-color="#8cd63a"/><stop offset="1" stop-color="#d3ff33"/></linearGradient><linearGradient id="lg1"><stop offset="0" stop-color="#95e12e"/><stop offset="1" stop-color="#e6fe7f"/></linearGradient><linearGradient id="SVGID_4_" gradientUnits="userSpaceOnUse" x1="-9.25" x2="481.715" xlink:href="#lg1" y1="536.594" y2="45.629"/><linearGradient id="lg2"><stop offset="0" stop-color="#95e12e"/><stop offset="1" stop-color="#f9fcca"/></linearGradient><linearGradient id="SVGID_5_" gradientUnits="userSpaceOnUse" x1="-212.392" x2="375.749" xlink:href="#lg2" y1="769.556" y2="181.415"/><linearGradient id="SVGID_6_" gradientUnits="userSpaceOnUse" x1="-51.392" x2="445.913" xlink:href="#lg1" y1="500.042" y2="2.736"/><linearGradient id="SVGID_7_" gradientUnits="userSpaceOnUse" x1="-316.299" x2="372.489" xlink:href="#lg2" y1="739.585" y2="50.797"/><linearGradient id="SVGID_8_" gradientUnits="userSpaceOnUse" x1="177.2" x2="481.729" xlink:href="#lg1" y1="569.856" y2="265.328"/><linearGradient id="SVGID_9_" gradientUnits="userSpaceOnUse" x1="177.194" x2="546.625" xlink:href="#lg1" y1="479.662" y2="110.23"/><g><circle cx="256" cy="256" fill="url(#SVGID_1_)" r="256"/><circle cx="256" cy="256" fill="url(#SVGID_2_)" r="256"/><path d="m293.639 60.94c-25.093-.586-50.185-.586-75.277 0-1.021 117.594-1.063 235.188-.128 352.783 25.177.537 50.355.537 75.533 0 .935-117.595.892-235.189-.128-352.783z" fill="url(#SVGID_3_)"/><path d="m286 45.43c-8.279-.171-14.968 6.653-14.945 15.141.408 117.83.425 235.66.051 353.49 15.107-.129 30.213-.451 45.32-.967 1.562-122.25 1.42-244.5-.426-366.75-10-.406-20-.711-30-.914z" fill="url(#SVGID_4_)"/><path d="m331 47.03c-5-.254-10-.483-15-.686-8.278-.341-14.916 6.324-14.834 14.789 1.225 117.471 1.276 234.941.153 352.412 15.106-.387 30.213-.967 45.32-1.74 2.246-116.258 2.144-232.516-.306-348.773-.182-8.366-7.056-15.575-15.333-16.002z" fill="url(#SVGID_5_)"/><path d="m226 45.43c-10 .203-20 .508-30 .914-1.846 122.25-1.988 244.5-.426 366.75 15.106.516 30.213.838 45.32.967-.374-117.83-.357-235.66.051-353.49.023-8.49-6.667-15.313-14.945-15.141z" fill="url(#SVGID_6_)"/><path d="m196 46.344c-5 .203-10 .432-15 .686-8.279.426-15.149 7.636-15.333 16.002-2.45 116.258-2.552 232.516-.306 348.773 15.107.773 30.213 1.354 45.32 1.74-1.123-117.471-1.072-234.941.153-352.412.082-8.465-6.556-15.13-14.834-14.789z" fill="url(#SVGID_7_)"/><path d="m374.583 422.241c-9.011-13.365-18.159-26.972-27.412-40.764-15.195.633-30.391 1.107-45.586 1.424 6.082 20.3 12.064 40.515 17.9 60.61 15-.645 30-1.518 45-2.62 6.354-.472 11.67-6.052 11.858-12.404.068-2.273-.545-4.445-1.76-6.246z" fill="url(#SVGID_8_)"/><path d="m331.215 431.282c.04-2.308-.594-4.532-1.828-6.396-9.158-13.834-18.436-27.848-27.801-41.985-45.586.949-91.172.475-136.758-1.424-9.253 13.792-18.401 27.399-27.412 40.764-1.213 1.801-1.827 3.972-1.76 6.245.188 6.352 5.504 11.933 11.858 12.404 57.324 4.21 114.648 5.083 171.973 2.62 6.353-.275 11.61-5.776 11.728-12.228z" fill="url(#SVGID_9_)"/></g></svg>