<svg id="Layer_1" enable-background="new 0 0 512 512" height="512" viewBox="0 0 512 512" width="512" xmlns="http://www.w3.org/2000/svg" xmlns:xlink="http://www.w3.org/1999/xlink"><linearGradient id="lg1"><stop offset="0" stop-color="#364aff"/><stop offset="1" stop-color="#fc54ff"/></linearGradient><linearGradient id="SVGID_1_" gradientUnits="userSpaceOnUse" x1="74.981" x2="437.02" xlink:href="#lg1" y1="437.019" y2="74.98"/><radialGradient id="SVGID_2_" cx="256.001" cy="256" gradientUnits="userSpaceOnUse" r="258.6"><stop offset="0" stop-color="#8d00db" stop-opacity=".66"/><stop offset=".2069" stop-color="#9f0de1" stop-opacity=".523"/><stop offset=".6178" stop-color="#cc30f0" stop-opacity=".252"/><stop offset="1" stop-color="#fc54ff" stop-opacity="0"/></radialGradient><linearGradient id="lg2"><stop offset="0" stop-color="#fda0ff"/><stop offset="1" stop-color="#fff"/></linearGradient><linearGradient id="SVGID_3_" gradientUnits="userSpaceOnUse" x1="13.107" x2="625.284" xlink:href="#lg2" y1="433.292" y2="-178.885"/><linearGradient id="SVGID_4_" gradientUnits="userSpaceOnUse" x1="-139.489" x2="415.351" xlink:href="#lg2" y1="739.917" y2="185.077"/><linearGradient id="SVGID_5_" gradientTransform="matrix(1 -.003 .003 1 13.036 2.43)" gradientUnits="userSpaceOnUse" x1="-93.754" x2="486.499" xlink:href="#lg2" y1="607.034" y2="26.781"/><radialGradient id="SVGID_6_" cx="256" cy="78.249" gradientUnits="userSpaceOnUse" r="35.054"><stop offset="0" stop-color="#fc54ff"/><stop offset="1" stop-color="#364aff"/></radialGradient><linearGradient id="SVGID_7_" gradientUnits="userSpaceOnUse" x1="124.344" x2="353.363" xlink:href="#lg1" y1="293.616" y2="64.598"/><linearGradient id="SVGID_8_" gradientUnits="userSpaceOnUse" x1="19.292" x2="457.808" xlink:href="#lg1" y1="494.99" y2="56.474"/><linearGradient id="SVGID_9_" gradientUnits="userSpaceOnUse" x1="15.709" x2="364.752" xlink:href="#lg1" y1="465.166" y2="116.123"/><linearGradient id="lg3"><stop offset="0" stop-color="#b31de7"/><stop offset="1" stop-color="#fda0ff"/></linearGradient><linearGradient id="SVGID_10_" gradientUnits="userSpaceOnUse" x1="-69.565" x2="421.619" xlink:href="#lg3" y1="516.019" y2="24.836"/><linearGradient id="SVGID_11_" gradientUnits="userSpaceOnUse" x1="-115.621" x2="376.85" xlink:href="#lg3" y1="630.61" y2="138.139"/><linearGradient id="SVGID_12_" gradientUnits="userSpaceOnUse" x1="-153.648" x2="334.318" xlink:href="#lg3" y1="665.249" y2="177.284"/><linearGradient id="SVGID_13_" gradientUnits="userSpaceOnUse" x1="126.749" x2="305.309" xlink:href="#lg2" y1="385.337" y2="206.777"/><linearGradient id="SVGID_14_" gradientUnits="userSpaceOnUse" x1="196.399" x2="272.326" xlink:href="#lg3" y1="315.687" y2="239.76"/><g><circle cx="256" cy="256" fill="url(#SVGID_1_)" r="256"/><circle cx="256" cy="256" fill="url(#SVGID_2_)" r="256"/><path d="m134.145 90c-2.893 110.667-2.893 221.333 0 332 .455 16.525 14.312 31.092 30.855 32.128 19.857 1.21 39.715 2.023 59.572 2.441-6.051-133.818-11.554-267.451-15.009-400.748-14.854.462-29.708 1.145-44.563 2.05-16.543 1.041-30.401 15.604-30.855 32.129z" fill="url(#SVGID_3_)"/><path d="m377.379 89.716c-.5-16.531-14.387-30.892-30.929-31.878-4.983-.301-9.966-.578-14.949-.83 2.517 132.661 2.517 265.323 0 397.984 5.35-.271 10.7-.569 16.051-.897 16.544-1.096 29.915-16.163 30.32-32.685 2.722-110.543 2.547-221.108-.493-331.694z" fill="url(#SVGID_4_)"/><path d="m362.763 422.372c.21-9.832.399-19.663.569-29.495-14.753-44.839-30.303-90.601-46.092-136.792 15.804-56.38 31.251-112.237 45.511-166.966-.448-16.626-14.71-31.3-31.251-32.112-40.645-2.029-81.291-2.398-121.938-1.109-8.275.265-15.092 7.391-15.217 15.819-1.673 117.788-1.742 235.576-.207 353.363.242 16.851 13.89 31.13 30.434 31.489 35.643.75 71.285.224 106.928-1.577 16.543-.91 30.909-16 31.263-32.62z" fill="url(#SVGID_5_)"/><path d="m263.541 78.266c.008 4.246-3.368 7.671-7.541 7.671s-7.549-3.426-7.541-7.671 3.385-7.704 7.541-7.704c4.156-.003 7.532 3.46 7.541 7.704z" fill="url(#SVGID_6_)"/><path d="m164.663 73.12c-8.309.472-15.22 7.676-15.414 16-2.304 101.252-2.511 202.504-.621 303.756.16 8.323 7.086 15.453 15.449 15.85 9.957.463 19.915.85 29.872 1.163 25.054-55.553 51.307-112.495 77.388-169.171-26.113-56.716-52.234-113.596-76.992-168.99-9.894.373-19.788.838-29.682 1.392z" fill="url(#SVGID_7_)"/><path d="m256 101.312c-6.277 0-11.957-2.55-16.051-6.687-4.902-4.952-9.788-9.882-14.657-14.783-5.621-5.656-13.245-8.712-21.23-8.453-3.239.103-6.478.216-9.718.338-1.601 112.72-1.733 225.441-.396 338.161 51.325 1.611 102.65 1.223 153.974-1.163 8.359-.396 15.29-7.529 15.409-15.848.512-.003 1.772-153.07 1.3-153.072-.079.691-109.094-138.603-108.631-138.493z" fill="url(#SVGID_8_)"/><path d="m364.632 239.806c-.111-50.228-.738-100.458-1.881-150.686-.195-8.323-7.105-15.529-15.414-16-13.133-.736-26.266-1.313-39.399-1.731-7.985-.258-15.609 2.793-21.23 8.453-4.869 4.902-9.755 9.831-14.657 14.783-4.091 4.133-9.779 6.683-16.051 6.687 10.174 61.976 52.674 114.01 108.632 138.494z" fill="url(#SVGID_9_)"/><path d="m178.284 194.162c-.245 41.282-.245 82.564.001 123.847.051 8.258 6.728 15.099 14.983 15.465 15.165-25.557 30.519-51.44 45.894-77.387-15.375-25.948-30.73-51.832-45.895-77.389-8.256.365-14.933 7.207-14.983 15.464z" fill="url(#SVGID_10_)"/><path d="m288.388 178.317c-31.561-.254-63.123-.137-94.684.352-.148.002-.291.023-.437.029-.307 51.592-.307 103.184.001 154.776.147.006.29.027.437.029 41.53.645 83.06.645 124.59 0 8.458-.136 15.368-7.091 15.42-15.494.189-31.786.233-63.572.131-95.358-15.167-14.698-30.337-29.524-45.458-44.334z" fill="url(#SVGID_11_)"/><path d="m333.847 222.651c-.03-9.496-.074-18.993-.13-28.489-.052-8.403-6.962-15.358-15.42-15.493-9.969-.154-19.939-.271-29.908-.352 12.518 17.228 27.939 32.265 45.458 44.334z" fill="url(#SVGID_12_)"/><path d="m208.914 303.07c-.085-31.323-.085-62.645 0-93.968 31.391-.221 62.783-.221 94.174 0 .084 31.323.084 62.645 0 93.968-31.393.222-62.783.222-94.174 0z" fill="url(#SVGID_13_)"/><circle cx="256" cy="256.086" fill="url(#SVGID_14_)" r="23.186"/></g></svg>