<svg id="Layer_1" enable-background="new 0 0 512 512" height="512" viewBox="0 0 512 512" width="512" xmlns="http://www.w3.org/2000/svg" xmlns:xlink="http://www.w3.org/1999/xlink"><linearGradient id="lg1"><stop offset="0" stop-color="#ff4747"/><stop offset="1" stop-color="#fff200"/></linearGradient><linearGradient id="SVGID_1_" gradientUnits="userSpaceOnUse" x1="74.98" x2="437.019" xlink:href="#lg1" y1="437.019" y2="74.981"/><radialGradient id="SVGID_2_" cx="256" cy="157.634" gradientUnits="userSpaceOnUse" r="356.501"><stop offset="0" stop-color="#ff4747" stop-opacity=".8"/><stop offset=".1321" stop-color="#ff6b51" stop-opacity=".694"/><stop offset=".3446" stop-color="#ff9e5f" stop-opacity=".524"/><stop offset=".5447" stop-color="#ffc66a" stop-opacity=".364"/><stop offset=".7267" stop-color="#ffe272" stop-opacity=".219"/><stop offset=".8844" stop-color="#fff476" stop-opacity=".093"/><stop offset="1" stop-color="#fffa78" stop-opacity="0"/></radialGradient><linearGradient id="lg2"><stop offset="0" stop-color="#fffa78"/><stop offset="1" stop-color="#fff"/></linearGradient><linearGradient id="SVGID_3_" gradientUnits="userSpaceOnUse" x1="217.174" x2="487.276" xlink:href="#lg2" y1="430.028" y2="159.925"/><linearGradient id="SVGID_4_" gradientUnits="userSpaceOnUse" x1="126.997" x2="386.891" y1="399.361" y2="139.467"><stop offset="0" stop-color="#ffcb00"/><stop offset=".9963" stop-color="#fffa78"/></linearGradient><linearGradient id="SVGID_5_" gradientUnits="userSpaceOnUse" x1="256" x2="256" y1="420.296" y2="220.421"><stop offset="0" stop-color="#fffa78" stop-opacity="0"/><stop offset=".2122" stop-color="#fff775" stop-opacity=".17"/><stop offset=".3912" stop-color="#ffed6a" stop-opacity=".313"/><stop offset=".5583" stop-color="#ffdd59" stop-opacity=".447"/><stop offset=".7181" stop-color="#ffc740" stop-opacity=".575"/><stop offset=".8712" stop-color="#ffaa21" stop-opacity=".697"/><stop offset="1" stop-color="#ff8c00" stop-opacity=".8"/></linearGradient><linearGradient id="lg3"><stop offset="0" stop-color="#ffcb00"/><stop offset="1" stop-color="#fffa78"/></linearGradient><linearGradient id="SVGID_6_" gradientUnits="userSpaceOnUse" x1="159.678" x2="278.941" xlink:href="#lg3" y1="447.638" y2="328.376"/><linearGradient id="SVGID_7_" gradientUnits="userSpaceOnUse" x1="59.703" x2="387.93" xlink:href="#lg2" y1="345.839" y2="17.612"/><linearGradient id="SVGID_8_" gradientUnits="userSpaceOnUse" x1="100.985" x2="425.487" xlink:href="#lg1" y1="262.326" y2="-62.177"/><linearGradient id="SVGID_9_" gradientUnits="userSpaceOnUse" x1="128.892" x2="341.429" xlink:href="#lg2" y1="495.697" y2="283.161"/><linearGradient id="SVGID_10_" gradientUnits="userSpaceOnUse" x1="299.496" x2="455.283" xlink:href="#lg3" y1="458.119" y2="302.331"/><linearGradient id="SVGID_11_" gradientUnits="userSpaceOnUse" x1="218.973" x2="372.349" xlink:href="#lg3" y1="488.941" y2="335.566"/><linearGradient id="SVGID_12_" gradientUnits="userSpaceOnUse" x1="132.228" x2="284.988" xlink:href="#lg3" y1="459.21" y2="306.45"/><linearGradient id="SVGID_13_" gradientUnits="userSpaceOnUse" x1="62.769" x2="218.476" xlink:href="#lg3" y1="478.19" y2="322.483"/><linearGradient id="SVGID_14_" gradientUnits="userSpaceOnUse" x1="139.614" x2="378.38" xlink:href="#lg1" y1="279.877" y2="41.112"/><linearGradient id="SVGID_15_" gradientUnits="userSpaceOnUse" x1="73.422" x2="363.711" xlink:href="#lg1" y1="315.069" y2="24.78"/><g><circle cx="256" cy="256" fill="url(#SVGID_1_)" r="256"/><circle cx="256" cy="256" fill="url(#SVGID_2_)" r="256"/><path d="m331.401 429.655c-50.267 2.997-100.534 2.997-150.801 0-.418-25.306-.748-50.613-.988-75.919 50.926 1.722 101.851 1.722 152.777 0-.241 25.306-.57 50.613-.988 75.919z" fill="url(#SVGID_3_)"/><path d="m286.493 370.166c-20.329.316-40.658.316-60.987 0-.287-66.492-.333-132.985-.139-199.478 20.422-.214 40.843-.214 61.265 0 .195 66.493.148 132.986-.139 199.478z" fill="url(#SVGID_4_)"/><path d="m286.493 370.166c-20.329.316-40.658.316-60.987 0-.287-66.492-.333-132.985-.139-199.478 20.422-.214 40.843-.214 61.265 0 .195 66.493.148 132.986-.139 199.478z" fill="url(#SVGID_5_)"/><path d="m301.74 369.869c-30.493.711-60.987.711-91.48 0-.066-10.204-.124-20.408-.173-30.613-.043-8.449 6.793-15.2 15.259-15.125 20.436.194 40.871.194 61.307 0 8.466-.076 15.303 6.676 15.259 15.125-.048 10.205-.106 20.409-.172 30.613z" fill="url(#SVGID_6_)"/><path d="m309.812 247.426c-35.875-.031-71.749-.031-107.624 0-16.982-.017-30.752-13.561-30.691-30.253.159-45.431.634-90.861 1.427-136.292.313-16.684 14.031-31.305 30.576-32.112 35-1.656 70-1.656 105 0 16.544.807 30.262 15.428 30.576 32.112.793 45.431 1.269 90.861 1.427 136.292.061 16.69-13.709 30.239-30.691 30.253z" fill="url(#SVGID_7_)"/><path d="m203.309 64.051c-8.295.367-15.156 7.586-15.28 15.97-.649 45.66-1.038 91.32-1.168 136.98-.025 8.385 6.862 15.173 15.338 15.144 10.248-.044 20.496-.076 30.743-.096.029-56.312.188-112.624.476-168.936-10.036.188-20.072.5-30.109.938z" fill="url(#SVGID_8_)"/><path d="m331.86 399.288c-50.573 2.488-101.146 2.488-151.719 0-.278-20.245-.498-40.49-.662-60.735 51.015 1.467 102.029 1.467 153.044 0-.165 20.245-.385 40.489-.663 60.735z" fill="url(#SVGID_9_)"/><path d="m316.688 399.959c-.111 10.168-.234 20.337-.367 30.505-.153 12.646 9.766 22.379 22.18 21.434 12.413-.942 22.757-12.004 23.061-24.401.234-10 .449-20 .643-30-15.173 1.044-30.345 1.865-45.517 2.462z" fill="url(#SVGID_10_)"/><path d="m340.35 315.607c-12.71.279-23.056 10.691-23.133 23.342-.131 20.336-.308 40.674-.53 61.01-.127 12.649 9.886 22.454 22.388 21.652 12.501-.805 22.877-11.716 23.128-24.114.389-20 .698-40 .927-60 .149-12.402-10.071-22.163-22.78-21.89z" fill="url(#SVGID_11_)"/><path d="m149.796 397.497c.194 10 .409 20 .643 30 .303 12.397 10.648 23.46 23.061 24.401 12.413.944 22.333-8.788 22.18-21.434-.134-10.168-.256-20.337-.367-30.505-15.173-.597-30.345-1.418-45.517-2.462z" fill="url(#SVGID_12_)"/><path d="m171.65 315.607c-12.709-.271-22.928 9.487-22.78 21.89.229 20 .538 40 .927 60 .252 12.398 10.627 23.31 23.128 24.114 12.502.804 22.515-9.006 22.388-21.652-.222-20.337-.399-40.674-.53-61.01-.078-12.654-10.424-23.06-23.133-23.342z" fill="url(#SVGID_13_)"/><path d="m248.473 62.926c-5.018.031-10.036.094-15.054.187-8.296.157-15.109 7.255-15.18 15.702-.36 45.981-.577 91.963-.649 137.944-.014 8.448 6.877 15.301 15.353 15.289 25.619-.048 51.239-.016 76.858.096 8.477.03 15.363-6.757 15.338-15.144-.072-25.366-.224-50.733-.457-76.1-25.67-26.198-51.162-52.509-76.209-77.974z" fill="url(#SVGID_14_)"/><path d="m308.691 64.051c-20.073-.875-40.145-1.25-60.218-1.125-.173 42.478 33.952 76.624 76.21 77.975-.186-20.293-.423-40.587-.711-60.88-.125-8.384-6.986-15.603-15.281-15.97z" fill="url(#SVGID_15_)"/></g></svg>