<svg id="Layer_1" enable-background="new 0 0 512 512" height="512" viewBox="0 0 512 512" width="512" xmlns="http://www.w3.org/2000/svg" xmlns:xlink="http://www.w3.org/1999/xlink"><linearGradient id="SVGID_1_" gradientUnits="userSpaceOnUse" x1="74.98" x2="437.019" y1="437.02" y2="74.981"><stop offset="0" stop-color="#560dff"/><stop offset="1" stop-color="#73ecff"/></linearGradient><radialGradient id="SVGID_2_" cx="256" cy="256" gradientUnits="userSpaceOnUse" r="256"><stop offset="0" stop-color="#6b23ea"/><stop offset=".4299" stop-color="#676bef" stop-opacity=".57"/><stop offset=".8159" stop-color="#64a5f3" stop-opacity=".184"/><stop offset="1" stop-color="#63bcf5" stop-opacity="0"/></radialGradient><linearGradient id="lg1"><stop offset="0" stop-color="#389fff"/><stop offset=".1209" stop-color="#45affa"/><stop offset=".5726" stop-color="#73e9e7"/><stop offset=".79" stop-color="#85ffe0"/><stop offset=".881" stop-color="#9dffe6"/><stop offset="1" stop-color="#c2fff0"/></linearGradient><linearGradient id="SVGID_3_" gradientUnits="userSpaceOnUse" x1="69.192" x2="423.609" xlink:href="#lg1" y1="442.809" y2="88.393"/><linearGradient id="SVGID_4_" gradientUnits="userSpaceOnUse" x1="166.603" x2="610.625" xlink:href="#lg1" y1="345.397" y2="-98.625"/><linearGradient id="SVGID_5_" gradientUnits="userSpaceOnUse" x1="-48.991" x2="244.077" xlink:href="#lg1" y1="560.992" y2="267.923"/><linearGradient id="SVGID_6_" gradientUnits="userSpaceOnUse" x1="84.893" x2="533.911" xlink:href="#lg1" y1="427.107" y2="-21.911"/><linearGradient id="SVGID_7_" gradientUnits="userSpaceOnUse" x1="-50.645" x2="337.659" xlink:href="#lg1" y1="562.645" y2="174.341"/><linearGradient id="SVGID_8_" gradientUnits="userSpaceOnUse" x1="-21.974" x2="448.361" xlink:href="#lg1" y1="533.974" y2="63.64"/><g><circle cx="256" cy="256" fill="url(#SVGID_1_)" r="256"/><circle cx="256" cy="256" fill="url(#SVGID_2_)" r="256"/><path d="m359.723 375.269c-69.148 1.558-138.297 1.558-207.445 0-8.377-.192-15.353-7.169-15.546-15.546-1.558-69.148-1.558-138.297 0-207.445.193-8.376 7.169-15.352 15.546-15.546 69.148-1.558 138.297-1.558 207.445 0 8.377.192 15.353 7.169 15.546 15.546 1.558 69.148 1.558 138.297 0 207.445-.195 8.377-7.168 15.355-15.546 15.546z" fill="url(#SVGID_3_)"/><path d="m403.5 92.785c-68.333-3.101-136.667-4.048-205-2.839-8.277.149-15.145 7.153-15.319 15.6-.203 10.2-.384 20.4-.546 30.601 63.067 63.58 129.638 130.15 193.218 193.218 10.2-.161 20.4-.343 30.601-.545 8.446-.174 15.451-7.044 15.6-15.319 1.209-68.333.263-136.667-2.839-205-.382-8.277-7.439-15.332-15.715-15.716z" fill="url(#SVGID_4_)"/><path d="m136.147 182.636c-10.2.161-20.401.343-30.601.545-8.447.174-15.452 7.042-15.6 15.319-1.209 68.333-.263 136.667 2.838 205 .382 8.277 7.439 15.333 15.715 15.715 68.333 3.101 136.667 4.048 205 2.839 8.277-.149 15.145-7.153 15.319-15.6.202-10.2.384-20.4.546-30.601-63.066-63.58-129.637-130.15-193.217-193.217z" fill="url(#SVGID_5_)"/><path d="m359.723 136.731c-59.029-1.33-118.058-1.525-177.088-.584-.242 15.301-.438 30.601-.587 45.901 48.82 48.82 99.083 99.084 147.903 147.903 15.3-.149 30.6-.345 45.901-.587.941-59.029.746-118.058-.584-177.087-.194-8.376-7.167-15.352-15.545-15.546z" fill="url(#SVGID_6_)"/><path d="m182.048 182.049c-15.3.149-30.601.345-45.901.587-.941 59.029-.746 118.058.584 177.087.193 8.377 7.169 15.355 15.546 15.546 59.029 1.33 118.058 1.525 177.088.584.242-15.301.438-30.601.587-45.901-48.82-48.82-99.084-99.084-147.904-147.903z" fill="url(#SVGID_7_)"/><path d="m197.349 330.086c44.201.342 88.402.298 132.603-.134.431-44.201.476-88.402.134-132.603-.069-8.446-6.987-15.366-15.434-15.434-44.201-.342-88.402-.298-132.603.134-.431 44.201-.476 88.402-.134 132.603.068 8.447 6.987 15.366 15.434 15.434z" fill="url(#SVGID_8_)"/></g></svg>