<svg id="Layer_1" enable-background="new 0 0 512 512" height="512" viewBox="0 0 512 512" width="512" xmlns="http://www.w3.org/2000/svg" xmlns:xlink="http://www.w3.org/1999/xlink"><linearGradient id="lg1"><stop offset="0" stop-color="#ff4747"/><stop offset="1" stop-color="#ff9ceb"/></linearGradient><linearGradient id="SVGID_1_" gradientUnits="userSpaceOnUse" x1="74.98" x2="437.019" xlink:href="#lg1" y1="437.02" y2="74.982"/><radialGradient id="SVGID_2_" cx="258.704" cy="200.564" gradientUnits="userSpaceOnUse" r="313.58"><stop offset="0" stop-color="#ff2f2b"/><stop offset=".14" stop-color="#ff4552" stop-opacity=".86"/><stop offset=".3561" stop-color="#ff6488" stop-opacity=".644"/><stop offset=".5577" stop-color="#ff7cb3" stop-opacity=".442"/><stop offset=".7385" stop-color="#ff8ed2" stop-opacity=".262"/><stop offset=".892" stop-color="#ff98e4" stop-opacity=".108"/><stop offset="1" stop-color="#ff9ceb" stop-opacity="0"/></radialGradient><linearGradient id="lg2"><stop offset="0" stop-color="#ffa9d4"/><stop offset=".2953" stop-color="#ffc6e3"/><stop offset=".7601" stop-color="#ffeff7"/><stop offset="1" stop-color="#fff"/></linearGradient><linearGradient id="SVGID_3_" gradientUnits="userSpaceOnUse" x1="101.416" x2="339.422" xlink:href="#lg2" y1="337.348" y2="99.342"/><linearGradient id="SVGID_4_" gradientUnits="userSpaceOnUse" x1="313.978" x2="553.823" xlink:href="#lg2" y1="425.702" y2="185.858"/><linearGradient id="SVGID_5_" gradientUnits="userSpaceOnUse" x1="49.835" x2="518.811" xlink:href="#lg2" y1="494.912" y2="25.936"/><linearGradient id="SVGID_6_" gradientUnits="userSpaceOnUse" x1=".193" x2="349.405" xlink:href="#lg2" y1="456.51" y2="107.298"/><linearGradient id="SVGID_7_" gradientUnits="userSpaceOnUse" x1="93.848" x2="294.567" xlink:href="#lg2" y1="258.899" y2="58.18"/><linearGradient id="SVGID_8_" gradientUnits="userSpaceOnUse" x1="271.025" x2="491.688" xlink:href="#lg2" y1="286.596" y2="65.933"/><linearGradient id="SVGID_9_" gradientUnits="userSpaceOnUse" x1="76.678" x2="138.043" xlink:href="#lg1" y1="238.849" y2="177.484"/><linearGradient id="SVGID_10_" gradientUnits="userSpaceOnUse" x1="112.405" x2="172.851" xlink:href="#lg1" y1="202.856" y2="142.41"/><linearGradient id="SVGID_11_" gradientUnits="userSpaceOnUse" x1="112.63" x2="174.148" xlink:href="#lg1" y1="274.789" y2="213.272"/><linearGradient id="SVGID_12_" gradientUnits="userSpaceOnUse" x1="148.624" x2="209.256" xlink:href="#lg1" y1="238.912" y2="178.28"/><linearGradient id="SVGID_13_" gradientUnits="userSpaceOnUse" x1="150.618" x2="357.055" xlink:href="#lg2" y1="212.061" y2="5.623"/><linearGradient id="SVGID_14_" gradientUnits="userSpaceOnUse" x1="270.568" x2="426.357" xlink:href="#lg1" y1="287.656" y2="131.867"/><g><g><circle cx="256" cy="256" fill="url(#SVGID_1_)" r="256"/><circle cx="256" cy="256" fill="url(#SVGID_2_)" r="256"/><path d="m82.411 274.826c.307 41.662 1.634 83.322 3.981 124.984 5.204 2.465 10.941 3.836 16.908 3.744 12.328-.186 23.162-6.999 29.228-17.607 10.896-19.067 22.144-38.279 33.614-57.591 2.704-4.552 7.637-7.314 12.99-7.281-32.163-15.524-64.478-31.031-96.721-46.249z" fill="url(#SVGID_3_)"/><path d="m332.868 321.075c5.353-.033 10.286 2.726 12.99 7.281 11.47 19.311 22.718 38.524 33.614 57.591 6.067 10.609 16.9 17.421 29.228 17.607 5.966.092 11.704-1.279 16.908-3.744 2.347-41.662 3.674-83.323 3.981-124.984-32.243 15.218-64.557 30.725-96.721 46.249z" fill="url(#SVGID_4_)"/><path d="m60.932 199.73c-1.389 55.317-.73 110.633 1.978 165.95.735 14.837 10.438 27.928 23.486 34.133 6.506-2.794 12.002-7.621 15.637-14.033 10.823-19.081 22.047-38.339 33.535-57.725 2.682-4.527 7.602-7.262 12.956-7.216 71.652.646 143.303.646 214.954 0 5.354-.049 10.274 2.691 12.956 7.216 11.488 19.386 22.711 38.644 33.535 57.725 3.635 6.413 9.13 11.241 15.637 14.033 13.047-6.206 22.751-19.295 23.486-34.133 2.708-55.317 3.367-110.633 1.978-165.95-130.047-1.875-260.093-1.875-390.138 0z" fill="url(#SVGID_5_)"/><path d="m357.01 107.096c-15.004-.304-30.007-.54-45.01-.708-18.571 4.905-37.243 9.936-56 15.061-18.777-5.125-37.469-10.156-56.06-15.06-14.98.168-29.96.404-44.94.708-49.383 1.164-92.628 43.163-94.068 92.634-.64 24.794 9.591 47.21 26.354 63.657 16.755 16.425 39.931 26.829 65.324 26.951 68.927.314 137.854.314 206.781 0 50.699-.41 92.954-41.218 91.678-90.608-1.441-49.473-44.686-91.458-94.059-92.635z" fill="url(#SVGID_6_)"/><path d="m229.446 198.346c-.132 42.453-34.518 76.87-76.93 76.718-42.39-.225-77.256-34.117-76.265-75.55 1.081-41.427 36.839-76.288 78.258-77.152 41.442-.803 74.934 33.536 74.937 75.984z" fill="url(#SVGID_7_)"/><path d="m435.749 199.514c.99 41.433-33.877 75.325-76.265 75.55-42.411.15-76.797-34.264-76.93-76.718.002-42.447 33.497-76.785 74.938-75.984 41.418.863 77.177 35.726 78.257 77.152z" fill="url(#SVGID_8_)"/><path d="m134.912 198.588c.11 9.855-7.852 17.815-17.745 17.785-9.893-.031-17.942-8.07-18.001-17.963-.056-9.894 7.857-17.875 17.697-17.808 9.839.068 17.938 8.13 18.049 17.986z" fill="url(#SVGID_9_)"/><path d="m169.943 163.323c.252 9.808-7.577 17.668-17.426 17.575-9.851-.096-17.941-8.151-18.108-18.017-.164-9.865 7.59-17.764 17.354-17.613 9.763.15 17.929 8.246 18.18 18.055z" fill="url(#SVGID_10_)"/><path d="m171.034 234.399c.059 9.809-7.97 17.758-17.877 17.759-9.908-.002-17.94-7.997-17.98-17.862-.037-9.864 7.917-17.825 17.804-17.768 9.887.058 17.994 8.062 18.053 17.871z" fill="url(#SVGID_11_)"/><path d="m206.403 199.228c.199 9.744-7.717 17.583-17.608 17.52-9.893-.066-17.989-8.07-18.137-17.887-.144-9.821 7.671-17.681 17.511-17.544 9.837.139 18.035 8.168 18.234 17.911z" fill="url(#SVGID_12_)"/><path d="m286.637 132.393c8.531-8.701 16.992-17.374 25.364-26.009-35.692-.417-76.373-.416-112.059.002 8.392 8.637 16.874 17.314 25.425 26.017 2.81 2.86 6.648 4.459 10.656 4.448 13.316-.042 26.631-.042 39.947 0 4.015.013 7.855-1.591 10.667-4.458z" fill="url(#SVGID_13_)"/></g><path d="m405.308 183.098c-7.643.041-15.286.09-22.929.148-4.222.031-7.596-3.366-7.53-7.589.119-7.649.254-15.299.407-22.948-10.13.119-20.26.26-30.391.42-.206 7.618-.389 15.237-.549 22.855-.088 4.21-3.573 7.656-7.796 7.707-7.643.09-15.286.189-22.929.296-.243 10.104-.435 20.208-.576 30.312 7.672-.062 15.345-.119 23.018-.172 4.236-.03 7.634 3.36 7.596 7.568-.069 7.618-.115 15.237-.137 22.855 10.249-.018 20.497-.033 30.746-.047.017-7.649.051-15.299.102-22.949.028-4.223 3.492-7.667 7.729-7.684 7.672-.033 15.345-.062 23.018-.086.054-10.229.128-20.458.221-30.686z" fill="url(#SVGID_14_)"/></g></svg>