<svg id="Layer_1" enable-background="new 0 0 512 512" height="512" viewBox="0 0 512 512" width="512" xmlns="http://www.w3.org/2000/svg" xmlns:xlink="http://www.w3.org/1999/xlink"><linearGradient id="lg1"><stop offset="0" stop-color="#00aa45"/><stop offset="1" stop-color="#d3ff33"/></linearGradient><linearGradient id="SVGID_1_" gradientUnits="userSpaceOnUse" x1="74.98" x2="437.019" xlink:href="#lg1" y1="437.02" y2="74.981"/><radialGradient id="SVGID_2_" cx="256" cy="256" gradientUnits="userSpaceOnUse" r="256"><stop offset="0" stop-color="#00aa45"/><stop offset=".1015" stop-color="#0faf49" stop-opacity=".899"/><stop offset=".2954" stop-color="#35bd52" stop-opacity=".705"/><stop offset=".5614" stop-color="#73d462" stop-opacity=".439"/><stop offset=".8863" stop-color="#c7f377" stop-opacity=".114"/><stop offset="1" stop-color="#e6fe7f" stop-opacity="0"/></radialGradient><linearGradient id="lg2"><stop offset="0" stop-color="#008547"/><stop offset=".1212" stop-color="#128f45"/><stop offset=".3647" stop-color="#41aa41"/><stop offset=".7046" stop-color="#8cd63a"/><stop offset="1" stop-color="#d3ff33"/></linearGradient><linearGradient id="SVGID_3_" gradientUnits="userSpaceOnUse" x1="16.048" x2="547.071" xlink:href="#lg2" y1="585.669" y2="54.646"/><linearGradient id="SVGID_4_" gradientUnits="userSpaceOnUse" x1="-33.323" x2="386.781" xlink:href="#lg2" y1="470.851" y2="50.748"/><linearGradient id="lg3"><stop offset="0" stop-color="#00aa45"/><stop offset=".7542" stop-color="#d3ff33"/><stop offset="1" stop-color="#f9fcca"/></linearGradient><linearGradient id="SVGID_5_" gradientUnits="userSpaceOnUse" x1="-170.427" x2="395.787" xlink:href="#lg3" y1="537.153" y2="-29.061"/><linearGradient id="SVGID_6_" gradientUnits="userSpaceOnUse" x1="35.549" x2="457.177" xlink:href="#lg3" y1="404.486" y2="-17.142"/><linearGradient id="SVGID_7_" gradientUnits="userSpaceOnUse" x1="181.033" x2="555.638" xlink:href="#lg2" y1="402.931" y2="28.326"/><linearGradient id="SVGID_8_" gradientUnits="userSpaceOnUse" x1="136.595" x2="613.656" xlink:href="#lg2" y1="520.679" y2="43.618"/><linearGradient id="lg4"><stop offset="0" stop-color="#b8ef5c"/><stop offset=".1177" stop-color="#bbf064"/><stop offset=".299" stop-color="#c5f279"/><stop offset=".5213" stop-color="#d4f59d"/><stop offset=".7736" stop-color="#e9facd"/><stop offset="1" stop-color="#fff"/></linearGradient><linearGradient id="SVGID_9_" gradientUnits="userSpaceOnUse" x1="109.928" x2="547.076" xlink:href="#lg4" y1="347.544" y2="-89.604"/><linearGradient id="SVGID_10_" gradientUnits="userSpaceOnUse" x1="216.037" x2="472.096" xlink:href="#lg4" y1="358.151" y2="102.092"/><linearGradient id="SVGID_11_" gradientUnits="userSpaceOnUse" x1="32.741" x2="276.17" xlink:href="#lg4" y1="379.49" y2="136.061"/><linearGradient id="SVGID_12_" gradientUnits="userSpaceOnUse" x1="107.3" x2="368.467" xlink:href="#lg4" y1="354.969" y2="93.802"/><linearGradient id="lg5"><stop offset="0" stop-color="#5ccd38"/><stop offset=".5" stop-color="#95e12e"/><stop offset=".5494" stop-color="#99e236"/><stop offset=".6255" stop-color="#a4e54b"/><stop offset=".7189" stop-color="#b6ea6f"/><stop offset=".8258" stop-color="#cff1a0"/><stop offset=".9428" stop-color="#eefade"/><stop offset="1" stop-color="#fff"/></linearGradient><linearGradient id="SVGID_13_" gradientUnits="userSpaceOnUse" x1="82.343" x2="506.039" xlink:href="#lg5" y1="479.389" y2="55.692"/><linearGradient id="SVGID_14_" gradientUnits="userSpaceOnUse" x1="-66.562" x2="468.265" xlink:href="#lg5" y1="678.332" y2="143.505"/><linearGradient id="SVGID_15_" gradientUnits="userSpaceOnUse" x1="113.306" x2="337.048" xlink:href="#lg1" y1="370.661" y2="146.919"/><linearGradient id="SVGID_16_" gradientUnits="userSpaceOnUse" x1="230.901" x2="361.961" xlink:href="#lg1" y1="313.052" y2="181.992"/><linearGradient id="SVGID_17_" gradientUnits="userSpaceOnUse" x1="142.197" x2="266.183" xlink:href="#lg1" y1="318.676" y2="194.69"/><linearGradient id="SVGID_18_" gradientUnits="userSpaceOnUse" x1="166.573" x2="300.408" xlink:href="#lg1" y1="319.966" y2="186.132"/><linearGradient id="SVGID_19_" gradientUnits="userSpaceOnUse" x1="185.795" x2="402.918" xlink:href="#lg1" y1="351.666" y2="134.543"/><linearGradient id="SVGID_20_" gradientUnits="userSpaceOnUse" x1="268.503" x2="444.984" xlink:href="#lg1" y1="294.624" y2="118.144"/><g><circle cx="256" cy="256" fill="url(#SVGID_1_)" r="256"/><circle cx="256" cy="256" fill="url(#SVGID_2_)" r="256"/><path d="m437.995 148.943c-60.665-1.708-121.33-2.562-181.995-2.562v219.238c60.665 0 121.33-.854 181.995-2.562 2.623-4.495 4.119-9.577 4.216-14.816 1.135-61.494 1.135-122.988 0-184.482-.097-5.238-1.594-10.321-4.216-14.816z" fill="url(#SVGID_3_)"/><path d="m74.005 148.943c-2.624 4.494-4.12 9.578-4.216 14.816-1.135 61.494-1.135 122.988 0 184.482.097 5.236 1.592 10.323 4.216 14.816 70.852 1.994 141.705 2.825 212.557 2.49.251-73.031.251-146.062 0-219.093-70.853-.335-141.705.494-212.557 2.489z" fill="url(#SVGID_4_)"/><path d="m256 37.136c-5.334-.002-10.665 1.468-15.424 4.4-19.303 11.898-38.755 23.956-58.32 36.086-32.128 19.922-64.556 40.038-97.117 59.968-4.677 2.871-8.479 6.812-11.131 11.354 59.917 33.978 120.954 70.517 181.992 107.056 20.5-37.115 41-74.23 61.112-111.052-20.621-35.94-41.112-71.972-61.112-107.812z" fill="url(#SVGID_5_)"/><path d="m437.992 148.945c-2.651-4.541-6.454-8.482-11.131-11.354-32.561-19.93-64.99-40.046-97.118-59.968-19.564-12.13-39.016-24.188-58.32-36.086-4.758-2.934-10.09-4.404-15.424-4.403v218.868c61.038-36.541 122.076-73.08 181.993-107.057z" fill="url(#SVGID_6_)"/><path d="m256 256c-61.038 36.539-122.075 73.079-181.992 107.056 2.652 4.541 6.456 8.485 11.134 11.356 29.976 18.348 59.839 36.853 89.458 55.218 22.146 13.732 44.158 27.385 65.977 40.834 4.758 2.933 10.091 4.4 15.424 4.4 20-35.839 40.491-71.871 61.112-107.812-20.113-36.821-40.613-73.936-61.113-111.052z" fill="url(#SVGID_7_)"/><path d="m256 256v218.867c5.333-.001 10.666-1.47 15.424-4.403 22.223-13.698 44.643-27.608 67.204-41.595 29.217-18.115 58.668-36.363 88.23-54.457 4.678-2.872 8.48-6.815 11.135-11.357-59.918-33.976-120.956-70.516-181.993-107.055z" fill="url(#SVGID_8_)"/><path d="m130.799 181.663c-.481 49.558-.481 99.116 0 148.675 46.844.618 93.688.889 140.532.814.059-50.101.059-100.201 0-150.302-46.844-.076-93.689.195-140.532.813z" fill="url(#SVGID_9_)"/><path d="m256 180.837v150.326c41.734 0 83.468-.275 125.201-.826.481-49.558.481-99.116 0-148.675-41.734-.55-83.467-.825-125.201-.825z" fill="url(#SVGID_10_)"/><path d="m256 105.674c15.198 25.055 30.573 50.183 45.992 75.275-15.242 24.942-30.617 49.997-45.992 75.051-41.854-25.055-83.708-50.109-125.201-74.337 41.974-25.329 83.828-50.935 125.201-75.989z" fill="url(#SVGID_11_)"/><path d="m381.201 181.663c-41.493 24.228-83.347 49.283-125.201 74.337 0-50.109 0-100.218 0-150.327 41.373 25.055 83.227 50.661 125.201 75.99z" fill="url(#SVGID_12_)"/><path d="m256 256c-41.854 25.054-83.708 50.109-125.201 74.337 41.975 25.33 83.829 50.935 125.201 75.989 15.198-25.054 30.573-50.183 45.992-75.274-15.242-24.943-30.617-49.997-45.992-75.052z" fill="url(#SVGID_13_)"/><path d="m381.201 330.338c-41.975 25.33-83.829 50.935-125.201 75.989 0-50.109 0-100.218 0-150.326 41.854 25.054 83.708 50.108 125.201 74.337z" fill="url(#SVGID_14_)"/><path d="m191.985 217.761c-.064 25.492-.064 50.986 0 76.478 23.951.082 47.902.118 71.853.108.008-25.565.008-51.129 0-76.694-23.951-.01-47.902.026-71.853.108z" fill="url(#SVGID_15_)"/><path d="m256 217.652v76.697c21.338 0 42.676-.037 64.015-.11.064-25.492.064-50.986 0-76.478-21.339-.073-42.677-.109-64.015-.109z" fill="url(#SVGID_16_)"/><path d="m256 179.303c7.821 12.783 15.665 25.576 23.516 38.364-7.827 12.767-15.672 25.551-23.516 38.333-21.354-12.783-42.708-25.566-64.015-38.239 21.371-12.819 42.725-25.675 64.015-38.458z" fill="url(#SVGID_17_)"/><path d="m320.015 217.761c-21.307 12.674-42.661 25.456-64.015 38.239 0-25.566 0-51.132 0-76.697 21.29 12.783 42.645 25.639 64.015 38.458z" fill="url(#SVGID_18_)"/><path d="m256 256c-21.354 12.783-42.708 25.566-64.015 38.239 21.371 12.819 42.725 25.675 64.015 38.458 7.821-12.783 15.665-25.575 23.516-38.363-7.827-12.768-15.672-25.551-23.516-38.334z" fill="url(#SVGID_19_)"/><path d="m320.015 294.239c-21.371 12.819-42.725 25.675-64.015 38.458 0-25.565 0-51.131 0-76.697 21.354 12.783 42.708 25.566 64.015 38.239z" fill="url(#SVGID_20_)"/></g></svg>