<svg id="Layer_1" enable-background="new 0 0 512 512" height="512" viewBox="0 0 512 512" width="512" xmlns="http://www.w3.org/2000/svg" xmlns:xlink="http://www.w3.org/1999/xlink"><linearGradient id="lg1"><stop offset="0" stop-color="#364aff"/><stop offset="1" stop-color="#fc54ff"/></linearGradient><linearGradient id="SVGID_1_" gradientUnits="userSpaceOnUse" x1="74.981" x2="437.02" xlink:href="#lg1" y1="437.019" y2="74.98"/><radialGradient id="SVGID_2_" cx="256.001" cy="256" gradientUnits="userSpaceOnUse" r="258.6"><stop offset="0" stop-color="#8d00db" stop-opacity=".66"/><stop offset=".2069" stop-color="#9f0de1" stop-opacity=".523"/><stop offset=".6178" stop-color="#cc30f0" stop-opacity=".252"/><stop offset="1" stop-color="#fc54ff" stop-opacity="0"/></radialGradient><linearGradient id="lg2"><stop offset="0" stop-color="#b31de7"/><stop offset="1" stop-color="#fda0ff"/></linearGradient><linearGradient id="SVGID_3_" gradientUnits="userSpaceOnUse" x1="254.333" x2="503.102" xlink:href="#lg2" y1="487.443" y2="238.673"/><linearGradient id="SVGID_4_" gradientTransform="matrix(-1 0 0 1 512 0)" gradientUnits="userSpaceOnUse" x1="535.704" x2="278.753" xlink:href="#lg2" y1="417.659" y2="160.708"/><linearGradient id="SVGID_5_" gradientUnits="userSpaceOnUse" x1="199.912" x2="517.524" xlink:href="#lg2" y1="432.151" y2="114.539"/><linearGradient id="SVGID_6_" gradientUnits="userSpaceOnUse" x1="23.563" x2="339.412" xlink:href="#lg2" y1="414.073" y2="98.224"/><linearGradient id="lg3"><stop offset="0" stop-color="#fda0ff"/><stop offset="1" stop-color="#fff"/></linearGradient><linearGradient id="SVGID_7_" gradientUnits="userSpaceOnUse" x1="-143.213" x2="416.701" xlink:href="#lg3" y1="744.287" y2="184.372"/><linearGradient id="SVGID_8_" gradientUnits="userSpaceOnUse" x1="10.913" x2="627.034" xlink:href="#lg3" y1="434.349" y2="-181.772"/><linearGradient id="SVGID_9_" gradientTransform="matrix(1 -.003 .003 1 14.755 2.43)" gradientUnits="userSpaceOnUse" x1="-96.452" x2="486.425" xlink:href="#lg3" y1="608.603" y2="25.726"/><radialGradient id="SVGID_10_" cx="256" cy="78.249" gradientUnits="userSpaceOnUse" r="35.054"><stop offset="0" stop-color="#fc54ff"/><stop offset="1" stop-color="#364aff"/></radialGradient><linearGradient id="SVGID_11_" gradientUnits="userSpaceOnUse" x1="123.468" x2="353.91" xlink:href="#lg1" y1="293.833" y2="63.391"/><linearGradient id="SVGID_12_" gradientUnits="userSpaceOnUse" x1="13.449" x2="471.416" xlink:href="#lg1" y1="501.271" y2="43.305"/><linearGradient id="SVGID_13_" gradientUnits="userSpaceOnUse" x1="1.418" x2="354.043" xlink:href="#lg1" y1="456.438" y2="103.813"/><linearGradient id="lg4"><stop offset="0" stop-color="#fc54ff"/><stop offset="1" stop-color="#fda0ff"/></linearGradient><linearGradient id="SVGID_14_" gradientUnits="userSpaceOnUse" x1="-73.884" x2="248.292" xlink:href="#lg4" y1="520.041" y2="197.865"/><linearGradient id="SVGID_15_" gradientTransform="matrix(-1 0 0 1 512 0)" gradientUnits="userSpaceOnUse" x1="385.569" x2="111.455" xlink:href="#lg4" y1="462.267" y2="188.153"/><linearGradient id="SVGID_16_" gradientTransform="matrix(-1 0 0 1 512 0)" gradientUnits="userSpaceOnUse" x1="317.825" x2="45.991" y1="355.217" y2="83.383"><stop offset="0" stop-color="#fc54ff"/><stop offset="1" stop-color="#fff"/></linearGradient><linearGradient id="SVGID_17_" gradientUnits="userSpaceOnUse" x1="131.967" x2="331.06" xlink:href="#lg4" y1="269.387" y2="70.294"/><linearGradient id="SVGID_18_" gradientUnits="userSpaceOnUse" x1="126.19" x2="299.613" xlink:href="#lg4" y1="312.438" y2="139.015"/><linearGradient id="SVGID_19_" gradientUnits="userSpaceOnUse" x1="135.736" x2="450.933" xlink:href="#lg3" y1="316.444" y2="1.247"/><linearGradient id="SVGID_20_" gradientUnits="userSpaceOnUse" x1="116.156" x2="426.991" xlink:href="#lg3" y1="408.638" y2="97.804"/><linearGradient id="SVGID_21_" gradientUnits="userSpaceOnUse" x1="72.961" x2="366.567" xlink:href="#lg3" y1="414.037" y2="120.43"/><linearGradient id="SVGID_22_" gradientUnits="userSpaceOnUse" x1="228.918" x2="331.651" xlink:href="#lg2" y1="257.312" y2="154.579"/><linearGradient id="SVGID_23_" gradientUnits="userSpaceOnUse" x1="216.367" x2="316.114" xlink:href="#lg2" y1="266.44" y2="166.693"/><linearGradient id="SVGID_24_" gradientUnits="userSpaceOnUse" x1="175.573" x2="303.677" xlink:href="#lg2" y1="266.95" y2="138.846"/><linearGradient id="SVGID_25_" gradientUnits="userSpaceOnUse" x1="229.668" x2="329.936" xlink:href="#lg2" y1="335.395" y2="235.127"/><linearGradient id="SVGID_26_" gradientUnits="userSpaceOnUse" x1="175.599" x2="303.608" xlink:href="#lg2" y1="345.696" y2="217.688"/><g><circle cx="256" cy="256" fill="url(#SVGID_1_)" r="256"/><circle cx="256" cy="256" fill="url(#SVGID_2_)" r="256"/><path d="m402.037 363.315c3.201-33.601 6.129-67.156 8.734-100.664.005-4.188 3.446-7.578 7.692-7.575 10.25.002 20.5.004 30.75.006 4.246.002 7.689 3.362 7.682 7.502-.051 30.667-.463 61.333-1.234 92-.105 4.14-3.614 7.59-7.828 7.699-15.266.391-30.531.734-45.796 1.032z" fill="url(#SVGID_3_)"/><path d="m109.963 363.315c-3.201-33.601-6.129-67.156-8.734-100.664-.006-4.188-3.446-7.578-7.692-7.575-10.25.002-20.5.004-30.75.006-4.245.002-7.689 3.362-7.682 7.502.052 30.667.463 61.333 1.234 92 .105 4.14 3.614 7.59 7.828 7.699 15.266.391 30.531.734 45.796 1.032z" fill="url(#SVGID_4_)"/><path d="m301.796 364.596c.346-56.985.419-113.97.221-170.955 33.575.117 67.15.362 100.725.736 4.235.047 7.71 3.482 7.754 7.664.532 51.182.307 102.363-.675 153.545-.081 4.183-3.569 7.646-7.783 7.729-33.415.65-66.829 1.078-100.242 1.281z" fill="url(#SVGID_5_)"/><path d="m102.18 355.586c-.982-51.182-1.207-102.363-.675-153.545.044-4.182 3.519-7.615 7.754-7.664 33.575-.374 67.15-.618 100.725-.736-.199 56.985-.125 113.969.221 170.955-33.414-.204-66.827-.631-100.241-1.282-4.215-.081-7.703-3.545-7.784-7.728z" fill="url(#SVGID_6_)"/><path d="m377.849 87.176c-.503-16.811-14.858-30.686-31.4-31.032-4.983-.115-9.966-.221-14.949-.316 2.517 133.448 2.517 266.897 0 400.346 5.35-.103 10.7-.217 16.051-.342 16.544-.447 29.915-15.054 30.32-31.862 2.879-112.265 2.872-224.53-.022-336.794z" fill="url(#SVGID_7_)"/><path d="m134.145 87.432c-2.893 112.378-2.893 224.758 0 337.136.455 16.809 14.312 30.882 30.855 31.276 19.857.461 39.715.771 59.572.93-6.051-133.889-11.554-267.708-15.009-401.399-14.854.176-29.708.436-44.563.781-16.543.397-30.401 14.469-30.855 31.276z" fill="url(#SVGID_8_)"/><path d="m362.763 424.336c.21-9.948.399-19.896.569-29.844-14.753-45.846-30.303-92.044-46.092-138.406 15.804-56.588 31.251-112.978 45.511-168.937-.448-16.848-14.71-31.042-31.251-31.322-40.645-.757-81.291-.882-121.938-.375-8.275.105-15.091 7.081-15.217 15.544-1.673 118.249-1.742 236.498-.207 354.746.242 16.934 13.89 30.896 30.434 31.031 35.643.286 71.285.085 106.928-.601 16.543-.375 30.909-14.99 31.263-31.836z" fill="url(#SVGID_9_)"/><path d="m263.541 78.255c.008 4.246-3.368 7.683-7.541 7.681s-7.549-3.434-7.541-7.681 3.385-7.692 7.541-7.694c4.156.002 7.532 3.449 7.541 7.694z" fill="url(#SVGID_10_)"/><path d="m164.663 71.536c-8.309.181-15.22 7.186-15.414 15.613-.801 35.619-1.349 71.238-1.643 106.857 9.992 28.241 20.21 56.61 30.519 85.057-10.185 28.402-20.229 56.718-29.999 84.897.146 10.177.313 20.354.501 30.531.16 8.427 7.086 15.405 15.449 15.556 9.957.176 19.915.324 29.872.443 25.054-56.273 51.307-113.076 77.388-169.777-26.113-56.716-52.234-113.496-76.992-169.708-9.893.143-19.787.32-29.681.531z" fill="url(#SVGID_11_)"/><path d="m256 101.312c-6.277-.001-11.957-2.57-16.051-6.729-4.902-4.98-9.788-9.95-14.657-14.91-5.621-5.726-13.245-8.893-21.23-8.796-3.239.04-6.478.083-9.718.129-.325 23.007-.59 46.014-.794 69.021 20.485 37.222 41.462 74.717 62.45 112.215-20.988 37.498-41.986 74.999-62.514 112.233.127 15.338.281 30.677.463 46.015 51.325.614 102.65.466 153.974-.443 8.359-.152 15.29-7.131 15.409-15.555.03 0 .545-30.531.527-30.531-9.21-66.744-19.586-133.782-30.369-200.996-.158-.034-77.698-61.754-77.49-61.653z" fill="url(#SVGID_12_)"/><path d="m347.337 71.536c-13.133-.281-26.266-.5-39.399-.66-7.985-.098-15.609 3.071-21.23 8.796-4.869 4.959-9.755 9.93-14.657 14.91-4.091 4.156-9.779 6.724-16.051 6.729 8.221 50.058 37.439 93.361 77.839 121.149 10.215-9.525 20.405-19.015 30.555-28.454-.294-35.619-.842-71.238-1.643-106.857-.195-8.426-7.105-15.432-15.414-15.613z" fill="url(#SVGID_13_)"/><path d="m148.126 363.961c-.815-56.651-.988-113.303-.52-169.954 36.131-.297 72.263-.446 108.394-.445-23.349 57.058-47 114.178-69.711 170.851-12.721-.119-25.442-.269-38.163-.452z" fill="url(#SVGID_14_)"/><path d="m300.9 193.638c-14.967-.051-29.933-.076-44.9-.076 23.349 57.058 47 114.178 69.711 170.851 12.721-.118 25.442-.269 38.163-.452.596-41.448.849-82.897.758-124.346-21.244-15.249-42.516-30.612-63.732-45.977z" fill="url(#SVGID_15_)"/><path d="m300.9 193.638c17.684 19.529 39.442 35.321 63.732 45.977-.033-15.203-.113-30.406-.238-45.608-21.165-.175-42.33-.298-63.494-.369z" fill="url(#SVGID_16_)"/><path d="m201.672 132.287c-4.205.035-7.648 3.5-7.686 7.737-.068 7.669-.128 15.339-.183 23.008 38.363-.271 76.726-.292 115.089-.061-15.027-10.323-30.013-20.636-44.93-30.905-20.763-.025-41.527.048-62.29.221z" fill="url(#SVGID_17_)"/><path d="m318.014 140.024c-.038-4.236-3.481-7.702-7.686-7.737-15.455-.128-30.911-.201-46.366-.22 3.823 10.748 8.64 21.039 14.342 30.773 13.298.034 26.595.098 39.893.192-.054-7.67-.115-15.339-.183-23.008z" fill="url(#SVGID_18_)"/><path d="m186.288 147.76c-4.215.04-7.668 3.504-7.709 7.734-.688 72.167-.635 144.336.159 216.503.047 4.228 3.498 7.701 7.703 7.745 2.394.025 4.788.049 7.181.072 14.866-38.541 30.171-77.271 45.54-116.042-15.381-38.774-30.732-77.517-45.677-116.076-2.399.02-4.798.041-7.197.064z" fill="url(#SVGID_19_)"/><path d="m270.249 147.45c-25.588-.049-51.176.033-76.764.246-.641 77.373-.595 154.745.138 232.118 43.979.419 87.958.395 131.937-.072 4.205-.045 7.656-3.517 7.703-7.745.548-49.849.743-99.698.585-149.547-21.249-24.939-42.52-50-63.599-75z" fill="url(#SVGID_20_)"/><path d="m333.847 222.45c-.071-22.319-.213-44.638-.426-66.957-.041-4.231-3.494-7.694-7.709-7.734-18.488-.172-36.976-.275-55.464-.31 14.047 30.287 36.276 56.208 63.599 75.001z" fill="url(#SVGID_21_)"/><path d="m271.319 178.197c-10.201 8.013-20.427 16.046-30.667 24.084 10.224 8.018 20.466 16.05 30.715 24.084 10.586.005 21.172.018 31.758.036-.017-10.16-.043-20.32-.078-30.479-3.761-8.827-7.342-13.984-14.638-17.686-5.697-.018-11.393-.03-17.09-.039z" fill="url(#SVGID_22_)"/><path d="m288.409 178.236c4.513 6.196 9.407 12.099 14.638 17.686-.02-5.877-.043-11.754-.069-17.631-4.857-.022-9.713-.04-14.569-.055z" fill="url(#SVGID_23_)"/><path d="m209.023 178.291c-.071 16.037-.12 32.073-.147 48.11 20.831-.036 41.661-.048 62.492-.036-.009-16.056-.025-32.112-.048-48.168-20.767-.03-41.532.002-62.297.094z" fill="url(#SVGID_24_)"/><path d="m271.375 257.111c-10.25 8.028-20.502 16.061-30.744 24.084 10.25 8.033 20.494 16.065 30.722 24.084 10.576-.01 21.152-.03 31.728-.059.045-16.037.068-32.073.069-48.11-10.592.001-21.183.001-31.775.001z" fill="url(#SVGID_25_)"/><path d="m208.85 257.11c.001 16.037.024 32.073.069 48.11 20.811.059 41.622.078 62.433.059.015-16.056.022-32.112.023-48.168-20.842.001-41.683 0-62.525-.001z" fill="url(#SVGID_26_)"/></g></svg>