<svg id="Layer_1" enable-background="new 0 0 512 512" height="512" viewBox="0 0 512 512" width="512" xmlns="http://www.w3.org/2000/svg" xmlns:xlink="http://www.w3.org/1999/xlink"><linearGradient id="SVGID_1_" gradientUnits="userSpaceOnUse" x1="74.98" x2="437.019" y1="437.019" y2="74.981"><stop offset="0" stop-color="#ff4747"/><stop offset="1" stop-color="#fff200"/></linearGradient><radialGradient id="SVGID_2_" cx="262.084" cy="298.591" gradientUnits="userSpaceOnUse" r="298.162"><stop offset="0" stop-color="#ff4747" stop-opacity=".8"/><stop offset=".2765" stop-color="#ff7c56" stop-opacity=".567"/><stop offset=".9478" stop-color="#fffa78" stop-opacity="0"/></radialGradient><linearGradient id="lg1"><stop offset="0" stop-color="#ffcb00"/><stop offset="1" stop-color="#fffa78"/></linearGradient><linearGradient id="SVGID_3_" gradientUnits="userSpaceOnUse" x1="146.216" x2="303.936" xlink:href="#lg1" y1="188.334" y2="30.613"/><linearGradient id="SVGID_4_" gradientUnits="userSpaceOnUse" x1="84.304" x2="243.834" xlink:href="#lg1" y1="205.618" y2="46.089"/><linearGradient id="SVGID_5_" gradientUnits="userSpaceOnUse" x1="208.587" x2="363.836" xlink:href="#lg1" y1="202.637" y2="47.388"/><linearGradient id="SVGID_6_" gradientUnits="userSpaceOnUse" x1="58.2" x2="173.91" xlink:href="#lg1" y1="277.697" y2="161.986"/><linearGradient id="SVGID_7_" gradientUnits="userSpaceOnUse" x1="-121.427" x2="369.912" y1="770.755" y2="279.416"><stop offset="0" stop-color="#ffcb00"/><stop offset=".9963" stop-color="#fffa78"/></linearGradient><linearGradient id="SVGID_8_" gradientUnits="userSpaceOnUse" x1="127.592" x2="573.861" xlink:href="#lg1" y1="539.561" y2="93.292"/><linearGradient id="SVGID_9_" gradientUnits="userSpaceOnUse" x1="24.596" x2="371.465" xlink:href="#lg1" y1="522.069" y2="175.2"/><linearGradient id="lg2"><stop offset="0" stop-color="#fffa78"/><stop offset="1" stop-color="#fff"/></linearGradient><linearGradient id="SVGID_10_" gradientUnits="userSpaceOnUse" x1="112.092" x2="591.571" xlink:href="#lg2" y1="362.503" y2="-116.977"/><linearGradient id="SVGID_11_" gradientUnits="userSpaceOnUse" x1="165.46" x2="245.027" xlink:href="#lg1" y1="252.247" y2="172.681"/><linearGradient id="SVGID_12_" gradientUnits="userSpaceOnUse" x1="226.729" x2="306.019" xlink:href="#lg1" y1="267.74" y2="188.45"/><linearGradient id="SVGID_13_" gradientUnits="userSpaceOnUse" x1="252.731" x2="360.864" xlink:href="#lg1" y1="318.727" y2="210.595"/><linearGradient id="SVGID_14_" gradientUnits="userSpaceOnUse" x1="30.919" x2="382.96" xlink:href="#lg1" y1="504.246" y2="152.205"/><linearGradient id="SVGID_15_" gradientUnits="userSpaceOnUse" x1="43.528" x2="508.705" xlink:href="#lg2" y1="571.84" y2="106.663"/><linearGradient id="SVGID_16_" gradientUnits="userSpaceOnUse" x1="284.604" x2="354.443" xlink:href="#lg1" y1="330.624" y2="260.785"/><linearGradient id="SVGID_17_" gradientUnits="userSpaceOnUse" x1="241.415" x2="311.097" xlink:href="#lg1" y1="328.002" y2="258.319"/><linearGradient id="SVGID_18_" gradientUnits="userSpaceOnUse" x1="196.21" x2="265.566" xlink:href="#lg1" y1="327.126" y2="257.771"/><g><circle cx="256" cy="256" fill="url(#SVGID_1_)" r="256"/><circle cx="256" cy="256" fill="url(#SVGID_2_)" r="256"/><path d="m278.617 53.091c-.069-12.491-9.616-23.266-21.797-23.715-12.787-.472-23.361 10.161-23.435 23.163-.096 20.487-.177 40.975-.242 61.463 15.238-.105 30.476-.105 45.714 0-.064-20.304-.144-40.608-.24-60.911z" fill="url(#SVGID_3_)"/><path d="m218.189 68.645c.079-12.485-9.356-22.97-21.574-23.061-12.826-.096-23.573 10.749-23.79 23.646-.325 20.333-.592 40.665-.803 60.997 15.269-.338 30.538-.584 45.806-.738.095-20.281.215-40.563.361-60.844z" fill="url(#SVGID_4_)"/><path d="m339.184 69.778c-.207-12.388-9.923-23.343-22.152-24.147-12.838-.845-23.306 9.465-23.225 22.462.148 20.466.269 40.93.365 61.396 15.269.154 30.538.399 45.806.738-.208-20.15-.473-40.3-.794-60.449z" fill="url(#SVGID_5_)"/><path d="m156.303 176.74c.084-12.371-9.493-22.714-21.925-22.819-13.051-.11-23.941 10.472-24.083 23.149-.218 20.18-.336 40.359-.354 60.539 15.375-.028 30.75-.052 46.124-.072.011-20.265.091-40.531.238-60.797z" fill="url(#SVGID_6_)"/><path d="m232.939 252.292c25.639 68.086 51.398 136.426 75.561 203.641 15-.404 30-.981 45-1.732 8.278-.422 15.178-7.594 15.39-15.949.433-17.461.808-34.922 1.125-52.383 19.494-25.148 31.519-55.865 31.807-88.798.045-5.105.084-10.21.117-15.314-56.264-9.148-112.626-19.301-169-29.465z" fill="url(#SVGID_7_)"/><path d="m158.162 439.002c.185 8.388 7.06 15.537 15.338 15.892 45 1.905 90 2.251 135 1.039 8.278-.226 15.104-7.313 15.234-15.753.461-31.297.813-62.594 1.055-93.891-56.207 21.314-112.077 42.045-167.266 60.18.194 10.845.407 21.688.639 32.533z" fill="url(#SVGID_8_)"/><path d="m163.828 282.339c-17.963-10.3-35.933-20.528-53.884-30.582.022 15 .098 30 .231 45 .191 22.005 6.713 43.745 18.674 63.074 9.575 15.469 19.144 31.029 28.674 46.639 55.551 2.13 111.103 2.458 166.654.983.042-3.408.082-6.817.122-10.226.07-6.071 1.88-12.082 5.353-17.166 16.198-23.729 25.947-52.34 26.124-82.591.03-5.066.056-10.133.078-15.199-64.009.582-128.018.605-192.026.068z" fill="url(#SVGID_9_)"/><path d="m355.864 206.275c.024 4.155-3.174 22.972-7.387 23.092-4.349.125-7.957-18.601-7.976-22.893-.085-25.416-.26-50.831-.523-76.247-.09-8.415-6.995-15.42-15.407-15.598-5.079-.104-10.159-.197-15.238-.279-8.413-.139-15.198 6.662-15.161 15.139.095 20.358.165 40.717.209 61.075.012 4.2-3.2 23.203-7.408 23.324-4.351.123-7.938-18.736-7.944-23.059-.033-25.609-.09-51.219-.172-76.828-.031-8.483-6.863-15.421-15.255-15.444-5.068-.012-10.136-.012-15.204 0-8.393.022-15.225 6.959-15.255 15.444-.065 20.38-.114 40.76-.148 61.14-.007 4.208-3.272 23.25-7.476 23.388-4.353.144-7.878-18.678-7.862-22.992.043-15.349.1-30.698.172-46.047.036-8.48-6.749-15.276-15.161-15.139-5.079.081-10.159.174-15.238.279-8.412.177-15.317 7.184-15.407 15.598-.447 43.1-.637 86.199-.572 129.299.006 4.176-3.228 7.803-7.434 7.904-4.352.106-7.931-3.365-7.939-7.639-.014-7.418-.018-14.835-.014-22.253.004-8.401-6.861-15.174-15.35-15.12-5.124.028-10.248.058-15.371.09-8.488.062-15.396 6.826-15.403 15.102-.004 4.716-.003 9.431.004 14.146.042 24.776 20.864 45.33 46.281 45.715 66.517.839 133.034.839 199.551 0 10.324-15.328 20.638-30.568 30.907-45.671-10.231-15.049-20.516-30.24-30.819-45.526z" fill="url(#SVGID_10_)"/><path d="m225.545 183.17c-4.346.148-7.901-3.317-7.889-7.633-.028 10.232-.05 20.465-.066 30.698-.007 4.316 3.558 7.792 7.91 7.653 4.206-.135 7.451-3.807 7.454-8.015.009-10.244.023-20.488.04-30.731-.006 4.207-3.249 7.885-7.449 8.028z" fill="url(#SVGID_11_)"/><path d="m286.954 198.53c-4.349.118-7.92-3.378-7.925-7.701.013 10.244.023 20.488.028 30.731.002 4.323 3.573 7.813 7.927 7.686 4.207-.122 7.448-3.782 7.444-7.985-.009-10.232-.025-20.465-.047-30.698.009 4.204-3.224 7.854-7.427 7.967z" fill="url(#SVGID_12_)"/><path d="m348.445 214.142c-4.352.104-7.929-3.377-7.943-7.668.034 10.167.054 20.332.06 30.499.002 4.289 3.572 7.752 7.926 7.619 4.207-.128 7.452-3.758 7.449-7.918 5.121-5.059 10.238-10.099 15.348-15.117-5.137-5.077-10.278-10.172-15.419-15.281.015 4.158-3.216 7.763-7.421 7.866z" fill="url(#SVGID_13_)"/><path d="m378.603 108.648c-12.989-.984-23.506 9.069-23.356 21.948.249 20.266.431 40.532.545 60.798 15.353.183 30.705.409 46.058.677-.166-19.82-.428-39.64-.787-59.46-.227-12.181-10.087-23.027-22.46-23.963z" fill="url(#SVGID_14_)"/><path d="m355.792 191.394c.199 35.359.194 70.718-.017 106.077 10.233-.129 20.467-.278 30.7-.447 8.476-.149 15.41-6.991 15.464-15.268.19-29.895.16-59.79-.09-89.686-.071-8.276-7.013-15.151-15.481-15.329-5.113-.103-10.225-.201-15.337-.292-8.469-.157-15.284 6.547-15.239 14.945z" fill="url(#SVGID_15_)"/><path d="m332.75 297.728c-.04 8.429-6.947 15.356-15.414 15.443s-15.308-6.732-15.287-15.205c.022-8.472 6.913-15.368 15.398-15.413 8.487-.045 15.343 6.746 15.303 15.175z" fill="url(#SVGID_16_)"/><path d="m286.7 298.041c-.017 8.48-6.899 15.393-15.366 15.415-8.467.023-15.333-6.865-15.334-15.356-.001-8.49 6.877-15.373 15.362-15.386 8.485-.011 15.355 6.847 15.338 15.327z" fill="url(#SVGID_17_)"/><path d="m240.65 298.085c.006 8.49-6.851 15.357-15.318 15.314-8.467-.045-15.357-6.966-15.382-15.433-.024-8.468 6.841-15.306 15.326-15.284 8.485.023 15.368 6.914 15.374 15.403z" fill="url(#SVGID_18_)"/></g></svg>