<svg id="Layer_1" enable-background="new 0 0 512 512" height="512" viewBox="0 0 512 512" width="512" xmlns="http://www.w3.org/2000/svg" xmlns:xlink="http://www.w3.org/1999/xlink"><linearGradient id="lg1"><stop offset="0" stop-color="#560dff"/><stop offset="1" stop-color="#73ecff"/></linearGradient><linearGradient id="SVGID_1_" gradientUnits="userSpaceOnUse" x1="74.98" x2="437.019" xlink:href="#lg1" y1="437.02" y2="74.981"/><radialGradient id="SVGID_2_" cx="256" cy="256" gradientUnits="userSpaceOnUse" r="256"><stop offset="0" stop-color="#6b23ea"/><stop offset=".4299" stop-color="#676bef" stop-opacity=".57"/><stop offset=".8159" stop-color="#64a5f3" stop-opacity=".184"/><stop offset="1" stop-color="#63bcf5" stop-opacity="0"/></radialGradient><linearGradient id="lg2"><stop offset="0" stop-color="#85ffe0"/><stop offset=".2339" stop-color="#9dffe6"/><stop offset=".7251" stop-color="#dafff6"/><stop offset="1" stop-color="#fff"/></linearGradient><linearGradient id="SVGID_3_" gradientUnits="userSpaceOnUse" x1="-400.334" x2="398.721" xlink:href="#lg2" y1="912.334" y2="113.279"/><linearGradient id="SVGID_4_" gradientUnits="userSpaceOnUse" x1="-16.123" x2="454.311" xlink:href="#lg2" y1="531.843" y2="61.409"/><linearGradient id="lg3"><stop offset="0" stop-color="#389fff"/><stop offset=".1209" stop-color="#45affa"/><stop offset=".5726" stop-color="#73e9e7"/><stop offset=".79" stop-color="#85ffe0"/><stop offset=".881" stop-color="#9dffe6"/><stop offset="1" stop-color="#c2fff0"/></linearGradient><linearGradient id="SVGID_5_" gradientUnits="userSpaceOnUse" x1="134.004" x2="502.576" xlink:href="#lg3" y1="377.997" y2="9.425"/><linearGradient id="SVGID_6_" gradientUnits="userSpaceOnUse" x1="2.298" x2="429.724" xlink:href="#lg3" y1="509.702" y2="82.276"/><linearGradient id="SVGID_7_" gradientUnits="userSpaceOnUse" x1="111.879" x2="399.482" xlink:href="#lg3" y1="401.127" y2="113.524"/><linearGradient id="SVGID_8_" gradientUnits="userSpaceOnUse" x1="182.248" x2="346.495" xlink:href="#lg1" y1="329.752" y2="165.506"/><linearGradient id="SVGID_10_" gradientTransform="matrix(0 1 -1 0 474.364 -90.863)" gradientUnits="userSpaceOnUse" x1="644.539" x2="210.832" xlink:href="#lg2" y1="516.039" y2="82.332"/><linearGradient id="SVGID_11_" gradientUnits="userSpaceOnUse" x1="214.637" x2="279.835" xlink:href="#lg2" y1="314.329" y2="249.131"/><linearGradient id="SVGID_12_" gradientUnits="userSpaceOnUse" x1="217.414" x2="294.158" xlink:href="#lg2" y1="294.586" y2="217.843"/><g><circle cx="256" cy="256" fill="url(#SVGID_1_)" r="256"/><circle cx="256" cy="256" fill="url(#SVGID_2_)" r="256"/><circle cx="256" cy="256" fill="url(#SVGID_3_)" r="200.9"/><path d="m271.106 426.126c-108.021-.144-200.878-92.653-200.525-200.236.177-25.589 5.587-50.087 15.108-72.79-19.226 30.391-30.603 65.467-30.589 102.9.561 107.091 93.806 200.34 200.9 200.9 82.259-.033 155.187-55.45 186.205-128.45-36.382 56.939-100.054 97.454-171.099 97.676z" fill="url(#SVGID_4_)"/><path d="m395.4 256c-.187 75.7-63.701 139.212-139.4 139.4-75.7-.187-139.212-63.702-139.4-139.4.187-75.7 63.701-139.212 139.4-139.4 75.698.187 139.214 63.701 139.4 139.4z" fill="url(#SVGID_5_)"/><circle cx="256" cy="256" fill="url(#SVGID_6_)" r="108.65"/><path d="m271.319 333.889c-59.65.018-108.703-48.941-108.54-108.477.039-11.278 1.838-22.161 5.122-32.408-12.888 17.831-20.553 39.554-20.55 62.997.089 59.395 49.255 108.561 108.65 108.65 48.225-.012 89.548-32.5 103.622-76.316-19.843 27.353-52.077 45.502-88.304 45.554z" fill="url(#SVGID_7_)"/><path d="m318.525 256c-.017 34.415-28.11 62.508-62.525 62.525-34.415-.017-62.508-28.11-62.525-62.525.017-34.417 28.11-62.507 62.525-62.525 34.415.018 62.508 28.11 62.525 62.525z" fill="url(#SVGID_8_)"/><path d="m318.525 256c-.017 34.415-28.11 62.508-62.525 62.525-34.415-.017-62.508-28.11-62.525-62.525.017-34.417 28.11-62.507 62.525-62.525 34.415.018 62.508 28.11 62.525 62.525z" fill="url(#SVGID_8_)"/><path d="m417.472 164.348c-.772-37.495-32.324-69.049-69.82-69.82-37.504-.734-67.85 30.167-67.83 68.369.075 38.21 31.07 69.207 69.281 69.281 38.201.022 69.104-30.326 68.369-67.83z" fill="url(#SVGID_10_)"/><path d="m279.062 248.315c-5.125-.001-10.25-.002-15.374-.002v15.375c5.125 0 10.25-.001 15.374-.002 4.246 0 7.689-3.443 7.688-7.685 0-4.243-3.443-7.686-7.688-7.686z" fill="url(#SVGID_11_)"/><path d="m271.375 256c0-4.244-3.442-7.686-7.688-7.687 0-5.125-.001-10.25-.002-15.375-.001-4.245-3.442-7.687-7.685-7.688-4.243.001-7.683 3.441-7.685 7.688-.001 5.125-.002 10.25-.002 15.375-5.125 0-10.25.001-15.374.002-4.246.002-7.688 3.442-7.688 7.685 0 4.24 3.443 7.684 7.688 7.685 5.125.001 10.25.002 15.374.002 0 5.125.001 10.25.002 15.375.001 4.245 3.442 7.689 7.685 7.688 4.243 0 7.684-3.443 7.685-7.688.001-5.125.002-10.25.002-15.375 4.246.001 7.688-3.443 7.688-7.687z" fill="url(#SVGID_12_)"/></g></svg>