<svg id="Layer_1" enable-background="new 0 0 512 512" height="512" viewBox="0 0 512 512" width="512" xmlns="http://www.w3.org/2000/svg" xmlns:xlink="http://www.w3.org/1999/xlink"><linearGradient id="SVGID_1_" gradientUnits="userSpaceOnUse" x1="74.98" x2="437.019" y1="437.02" y2="74.981"><stop offset="0" stop-color="#00aa45"/><stop offset="1" stop-color="#d3ff33"/></linearGradient><radialGradient id="SVGID_2_" cx="256" cy="224.055" gradientUnits="userSpaceOnUse" r="290.973"><stop offset="0" stop-color="#00aa45"/><stop offset=".361" stop-color="#5ecc5d" stop-opacity=".639"/><stop offset=".6699" stop-color="#a7e76f" stop-opacity=".33"/><stop offset=".8897" stop-color="#d5f87b" stop-opacity=".11"/><stop offset="1" stop-color="#e6fe7f" stop-opacity="0"/></radialGradient><linearGradient id="lg1"><stop offset="0" stop-color="#b8ef5c"/><stop offset=".1177" stop-color="#bbf064"/><stop offset=".299" stop-color="#c5f279"/><stop offset=".5213" stop-color="#d4f59d"/><stop offset=".7736" stop-color="#e9facd"/><stop offset="1" stop-color="#fff"/></linearGradient><linearGradient id="SVGID_3_" gradientUnits="userSpaceOnUse" x1="184.53" x2="389.006" xlink:href="#lg1" y1="496.124" y2="291.648"/><linearGradient id="SVGID_4_" gradientUnits="userSpaceOnUse" x1="256" x2="256" y1="434.047" y2="349.485"><stop offset="0" stop-color="#e6fe7f" stop-opacity="0"/><stop offset=".098" stop-color="#e0fc7d" stop-opacity=".098"/><stop offset=".2323" stop-color="#cef579" stop-opacity=".232"/><stop offset=".3874" stop-color="#b1eb72" stop-opacity=".387"/><stop offset=".5583" stop-color="#89dc68" stop-opacity=".558"/><stop offset=".7421" stop-color="#55c95b" stop-opacity=".742"/><stop offset=".9338" stop-color="#17b24b" stop-opacity=".934"/><stop offset="1" stop-color="#00aa45"/></linearGradient><linearGradient id="SVGID_5_" gradientUnits="userSpaceOnUse" x1="122.789" x2="359.637" xlink:href="#lg1" y1="664.904" y2="428.056"/><linearGradient id="SVGID_6_" gradientUnits="userSpaceOnUse" x1="79.824" x2="352.332" xlink:href="#lg1" y1="593.439" y2="320.932"/><linearGradient id="SVGID_7_" gradientUnits="userSpaceOnUse" x1="75.524" x2="409.65" xlink:href="#lg1" y1="389.906" y2="55.781"/><linearGradient id="SVGID_8_" gradientUnits="userSpaceOnUse" x1="-54.309" x2="396.685" xlink:href="#lg1" y1="791.878" y2="340.885"/><linearGradient id="SVGID_9_" gradientUnits="userSpaceOnUse" x1="-64.133" x2="423.91" xlink:href="#lg1" y1="655.712" y2="167.669"/><linearGradient id="lg2"><stop offset="0" stop-color="#008547"/><stop offset=".1212" stop-color="#128f45"/><stop offset=".3647" stop-color="#41aa41"/><stop offset=".7046" stop-color="#8cd63a"/><stop offset="1" stop-color="#d3ff33"/></linearGradient><linearGradient id="SVGID_10_" gradientUnits="userSpaceOnUse" x1="-37.008" x2="609.235" xlink:href="#lg2" y1="377.599" y2="-268.644"/><linearGradient id="SVGID_11_" gradientUnits="userSpaceOnUse" x1="-171.35" x2="864.361" xlink:href="#lg2" y1="806.2" y2="-229.511"/><linearGradient id="SVGID_12_" gradientUnits="userSpaceOnUse" x1="-173.562" x2="872.186" xlink:href="#lg2" y1="667.514" y2="-378.234"/><linearGradient id="SVGID_13_" gradientUnits="userSpaceOnUse" x1="-396.523" x2="875.024" xlink:href="#lg2" y1="739.867" y2="-531.68"/><linearGradient id="SVGID_14_" gradientUnits="userSpaceOnUse" x1="-457.244" x2="806.997" xlink:href="#lg2" y1="1092.731" y2="-171.51"/><linearGradient id="SVGID_15_" gradientUnits="userSpaceOnUse" x1="-427.143" x2="849.524" xlink:href="#lg2" y1="916.696" y2="-359.971"/><linearGradient id="SVGID_16_" gradientUnits="userSpaceOnUse" x1="140.635" x2="487.01" xlink:href="#lg1" y1="245.003" y2="-101.373"/><linearGradient id="SVGID_17_" gradientUnits="userSpaceOnUse" x1="224.91" x2="425.599" xlink:href="#lg1" y1="252.49" y2="51.8"/><linearGradient id="SVGID_18_" gradientUnits="userSpaceOnUse" x1="79.167" x2="272.394" xlink:href="#lg1" y1="270.254" y2="77.028"/><linearGradient id="SVGID_19_" gradientUnits="userSpaceOnUse" x1="138.963" x2="344.275" xlink:href="#lg1" y1="249.518" y2="44.205"/><linearGradient id="lg3"><stop offset="0" stop-color="#5ccd38"/><stop offset=".5" stop-color="#95e12e"/><stop offset=".5494" stop-color="#99e236"/><stop offset=".6255" stop-color="#a4e54b"/><stop offset=".7189" stop-color="#b6ea6f"/><stop offset=".8258" stop-color="#cff1a0"/><stop offset=".9428" stop-color="#eefade"/><stop offset="1" stop-color="#fff"/></linearGradient><linearGradient id="SVGID_20_" gradientUnits="userSpaceOnUse" x1="117.357" x2="455.264" xlink:href="#lg3" y1="349.863" y2="11.956"/><linearGradient id="SVGID_21_" gradientUnits="userSpaceOnUse" x1="3.271" x2="423.075" xlink:href="#lg3" y1="504.151" y2="84.347"/><g><circle cx="256" cy="256" fill="url(#SVGID_1_)" r="256"/><circle cx="256" cy="256" fill="url(#SVGID_2_)" r="256"/><path d="m308.101 404.992c-2.653-8.313-5.328-16.633-8.021-24.961-14.615-10.099-29.317-20.296-44.08-30.547-14.762 10.25-29.465 20.448-44.08 30.547-2.693 8.328-5.368 16.649-8.021 24.961-3.992 12.479-15.373 20.743-28.327 20.438.049 2.549.099 5.098.149 7.647 53.519 1.293 107.038 1.293 160.557 0 .051-2.549.101-5.099.149-7.647-12.953.306-24.333-7.958-28.326-20.438z" fill="url(#SVGID_3_)"/><path d="m308.101 404.992c-2.653-8.313-5.328-16.633-8.021-24.961-14.615-10.099-29.317-20.296-44.08-30.547-14.762 10.25-29.465 20.448-44.08 30.547-2.693 8.328-5.368 16.649-8.021 24.961-3.992 12.479-15.373 20.743-28.327 20.438.049 2.549.099 5.098.149 7.647 53.519 1.293 107.038 1.293 160.557 0 .051-2.549.101-5.099.149-7.647-12.953.306-24.333-7.958-28.326-20.438z" fill="url(#SVGID_4_)"/><path d="m368.928 424.527c-10.038.326-20.076.608-30.114.847-.1 5.097-.205 10.194-.314 15.29 10-.26 20-.566 30-.92 4.14-.148 7.607-3.678 7.733-7.872.128-4.194-3.145-7.481-7.305-7.345z" fill="url(#SVGID_5_)"/><path d="m346.175 432.824c.097-4.216-3.201-7.549-7.361-7.449-65.247 1.553-130.494 1.271-195.741-.847-4.159-.135-7.434 3.151-7.305 7.345.13 4.196 3.592 7.725 7.733 7.872 65 2.3 130 2.606 195 .92 4.14-.111 7.578-3.622 7.674-7.841z" fill="url(#SVGID_6_)"/><path d="m139.896 302.778c-20.373 9.938-40.676 19.708-60.873 29.222.204 10 .444 20 .721 30 .233 8.277 7.252 15.248 15.642 15.535 15.2.51 30.4.949 45.6 1.315-.511-25.357-.875-50.714-1.09-76.072z" fill="url(#SVGID_7_)"/><path d="m372.104 302.778c-.215 25.358-.579 50.715-1.091 76.073 15.2-.365 30.4-.804 45.6-1.315 8.39-.286 15.41-7.258 15.642-15.535.277-10 .517-20 .721-30-20.196-9.514-40.499-19.285-60.872-29.223z" fill="url(#SVGID_8_)"/><path d="m386.541 363.291c.41-20.226.712-40.451.907-60.677-87.632.994-175.264.994-262.896 0 .195 20.226.497 40.451.907 60.677.174 8.372 7.137 15.354 15.528 15.56 76.676 1.845 153.351 1.845 230.026 0 8.391-.207 15.355-7.189 15.528-15.56z" fill="url(#SVGID_9_)"/><path d="m94.939 134.534c-8.413.253-15.425 7.187-15.624 15.466-1.433 60.667-1.53 121.333-.292 182 15.3.365 30.601.682 45.902.952 4.108-66.318 9.49-132.851 15.741-199.563-15.242.319-30.484.701-45.727 1.145z" fill="url(#SVGID_10_)"/><path d="m417.061 134.534c-15.243-.445-30.484-.827-45.727-1.145 6.251 66.712 11.634 133.245 15.741 199.563 15.301-.27 30.601-.588 45.902-.952 1.238-60.667 1.141-121.333-.292-182-.198-8.277-7.21-15.214-15.624-15.466z" fill="url(#SVGID_11_)"/><path d="m371.334 133.389c-76.889-1.607-153.779-1.607-230.667 0-8.415.182-15.377 7.137-15.525 15.509-1.061 61.351-1.133 122.703-.216 184.054 87.383 1.543 174.767 1.543 262.15 0 .917-61.351.845-122.703-.216-184.054-.149-8.371-7.112-15.327-15.526-15.509z" fill="url(#SVGID_12_)"/><path d="m94.591 149.596c-1.201 55.897-1.375 111.794-.521 167.691 10.217.182 20.433.348 30.649.496 20.087-27.851 40.544-56.128 61.079-84.581-20.46-28.389-40.775-56.573-60.656-84.304-10.184.209-20.368.442-30.551.698z" fill="url(#SVGID_13_)"/><path d="m417.409 149.596c-10.184-.257-20.367-.49-30.551-.698-19.88 27.731-40.196 55.915-60.656 84.304 20.535 28.453 40.992 56.73 61.079 84.581 10.217-.148 20.433-.313 30.649-.496.854-55.897.68-111.794-.521-167.691z" fill="url(#SVGID_14_)"/><path d="m125.141 148.898c-.973 56.295-1.115 112.59-.423 168.885 87.521 1.268 175.042 1.268 262.563 0 .692-56.295.551-112.59-.423-168.885-87.239-1.785-174.477-1.785-261.717 0z" fill="url(#SVGID_15_)"/><path d="m158.185 113.621c-1.299 2.271-2.04 4.852-2.085 7.513-.574 34.21-.916 68.42-1.025 102.63-.009 2.663.69 5.225 1.958 7.467 37.109-.094 74.218-.135 111.327-.123-.01-39.497-.058-78.995-.144-118.492-36.676-.095-73.354.24-110.031 1.005z" fill="url(#SVGID_16_)"/><path d="m353.815 113.621c-32.605-.68-65.21-1.02-97.815-1.02v118.506c32.989 0 65.977.042 98.966.125 1.27-2.243 1.966-4.804 1.958-7.467-.108-34.21-.45-68.42-1.025-102.63-.041-2.664-.786-5.242-2.084-7.514z" fill="url(#SVGID_17_)"/><path d="m256 53.531c-2.667-.001-5.332.724-7.708 2.185-27.883 17.143-56.124 34.631-84.578 52.172-2.329 1.435-4.219 3.428-5.533 5.73 32.265 18.922 64.947 38.483 97.82 58.236 12.316-20.146 24.561-40.265 36.643-60.293-12.342-19.371-24.583-38.735-36.644-58.03z" fill="url(#SVGID_18_)"/><path d="m353.82 113.618c-1.314-2.305-3.205-4.294-5.533-5.73-22.797-14.054-45.457-28.073-67.906-41.909-5.571-3.433-11.129-6.855-16.672-10.264-2.375-1.46-5.043-2.192-7.708-2.192v118.331c32.873-19.752 65.554-39.314 97.819-58.236z" fill="url(#SVGID_19_)"/><path d="m256 171.854c-32.874 19.752-65.939 39.695-98.971 59.38 1.288 2.276 3.158 4.221 5.493 5.607 22.837 13.554 45.722 27.257 68.579 40.959 5.672 3.401 11.343 6.801 17.01 10.199 2.43 1.457 5.158 2.18 7.888 2.177 12.348-19.295 24.736-38.605 37.083-57.869-12.375-20.135-24.765-40.308-37.082-60.453z" fill="url(#SVGID_20_)"/><path d="m256 171.854v118.331c2.729-.001 5.46-.729 7.888-2.185 26.608-15.953 53.279-31.957 79.894-47.776 1.899-1.129 3.797-2.256 5.694-3.382 2.334-1.385 4.209-3.333 5.494-5.607-33.031-19.687-66.096-39.629-98.97-59.381z" fill="url(#SVGID_21_)"/></g></svg>